G04 ================== begin FILE IDENTIFICATION RECORD ==================*
G04 Layout Name:  LAUNCHXL-CC1350-433.brd*
G04 Film Name:    LAUNCHXL-CC1350-4-A_LAYER3*
G04 File Format:  Gerber RS274X*
G04 File Origin:  Cadence Allegro 16.6-2015-S068*
G04 Origin Date:  Mon Jan 23 14:11:49 2017*
G04 *
G04 Layer:  DRAWING FORMAT/TITLE_DATA*
G04 Layer:  DRAWING FORMAT/TITLE_BLOCK*
G04 Layer:  BOARD GEOMETRY/OUTLINE*
G04 Layer:  ETCH/L3*
G04 Layer:  PIN/L3*
G04 Layer:  VIA CLASS/L3*
G04 *
G04 Offset:    (0.0 0.0)*
G04 Mirror:    No*
G04 Mode:      Positive*
G04 Rotation:  0*
G04 FullContactRelief:  No*
G04 UndefLineWidth:     1.0*
G04 ================== end FILE IDENTIFICATION RECORD ====================*
%FSLAX25Y25*MOIN*%
%IR0*IPPOS*OFA0.00000B0.00000*MIA0B0*SFA1.00000B1.00000*%
%ADD16C,.15*%
%ADD10C,.004*%
%ADD14C,.02*%
%ADD11C,.031*%
%ADD12C,.016*%
%ADD17O,.055X.083*%
%ADD13C,.065*%
%ADD15C,.067*%
%ADD18C,.006*%
%ADD19C,.008*%
%ADD20C,.0085*%
%ADD21C,.01*%
%ADD22C,.012*%
%ADD23C,.001*%
%ADD24C,.015*%
%ADD27C,.0514*%
%ADD28C,.0284*%
%ADD29C,.0474*%
%ADD25C,.0774*%
%ADD26C,.0794*%
G75*
%LPD*%
G75*
G36*
G01X1013910Y1147980D02*
X1014150Y1148060D01*
X1015010Y1147810D01*
G02X1015300Y1147420I-111J-385D01*
G01Y1012200D01*
G02X1012730Y1002910I-17739J-93D01*
G02X1011440Y1001130I-14985J9503D01*
G03X1007950Y994830I17333J-13719D01*
G02X1007540Y994570I-376J139D01*
G03X1006530Y990000I-143J-2365D01*
G02X1006780Y989590I-149J-372D01*
G03X1006730Y985790I21992J-2190D01*
G02X1006480Y985390I-399J-28D01*
G03X1007380Y980820I904J-2196D01*
G01X1007750Y980550D01*
G03X1011440Y973680I21016J6862D01*
G02X1015300Y962600I-13870J-11044D01*
G01Y824610D01*
G02X1015010Y824230I-394J0D01*
G01X991970D01*
Y804800D01*
G02X991700Y804530I-380J110D01*
G01X966970D01*
Y776270D01*
X991700D01*
G02X991970Y776000I-110J-380D01*
G01Y756470D01*
X1015010D01*
G02X1015300Y756090I-104J-380D01*
G01Y752400D01*
G02X1014900Y752000I-400J0D01*
G01X896180D01*
G02X895890Y752120I-4J400D01*
G01X893920Y754090D01*
G03X893630Y754210I-286J-280D01*
G01X884670D01*
G02X884380Y754330I-4J400D01*
G01X884320Y754390D01*
G03X884030Y754510I-286J-280D01*
G01X791070D01*
G03X790780Y754390I-4J-400D01*
G01X790080Y753690D01*
G02X789640Y753600I-286J280D01*
G01X789530Y753650D01*
X789400Y753840D01*
Y758190D01*
G02X789690Y758570I394J0D01*
G01X813130D01*
Y777000D01*
G02X813400Y777270I380J-110D01*
G01X838130D01*
Y805530D01*
X813400D01*
G02X813130Y805800I110J380D01*
G01Y824230D01*
X789690D01*
G02X789400Y824610I104J380D01*
G01Y962600D01*
G02X793260Y973680I17741J32D01*
G03X796900Y980390I-17311J13733D01*
G02X797340Y980660I381J-127D01*
G03X798270Y985300I352J2343D01*
G02X797970Y985720I99J388D01*
G03X797950Y989270I-22029J1651D01*
G02X798260Y989700I401J38D01*
G03X797280Y994330I-563J2300D01*
G02X796830Y994600I-68J396D01*
G03X793260Y1001120I-20889J-7200D01*
G02X792070Y1002900I14107J10719D01*
G02X789400Y1012200I15054J9355D01*
G01Y1042260D01*
G02X789650Y1042630I399J0D01*
G01X789760Y1042680D01*
X789990Y1042630D01*
X800260Y1032360D01*
G03X801400Y1031890I1140J1148D01*
G01X802960D01*
G02X803250Y1031770I4J-400D01*
G01X815610Y1019410D01*
G03X815900Y1019290I286J280D01*
G01X833260D01*
G02X833550Y1019170I4J-400D01*
G01X838790Y1013870D01*
X838840Y1013660D01*
X838800Y1013550D01*
G03X840320Y1009200I3698J-1148D01*
G02X840470Y1008980I-235J-322D01*
G01Y1005820D01*
G02X840320Y1005600I-385J102D01*
G03Y999200I2180J-3200D01*
G02X840470Y998980I-235J-322D01*
G01Y997370D01*
X840890D01*
Y990240D01*
G02X840770Y989950I-400J-4D01*
G01X822850Y972030D01*
G02X822560Y971910I-286J280D01*
G01X808000D01*
G03X807710Y971790I-4J-400D01*
G01X799410Y963490D01*
G03X799290Y963200I280J-286D01*
G01Y835600D01*
G03X799410Y835310I400J-4D01*
G01X803910Y830810D01*
G03X804200Y830690I286J280D01*
G01X808290D01*
X808430Y830750D01*
X808470Y830790D01*
X808830D01*
X809180Y830580D01*
G03Y834220I3420J1820D01*
G01X808830Y834010D01*
X807210D01*
X807070Y833950D01*
X807030Y833910D01*
X805540D01*
G02X805250Y834030I-4J400D01*
G01X802630Y836650D01*
G02X802510Y836940I280J286D01*
G01Y961860D01*
G02X802630Y962150I400J4D01*
G01X809050Y968570D01*
G02X809340Y968690I286J-280D01*
G01X820490D01*
G02X820890Y968290I0J-400D01*
G01Y966170D01*
X820680Y965820D01*
G03X824320I1820J-3420D01*
G01X824110Y966170D01*
Y968560D01*
G02X824230Y968850I400J4D01*
G01X843990Y988610D01*
G03X844110Y988900I-280J286D01*
G01Y996990D01*
G02X844400Y997370I394J0D01*
G01X850600D01*
G02X850890Y996990I-104J-380D01*
G01Y975610D01*
G02X850490Y975210I-400J0D01*
G01X833600D01*
G03Y971990I0J-1610D01*
G01X892090D01*
G02X892490Y971590I0J-400D01*
G01Y880900D01*
G03X895710I1610J0D01*
G01Y971590D01*
G02X896110Y971990I400J0D01*
G01X974500D01*
G02X974850Y971770I-7J-399D01*
G01X975230Y971040D01*
X975210Y970820D01*
X975140Y970730D01*
G03X975200Y969000I1158J-826D01*
G02X975290Y968750I-310J-253D01*
G01Y967850D01*
G03X975410Y967560I400J-4D01*
G01X975870Y967100D01*
G02X975990Y966810I-280J-286D01*
G01Y949900D01*
G02X975740Y949530I-399J0D01*
G01X975630Y949480D01*
X975400Y949530D01*
X975120Y949810D01*
G02X975010Y950030I286J280D01*
G01Y950040D01*
G03X973450Y948490I-1410J-141D01*
G01X973470D01*
G02X973690Y948380I-60J-396D01*
G01X974370Y947700D01*
G02X974490Y947410I-280J-286D01*
G01Y921000D01*
G02X974240Y920630I-399J0D01*
G01X974130Y920580D01*
X973900Y920630D01*
X971930Y922600D01*
G02X971810Y922890I280J286D01*
G01Y945150D01*
X971900Y945400D01*
G03X970490Y947680I-1100J896D01*
G01X970480D01*
G02X970150Y947760I-80J391D01*
G01X969660Y948150D01*
G02X969510Y948460I250J312D01*
G01Y961150D01*
G03X969390Y961440I-400J4D01*
G01X968720Y962110D01*
G02X968610Y962330I286J280D01*
G01Y962340D01*
G03X967050Y960790I-1410J-141D01*
G01X967070D01*
G02X967290Y960680I-60J-396D01*
G01X967370Y960600D01*
G02X967490Y960310I-280J-286D01*
G01Y939480D01*
G02X967300Y939140I-401J1D01*
G01X966720Y938790D01*
G02X966510Y938730I-210J339D01*
G01X966330Y938770D01*
G03X964600Y936600I-630J-1272D01*
G01X964690Y936350D01*
Y898340D01*
G02X964530Y898020I-400J0D01*
G01X964030Y897640D01*
G02X963680Y897570I-245J316D01*
G03X962200Y895300I-381J-1369D01*
G02X962290Y895050I-310J-253D01*
G01Y855750D01*
G03X962410Y855460I400J-4D01*
G01X968370Y849500D01*
G02X968490Y849210I-280J-286D01*
G01Y840650D01*
G02X968400Y840400I-400J3D01*
G03Y838600I1100J-900D01*
G02X968490Y838350I-310J-253D01*
G01Y837450D01*
G03X968610Y837160I400J-4D01*
G01X968670Y837100D01*
X968720Y836870D01*
X968670Y836760D01*
G02X968300Y836510I-370J149D01*
G01X963650D01*
X963400Y836600D01*
G03X961870Y836770I-897J-1101D01*
G01X961690Y836730D01*
G02X961480Y836790I0J399D01*
G01X960900Y837140D01*
G02X960710Y837480I211J341D01*
G01Y876350D01*
X960800Y876600D01*
G03X959070Y878770I-1100J898D01*
G01X958890Y878730D01*
G02X958680Y878790I0J399D01*
G01X958100Y879140D01*
G02X957910Y879480I211J341D01*
G01Y906150D01*
G02X958000Y906400I400J-3D01*
G03X956460Y908650I-1099J900D01*
G01X956450D01*
G02X956100Y908710I-115J381D01*
G01X955570Y909090D01*
G02X955410Y909410I241J320D01*
G01Y924850D01*
G02X955500Y925100I400J-3D01*
G03X953300I-1100J900D01*
G02X953390Y924850I-310J-253D01*
G01Y865700D01*
G02X953140Y865330I-399J0D01*
G01X953030Y865280D01*
X952800Y865330D01*
X949030Y869100D01*
G02X948910Y869390I280J286D01*
G01Y910670D01*
G02X949140Y911030I400J-2D01*
G01X949780Y911340D01*
G02X950210Y911290I176J-359D01*
G03X951250Y913810I889J1108D01*
G01X951230D01*
G02X951010Y913920I60J396D01*
G01X950730Y914200D01*
G02X950610Y914490I280J286D01*
G01Y961450D01*
G02X950700Y961700I400J-3D01*
G03X948500I-1100J900D01*
G02X948590Y961450I-310J-253D01*
G01Y936600D01*
G02X948340Y936230I-399J0D01*
G01X948230Y936180D01*
X948000Y936230D01*
X947020Y937210D01*
G02X946910Y937430I286J280D01*
G01Y937440D01*
G03X944870Y938570I-1411J-141D01*
G01X944690Y938530D01*
G02X944480Y938590I0J399D01*
G01X943900Y938940D01*
G02X943710Y939280I211J341D01*
G01Y948610D01*
G02X943830Y948900I400J4D01*
G01X945810Y950880D01*
G02X946030Y950990I280J-286D01*
G01X946040D01*
G03X944490Y952550I-141J1410D01*
G01Y952530D01*
G02X944380Y952310I-396J60D01*
G01X942390Y950320D01*
G02X941950Y950230I-286J280D01*
G01X941840Y950280D01*
X941710Y950470D01*
Y954850D01*
G02X941800Y955100I400J-3D01*
G03X940190Y957330I-1097J904D01*
G01X940100Y957290D01*
X939910Y957310D01*
X939280Y957740D01*
G02X939110Y958070I231J328D01*
G01Y958320D01*
X939150Y958440D01*
X939200Y958500D01*
G03X937470Y960670I-1100J898D01*
G01X937290Y960630D01*
G02X937080Y960690I0J399D01*
G01X936500Y961040D01*
G02X936310Y961380I211J341D01*
G01Y961750D01*
G02X936400Y962000I400J-3D01*
G03X934200I-1100J900D01*
G02X934290Y961750I-310J-253D01*
G01Y960300D01*
G02X934040Y959930I-399J0D01*
G01X933930Y959880D01*
X933700Y959930D01*
X932230Y961400D01*
G02X932110Y961690I280J286D01*
G01Y965510D01*
G02X932230Y965800I400J4D01*
G01X932710Y966280D01*
G02X932930Y966390I280J-286D01*
G01X932940D01*
G03X931390Y967950I-141J1410D01*
G01Y967930D01*
G02X931280Y967710I-396J60D01*
G01X930790Y967220D01*
G02X930350Y967130I-286J280D01*
G01X930240Y967180D01*
X930110Y967370D01*
Y968150D01*
X930200Y968400D01*
G03X927680Y969200I-1102J898D01*
G01X927690Y969100D01*
X927610Y968920D01*
X927030Y968450D01*
G02X926680Y968370I-254J307D01*
G01X926670D01*
G03X925200Y966100I-371J-1371D01*
G02X925290Y965850I-310J-253D01*
G01Y949050D01*
G03X925410Y948760I400J-4D01*
G01X926570Y947600D01*
G02X926690Y947310I-280J-286D01*
G01Y934380D01*
G02X926480Y934030I-398J1D01*
G01X925760Y933630D01*
X925560Y933640D01*
X925460Y933700D01*
G03X923290Y932650I-758J-1200D01*
G01Y932630D01*
X923280Y932560D01*
X923230Y932460D01*
X921690Y930920D01*
G02X921250Y930830I-286J280D01*
G01X921140Y930880D01*
X921010Y931070D01*
Y940310D01*
G02X921130Y940600I400J4D01*
G01X921410Y940880D01*
G02X921630Y940990I280J-286D01*
G01X921640D01*
G03X920090Y942550I-141J1410D01*
G01Y942530D01*
G02X919980Y942310I-396J60D01*
G01X919110Y941440D01*
G03X918990Y941150I280J-286D01*
G01Y889530D01*
G02X918810Y889200I-400J4D01*
G01X918160Y888770D01*
X917970Y888760D01*
X917870Y888800D01*
G03X916790Y888830I-577J-1299D01*
G01X916700Y888790D01*
X916510Y888810D01*
X915880Y889240D01*
G02X915710Y889570I231J328D01*
G01Y915350D01*
G03X915590Y915640I-400J4D01*
G01X913920Y917310D01*
G02X913810Y917530I286J280D01*
G01Y917540D01*
G03X912250Y915990I-1410J-141D01*
G01X912270D01*
G02X912490Y915880I-60J-396D01*
G01X913570Y914800D01*
G02X913690Y914510I-280J-286D01*
G01Y879940D01*
G02X913540Y879620I-401J-7D01*
G01X912960Y879170D01*
X912780Y879140D01*
X912690Y879160D01*
G03X912300Y879210I-398J-1559D01*
G01X909400D01*
G03X909110Y879090I-4J-400D01*
G01X908850Y878830D01*
G02X908560Y878710I-286J280D01*
G01X898400D01*
G03X898110Y878590I-4J-400D01*
G01X896350Y876830D01*
G02X896060Y876710I-286J280D01*
G01X892700D01*
G03X892410Y876590I-4J-400D01*
G01X889710Y873890D01*
G03X889590Y873600I280J-286D01*
G01Y833700D01*
G03X889710Y833410I400J-4D01*
G01X894270Y828850D01*
G02X894390Y828560I-280J-286D01*
G01Y826800D01*
G03X897030Y825560I1611J0D01*
G01X897290Y825660D01*
G02X897430Y825630I-13J-400D01*
G01X897630Y825550D01*
G02X897890Y825180I-140J-375D01*
G01Y825100D01*
X897830Y824960D01*
X889700Y816830D01*
G02X889410Y816710I-286J280D01*
G01X881850D01*
G02X881600Y816800I3J400D01*
G03Y814600I-900J-1100D01*
G02X881850Y814690I253J-310D01*
G01X888330D01*
G02X888660Y814520I2J-401D01*
G01X889090Y813890D01*
X889110Y813700D01*
X889070Y813610D01*
G03X890250Y811690I1327J-507D01*
G01X890270D01*
X890340Y811680D01*
X890440Y811630D01*
X894460Y807610D01*
G03X894750Y807490I286J280D01*
G01X900350D01*
X900410Y807470D01*
G03X899770Y809670I488J1335D01*
G01X899450Y809510D01*
X895590D01*
G02X895300Y809630I-4J400D01*
G01X891920Y813010D01*
G02X891810Y813230I286J280D01*
G01Y813240D01*
G03X891250Y814230I-1410J-144D01*
G01X891180Y814280D01*
X891100Y814430D01*
X891050Y815130D01*
G02X891170Y815440I400J23D01*
G01X896810Y821080D01*
G02X897250Y821170I286J-280D01*
G01X897360Y821120D01*
X897490Y820930D01*
Y819650D01*
X897400Y819400D01*
G03X899600I1100J-899D01*
G01X899550Y819460D01*
X899510Y819580D01*
Y819900D01*
X899570Y820040D01*
X899620Y820090D01*
X908690D01*
G02X909010Y819930I0J-401D01*
G01X909390Y819400D01*
G02X909450Y819050I-321J-235D01*
G01Y819040D01*
G03X911900Y819500I1351J-439D01*
G02X911810Y819750I310J253D01*
G01Y820650D01*
G03X911690Y820940I-400J4D01*
G01X910640Y821990D01*
G03X910350Y822110I-286J-280D01*
G01X898800D01*
G02X898430Y822360I0J399D01*
G01X898380Y822470D01*
X898430Y822700D01*
X899790Y824060D01*
G03X899910Y824350I-280J286D01*
G01Y839180D01*
X899930Y839270D01*
X899960Y839320D01*
G03X899760Y840760I-1060J587D01*
G01X898930Y841580D01*
G02X898810Y841870I280J286D01*
G01Y859790D01*
G02X899210Y860190I400J0D01*
G01X926560D01*
G02X926850Y860070I4J-400D01*
G01X930070Y856850D01*
G02X930190Y856560I-280J-286D01*
G01Y830900D01*
G03X933410I1610J0D01*
G01Y852290D01*
G02X933810Y852690I400J0D01*
G01X934900D01*
G03Y855910I0J1610D01*
G01X933810D01*
G02X933410Y856310I0J400D01*
G01Y857900D01*
G03X933290Y858190I-400J4D01*
G01X928190Y863290D01*
G03X927900Y863410I-286J-280D01*
G01X899210D01*
G02X898810Y863810I0J400D01*
G01Y865100D01*
G03X898690Y865390I-400J4D01*
G01X898670Y865410D01*
X898610Y865550D01*
Y867200D01*
G03X895390I-1610J0D01*
G01Y864300D01*
G03X895510Y864010I400J-4D01*
G01X895530Y863990D01*
X895590Y863850D01*
Y841600D01*
G03X896970Y840010I1606J0D01*
G01X897040Y840000D01*
X897140Y839950D01*
X897770Y839320D01*
G02X897890Y839030I-280J-286D01*
G01Y830750D01*
G02X897640Y830380I-399J0D01*
G01X897530Y830330D01*
X897300Y830380D01*
X893170Y834510D01*
G02X893080Y834950I280J286D01*
G01X893130Y835060D01*
X893320Y835190D01*
X893800D01*
G03Y838410I0J1610D01*
G01X893210D01*
G02X892810Y838810I0J400D01*
G01Y872260D01*
G02X892930Y872550I400J4D01*
G01X893750Y873370D01*
G02X894040Y873490I286J-280D01*
G01X897400D01*
G03X897690Y873610I4J400D01*
G01X899450Y875370D01*
G02X899740Y875490I286J-280D01*
G01X909900D01*
G03X910190Y875610I4J400D01*
G01X910450Y875870D01*
G02X910740Y875990I286J-280D01*
G01X912300D01*
G03X912690Y876040I-8J1609D01*
G01X912780Y876060D01*
X912960Y876030D01*
X913540Y875580D01*
G02X913690Y875260I-251J-313D01*
G01Y869350D01*
G02X913600Y869100I-400J3D01*
G03X915800I1100J-900D01*
G02X915710Y869350I310J253D01*
G01Y869370D01*
G02X915940Y869730I401J-2D01*
G01X916150Y869830D01*
G02X916320Y869870I175J-361D01*
G01X916540Y869800D01*
G03X918400Y871900I760J1201D01*
G01X918310Y872150D01*
Y873270D01*
G02X918490Y873600I400J-4D01*
G01X919140Y874030D01*
X919330Y874040D01*
X919430Y874000D01*
G03X920850Y874160I573J1300D01*
G02X921090Y874240I240J-320D01*
G01X921260D01*
X921490Y874010D01*
Y873250D01*
G02X921400Y873000I-400J3D01*
G03X922240Y870700I1099J-902D01*
G01X922310Y870690D01*
X922440Y870620D01*
X922810Y870110D01*
G02X922890Y869870I-319J-240D01*
G01Y869840D01*
G03X925400Y870600I1412J-140D01*
G01X925350Y870660D01*
X925310Y870780D01*
Y870890D01*
X925430Y871080D01*
X925750Y871230D01*
G02X926140Y871200I168J-363D01*
G03X927150Y871000I762J1199D01*
G01X927240Y871020D01*
X927400Y870970D01*
X927950Y870520D01*
G02X928090Y870210I-261J-304D01*
G01Y867950D01*
X928000Y867700D01*
G03X929730Y865530I1100J-898D01*
G01X929740D01*
G02X930010Y865560I176J-356D01*
G01X930590Y865420D01*
X930700Y865340D01*
X930740Y865280D01*
G03X933000Y867000I1157J825D01*
G01X932910Y867250D01*
Y891350D01*
G02X933000Y891600I400J-3D01*
G03Y893400I-1100J900D01*
G02X932910Y893650I310J253D01*
G01Y896310D01*
G02X933030Y896600I400J4D01*
G01X933910Y897480D01*
G02X934350Y897570I286J-280D01*
G01X934460Y897520D01*
X934590Y897330D01*
Y866550D01*
G02X934500Y866300I-400J3D01*
G03X936110Y864070I1097J-904D01*
G01X936200Y864110D01*
X936390Y864090D01*
X937020Y863660D01*
G02X937190Y863330I-231J-328D01*
G01Y861150D01*
G03X937310Y860860I400J-4D01*
G01X940770Y857400D01*
G02X940890Y857110I-280J-286D01*
G01Y830950D01*
G02X940800Y830700I-400J3D01*
G03X942140Y828400I1099J-900D01*
G02X942400Y828360I72J-394D01*
G01X942620Y828230D01*
G02X942800Y828040I-185J-355D01*
G03X944420Y827220I1302J561D01*
G01X944430D01*
G02X944680Y827190I80J-391D01*
G01X945130Y826970D01*
X945320Y826780D01*
G03X947190Y826110I1277J621D01*
G01X947260Y826140D01*
X947390Y826150D01*
X947940Y826010D01*
G02X948150Y825860I-116J-384D01*
G01X948160Y825850D01*
G03X949680Y825330I1140J849D01*
G01X949740Y825350D01*
X949870Y825340D01*
X950380Y825140D01*
X950580Y824970D01*
G03X952200Y824340I1217J731D01*
G01X952310Y824350D01*
G02X952470Y824320I8J-397D01*
G01X952940Y824120D01*
G02X953140Y823950I-145J-373D01*
G01Y823940D01*
G03X954660Y823210I1254J664D01*
G01X954680D01*
X954750Y823220D01*
X954860Y823200D01*
X955460Y822870D01*
X955540Y822770D01*
X955570Y822700D01*
G03X958180Y822580I1331J499D01*
G02X958390Y822780I363J-171D01*
G01X958900Y822980D01*
G02X959180I140J-375D01*
G01X959190D01*
G03X960800Y825200I510J1324D01*
G01X960710Y825450D01*
Y833520D01*
G02X960900Y833860I401J-1D01*
G01X961480Y834210D01*
G02X961690Y834270I210J-339D01*
G01X961870Y834230D01*
G03X963400Y834400I633J1271D01*
G01X963650Y834490D01*
X968310D01*
G02X968600Y834370I4J-400D01*
G01X968780Y834190D01*
G02Y833630I-286J-280D01*
G01X968740Y833590D01*
G03X968490Y831230I959J-1295D01*
G01X968590Y830970D01*
Y822040D01*
X968490Y821780D01*
G03X970910I1210J-1080D01*
G01X970810Y822040D01*
Y830290D01*
G02X971210Y830690I400J0D01*
G01X972890D01*
X973030Y830750D01*
X973070Y830790D01*
X988730D01*
X989080Y830580D01*
G03X996180Y831210I3417J1819D01*
G02X996560Y831490I382J-120D01*
G01X1001700D01*
G03X1001990Y831610I4J400D01*
G01X1004790Y834410D01*
G03X1004910Y834700I-280J286D01*
G01Y869260D01*
G02X1005030Y869550I400J4D01*
G01X1008190Y872710D01*
G03X1008310Y873000I-280J286D01*
G01Y967400D01*
G03X1008190Y967690I-400J4D01*
G01X1000790Y975090D01*
G03X1000500Y975210I-286J-280D01*
G01X985910D01*
G02X985510Y975610I0J400D01*
G01Y998630D01*
X985720Y998980D01*
G03X982080I-1820J3420D01*
G01X982290Y998630D01*
Y975610D01*
G02X981890Y975210I-400J0D01*
G01X945310D01*
G02X944910Y975610I0J400D01*
G01Y985430D01*
G03X944790Y985720I-400J4D01*
G01X942020Y988490D01*
G03X941730Y988610I-286J-280D01*
G01X934700D01*
X934610Y988630D01*
X934560Y988660D01*
G03X932490Y987600I-662J-1259D01*
G01X932480Y987530D01*
X932410Y987400D01*
X931880Y986960D01*
X931740Y986920D01*
X931670D01*
G03X930190Y985650I-68J-1418D01*
G01Y985630D01*
X930180Y985560D01*
X930130Y985460D01*
X927990Y983320D01*
G02X927550Y983230I-286J280D01*
G01X927440Y983280D01*
X927310Y983470D01*
Y991190D01*
G02X927470Y991510I401J0D01*
G01X928000Y991890D01*
G02X928350Y991950I235J-321D01*
G01X928360D01*
G03X929700Y992200I441J1350D01*
G01X929950Y992290D01*
X942950D01*
G02X943200Y992200I-3J-400D01*
G03Y994400I900J1100D01*
G02X942950Y994310I-253J310D01*
G01X935150D01*
G02X934750Y994710I0J400D01*
G01Y994720D01*
G02X934920Y995040I400J-7D01*
G03X935000Y995100I-812J1166D01*
G01X935250Y995190D01*
X938250D01*
G03X938540Y995310I4J400D01*
G01X939710Y996480D01*
G02X939930Y996590I280J-286D01*
G01X939940D01*
G03X938390Y998150I-141J1410D01*
G01Y998130D01*
G02X938280Y997910I-396J60D01*
G01X937700Y997330D01*
G02X937410Y997210I-286J280D01*
G01X936710D01*
G02X936330Y997500I0J394D01*
G01Y1001790D01*
G03Y1003010I-3830J610D01*
G01Y1006400D01*
G02X936710Y1006690I380J-104D01*
G01X945750D01*
G02X946040Y1006570I4J-400D01*
G01X947300Y1005310D01*
G03X947590Y1005190I286J280D01*
G01X948140D01*
X948410Y1005080D01*
G03X948600Y1007270I990J1017D01*
G01X948390Y1007210D01*
G02X948360I-15J399D01*
G01X948120D01*
G02X947850Y1007330I17J401D01*
G01X946940Y1008240D01*
G03X946260Y1008510I-647J-638D01*
G02X946240I-10J400D01*
G01X936710D01*
G02X936330Y1008800I0J394D01*
G01Y1011790D01*
G03Y1013010I-3830J610D01*
G01Y1015600D01*
G02X936710Y1015890I380J-104D01*
G01X942210D01*
G03X942500Y1016010I4J400D01*
G01X949590Y1023100D01*
G03X949710Y1023390I-280J286D01*
G01Y1025940D01*
X949820Y1026210D01*
G03X947780I-1020J990D01*
G01X947890Y1025940D01*
Y1024150D01*
G02X947770Y1023860I-400J-4D01*
G01X941740Y1017830D01*
G02X941450Y1017710I-286J280D01*
G01X938060D01*
G02X937690Y1017960I0J399D01*
G01X937640Y1018070D01*
X937690Y1018300D01*
X943560Y1024170D01*
G02X943850Y1024290I286J-280D01*
G01X944440D01*
X944710Y1024180D01*
G03X947100Y1024940I992J1018D01*
G01X947130Y1025140D01*
G03Y1025260I-395J60D01*
G01X947100Y1025460D01*
G03X944710Y1026220I-1398J-258D01*
G01X944440Y1026110D01*
X943090D01*
G03X942800Y1025990I-4J-400D01*
G01X936340Y1019530D01*
G02X936050Y1019410I-286J280D01*
G01X932860D01*
G02X932550Y1019560I2J400D01*
G01X932160Y1020050D01*
G02X932080Y1020380I311J250D01*
G01Y1020390D01*
G03Y1021040I-1380J325D01*
G01X932060Y1021120D01*
X932080Y1021270D01*
X932480Y1021900D01*
X932620Y1022000D01*
X932690Y1022010D01*
G03X932430Y1024820I-290J1390D01*
G02X932140Y1024940I-4J400D01*
G01X931500Y1025590D01*
G03X931210Y1025710I-286J-280D01*
G01X909050D01*
G02X908760Y1025830I-4J400D01*
G01X908100Y1026490D01*
G03X907810Y1026610I-286J-280D01*
G01X907610Y1026810D01*
Y1032110D01*
G03X907490Y1032400I-400J4D01*
G01X893800Y1046090D01*
G03X893510Y1046210I-286J-280D01*
G01X886700D01*
X886560Y1046150D01*
X886520Y1046110D01*
X884150D01*
G02X883860Y1046230I-4J400D01*
G01X881930Y1048160D01*
G02X881810Y1048450I280J286D01*
G01Y1139310D01*
G03X881690Y1139600I-400J4D01*
G01X877600Y1143690D01*
G03X877310Y1143810I-286J-280D01*
G01X855560D01*
X855290Y1143920D01*
G03Y1141880I-990J-1020D01*
G01X855560Y1141990D01*
X876550D01*
G02X876840Y1141870I4J-400D01*
G01X879870Y1138840D01*
G02X879990Y1138550I-280J-286D01*
G01Y1047410D01*
G02X879590Y1047010I-400J0D01*
G01X878460D01*
X878190Y1047120D01*
G03X875790Y1045910I-992J-1018D01*
G01X875800Y1045830D01*
X875750Y1045660D01*
X875300Y1045140D01*
G02X875000Y1045010I-296J271D01*
G01X870160D01*
X869890Y1045120D01*
G03X869050Y1045510I-985J-1022D01*
G01X868720Y1045770D01*
X868470Y1046450D01*
G02X868570Y1046870I379J132D01*
G01X878790Y1057130D01*
G03X878910Y1057420I-280J286D01*
G01Y1111090D01*
G03X878790Y1111370I-400J-6D01*
G01X870880Y1119390D01*
G03X870590Y1119510I-286J-280D01*
G01X854110D01*
G02X853710Y1119910I0J400D01*
G01Y1122740D01*
X853820Y1123010D01*
G03X851780I-1020J990D01*
G01X851890Y1122740D01*
Y1119910D01*
G02X851490Y1119510I-400J0D01*
G01X802840D01*
G02X802520Y1119670I0J400D01*
G01X802140Y1120170D01*
G02X802070Y1120520I316J245D01*
G03X802120Y1120960I-1370J378D01*
G01Y1121040D01*
X802170Y1121190D01*
X802630Y1121670D01*
G02X802920Y1121790I286J-281D01*
G01X803400D01*
G03X803690Y1121910I4J400D01*
G01X805630Y1123850D01*
G02X806010Y1123960I287J-279D01*
G01X806760Y1123790D01*
X806920Y1123650D01*
X806950Y1123550D01*
G03X809290Y1122980I1349J449D01*
G01X809560Y1123090D01*
X813040D01*
X813310Y1122980D01*
G03X815720Y1123990I990J1019D01*
G02X815840Y1124280I400J4D01*
G01X816230Y1124670D01*
G02X816520Y1124790I286J-280D01*
G01X821380D01*
G02X821670Y1124670I4J-400D01*
G01X822030Y1124310D01*
G03X822320Y1124190I286J280D01*
G01X843780D01*
G03X844070Y1124310I4J400D01*
G01X846590Y1126830D01*
G03X846710Y1127120I-280J286D01*
G01Y1128140D01*
G02Y1128180I400J20D01*
G03Y1128420I-1410J120D01*
G02Y1128460I400J20D01*
G01Y1131580D01*
G03X846590Y1131870I-400J4D01*
G01X836570Y1141790D01*
G03X836290Y1141910I-286J-280D01*
G01X827910D01*
G03X827630Y1141790I6J-400D01*
G01X818010Y1132270D01*
G03X817890Y1131980I280J-286D01*
G01Y1128410D01*
G02X817490Y1128010I-400J0D01*
G01X805400D01*
G03X805110Y1127890I-4J-400D01*
G01X802350Y1125130D01*
G02X802060Y1125010I-286J280D01*
G01X797910D01*
G02X797620Y1125140I5J400D01*
G01X797220Y1125580D01*
G02X797110Y1125870I287J275D01*
G01Y1125880D01*
G03X794340Y1125610I-1411J129D01*
G01Y1125600D01*
G02X794240Y1125220I-386J-102D01*
G01X790080Y1121060D01*
G02X789640Y1120970I-286J280D01*
G01X789530Y1121020D01*
X789400Y1121210D01*
Y1146870D01*
G02X789670Y1147250I399J2D01*
G01X790390Y1147500D01*
G02X790520Y1147520I125J-380D01*
G01X790830Y1147370D01*
G03X802000Y1158950I6374J5029D01*
G01X801980D01*
Y1158960D01*
G02X801850Y1159400I248J312D01*
G01X802080Y1160120D01*
G02X802460Y1160400I381J-120D01*
G01X812200D01*
G02X812600Y1160000I0J-400D01*
G01Y1156100D01*
G03X813000Y1155700I400J0D01*
G01X813090D01*
X813590Y1155000D01*
G02X813640Y1154630I-326J-232D01*
G03X813440Y1153500I3158J-1142D01*
G01Y1150700D01*
G03X817400Y1147390I3363J0D01*
G01X817440Y1147400D01*
X826400D01*
G03X826800Y1147800I0J400D01*
G01Y1155300D01*
G02X827200Y1155700I400J0D01*
G01X837000D01*
G02X837400Y1155300I0J-400D01*
G01Y1147800D01*
G03X837800Y1147400I400J0D01*
G01X845070D01*
X845300Y1147630D01*
Y1147650D01*
X845720Y1147860D01*
G02X845910Y1147910I194J-351D01*
G01X846110Y1147850D01*
G03X851260Y1150700I1786J2850D01*
G01Y1153500D01*
G03X851060Y1154630I-3358J-12D01*
G02X851110Y1155000I376J138D01*
G01X851530Y1155590D01*
G03X851600Y1155820I-330J226D01*
G01Y1160000D01*
G02X852000Y1160400I400J0D01*
G01X1001840D01*
G02X1002220Y1160120I-1J-400D01*
G01X1002450Y1159400D01*
G02X1002320Y1158960I-378J-128D01*
G01X1002310Y1158950D01*
G03X1013840Y1147870I4789J-6555D01*
G01X1013910Y1147980D01*
G37*
G36*
G01X816780Y1024120D02*
X816550Y1024350D01*
G02X816430Y1024630I281J286D01*
G01Y1024870D01*
G02X816520Y1025120I399J-2D01*
G03X814520Y1027120I-1120J880D01*
G02X814270Y1027030I-252J309D01*
G01X814030D01*
G02X813750Y1027150I6J401D01*
G01X792130Y1048770D01*
G02X792010Y1049060I280J286D01*
G01Y1051470D01*
G02X792190Y1051800I400J-4D01*
G01X792840Y1052230D01*
X793030Y1052240D01*
X793130Y1052200D01*
G03Y1054800I570J1300D01*
G01X793030Y1054760D01*
X792840Y1054770D01*
X792190Y1055200D01*
G02X792010Y1055530I220J334D01*
G01Y1064680D01*
G02X792130Y1064970I401J4D01*
G01X792610Y1065430D01*
X792750Y1065480D01*
X792840D01*
G03Y1068320I60J1420D01*
G01X792750D01*
X792610Y1068370D01*
X792130Y1068830D01*
G02X792010Y1069120I281J286D01*
G01Y1070770D01*
G02X792190Y1071100I400J-4D01*
G01X792840Y1071530D01*
X793030Y1071540D01*
X793130Y1071500D01*
G03Y1074100I570J1300D01*
G01X793030Y1074060D01*
X792840Y1074070D01*
X792190Y1074500D01*
G02X792010Y1074830I220J334D01*
G01Y1097590D01*
G02X792410Y1097990I401J0D01*
G01X797600D01*
G03Y1101210I0J1610D01*
G01X792410D01*
G02X792010Y1101610I1J400D01*
G01Y1109940D01*
G02X792130Y1110230I400J4D01*
G01X797970Y1116070D01*
G02X798360Y1116170I281J-284D01*
G01X799150Y1115950D01*
X799290Y1115800D01*
X799320Y1115680D01*
G03X801020Y1117380I1380J320D01*
G01X800900Y1117410D01*
X800750Y1117550D01*
X800530Y1118340D01*
G02X800630Y1118730I384J109D01*
G01X800680Y1118780D01*
G02X800970Y1118900I286J-280D01*
G01X837570D01*
X837780Y1118720D01*
X837810Y1118580D01*
G03X840990I1590J320D01*
G01X841020Y1118720D01*
X841230Y1118900D01*
X860170D01*
X860380Y1118730D01*
X860410Y1118590D01*
G03X863190I1390J310D01*
G01X863220Y1118730D01*
X863430Y1118900D01*
X870330D01*
G02X870620Y1118780I4J-400D01*
G01X878180Y1111120D01*
G02X878300Y1110840I-280J-286D01*
G01Y1057670D01*
G02X878180Y1057380I-400J-4D01*
G01X852740Y1031860D01*
X852470Y1031830D01*
X852350Y1031910D01*
G03X850390Y1029950I-750J-1210D01*
G01X850470Y1029820D01*
X850440Y1029560D01*
X845020Y1024120D01*
G02X844730Y1024000I-286J280D01*
G01X817070D01*
G02X816780Y1024120I-4J400D01*
G37*
G36*
G01X799280Y1121050D02*
Y1120960D01*
G03X799730Y1119860I1420J-61D01*
G01X799800Y1119800D01*
X799860Y1119670D01*
X799870Y1119000D01*
G02X799750Y1118710I-402J-4D01*
G01X797980Y1116940D01*
G02X797680Y1116830I-276J289D01*
G01X797000Y1116860D01*
X796850Y1116930D01*
X796800Y1117000D01*
G03X794800Y1115000I-1100J-900D01*
G01X794870Y1114950D01*
X794940Y1114800D01*
X794970Y1114120D01*
G02X794860Y1113820I-399J-24D01*
G01X792690Y1111650D01*
G02X792250Y1111560I-287J282D01*
G01X792140Y1111610D01*
X792010Y1111800D01*
Y1118270D01*
G02X792130Y1118550I400J-6D01*
G01X795250Y1121670D01*
G02X795530Y1121790I286J-280D01*
G01X798480D01*
G02X798770Y1121670I4J-401D01*
G01X799230Y1121190D01*
X799280Y1121050D01*
G37*
G36*
G01X822280Y1124920D02*
X818620Y1128580D01*
G02X818500Y1128870I280J286D01*
G01Y1131730D01*
G02X818620Y1132020I400J4D01*
G01X827880Y1141180D01*
G02X828160Y1141300I286J-280D01*
G01X836040D01*
G02X836320Y1141180I-6J-400D01*
G01X840320Y1137220D01*
G02X840430Y1136860I-282J-283D01*
G01X840280Y1136100D01*
X840160Y1135950D01*
X840060Y1135910D01*
G03X842020Y1134580I541J-1312D01*
G01Y1134670D01*
X842080Y1134800D01*
X842140Y1134860D01*
G02X842700I280J-282D01*
G01X843250Y1134320D01*
X843280Y1134270D01*
G03X843790Y1133770I1218J732D01*
G01X843830Y1133750D01*
X845980Y1131620D01*
G02X846100Y1131330I-280J-286D01*
G01Y1127370D01*
G02X845980Y1127080I-400J-4D01*
G01X843820Y1124920D01*
G02X843530Y1124800I-286J280D01*
G01X841790D01*
G02X841480Y1124940I-6J401D01*
G01X841030Y1125480D01*
X840980Y1125640D01*
X841000Y1125730D01*
G03X837800I-1600J270D01*
G01X837820Y1125640D01*
X837770Y1125480D01*
X837320Y1124940D01*
G02X837010Y1124800I-304J261D01*
G01X824480D01*
X824410Y1124830D01*
G03X823390I-510J-1330D01*
G01X823320Y1124800D01*
X822570D01*
G02X822280Y1124920I-4J400D01*
G37*
G36*
G01X789600Y1144000D02*
Y1157970D01*
G02X791930Y1160300I3500J-1170D01*
G01X805500D01*
Y1144000D01*
X789600D01*
G37*
G36*
G01X854110Y975610D02*
Y996990D01*
G02X854510Y997390I400J0D01*
G01X861090D01*
G02X861490Y996990I0J-400D01*
G01Y983250D01*
G02X861400Y983000I-400J3D01*
G03X863600I1100J-900D01*
G02X863510Y983250I310J253D01*
G01Y996990D01*
G02X863910Y997390I400J0D01*
G01X871090D01*
G02X871490Y996990I0J-400D01*
G01Y983650D01*
G02X871400Y983400I-400J3D01*
G03X873600I1100J-900D01*
G02X873510Y983650I310J253D01*
G01Y996990D01*
G02X873910Y997390I400J0D01*
G01X881090D01*
G02X881490Y996990I0J-400D01*
G01Y990750D01*
G03X881610Y990460I400J-4D01*
G01X886570Y985500D01*
G02X886690Y985220I-280J-286D01*
G01Y983750D01*
G02X886600Y983500I-400J3D01*
G03X888800I1100J-900D01*
G02X888710Y983750I310J253D01*
G01Y986050D01*
G03X888590Y986340I-400J4D01*
G01X883630Y991300D01*
G02X883510Y991580I280J286D01*
G01Y996990D01*
G02X883910Y997390I400J0D01*
G01X891090D01*
G02X891490Y996990I0J-400D01*
G01Y989250D01*
G02X891400Y989000I-400J3D01*
G03X893600I1100J-900D01*
G02X893510Y989250I310J253D01*
G01Y996990D01*
G02X893910Y997390I400J0D01*
G01X901090D01*
G02X901490Y996990I0J-400D01*
G01Y990170D01*
G02X901320Y989850I-399J7D01*
G01X900690Y989410D01*
X900500Y989390D01*
X900410Y989430D01*
G03X898800Y987200I-512J-1326D01*
G02X898890Y986950I-310J-253D01*
G01Y980150D01*
G02X898800Y979900I-400J3D01*
G03X901160Y978340I1104J-895D01*
G01X901190Y978410D01*
X901290Y978500D01*
X901890Y978750D01*
X902020Y978760D01*
X902100Y978740D01*
G03X903600Y981000I401J1362D01*
G02X903510Y981250I310J253D01*
G01Y996990D01*
G02X903910Y997390I400J0D01*
G01X911090D01*
G02X911490Y996990I0J-400D01*
G01Y994250D01*
X911460Y994140D01*
X911420Y994090D01*
G03X911500Y992400I1180J-791D01*
G02X911590Y992150I-310J-253D01*
G01Y980650D01*
G02X911500Y980400I-400J3D01*
G03X913700I1100J-900D01*
G02X913610Y980650I310J253D01*
G01Y992150D01*
G02X913700Y992400I400J-3D01*
G03X913620Y994290I-1099J900D01*
G02X913510Y994560I290J275D01*
G01Y996990D01*
G02X913910Y997390I400J0D01*
G01X921090D01*
G02X921490Y996990I0J-400D01*
G01Y986650D01*
G02X921400Y986400I-400J3D01*
G03X923600I1100J-900D01*
G02X923510Y986650I310J253D01*
G01Y996990D01*
G02X923910Y997390I400J0D01*
G01X927000D01*
G02X927370Y997140I0J-399D01*
G01X927420Y997030D01*
X927370Y996800D01*
X925410Y994840D01*
G03X925290Y994550I280J-286D01*
G01Y978150D01*
G02X925200Y977900I-400J3D01*
G03X925030Y976370I1101J-897D01*
G01X925080Y976270D01*
X925070Y976070D01*
X924650Y975400D01*
G02X924310Y975210I-340J209D01*
G01X854510D01*
G02X854110Y975610I0J400D01*
G37*
G36*
G01X881080Y1020510D02*
X881140Y1020600D01*
G03X881320Y1021250I-1241J694D01*
G01Y1021340D01*
X881380Y1021470D01*
X883750Y1023780D01*
G02X884030Y1023890I276J-292D01*
G01X902910D01*
G03X903190Y1024010I-5J398D01*
G01X903860Y1024670D01*
G02X904140Y1024790I286J-280D01*
G01X907060D01*
G02X907340Y1024670I-6J-400D01*
G01X908080Y1023930D01*
G02Y1023370I-283J-280D01*
G01X906340Y1021630D01*
G02X906060Y1021510I-286J280D01*
G01X895190D01*
G03X894910Y1021390I5J-398D01*
G01X893040Y1019530D01*
G02X892760Y1019410I-286J280D01*
G01X881830D01*
G02X881490Y1019610I6J399D01*
G01X881080Y1020300D01*
Y1020510D01*
G37*
G36*
G01X853710Y1017210D02*
Y1027140D01*
G03X853590Y1027420I-399J-5D01*
G01X851660Y1029350D01*
G02Y1029920I283J285D01*
G01X856780Y1035050D01*
G02X857340I280J-286D01*
G01X859980Y1032410D01*
G03X860260Y1032290I285J279D01*
G01X869810D01*
G02X870100Y1032170I4J-401D01*
G01X871370Y1030840D01*
X871420Y1030760D01*
X871440Y1030710D01*
G03X871780Y1030110I1367J378D01*
G02X871900Y1029830I-280J-286D01*
G01Y1029270D01*
G02X871780Y1028990I-400J6D01*
G03X872380Y1026640I1019J-991D01*
G01X872430Y1026630D01*
X872510Y1026580D01*
X873580Y1025510D01*
G03X873860Y1025390I285J279D01*
G01X876630D01*
G02X876920Y1025270I4J-401D01*
G01X876940Y1025250D01*
X877080Y1025190D01*
X881620D01*
G02X881990Y1024940I-2J-401D01*
G01X882030Y1024820D01*
X881990Y1024600D01*
X880110Y1022780D01*
X879980Y1022720D01*
X879890D01*
G03X878660Y1020600I8J-1421D01*
G01X878720Y1020510D01*
Y1020300D01*
X878310Y1019610D01*
G02X877970Y1019410I-346J199D01*
G01X865940D01*
G02X865660Y1019530I6J400D01*
G01X858980Y1026210D01*
X858920Y1026340D01*
Y1026430D01*
G03X857470Y1024980I-1420J-30D01*
G01X857560D01*
X857690Y1024920D01*
X865120Y1017490D01*
G02X865210Y1017050I-278J-286D01*
G01X865170Y1016940D01*
X864970Y1016810D01*
X854110D01*
G02X853710Y1017210I0J400D01*
G37*
G36*
G01X877940Y1027670D02*
X877920Y1027690D01*
G03X877640Y1027810I-285J-279D01*
G01X874870D01*
G02X874580Y1027930I-4J401D01*
G01X874220Y1028290D01*
X874170Y1028370D01*
X874160Y1028420D01*
G03X873820Y1028990I-1357J-423D01*
G02X873700Y1029270I280J286D01*
G01Y1029830D01*
G02X873820Y1030110I400J-6D01*
G03X874160Y1030680I-1017J993D01*
G01X874170Y1030730D01*
X874220Y1030810D01*
X874780Y1031370D01*
G02X875070Y1031490I286J-281D01*
G01X886330D01*
G02X886620Y1031370I4J-401D01*
G01X887180Y1030810D01*
X887230Y1030730D01*
X887240Y1030680D01*
G03X887360Y1030400I1360J417D01*
G01X887420Y1030310D01*
Y1030100D01*
X887010Y1029410D01*
G02X886670Y1029210I-346J199D01*
G01X886360D01*
G03X886080Y1029090I5J-399D01*
G01X884720Y1027730D01*
G02X884430Y1027610I-286J281D01*
G01X878080D01*
X877940Y1027670D01*
G37*
G36*
G01X892410Y1027740D02*
X891140Y1029080D01*
G03X890850Y1029210I-294J-268D01*
G01X890530D01*
G02X890190Y1029410I6J399D01*
G01X889780Y1030100D01*
Y1030310D01*
X889840Y1030400D01*
G03X889960Y1030680I-1240J697D01*
G01X889970Y1030730D01*
X890020Y1030810D01*
X890280Y1031070D01*
G02X890570Y1031190I286J-281D01*
G01X902330D01*
G02X902620Y1031070I4J-401D01*
G01X902880Y1030810D01*
X902930Y1030730D01*
X902940Y1030680D01*
G03X903060Y1030400I1360J417D01*
G01X903120Y1030310D01*
Y1030100D01*
X902710Y1029410D01*
G02X902370Y1029210I-346J199D01*
G01X902050D01*
G03X901760Y1029080I4J-398D01*
G01X900490Y1027740D01*
G02X900200Y1027610I-294J268D01*
G01X892700D01*
G02X892410Y1027740I4J398D01*
G37*
G36*
G01X888320Y1033090D02*
X887620Y1033790D01*
G03X887340Y1033910I-285J-279D01*
G01X874060D01*
G03X873780Y1033790I5J-399D01*
G01X873110Y1033120D01*
G02X872820Y1033000I-286J281D01*
G01X872730D01*
X872600Y1033060D01*
X871110Y1034620D01*
G02X871030Y1035050I287J276D01*
G01X871080Y1035160D01*
X871270Y1035290D01*
X880640D01*
G02X880910Y1035180I-5J-400D01*
G03X881980Y1037620I989J1021D01*
G02X881710Y1037740I16J400D01*
G01X881410Y1038060D01*
G03X881420Y1038170I-1406J183D01*
G01Y1038260D01*
X881480Y1038390D01*
X881890Y1038810D01*
G03X882010Y1039090I-278J285D01*
G01Y1044540D01*
G02X882260Y1044910I399J0D01*
G01X882370Y1044960D01*
X882600Y1044910D01*
X883110Y1044410D01*
G03X883390Y1044290I285J278D01*
G01X887200D01*
X887330Y1044350D01*
X887380Y1044390D01*
X892760D01*
G02X893040Y1044270I-6J-400D01*
G01X903020Y1034290D01*
G02X903110Y1033850I-278J-286D01*
G01X903070Y1033740D01*
X902870Y1033610D01*
X889560D01*
G03X889280Y1033490I5J-399D01*
G01X888880Y1033090D01*
G02X888320I-280J288D01*
G37*
G36*
G01X861340Y1038710D02*
X861300Y1039390D01*
G02X861420Y1039700I399J24D01*
G01X866120Y1044420D01*
G02X866540Y1044520I288J-279D01*
G01X867220Y1044280D01*
G02X867490Y1043950I-126J-379D01*
G03X869890Y1043080I1412J150D01*
G02X870160Y1043190I275J-289D01*
G01X877840D01*
G02X878110Y1043080I-5J-400D01*
G03X879290Y1042690I991J1019D01*
G01X879370Y1042700D01*
X879540Y1042650D01*
X880060Y1042200D01*
G02X880190Y1041900I-271J-296D01*
G01Y1039680D01*
X880150Y1039650D01*
X879840Y1039610D01*
G03X878590Y1038010I158J-1412D01*
G01X878600Y1037930D01*
X878550Y1037760D01*
X878100Y1037240D01*
G02X877800Y1037110I-296J271D01*
G01X862350D01*
G02X862060Y1037230I-4J400D01*
G01X862030Y1037260D01*
X862020Y1037490D01*
G03X861480Y1038510I-1416J-97D01*
G01X861410Y1038560D01*
X861340Y1038710D01*
G37*
G36*
G01X943270Y889640D02*
X943180Y889670D01*
G03X942610Y889710I-382J-1369D01*
G01X942520Y889700D01*
X942370Y889740D01*
X941850Y890200D01*
G02X941710Y890500I259J304D01*
G01Y904720D01*
G02X941830Y905000I400J-6D01*
G01X943590Y906760D01*
G03X943710Y907050I-280J286D01*
G01Y935310D01*
G02X943900Y935650I399J0D01*
G01X944570Y936070D01*
X944770Y936080D01*
X944870Y936030D01*
G03X945360Y935890I628J1271D01*
G01X945430Y935880D01*
X945550Y935820D01*
X946770Y934600D01*
G02X946890Y934320I-280J-286D01*
G01Y897030D01*
G02X946710Y896700I-400J4D01*
G01X946060Y896270D01*
X945870Y896260D01*
X945770Y896300D01*
G03X944100Y894100I-571J-1300D01*
G02X944190Y893850I-310J-253D01*
G01Y890440D01*
G02X944030Y890120I-400J0D01*
G01X943450Y889680D01*
X943270Y889640D01*
G37*
G36*
G01X930110Y897370D02*
Y913720D01*
G02X930230Y914000I400J-6D01*
G01X933610Y917380D01*
G02X934050Y917470I286J-279D01*
G01X934160Y917420D01*
X934290Y917230D01*
Y915780D01*
G02X934170Y915500I-400J6D01*
G01X932510Y913840D01*
G03X932390Y913550I280J-286D01*
G01Y898980D01*
G02X932270Y898700I-400J6D01*
G01X930790Y897220D01*
G02X930350Y897130I-286J279D01*
G01X930240Y897180D01*
X930110Y897370D01*
G37*
G36*
G01X923510Y922370D02*
Y929720D01*
G02X923630Y930000I400J-6D01*
G01X924650Y931020D01*
X924770Y931080D01*
X924840Y931090D01*
G03X925460Y931300I-133J1413D01*
G01X925560Y931360D01*
X925770Y931370D01*
X926480Y930980D01*
G02X926690Y930630I-191J-352D01*
G01Y924880D01*
G02X926570Y924600I-400J6D01*
G01X925850Y923880D01*
X925730Y923820D01*
X925660Y923810D01*
G03X924390Y922540I140J-1410D01*
G01X924380Y922470D01*
X924320Y922350D01*
X924190Y922220D01*
G02X923750Y922130I-286J279D01*
G01X923640Y922180D01*
X923510Y922370D01*
G37*
G36*
G01X930130Y976420D02*
X930210Y976510D01*
G03X930200Y978300I-1109J889D01*
G02X930110Y978550I310J253D01*
G01Y982420D01*
G02X930230Y982700I400J-6D01*
G01X931550Y984020D01*
X931670Y984080D01*
X931740Y984090D01*
G03X932500Y984400I-133J1413D01*
G02X932750Y984490I253J-310D01*
G01X937060D01*
G02X937380Y984330I0J-400D01*
G01X937820Y983750D01*
X937860Y983570D01*
X937830Y983480D01*
G03X938180Y982110I1369J-380D01*
G02X938290Y981840I-290J-275D01*
G01Y980990D01*
G03X938410Y980710I398J5D01*
G01X938430Y980680D01*
X938490Y980540D01*
Y978260D01*
G02X938380Y977990I-400J5D01*
G03X938130Y976370I1021J-987D01*
G01X938180Y976270D01*
X938170Y976070D01*
X937750Y975400D01*
G02X937410Y975210I-340J209D01*
G01X930830D01*
G02X930470Y975440I2J400D01*
G01X930110Y976200D01*
X930130Y976420D01*
G37*
G36*
G01X907290Y1020000D02*
X909260Y1021970D01*
G02X909540Y1022090I286J-280D01*
G01X927860D01*
G02X928140Y1021970I-6J-400D01*
G01X929220Y1020890D01*
X929280Y1020760D01*
Y1020670D01*
G03X929320Y1020390I1416J59D01*
G01X929340Y1020300D01*
X929300Y1020120D01*
X928850Y1019560D01*
G02X928530Y1019410I-313J251D01*
G01X907660D01*
G02X907290Y1019660I0J399D01*
G01X907240Y1019770D01*
X907290Y1020000D01*
G37*
G36*
G01X975230Y840200D02*
X975480Y840230D01*
X975600Y840160D01*
G03X977720Y841280I702J1238D01*
G01Y841360D01*
X977770Y841460D01*
X978190Y841940D01*
X978290Y841990D01*
X978360Y842000D01*
G03X979510Y843260I-264J1396D01*
G01X979520Y843340D01*
X979590Y843470D01*
X980120Y843940D01*
X980260Y843980D01*
X980340D01*
G03X981820Y845400I59J1420D01*
G02X981890Y845630I400J4D01*
G01X982030Y845830D01*
G02X982210Y845980I335J-219D01*
G03X983110Y847160I-510J1322D01*
G01X983120Y847240D01*
X983180Y847360D01*
X983700Y847830D01*
X983820Y847880D01*
X983910D01*
G03X985000Y850200I-9J1420D01*
G01X984910Y850450D01*
Y865420D01*
G02X985030Y865700I400J-6D01*
G01X986300Y866970D01*
G02X986580Y867090I286J-280D01*
G01X991450D01*
G03X991740Y867210I4J400D01*
G01X992300Y867770D01*
G02X992480Y867870I277J-286D01*
G01X997030D01*
Y956230D01*
X993210D01*
G03X991990I-610J-3830D01*
G01X983210D01*
G03X981990I-610J-3830D01*
G01X978370D01*
Y956210D01*
G02X978010Y956610I41J399D01*
G01Y959670D01*
G02X978290Y960050I399J-1D01*
G01X979140Y960330D01*
X979380Y960250D01*
X979460Y960140D01*
G03Y964660I3140J2260D01*
G01X979380Y964550D01*
X979140Y964470D01*
X978290Y964750D01*
G02X978010Y965130I119J381D01*
G01Y967650D01*
G03X977890Y967940I-400J4D01*
G01X977430Y968400D01*
G02X977310Y968680I280J286D01*
G01Y968820D01*
X977350Y968950D01*
X977400Y969000D01*
G03X977460Y970730I-1098J904D01*
G01X977390Y970820D01*
X977370Y971040D01*
X977750Y971770D01*
G02X978100Y971990I357J-180D01*
G01X999170D01*
G02X999450Y971870I-6J-400D01*
G01X1004970Y966350D01*
G02X1005090Y966070I-280J-286D01*
G01Y874330D01*
G02X1004970Y874050I-400J6D01*
G01X1001810Y870880D01*
G03X1001690Y870600I278J-285D01*
G01Y836030D01*
G02X1001570Y835750I-400J6D01*
G01X1000650Y834830D01*
G02X1000370Y834710I-286J280D01*
G01X995800D01*
X995490Y834860D01*
G03X989090Y834220I-2986J-2460D01*
G02X988730Y834010I-353J192D01*
G01X987330D01*
G02X986990Y834210I6J399D01*
G01X986580Y834900D01*
Y835110D01*
X986640Y835200D01*
G03X983990Y836040I-1237J698D01*
G01X983980Y835970D01*
X983920Y835850D01*
X983800Y835730D01*
G02X983520Y835610I-286J280D01*
G01X983110D01*
G02X982820Y835740I5J399D01*
G01X982360Y836240D01*
X982310Y836390D01*
Y836480D01*
G03X980000Y837700I-1414J120D01*
G01X979750Y837610D01*
X974540D01*
G02X974220Y837770I0J400D01*
G01X973780Y838350D01*
X973740Y838530D01*
X973770Y838620D01*
G03X973780Y838670I-1385J303D01*
G01X973800Y838730D01*
X973840Y838810D01*
X975230Y840200D01*
G37*
G36*
G01X978150Y878070D02*
X978260Y878020D01*
X978370Y877850D01*
Y867870D01*
X983510D01*
G02X983770Y867640I-107J-383D01*
G01X983820Y867530D01*
X983770Y867300D01*
X983010Y866540D01*
G03X982890Y866250I280J-286D01*
G01Y856300D01*
G02X982640Y855930I-399J0D01*
G01X982530Y855880D01*
X982300Y855930D01*
X976830Y861400D01*
G02X976710Y861680I280J286D01*
G01Y876250D01*
X976800Y876500D01*
G03X977110Y877260I-1103J893D01*
G01X977120Y877330D01*
X977180Y877450D01*
X977710Y877980D01*
G02X978150Y878070I286J-279D01*
G37*
G36*
G01X966710Y905870D02*
Y925210D01*
G02X966900Y925550I399J0D01*
G01X967570Y925970D01*
X967770Y925980D01*
X967870Y925930D01*
G03X968810Y925820I625J1272D01*
G01X968900Y925840D01*
X969080Y925800D01*
X969640Y925350D01*
G02X969790Y925030I-251J-313D01*
G01Y922050D01*
G03X969910Y921760I400J-4D01*
G01X972370Y919300D01*
G02X972490Y919020I-280J-286D01*
G01Y909110D01*
G02X972270Y908750I-400J-3D01*
G01X971540Y908370D01*
X971320Y908390D01*
X971230Y908460D01*
G03X968990Y907440I-825J-1157D01*
G01X968980Y907370D01*
X968920Y907250D01*
X967390Y905720D01*
G02X966950Y905630I-286J279D01*
G01X966840Y905680D01*
X966710Y905870D01*
G37*
G36*
G01X998800Y1144100D02*
Y1160400D01*
X1013100D01*
G02X1014890Y1159190I-1205J-3712D01*
G02X1015500Y1158070I-2891J-2301D01*
G01Y1144100D01*
X998800D01*
G37*
%LPC*%
G75*
G36*
G01X882010Y857370D02*
X881930Y857400D01*
X881770Y857390D01*
X881170Y857070D01*
G03X880970Y856830I183J-356D01*
G02X878850Y855990I-1372J368D01*
G01X878780Y856030D01*
X878600Y856060D01*
X877860Y855830D01*
X877740Y855720D01*
X877700Y855630D01*
G02X875290Y857090I-1300J573D01*
G03X875380Y857340I-310J253D01*
G01Y940410D01*
G03X875260Y940700I-400J4D01*
G01X874990Y940970D01*
X874890D01*
X874120Y941730D01*
X874020Y941780D01*
X873960Y941790D01*
G02X875510Y943350I141J1410D01*
G01Y943330D01*
X875520Y943280D01*
X875570Y943180D01*
X875730Y943010D01*
X875830D01*
X877300Y941540D01*
G02X877420Y941250I-280J-286D01*
G01Y906070D01*
G03X877820Y905670I400J0D01*
G01X877840D01*
G03X878230Y905970I3J400D01*
G02X880700Y904700I1371J-371D01*
G03X880610Y904450I310J-253D01*
G01Y859750D01*
G03X881010Y859350I400J0D01*
G03X881340Y859520I3J400D01*
G02X881400Y859600I1166J-812D01*
G03X881490Y859850I-310J253D01*
G01Y902250D01*
G02X881610Y902540I400J4D01*
G01X884170Y905100D01*
G03X884290Y905390I-280J286D01*
G01Y943010D01*
G03X884170Y943300I-400J4D01*
G01X882190Y945280D01*
G03X881970Y945390I-280J-286D01*
G01X881960D01*
G02X883510Y946950I141J1410D01*
G01Y946930D01*
G03X883620Y946710I396J60D01*
G01X886010Y944320D01*
G03X886450Y944230I286J280D01*
G01X886560Y944280D01*
X886690Y944470D01*
Y964550D01*
G03X886600Y964800I-400J-3D01*
G02X888800I1100J900D01*
G03X888710Y964550I310J-253D01*
G01Y901150D01*
G02X888590Y900860I-400J-4D01*
G01X886230Y898500D01*
G03X886110Y898210I280J-286D01*
G01Y862250D01*
G03X886200Y862000I400J3D01*
G02X884850Y859700I-1099J-901D01*
G03X884500Y859600I-77J-392D01*
G01X884040Y859180D01*
G03X883910Y858840I268J-297D01*
G02X882010Y857370I-1411J-139D01*
G37*
G36*
G01X858210Y963550D02*
Y951750D01*
G03X858300Y951500I400J3D01*
G02X856100I-1100J-900D01*
G03X856190Y951750I-310J253D01*
G01Y963550D01*
G03X856100Y963800I-400J-3D01*
G02X858300I1100J900D01*
G03X858210Y963550I310J-253D01*
G37*
G36*
G01X866490Y938450D02*
Y952250D01*
G02X866610Y952540I400J4D01*
G01X871370Y957300D01*
G03X871490Y957590I-280J286D01*
G01Y965350D01*
G03X871400Y965600I-400J-3D01*
G02X873600I1100J900D01*
G03X873510Y965350I310J-253D01*
G01Y956750D01*
G02X873390Y956460I-400J-4D01*
G01X868630Y951700D01*
G03X868510Y951410I280J-286D01*
G01Y938450D01*
G03X868600Y938200I400J3D01*
G02X866400I-1100J-900D01*
G03X866490Y938450I-310J253D01*
G37*
G36*
G01X863510Y964850D02*
Y928450D01*
G03X863600Y928200I400J3D01*
G02X861400I-1100J-900D01*
G03X861490Y928450I-310J253D01*
G01Y964850D01*
G03X861400Y965100I-400J-3D01*
G02X863600I1100J900D01*
G03X863510Y964850I310J-253D01*
G37*
G36*
G01X811860Y868580D02*
X811820Y868590D01*
X809490D01*
G02X809090Y868990I0J400D01*
G01Y870470D01*
G03X809050Y870650I-400J5D01*
G02Y874150I3450J1750D01*
G03X809090Y874330I-360J175D01*
G01Y880470D01*
G03X809050Y880650I-400J5D01*
G02Y884150I3450J1750D01*
G03X809090Y884330I-360J175D01*
G01Y890470D01*
G03X809050Y890650I-400J5D01*
G02Y894150I3450J1750D01*
G03X809090Y894330I-360J175D01*
G01Y900470D01*
G03X809050Y900650I-400J5D01*
G02Y904150I3450J1750D01*
G03X809090Y904330I-360J175D01*
G01Y910470D01*
G03X809050Y910650I-400J5D01*
G02Y914150I3450J1750D01*
G03X809090Y914330I-360J175D01*
G01Y920470D01*
G03X809050Y920650I-400J5D01*
G02Y924150I3450J1750D01*
G03X809090Y924330I-360J175D01*
G01Y930470D01*
G03X809050Y930650I-400J5D01*
G02Y934150I3450J1750D01*
G03X809090Y934330I-360J175D01*
G01Y940470D01*
G03X809050Y940650I-400J5D01*
G02Y944150I3450J1750D01*
G03X809090Y944330I-360J175D01*
G01Y945810D01*
G02X809490Y946210I400J0D01*
G01X811820D01*
X811860Y946220D01*
G02X813140I640J-3820D01*
G01X813180Y946210D01*
X821820D01*
X821860Y946220D01*
G02X823140I640J-3820D01*
G01X823180Y946210D01*
X825710D01*
G02X826110Y945810I0J-400D01*
G01Y943800D01*
X826130Y943730D01*
G02Y941070I-3630J-1330D01*
G01X826110Y941000D01*
Y933800D01*
X826130Y933730D01*
G02Y931070I-3630J-1330D01*
G01X826110Y931000D01*
Y923800D01*
X826130Y923730D01*
G02Y921070I-3630J-1330D01*
G01X826110Y921000D01*
Y913800D01*
X826130Y913730D01*
G02Y911070I-3630J-1330D01*
G01X826110Y911000D01*
Y903800D01*
X826130Y903730D01*
G02Y901070I-3630J-1330D01*
G01X826110Y901000D01*
Y893800D01*
X826130Y893730D01*
G02Y891070I-3630J-1330D01*
G01X826110Y891000D01*
Y883800D01*
X826130Y883730D01*
G02Y881070I-3630J-1330D01*
G01X826110Y881000D01*
Y873800D01*
X826130Y873730D01*
G02Y871070I-3630J-1330D01*
G01X826110Y871000D01*
Y868990D01*
G02X825710Y868590I-400J0D01*
G01X823180D01*
X823140Y868580D01*
G02X821860I-640J3820D01*
G01X821820Y868590D01*
X813180D01*
X813140Y868580D01*
G02X811860I-640J3820D01*
G37*
G36*
G01X859310Y891350D02*
Y867050D01*
G03X859400Y866800I400J3D01*
G02X857200I-1100J-900D01*
G03X857290Y867050I-310J253D01*
G01Y891350D01*
G03X857200Y891600I-400J-3D01*
G02X859400I1100J900D01*
G03X859310Y891350I310J-253D01*
G37*
G36*
G01X871110Y932240D02*
Y932230D01*
G03X871220Y932010I396J60D01*
G01X873590Y929640D01*
G02X873710Y929350I-280J-286D01*
G01Y856150D01*
G03X873800Y855900I400J3D01*
G02X871600I-1100J-900D01*
G03X871690Y856150I-310J253D01*
G01Y928510D01*
G03X871570Y928800I-400J4D01*
G01X869790Y930580D01*
G03X869570Y930690I-280J-286D01*
G01X869560D01*
G02X871110Y932240I140J1410D01*
G37*
G36*
G01X847910Y954850D02*
Y860430D01*
G03X848170Y860050I401J-4D01*
G01X848180D01*
G02X845620I-1280J-3650D01*
G01X845630D01*
G03X845890Y860430I-141J376D01*
G01Y954850D01*
G03X845800Y955100I-400J-3D01*
G02X848000I1100J900D01*
G03X847910Y954850I310J-253D01*
G37*
G36*
G01X868210Y921140D02*
Y921130D01*
G03X868320Y920910I396J60D01*
G01X869390Y919840D01*
G02X869510Y919550I-280J-286D01*
G01Y853650D01*
G03X869600Y853400I400J3D01*
G02X867400I-1100J-900D01*
G03X867490Y853650I-310J253D01*
G01Y918710D01*
G03X867370Y919000I-400J4D01*
G01X866890Y919480D01*
G03X866670Y919590I-280J-286D01*
G01X866660D01*
G02X868210Y921140I140J1410D01*
G37*
G36*
G01X980150Y821710D02*
X984110D01*
G03X984400Y821830I4J400D01*
G01X984430Y821860D01*
X984490Y822000D01*
Y827050D01*
G03X984400Y827300I-400J-3D01*
G02X986600I1100J900D01*
G03X986510Y827050I310J-253D01*
G01Y821250D01*
G02X986390Y820960I-400J-4D01*
G01X985240Y819810D01*
G02X984950Y819690I-286J280D01*
G01X980150D01*
G03X979900Y819600I3J-400D01*
G02Y821800I-900J1100D01*
G03X980150Y821710I253J310D01*
G37*
G36*
G01X853460Y892590D02*
Y892580D01*
G03X853570Y892360I396J60D01*
G01X854990Y890940D01*
G02X855110Y890650I-280J-286D01*
G01Y846250D01*
G03X855200Y846000I400J3D01*
G02Y844200I-1100J-900D01*
G03X855110Y843950I310J-253D01*
G01Y823790D01*
G03X855230Y823500I400J-4D01*
G01X858300Y820430D01*
G03X858590Y820310I286J280D01*
G01X883050D01*
G03X883300Y820400I-3J400D01*
G02Y818200I900J-1100D01*
G03X883050Y818290I-253J-310D01*
G01X857750D01*
G02X857460Y818410I-4J400D01*
G01X853210Y822660D01*
G02X853090Y822950I280J286D01*
G01Y843950D01*
G03X853000Y844200I-400J-3D01*
G02Y846000I1100J900D01*
G03X853090Y846250I-310J253D01*
G01Y889810D01*
G03X852970Y890100I-400J4D01*
G01X852140Y890930D01*
G03X851920Y891040I-280J-286D01*
G01X851910D01*
G02X853460Y892590I140J1410D01*
G37*
G36*
G01X922540Y817290D02*
X922530D01*
G03X922310Y817180I60J-396D01*
G01X922230Y817100D01*
G03X922110Y816810I280J-286D01*
G01Y809350D01*
G02X921990Y809060I-400J-4D01*
G01X919540Y806610D01*
G02X919250Y806490I-286J280D01*
G01X910750D01*
G02X910460Y806610I-4J400D01*
G01X909790Y807280D01*
G03X909570Y807390I-280J-286D01*
G01X909560D01*
G02X911110Y808950I141J1410D01*
G01Y808930D01*
G03X911220Y808710I396J60D01*
G01X911300Y808630D01*
G03X911590Y808510I286J280D01*
G01X918410D01*
G03X918700Y808630I4J400D01*
G01X919970Y809900D01*
G03X920090Y810190I-280J286D01*
G01Y817650D01*
G02X920210Y817940I400J4D01*
G01X920880Y818610D01*
G03X920990Y818830I-286J280D01*
G01Y818840D01*
G02X922540Y817290I1410J-140D01*
G37*
G36*
G01X859660Y849910D02*
X859670D01*
G03X859890Y850020I-60J396D01*
G01X860570Y850700D01*
G03X860690Y850990I-280J286D01*
G01Y899210D01*
G03X860570Y899500I-400J4D01*
G01X859090Y900980D01*
G03X858870Y901090I-280J-286D01*
G01X858860D01*
G02X860410Y902650I141J1410D01*
G01Y902630D01*
G03X860520Y902410I396J60D01*
G01X862810Y900120D01*
G03X863250Y900030I286J280D01*
G01X863360Y900080D01*
X863490Y900270D01*
Y908210D01*
G03X863370Y908500I-400J4D01*
G01X862190Y909680D01*
G03X861970Y909790I-280J-286D01*
G01X861960D01*
G02X863510Y911350I141J1410D01*
G01Y911330D01*
G03X863620Y911110I396J60D01*
G01X865390Y909340D01*
G02X865510Y909050I-280J-286D01*
G01Y851710D01*
G03X865690Y851380I400J4D01*
G02X863500Y849940I-793J-1180D01*
G03X863110Y850270I-394J-70D01*
G01X862940D01*
X862710Y850040D01*
Y849980D01*
X861320Y848590D01*
G03X861210Y848370I286J-280D01*
G01Y848360D01*
G02X859660Y849910I-1410J140D01*
G37*
G36*
G01X835980Y860160D02*
X836120Y860190D01*
X836290Y860400D01*
Y875120D01*
G03X836100Y875460I-401J-1D01*
G01X835520Y875810D01*
G03X835130Y875830I-213J-338D01*
G02X833610Y875990I-635J1270D01*
G03X833180Y876040I-254J-309D01*
G01X832540Y875730D01*
G03X832310Y875370I170J-362D01*
G01Y874050D01*
G02X832190Y873760I-400J-4D01*
G01X830920Y872490D01*
G03X830810Y872270I286J-280D01*
G01Y872260D01*
G02X829250Y873810I-1410J141D01*
G01X829270D01*
G03X829490Y873920I-60J396D01*
G01X830170Y874600D01*
G03X830290Y874890I-280J286D01*
G01Y911750D01*
G02X830410Y912040I400J4D01*
G01X832880Y914510D01*
G03X832990Y914730I-286J280D01*
G01Y914740D01*
G02X834550Y913190I1410J-141D01*
G01X834530D01*
G03X834310Y913080I60J-396D01*
G01X832430Y911200D01*
G03X832310Y910910I280J-286D01*
G01Y877430D01*
G03X832710Y877030I400J0D01*
G01X832860D01*
X833070Y877210D01*
X833100Y877360D01*
G02X833400Y878000I1397J-264D01*
G03X833490Y878250I-310J253D01*
G01Y893150D01*
G02X833610Y893440I400J4D01*
G01X835080Y894910D01*
G03X835190Y895130I-286J280D01*
G01Y895140D01*
G02X836750Y893590I1410J-141D01*
G01X836730D01*
G03X836510Y893480I60J-396D01*
G01X835630Y892600D01*
G03X835510Y892310I280J-286D01*
G01Y887100D01*
G03X835760Y886730I399J0D01*
G01X835870Y886680D01*
X836100Y886730D01*
X839480Y890110D01*
G03X839590Y890330I-286J280D01*
G01Y890340D01*
G02X841150Y888790I1410J-141D01*
G01X841130D01*
G03X840910Y888680I60J-396D01*
G01X838430Y886200D01*
G03X838310Y885910I280J-286D01*
G01Y860260D01*
G03X838540Y859900I400J2D01*
G02X835980Y860160I-1649J-3500D01*
G37*
G36*
G01X805950Y1107720D02*
X806040Y1107710D01*
G02X804490Y1106420I-138J-1411D01*
G01Y1106510D01*
X804450Y1106650D01*
X803980Y1107210D01*
X803850Y1107280D01*
X803760Y1107290D01*
G02X802490Y1108530I139J1412D01*
G01X802480Y1108620D01*
X802400Y1108760D01*
X801760Y1109200D01*
X801600Y1109240D01*
X801520Y1109220D01*
G02X802610Y1110770I-319J1383D01*
G01X802620Y1110680D01*
X802700Y1110540D01*
X803340Y1110100D01*
X803500Y1110060D01*
X803580Y1110080D01*
G02X805310Y1108580I318J-1381D01*
G01Y1108490D01*
X805350Y1108350D01*
X805820Y1107790D01*
X805950Y1107720D01*
G37*
G36*
G01X821950Y1130950D02*
X822470Y1131370D01*
G03X822510Y1131400I-216J330D01*
G01X828220Y1137110D01*
X828280Y1137240D01*
Y1137330D01*
G02X830580Y1138420I1421J-27D01*
G03X830820Y1138330I253J309D01*
G01X831080D01*
G03X831320Y1138420I-13J399D01*
G02X833080I880J-1120D01*
G01X833130Y1138370D01*
X833240Y1138340D01*
X833840Y1138310D01*
X833950Y1138340D01*
X834010Y1138380D01*
G02X834830Y1135780I790J-1180D01*
G01X834740D01*
X834610Y1135720D01*
X834090Y1135210D01*
G02X833810Y1135090I-285J278D01*
G01X833780D01*
X830930Y1132240D01*
G03X830810Y1131960I280J-286D01*
G01Y1131920D01*
X830940Y1131730D01*
X831270Y1131600D01*
G03X831660Y1131640I159J366D01*
G02X831920Y1129200I841J-1144D01*
G01X831860Y1129230D01*
X831740Y1129240D01*
X831130Y1129100D01*
X831030Y1129040D01*
X830990Y1128990D01*
G02X828880Y1130890I-1086J915D01*
G03X828990Y1131160I-290J275D01*
G01Y1131720D01*
G03X828740Y1132090I-399J0D01*
G01X828620Y1132140D01*
X828400Y1132090D01*
X825980Y1129610D01*
X825920Y1129470D01*
Y1129390D01*
G02X823540Y1128360I-1418J13D01*
G01X823480Y1128410D01*
X823360Y1128460D01*
X822680Y1128480D01*
X822550Y1128440D01*
X822490Y1128390D01*
G02X821730Y1130910I-889J1106D01*
G01X821810D01*
X821950Y1130950D01*
G37*
G54D27*
X802200Y1136000D03*
X794200D03*
X798200Y1106000D03*
G54D28*
X800800Y1131100D03*
X816100Y1144100D03*
X817700Y1139000D03*
X847200Y1140200D03*
X848800Y1143700D03*
X807500Y1068100D03*
X833900Y1044100D03*
X822800D03*
X831900Y1031900D03*
X812600Y1031500D03*
X822600Y1108800D03*
X821000Y1116100D03*
X830600Y1104600D03*
X796500Y1080300D03*
X833900Y1094500D03*
X837800Y1032700D03*
X871300Y1067300D03*
X857900Y1068100D03*
X875200Y1059800D03*
X868900Y1059100D03*
X843700Y1112600D03*
X856700Y1107900D03*
X859400Y1111800D03*
X858300Y1079500D03*
X855500Y1094500D03*
X841700Y1131100D03*
G54D29*
X863300Y1152700D03*
X872300D03*
G54D25*
X836900Y846400D03*
X812600Y852400D03*
Y842400D03*
X822500Y952400D03*
X812500D03*
Y962400D03*
X832500Y1002400D03*
Y1012400D03*
X846900Y846400D03*
X983900Y1012400D03*
Y1022400D03*
X992500Y852400D03*
Y842400D03*
X992600Y962400D03*
G54D26*
X799200Y1014200D03*
%LPD*%
G75*
G54D10*
X797200Y706700D03*
X797700Y983000D03*
Y992000D03*
X798200Y1106000D03*
X802200Y1136000D03*
X794200D03*
X863300Y1152700D03*
X872300D03*
X918500Y708700D03*
X1007100Y706700D03*
X977560Y708700D03*
X1007400Y992200D03*
Y983200D03*
G54D20*
G01X685170Y605880D02*
X684770Y606130D01*
X684300Y606300D01*
X683770D01*
X683170Y606050D01*
X682700Y605630D01*
X682370Y605130D01*
X682100Y604300D01*
X682030Y603550D01*
X682170Y602800D01*
X682370Y602300D01*
X682770Y601800D01*
X683230Y601470D01*
X683700Y601300D01*
X684170D01*
X684630Y601470D01*
X685030Y601720D01*
X685370Y602050D01*
G01X687230Y606300D02*
Y602720D01*
X687500Y601970D01*
X688030Y601470D01*
X688700Y601300D01*
X689370Y601470D01*
X689900Y601970D01*
X690170Y602720D01*
Y606300D01*
G01X692300Y601970D02*
X692830Y601550D01*
X693430Y601300D01*
X693970D01*
X694500Y601550D01*
X694900Y601970D01*
X695100Y602550D01*
X694970Y603130D01*
X694630Y603630D01*
X694030Y603970D01*
X693230Y604130D01*
X692770Y604470D01*
X692570Y605050D01*
X692700Y605630D01*
X693030Y606050D01*
X693500Y606300D01*
X693970D01*
X694430Y606130D01*
X694830Y605720D01*
G01X698700Y606300D02*
Y601300D01*
G01X697170Y606300D02*
X700230D01*
G01X703700Y601300D02*
X703170Y601380D01*
X702700Y601720D01*
X702300Y602220D01*
X702030Y602800D01*
X701900Y603470D01*
Y604130D01*
X702030Y604800D01*
X702300Y605380D01*
X702700Y605880D01*
X703170Y606220D01*
X703700Y606300D01*
X704230Y606220D01*
X704700Y605880D01*
X705100Y605380D01*
X705370Y604800D01*
X705500Y604130D01*
Y603470D01*
X705370Y602800D01*
X705100Y602220D01*
X704700Y601720D01*
X704230Y601380D01*
X703700Y601300D01*
G01X706970D02*
Y606300D01*
X708700Y602130D01*
X710430Y606300D01*
Y601300D01*
G01X715030D02*
X712370D01*
Y606300D01*
X715030D01*
G01X713970Y603880D02*
X712370D01*
G01X717370Y601300D02*
Y606300D01*
X719030D01*
X719570Y606050D01*
X719900Y605720D01*
X720030Y605050D01*
X719900Y604380D01*
X719500Y603970D01*
X719030Y603720D01*
X717370D01*
G01X719030D02*
X720030Y601300D01*
G01X723700Y601130D02*
X723570Y601220D01*
Y601380D01*
X723700Y601470D01*
X723830Y601380D01*
Y601220D01*
X723700Y601130D01*
G01Y603380D02*
X723570Y603470D01*
Y603630D01*
X723700Y603720D01*
X723830Y603630D01*
Y603470D01*
X723700Y603380D01*
G01X683730Y578470D02*
X684000Y578720D01*
X684200Y579130D01*
X684330Y579720D01*
X684200Y580220D01*
X683930Y580550D01*
X683470Y580800D01*
X681670D01*
Y575800D01*
X683870D01*
X684330Y576130D01*
X684600Y576630D01*
X684730Y577220D01*
X684600Y577800D01*
X684200Y578300D01*
X683730Y578470D01*
X681670D01*
G01X688200Y575800D02*
X687670Y575880D01*
X687200Y576220D01*
X686800Y576720D01*
X686530Y577300D01*
X686400Y577970D01*
Y578630D01*
X686530Y579300D01*
X686800Y579880D01*
X687200Y580380D01*
X687670Y580720D01*
X688200Y580800D01*
X688730Y580720D01*
X689200Y580380D01*
X689600Y579880D01*
X689870Y579300D01*
X690000Y578630D01*
Y577970D01*
X689870Y577300D01*
X689600Y576720D01*
X689200Y576220D01*
X688730Y575880D01*
X688200Y575800D01*
G01X691530D02*
X693200Y580800D01*
X694870Y575800D01*
G01X694270Y577550D02*
X692130D01*
G01X696870Y575800D02*
Y580800D01*
X698530D01*
X699070Y580550D01*
X699400Y580220D01*
X699530Y579550D01*
X699400Y578880D01*
X699000Y578470D01*
X698530Y578220D01*
X696870D01*
G01X698530D02*
X699530Y575800D01*
G01X701730D02*
Y580800D01*
X703070D01*
X703600Y580550D01*
X704000Y580220D01*
X704330Y579720D01*
X704600Y579130D01*
X704670Y578300D01*
X704600Y577470D01*
X704330Y576880D01*
X704000Y576380D01*
X703600Y576050D01*
X703070Y575800D01*
X701730D01*
G01X711670D02*
Y580800D01*
X714730Y575800D01*
Y580800D01*
G01X716530Y575800D02*
X718200Y580800D01*
X719870Y575800D01*
G01X719270Y577550D02*
X717130D01*
G01X721470Y575800D02*
Y580800D01*
X723200Y576630D01*
X724930Y580800D01*
Y575800D01*
G01X729530D02*
X726870D01*
Y580800D01*
X729530D01*
G01X728470Y578380D02*
X726870D01*
G01X733200Y575630D02*
X733070Y575720D01*
Y575880D01*
X733200Y575970D01*
X733330Y575880D01*
Y575720D01*
X733200Y575630D01*
G01Y577880D02*
X733070Y577970D01*
Y578130D01*
X733200Y578220D01*
X733330Y578130D01*
Y577970D01*
X733200Y577880D01*
G01X682370Y549500D02*
Y554500D01*
X683970D01*
X684500Y554250D01*
X684900Y553670D01*
X685030Y553000D01*
X684900Y552330D01*
X684570Y551830D01*
X683970Y551580D01*
X682370D01*
G01X687370Y549500D02*
Y554500D01*
X689030D01*
X689570Y554250D01*
X689900Y553920D01*
X690030Y553250D01*
X689900Y552580D01*
X689500Y552170D01*
X689030Y551920D01*
X687370D01*
G01X689030D02*
X690030Y549500D01*
G01X693700D02*
X693170Y549580D01*
X692700Y549920D01*
X692300Y550420D01*
X692030Y551000D01*
X691900Y551670D01*
Y552330D01*
X692030Y553000D01*
X692300Y553580D01*
X692700Y554080D01*
X693170Y554420D01*
X693700Y554500D01*
X694230Y554420D01*
X694700Y554080D01*
X695100Y553580D01*
X695370Y553000D01*
X695500Y552330D01*
Y551670D01*
X695370Y551000D01*
X695100Y550420D01*
X694700Y549920D01*
X694230Y549580D01*
X693700Y549500D01*
G01X697370Y550500D02*
X697700Y550000D01*
X698100Y549670D01*
X698570Y549500D01*
X699100Y549670D01*
X699500Y550000D01*
X699900Y550500D01*
X700030Y551170D01*
Y554500D01*
G01X705030Y549500D02*
X702370D01*
Y554500D01*
X705030D01*
G01X703970Y552080D02*
X702370D01*
G01X710170Y554080D02*
X709770Y554330D01*
X709300Y554500D01*
X708770D01*
X708170Y554250D01*
X707700Y553830D01*
X707370Y553330D01*
X707100Y552500D01*
X707030Y551750D01*
X707170Y551000D01*
X707370Y550500D01*
X707770Y550000D01*
X708230Y549670D01*
X708700Y549500D01*
X709170D01*
X709630Y549670D01*
X710030Y549920D01*
X710370Y550250D01*
G01X713700Y554500D02*
Y549500D01*
G01X712170Y554500D02*
X715230D01*
G01X722170Y549500D02*
Y554500D01*
X725230Y549500D01*
Y554500D01*
G01X728700Y549500D02*
X728170Y549580D01*
X727700Y549920D01*
X727300Y550420D01*
X727030Y551000D01*
X726900Y551670D01*
Y552330D01*
X727030Y553000D01*
X727300Y553580D01*
X727700Y554080D01*
X728170Y554420D01*
X728700Y554500D01*
X729230Y554420D01*
X729700Y554080D01*
X730100Y553580D01*
X730370Y553000D01*
X730500Y552330D01*
Y551670D01*
X730370Y551000D01*
X730100Y550420D01*
X729700Y549920D01*
X729230Y549580D01*
X728700Y549500D01*
G01X733700Y549330D02*
X733570Y549420D01*
Y549580D01*
X733700Y549670D01*
X733830Y549580D01*
Y549420D01*
X733700Y549330D01*
G01Y551580D02*
X733570Y551670D01*
Y551830D01*
X733700Y551920D01*
X733830Y551830D01*
Y551670D01*
X733700Y551580D01*
G01X852170Y581300D02*
Y576300D01*
X854830D01*
G01X856830D02*
X858500Y581300D01*
X860170Y576300D01*
G01X859570Y578050D02*
X857430D01*
G01X863500Y576300D02*
Y578550D01*
X862170Y581300D01*
G01X864830D02*
X863500Y578550D01*
G01X869830Y576300D02*
X867170D01*
Y581300D01*
X869830D01*
G01X868770Y578880D02*
X867170D01*
G01X872170Y576300D02*
Y581300D01*
X873830D01*
X874370Y581050D01*
X874700Y580720D01*
X874830Y580050D01*
X874700Y579380D01*
X874300Y578970D01*
X873830Y578720D01*
X872170D01*
G01X873830D02*
X874830Y576300D01*
G01X881970D02*
Y581300D01*
X885030Y576300D01*
Y581300D01*
G01X886830Y576300D02*
X888500Y581300D01*
X890170Y576300D01*
G01X889570Y578050D02*
X887430D01*
G01X891770Y576300D02*
Y581300D01*
X893500Y577130D01*
X895230Y581300D01*
Y576300D01*
G01X899830D02*
X897170D01*
Y581300D01*
X899830D01*
G01X898770Y578880D02*
X897170D01*
G01X903500Y576130D02*
X903370Y576220D01*
Y576380D01*
X903500Y576470D01*
X903630Y576380D01*
Y576220D01*
X903500Y576130D01*
G01Y578380D02*
X903370Y578470D01*
Y578630D01*
X903500Y578720D01*
X903630Y578630D01*
Y578470D01*
X903500Y578380D01*
G01X855830Y550770D02*
X856100Y551020D01*
X856300Y551430D01*
X856430Y552020D01*
X856300Y552520D01*
X856030Y552850D01*
X855570Y553100D01*
X853770D01*
Y548100D01*
X855970D01*
X856430Y548430D01*
X856700Y548930D01*
X856830Y549520D01*
X856700Y550100D01*
X856300Y550600D01*
X855830Y550770D01*
X853770D01*
G01X860300Y548100D02*
X859770Y548180D01*
X859300Y548520D01*
X858900Y549020D01*
X858630Y549600D01*
X858500Y550270D01*
Y550930D01*
X858630Y551600D01*
X858900Y552180D01*
X859300Y552680D01*
X859770Y553020D01*
X860300Y553100D01*
X860830Y553020D01*
X861300Y552680D01*
X861700Y552180D01*
X861970Y551600D01*
X862100Y550930D01*
Y550270D01*
X861970Y549600D01*
X861700Y549020D01*
X861300Y548520D01*
X860830Y548180D01*
X860300Y548100D01*
G01X863630D02*
X865300Y553100D01*
X866970Y548100D01*
G01X866370Y549850D02*
X864230D01*
G01X868970Y548100D02*
Y553100D01*
X870630D01*
X871170Y552850D01*
X871500Y552520D01*
X871630Y551850D01*
X871500Y551180D01*
X871100Y550770D01*
X870630Y550520D01*
X868970D01*
G01X870630D02*
X871630Y548100D01*
G01X873830D02*
Y553100D01*
X875170D01*
X875700Y552850D01*
X876100Y552520D01*
X876430Y552020D01*
X876700Y551430D01*
X876770Y550600D01*
X876700Y549770D01*
X876430Y549180D01*
X876100Y548680D01*
X875700Y548350D01*
X875170Y548100D01*
X873830D01*
G01X883970D02*
Y553100D01*
X885630D01*
X886170Y552850D01*
X886500Y552520D01*
X886630Y551850D01*
X886500Y551180D01*
X886100Y550770D01*
X885630Y550520D01*
X883970D01*
G01X885630D02*
X886630Y548100D01*
G01X891630D02*
X888970D01*
Y553100D01*
X891630D01*
G01X890570Y550680D02*
X888970D01*
G01X893630Y553100D02*
X895300Y548100D01*
X896970Y553100D01*
G01X900300Y547930D02*
X900170Y548020D01*
Y548180D01*
X900300Y548270D01*
X900430Y548180D01*
Y548020D01*
X900300Y547930D01*
G01Y550180D02*
X900170Y550270D01*
Y550430D01*
X900300Y550520D01*
X900430Y550430D01*
Y550270D01*
X900300Y550180D01*
G01X928070Y548400D02*
Y553400D01*
X929730D01*
X930270Y553150D01*
X930600Y552820D01*
X930730Y552150D01*
X930600Y551480D01*
X930200Y551070D01*
X929730Y550820D01*
X928070D01*
G01X929730D02*
X930730Y548400D01*
G01X935730D02*
X933070D01*
Y553400D01*
X935730D01*
G01X934670Y550980D02*
X933070D01*
G01X938070Y553400D02*
Y548400D01*
X940730D01*
G01X945730D02*
X943070D01*
Y553400D01*
X945730D01*
G01X944670Y550980D02*
X943070D01*
G01X947730Y548400D02*
X949400Y553400D01*
X951070Y548400D01*
G01X950470Y550150D02*
X948330D01*
G01X953000Y549070D02*
X953530Y548650D01*
X954130Y548400D01*
X954670D01*
X955200Y548650D01*
X955600Y549070D01*
X955800Y549650D01*
X955670Y550230D01*
X955330Y550730D01*
X954730Y551070D01*
X953930Y551230D01*
X953470Y551570D01*
X953270Y552150D01*
X953400Y552730D01*
X953730Y553150D01*
X954200Y553400D01*
X954670D01*
X955130Y553230D01*
X955530Y552820D01*
G01X960730Y548400D02*
X958070D01*
Y553400D01*
X960730D01*
G01X959670Y550980D02*
X958070D01*
G01X967930Y548400D02*
Y553400D01*
X969270D01*
X969800Y553150D01*
X970200Y552820D01*
X970530Y552320D01*
X970800Y551730D01*
X970870Y550900D01*
X970800Y550070D01*
X970530Y549480D01*
X970200Y548980D01*
X969800Y548650D01*
X969270Y548400D01*
X967930D01*
G01X972730D02*
X974400Y553400D01*
X976070Y548400D01*
G01X975470Y550150D02*
X973330D01*
G01X979400Y553400D02*
Y548400D01*
G01X977870Y553400D02*
X980930D01*
G01X985730Y548400D02*
X983070D01*
Y553400D01*
X985730D01*
G01X984670Y550980D02*
X983070D01*
G01X989400Y548230D02*
X989270Y548320D01*
Y548480D01*
X989400Y548570D01*
X989530Y548480D01*
Y548320D01*
X989400Y548230D01*
G01Y550480D02*
X989270Y550570D01*
Y550730D01*
X989400Y550820D01*
X989530Y550730D01*
Y550570D01*
X989400Y550480D01*
G01X1054200Y538000D02*
X1053670Y538080D01*
X1053200Y538420D01*
X1052800Y538920D01*
X1052530Y539500D01*
X1052400Y540170D01*
Y540830D01*
X1052530Y541500D01*
X1052800Y542080D01*
X1053200Y542580D01*
X1053670Y542920D01*
X1054200Y543000D01*
X1054730Y542920D01*
X1055200Y542580D01*
X1055600Y542080D01*
X1055870Y541500D01*
X1056000Y540830D01*
Y540170D01*
X1055870Y539500D01*
X1055600Y538920D01*
X1055200Y538420D01*
X1054730Y538080D01*
X1054200Y538000D01*
G01X1057930D02*
Y543000D01*
X1060470D01*
G01X1059530Y540580D02*
X1057930D01*
G01X1029800Y549870D02*
X1030330Y549450D01*
X1030930Y549200D01*
X1031470D01*
X1032000Y549450D01*
X1032400Y549870D01*
X1032600Y550450D01*
X1032470Y551030D01*
X1032130Y551530D01*
X1031530Y551870D01*
X1030730Y552030D01*
X1030270Y552370D01*
X1030070Y552950D01*
X1030200Y553530D01*
X1030530Y553950D01*
X1031000Y554200D01*
X1031470D01*
X1031930Y554030D01*
X1032330Y553620D01*
G01X1034800Y549200D02*
Y554200D01*
G01X1037600D02*
Y549200D01*
G01Y551700D02*
X1034800D01*
G01X1042530Y549200D02*
X1039870D01*
Y554200D01*
X1042530D01*
G01X1041470Y551780D02*
X1039870D01*
G01X1047530Y549200D02*
X1044870D01*
Y554200D01*
X1047530D01*
G01X1046470Y551780D02*
X1044870D01*
G01X1051200Y554200D02*
Y549200D01*
G01X1049670Y554200D02*
X1052730D01*
G01X1059670Y549200D02*
Y554200D01*
X1062730Y549200D01*
Y554200D01*
G01X1066200Y549200D02*
X1065670Y549280D01*
X1065200Y549620D01*
X1064800Y550120D01*
X1064530Y550700D01*
X1064400Y551370D01*
Y552030D01*
X1064530Y552700D01*
X1064800Y553280D01*
X1065200Y553780D01*
X1065670Y554120D01*
X1066200Y554200D01*
X1066730Y554120D01*
X1067200Y553780D01*
X1067600Y553280D01*
X1067870Y552700D01*
X1068000Y552030D01*
Y551370D01*
X1067870Y550700D01*
X1067600Y550120D01*
X1067200Y549620D01*
X1066730Y549280D01*
X1066200Y549200D01*
G01X1071200Y549030D02*
X1071070Y549120D01*
Y549280D01*
X1071200Y549370D01*
X1071330Y549280D01*
Y549120D01*
X1071200Y549030D01*
G01Y551280D02*
X1071070Y551370D01*
Y551530D01*
X1071200Y551620D01*
X1071330Y551530D01*
Y551370D01*
X1071200Y551280D01*
G54D11*
X817300Y701500D03*
X809500D03*
X825200D03*
X833100D03*
X809500Y721200D03*
X817300D03*
X825200D03*
X833100D03*
X888200Y701500D03*
X840900D03*
X848800D03*
X856700D03*
X864600D03*
X872400D03*
X880300D03*
Y721200D03*
X840900D03*
X848800D03*
X856700D03*
X864600D03*
X872400D03*
G54D21*
G01X705400Y543200D02*
X706450Y536200D01*
X707650Y543200D01*
X708850Y536200D01*
X709900Y543200D01*
G01X715600Y542620D02*
X715150Y542970D01*
X714630Y543200D01*
X714030D01*
X713350Y542850D01*
X712830Y542270D01*
X712450Y541570D01*
X712150Y540400D01*
X712070Y539350D01*
X712230Y538300D01*
X712450Y537600D01*
X712900Y536900D01*
X713430Y536430D01*
X713950Y536200D01*
X714470D01*
X715000Y536430D01*
X715450Y536780D01*
X715830Y537250D01*
G01X718670Y537130D02*
X719280Y536550D01*
X719950Y536200D01*
X720550D01*
X721150Y536550D01*
X721600Y537130D01*
X721830Y537950D01*
X721680Y538770D01*
X721300Y539470D01*
X720620Y539930D01*
X719730Y540170D01*
X719200Y540630D01*
X718970Y541450D01*
X719130Y542270D01*
X719500Y542850D01*
X720020Y543200D01*
X720550D01*
X721080Y542970D01*
X721530Y542380D01*
G01X726550Y543200D02*
X725950Y542970D01*
X725500Y542380D01*
X725200Y541680D01*
X724970Y540750D01*
X724900Y539700D01*
X724970Y538650D01*
X725200Y537720D01*
X725500Y537020D01*
X725950Y536430D01*
X726550Y536200D01*
X727150Y536430D01*
X727600Y537020D01*
X727900Y537720D01*
X728130Y538650D01*
X728200Y539700D01*
X728130Y540750D01*
X727900Y541680D01*
X727600Y542380D01*
X727150Y542970D01*
X726550Y543200D01*
G01X731200Y537600D02*
X731650Y536780D01*
X732250Y536320D01*
X732930Y536200D01*
X733530Y536320D01*
X734130Y536900D01*
X734500Y537600D01*
X734570Y538300D01*
X734430Y539120D01*
X733900Y539700D01*
X733370Y539930D01*
X732700D01*
G01X733370D02*
X733820Y540280D01*
X734200Y540870D01*
X734350Y541570D01*
X734200Y542270D01*
X733820Y542850D01*
X733150Y543200D01*
X732480Y543080D01*
X731800Y542620D01*
G01X740050Y536200D02*
Y543200D01*
X737270Y538180D01*
X741030D01*
G01X707850Y595800D02*
Y588800D01*
G01X706130Y595800D02*
X709570D01*
G01X715650Y588800D02*
X712650D01*
Y595800D01*
X715650D01*
G01X714450Y592420D02*
X712650D01*
G01X718870Y588800D02*
X722030Y595800D01*
G01X718870D02*
X722030Y588800D01*
G01X724870D02*
X726750Y595800D01*
X728630Y588800D01*
G01X727950Y591250D02*
X725550D01*
G01X731470Y589730D02*
X732080Y589150D01*
X732750Y588800D01*
X733350D01*
X733950Y589150D01*
X734400Y589730D01*
X734630Y590550D01*
X734480Y591370D01*
X734100Y592070D01*
X733420Y592530D01*
X732530Y592770D01*
X732000Y593230D01*
X731770Y594050D01*
X731930Y594870D01*
X732300Y595450D01*
X732820Y595800D01*
X733350D01*
X733880Y595570D01*
X734330Y594980D01*
G01X744750Y595800D02*
X746550D01*
G01X745650D02*
Y588800D01*
G01X744750D02*
X746550D01*
G01X750230D02*
Y595800D01*
X753670Y588800D01*
Y595800D01*
G01X756670Y589730D02*
X757280Y589150D01*
X757950Y588800D01*
X758550D01*
X759150Y589150D01*
X759600Y589730D01*
X759830Y590550D01*
X759680Y591370D01*
X759300Y592070D01*
X758620Y592530D01*
X757730Y592770D01*
X757200Y593230D01*
X756970Y594050D01*
X757130Y594870D01*
X757500Y595450D01*
X758020Y595800D01*
X758550D01*
X759080Y595570D01*
X759530Y594980D01*
G01X764550Y595800D02*
Y588800D01*
G01X762830Y595800D02*
X766270D01*
G01X769350Y588800D02*
Y595800D01*
X771220D01*
X771820Y595450D01*
X772200Y594980D01*
X772350Y594050D01*
X772200Y593120D01*
X771750Y592530D01*
X771220Y592180D01*
X769350D01*
G01X771220D02*
X772350Y588800D01*
G01X775500Y595800D02*
Y590780D01*
X775800Y589730D01*
X776400Y589030D01*
X777150Y588800D01*
X777900Y589030D01*
X778500Y589730D01*
X778800Y590780D01*
Y595800D01*
G01X781500Y588800D02*
Y595800D01*
X783450Y589970D01*
X785400Y595800D01*
Y588800D01*
G01X791250D02*
X788250D01*
Y595800D01*
X791250D01*
G01X790050Y592420D02*
X788250D01*
G01X794330Y588800D02*
Y595800D01*
X797770Y588800D01*
Y595800D01*
G01X802350D02*
Y588800D01*
G01X800630Y595800D02*
X804070D01*
G01X807070Y589730D02*
X807680Y589150D01*
X808350Y588800D01*
X808950D01*
X809550Y589150D01*
X810000Y589730D01*
X810230Y590550D01*
X810080Y591370D01*
X809700Y592070D01*
X809020Y592530D01*
X808130Y592770D01*
X807600Y593230D01*
X807370Y594050D01*
X807530Y594870D01*
X807900Y595450D01*
X808420Y595800D01*
X808950D01*
X809480Y595570D01*
X809930Y594980D01*
G01X706650Y570800D02*
Y563800D01*
X709650D01*
G01X712570D02*
X714450Y570800D01*
X716330Y563800D01*
G01X715650Y566250D02*
X713250D01*
G01X719100Y570800D02*
Y565780D01*
X719400Y564730D01*
X720000Y564030D01*
X720750Y563800D01*
X721500Y564030D01*
X722100Y564730D01*
X722400Y565780D01*
Y570800D01*
G01X725330Y563800D02*
Y570800D01*
X728770Y563800D01*
Y570800D01*
G01X735000Y570220D02*
X734550Y570570D01*
X734030Y570800D01*
X733430D01*
X732750Y570450D01*
X732230Y569870D01*
X731850Y569170D01*
X731550Y568000D01*
X731470Y566950D01*
X731630Y565900D01*
X731850Y565200D01*
X732300Y564500D01*
X732830Y564030D01*
X733350Y563800D01*
X733870D01*
X734400Y564030D01*
X734850Y564380D01*
X735230Y564850D01*
G01X738070Y563800D02*
Y570800D01*
G01X741230D02*
Y563800D01*
G01Y567300D02*
X738070D01*
G01X744370Y563800D02*
X747530Y570800D01*
G01X744370D02*
X747530Y563800D01*
G01X750750Y570800D02*
Y563800D01*
X753750D01*
G01X757580Y566130D02*
X759520D01*
G01X766500Y570220D02*
X766050Y570570D01*
X765530Y570800D01*
X764930D01*
X764250Y570450D01*
X763730Y569870D01*
X763350Y569170D01*
X763050Y568000D01*
X762970Y566950D01*
X763130Y565900D01*
X763350Y565200D01*
X763800Y564500D01*
X764330Y564030D01*
X764850Y563800D01*
X765370D01*
X765900Y564030D01*
X766350Y564380D01*
X766730Y564850D01*
G01X772800Y570220D02*
X772350Y570570D01*
X771830Y570800D01*
X771230D01*
X770550Y570450D01*
X770030Y569870D01*
X769650Y569170D01*
X769350Y568000D01*
X769270Y566950D01*
X769430Y565900D01*
X769650Y565200D01*
X770100Y564500D01*
X770630Y564030D01*
X771150Y563800D01*
X771670D01*
X772200Y564030D01*
X772650Y564380D01*
X773030Y564850D01*
G01X777450Y563800D02*
Y570800D01*
X776550Y569400D01*
G01Y563800D02*
X778350D01*
G01X782100Y565200D02*
X782550Y564380D01*
X783150Y563920D01*
X783830Y563800D01*
X784430Y563920D01*
X785030Y564500D01*
X785400Y565200D01*
X785470Y565900D01*
X785330Y566720D01*
X784800Y567300D01*
X784270Y567530D01*
X783600D01*
G01X784270D02*
X784720Y567880D01*
X785100Y568470D01*
X785250Y569170D01*
X785100Y569870D01*
X784720Y570450D01*
X784050Y570800D01*
X783380Y570680D01*
X782700Y570220D01*
G01X788400Y564850D02*
X788850Y564270D01*
X789370Y563920D01*
X790050Y563800D01*
X790730Y564030D01*
X791250Y564500D01*
X791630Y565320D01*
X791700Y566250D01*
X791550Y567180D01*
X791170Y567770D01*
X790650Y568230D01*
X790130Y568350D01*
X789600Y568230D01*
X788930Y567770D01*
X789150Y570800D01*
X791170D01*
G01X796350D02*
X795750Y570570D01*
X795300Y569980D01*
X795000Y569280D01*
X794770Y568350D01*
X794700Y567300D01*
X794770Y566250D01*
X795000Y565320D01*
X795300Y564620D01*
X795750Y564030D01*
X796350Y563800D01*
X796950Y564030D01*
X797400Y564620D01*
X797700Y565320D01*
X797930Y566250D01*
X798000Y567300D01*
X797930Y568350D01*
X797700Y569280D01*
X797400Y569980D01*
X796950Y570570D01*
X796350Y570800D01*
G01X801680Y566130D02*
X803620D01*
G01X809850Y563800D02*
Y570800D01*
X807070Y565780D01*
X810830D01*
G01X863570Y539600D02*
X865450Y546600D01*
X867330Y539600D01*
G01X866650Y542050D02*
X864250D01*
G01X947620Y545230D02*
X948080Y545930D01*
X948600Y546280D01*
X949200Y546400D01*
X949950Y546170D01*
X950480Y545580D01*
X950630Y544880D01*
X950550Y544180D01*
X950250Y543600D01*
X948750Y542430D01*
X948080Y541620D01*
X947620Y540450D01*
X947470Y539400D01*
X950630D01*
G01X955350Y546400D02*
X954750Y546170D01*
X954300Y545580D01*
X954000Y544880D01*
X953770Y543950D01*
X953700Y542900D01*
X953770Y541850D01*
X954000Y540920D01*
X954300Y540220D01*
X954750Y539630D01*
X955350Y539400D01*
X955950Y539630D01*
X956400Y540220D01*
X956700Y540920D01*
X956930Y541850D01*
X957000Y542900D01*
X956930Y543950D01*
X956700Y544880D01*
X956400Y545580D01*
X955950Y546170D01*
X955350Y546400D01*
G01X961650Y539400D02*
Y546400D01*
X960750Y545000D01*
G01Y539400D02*
X962550D01*
G01X967800D02*
X967950Y540920D01*
X968180Y542200D01*
X968470Y543370D01*
X968850Y544650D01*
X969450Y546400D01*
X966450D01*
G01X973280Y541730D02*
X975220D01*
G01X980550Y546400D02*
X979950Y546170D01*
X979500Y545580D01*
X979200Y544880D01*
X978970Y543950D01*
X978900Y542900D01*
X978970Y541850D01*
X979200Y540920D01*
X979500Y540220D01*
X979950Y539630D01*
X980550Y539400D01*
X981150Y539630D01*
X981600Y540220D01*
X981900Y540920D01*
X982130Y541850D01*
X982200Y542900D01*
X982130Y543950D01*
X981900Y544880D01*
X981600Y545580D01*
X981150Y546170D01*
X980550Y546400D01*
G01X986850Y539400D02*
Y546400D01*
X985950Y545000D01*
G01Y539400D02*
X987750D01*
G01X992180Y541730D02*
X994120D01*
G01X998020Y545230D02*
X998480Y545930D01*
X999000Y546280D01*
X999600Y546400D01*
X1000350Y546170D01*
X1000880Y545580D01*
X1001030Y544880D01*
X1000950Y544180D01*
X1000650Y543600D01*
X999150Y542430D01*
X998480Y541620D01*
X998020Y540450D01*
X997870Y539400D01*
X1001030D01*
G01X1004100Y540800D02*
X1004550Y539980D01*
X1005150Y539520D01*
X1005830Y539400D01*
X1006430Y539520D01*
X1007030Y540100D01*
X1007400Y540800D01*
X1007470Y541500D01*
X1007330Y542320D01*
X1006800Y542900D01*
X1006270Y543130D01*
X1005600D01*
G01X1006270D02*
X1006720Y543480D01*
X1007100Y544070D01*
X1007250Y544770D01*
X1007100Y545470D01*
X1006720Y546050D01*
X1006050Y546400D01*
X1005380Y546280D01*
X1004700Y545820D01*
G01X909850Y577300D02*
Y570300D01*
X912850D01*
G01X919000D02*
Y574970D01*
G01Y574150D02*
X918700Y574620D01*
X918250Y574850D01*
X917730Y574970D01*
X917200Y574730D01*
X916750Y574270D01*
X916450Y573570D01*
X916300Y572630D01*
X916450Y571700D01*
X916750Y571000D01*
X917200Y570530D01*
X917730Y570300D01*
X918250Y570420D01*
X918700Y570770D01*
X919000Y571230D01*
G01X922370Y568200D02*
X922830Y567970D01*
X923430Y568200D01*
X923800Y568670D01*
X924100Y569250D01*
X924550Y571120D01*
X925530Y574970D01*
G01X923120D02*
X924550Y571120D01*
G01X929130Y573450D02*
X931530D01*
X931300Y574270D01*
X930930Y574730D01*
X930400Y574970D01*
X929880Y574850D01*
X929420Y574500D01*
X929130Y573680D01*
X928970Y572980D01*
Y572280D01*
X929130Y571580D01*
X929500Y570880D01*
X929950Y570420D01*
X930480Y570300D01*
X931000Y570530D01*
X931530Y571230D01*
G01X935500Y570300D02*
Y574970D01*
G01Y574030D02*
X935870Y574500D01*
X936250Y574850D01*
X936780Y574970D01*
X937150Y574850D01*
X937600Y574500D01*
G01X941880Y572630D02*
X943820D01*
G01X947500Y571700D02*
X947950Y570880D01*
X948550Y570420D01*
X949230Y570300D01*
X949830Y570420D01*
X950430Y571000D01*
X950800Y571700D01*
X950870Y572400D01*
X950730Y573220D01*
X950200Y573800D01*
X949670Y574030D01*
X949000D01*
G01X949670D02*
X950120Y574380D01*
X950500Y574970D01*
X950650Y575670D01*
X950500Y576370D01*
X950120Y576950D01*
X949450Y577300D01*
X948780Y577180D01*
X948100Y576720D01*
G01X969700Y832300D02*
Y820700D01*
G01X1066850Y537700D02*
Y544700D01*
X1065950Y543300D01*
G01Y537700D02*
X1067750D01*
G01X1073150Y544700D02*
X1072550Y544470D01*
X1072100Y543880D01*
X1071800Y543180D01*
X1071570Y542250D01*
X1071500Y541200D01*
X1071570Y540150D01*
X1071800Y539220D01*
X1072100Y538520D01*
X1072550Y537930D01*
X1073150Y537700D01*
X1073750Y537930D01*
X1074200Y538520D01*
X1074500Y539220D01*
X1074730Y540150D01*
X1074800Y541200D01*
X1074730Y542250D01*
X1074500Y543180D01*
X1074200Y543880D01*
X1073750Y544470D01*
X1073150Y544700D01*
G01X1044500Y538300D02*
X1044950Y537480D01*
X1045550Y537020D01*
X1046230Y536900D01*
X1046830Y537020D01*
X1047430Y537600D01*
X1047800Y538300D01*
X1047870Y539000D01*
X1047730Y539820D01*
X1047200Y540400D01*
X1046670Y540630D01*
X1046000D01*
G01X1046670D02*
X1047120Y540980D01*
X1047500Y541570D01*
X1047650Y542270D01*
X1047500Y542970D01*
X1047120Y543550D01*
X1046450Y543900D01*
X1045780Y543780D01*
X1045100Y543320D01*
G54D12*
X826500Y760300D03*
X831900Y758500D03*
X834100Y765600D03*
X826400Y765100D03*
X816300Y761300D03*
X819300Y758400D03*
X819500Y764800D03*
X816300Y770900D03*
X816100Y774300D03*
X825500Y773600D03*
X816300Y768400D03*
X829400D03*
X822800D03*
X826200Y755300D03*
X802300D03*
X790400D03*
X813000D03*
X829700Y834000D03*
X832500Y827900D03*
X826300Y827700D03*
X829200Y823800D03*
X822500Y823600D03*
X833800Y823200D03*
X819900Y827300D03*
X816400Y823300D03*
X805600Y827900D03*
X831800Y819000D03*
X825900Y818700D03*
X819800Y818600D03*
X816300Y808400D03*
X816000Y811600D03*
X825600Y809300D03*
X834400Y814400D03*
X816300D03*
X823000D03*
X828700D03*
X828600Y882600D03*
Y889800D03*
X821300Y836200D03*
X825000Y842300D03*
X805600Y837200D03*
X828800Y848300D03*
X820400Y847900D03*
X823100Y855800D03*
X825900Y861900D03*
X815200Y861700D03*
X833300Y869700D03*
X794900Y874600D03*
Y886500D03*
X806600Y859300D03*
X804800Y866000D03*
X804500Y876700D03*
Y886700D03*
X790400Y892600D03*
Y881600D03*
Y869000D03*
X793300Y846100D03*
X805800Y846700D03*
X797200Y853500D03*
X834500Y877100D03*
X829400Y872400D03*
X828300Y945500D03*
X828400Y899800D03*
Y904900D03*
X828900Y914900D03*
X828500Y894900D03*
X828000Y919700D03*
X834400Y925100D03*
X828000Y929600D03*
X827600Y934400D03*
X827900Y939700D03*
X795000Y897500D03*
X795100Y908700D03*
X795300Y921000D03*
X795400Y932300D03*
X795500Y943300D03*
X804200Y895100D03*
X804500Y905700D03*
Y915900D03*
X804800Y926100D03*
X804500Y936400D03*
X804200Y946300D03*
X790500Y949900D03*
X790400Y937200D03*
Y928200D03*
Y915900D03*
X790600Y902600D03*
X834400Y914600D03*
X814400Y1002400D03*
X817400Y996200D03*
X826100Y994300D03*
X824700Y988900D03*
X814600Y989100D03*
X807800Y984400D03*
X808400Y1002400D03*
X807200Y996000D03*
X795700Y958400D03*
X801300Y969200D03*
X804200Y956100D03*
X834000Y977000D03*
X826000D03*
X820000D03*
X814000D03*
X797600Y996900D03*
X828000Y970000D03*
X826400Y1000800D03*
X792900Y968100D03*
X829800Y952400D03*
X815400Y1026000D03*
X805100D03*
X807500Y1068100D03*
X792900Y1066900D03*
X793700Y1053500D03*
X833900Y1044100D03*
X822800D03*
X831900Y1031900D03*
X812600Y1031500D03*
X801600Y1030300D03*
X801400Y1033500D03*
X822400Y1027900D03*
X793900Y1068900D03*
X832400Y1034300D03*
X798200Y1054300D03*
X823900Y1123500D03*
X822600Y1108800D03*
X821000Y1116100D03*
X819700Y1123000D03*
X805900Y1106300D03*
X803900Y1108700D03*
X830600Y1104600D03*
X800700Y1116000D03*
X795700Y1121000D03*
X796500Y1080300D03*
X793700Y1072800D03*
X833900Y1094500D03*
X800700Y1120900D03*
X795700Y1126000D03*
Y1116100D03*
X801200Y1110600D03*
X808300Y1124000D03*
X814300D03*
X797600Y1099600D03*
X795300Y1111800D03*
X794300Y1086600D03*
X833500Y1111400D03*
X835000Y1103800D03*
X817300Y1103900D03*
X795700Y1131000D03*
X832500Y1130500D03*
X800800Y1131100D03*
X827100Y1137300D03*
X829900Y1129900D03*
X834800Y1137200D03*
X824500Y1129400D03*
X832200Y1137300D03*
X821600Y1129500D03*
X829700Y1137300D03*
X816100Y1144100D03*
X817700Y1139000D03*
X892200Y775800D03*
X892500Y763000D03*
Y759200D03*
X892400Y766900D03*
X891100Y769800D03*
X888400Y772700D03*
X885200Y770800D03*
X882100Y773700D03*
X838100Y761700D03*
X879000Y758300D03*
X868200Y758400D03*
X856000Y758200D03*
X843700Y758300D03*
X859300Y763700D03*
X850500Y763400D03*
X843100Y763200D03*
X849300Y770700D03*
X843400D03*
X854800Y770600D03*
X852800Y774600D03*
X845500Y774900D03*
X883600Y759600D03*
X857500Y773600D03*
X860700Y770500D03*
X864300Y766900D03*
X868500Y762600D03*
X872600Y762500D03*
X877800Y762600D03*
X884800D03*
X872500Y770400D03*
X875800Y773100D03*
X878600Y770800D03*
X836600Y768400D03*
X836900Y774100D03*
X836800Y770900D03*
X839400Y773100D03*
X892900Y755300D03*
X838700D03*
X848700D03*
X861700D03*
X873000D03*
X883500D03*
X889700Y827700D03*
X892400Y826500D03*
X867200Y827700D03*
X866800Y834500D03*
X861400Y830600D03*
X851600Y826700D03*
X851000Y832600D03*
X858100Y827100D03*
X857400Y834200D03*
X862100Y822500D03*
X866900Y822600D03*
X872900Y822000D03*
X883700Y822500D03*
X873400Y831800D03*
X843700Y823100D03*
X877700Y822400D03*
X873400Y826500D03*
X892100Y783400D03*
X886900Y778600D03*
X891100Y808100D03*
X885600Y784100D03*
X889500Y787900D03*
X893400Y788500D03*
X886900Y798500D03*
X893000Y804100D03*
X889700Y800600D03*
X889900Y804100D03*
X891100Y820600D03*
X893200Y814700D03*
X870900Y801600D03*
X866400Y787400D03*
X872300Y791100D03*
X867400Y794500D03*
X874900Y795600D03*
X865800Y799600D03*
X875400Y800400D03*
X876300Y807700D03*
X868700Y806900D03*
X862200Y804700D03*
X865000Y810900D03*
X872000Y812300D03*
X880800Y810300D03*
X879800Y804100D03*
X884700Y805500D03*
X882700Y799900D03*
X877100Y791000D03*
X868400Y782500D03*
X867800Y816600D03*
X874200Y816800D03*
X862200Y816400D03*
X842700Y819100D03*
X850900Y819000D03*
X854800Y815400D03*
X846800D03*
X840100Y815200D03*
X837800Y819000D03*
X843400Y811500D03*
X851900D03*
X858400Y811900D03*
X855800Y806300D03*
X848400D03*
X858400Y800900D03*
X852500Y800400D03*
X845400Y800100D03*
X849000Y779100D03*
X852900Y782600D03*
X845500Y782500D03*
X841300Y780300D03*
Y803000D03*
X862800Y784600D03*
X862700Y779700D03*
X862000Y790100D03*
X860800Y795100D03*
X855500Y796400D03*
X848700D03*
X841300D03*
X842100Y786500D03*
X848800Y786600D03*
X855000Y786500D03*
X855100Y778900D03*
X878500Y776800D03*
X881900Y780500D03*
X868000Y777600D03*
X865400Y777300D03*
X873200Y782700D03*
X876500Y786000D03*
X873600Y785600D03*
X881600Y791200D03*
X885000Y794500D03*
X882200Y794200D03*
X836800Y808700D03*
X836600Y811800D03*
X839400Y809300D03*
X880700Y815700D03*
X890400Y813100D03*
X884200Y819300D03*
X837100Y889900D03*
X888700Y839400D03*
X888400Y842300D03*
X877700Y843000D03*
X882800Y843100D03*
X869100Y838400D03*
X866000Y841600D03*
X861000Y838100D03*
X851300Y838500D03*
X857000Y841000D03*
X873600Y836300D03*
X880300Y840800D03*
X874900Y840700D03*
X884700D03*
X890100Y877800D03*
X856200Y881500D03*
X850700Y881900D03*
X842300Y881700D03*
X850600Y871900D03*
X841700Y871800D03*
X857600Y852000D03*
X858000Y861300D03*
X887700Y868500D03*
X887900Y873100D03*
X890900Y884400D03*
X888100Y864700D03*
X885100Y861100D03*
X872700Y855000D03*
X868500Y852500D03*
X841000Y890200D03*
X882500Y858700D03*
X864900Y850200D03*
X859800Y848500D03*
X858300Y865900D03*
Y892500D03*
X879600Y857200D03*
X876400Y856200D03*
X852050Y892450D03*
X854100Y845100D03*
X871600Y945800D03*
X864900D03*
X865100Y940700D03*
X849200Y945700D03*
X859600D03*
X844000Y945800D03*
X871600Y940400D03*
X873400Y934200D03*
X874500Y922300D03*
X870500Y911600D03*
X874500Y911200D03*
X874600Y902300D03*
X866400Y901900D03*
X870500Y901800D03*
X866100Y911900D03*
X853200Y909200D03*
X839900Y909300D03*
X837500Y905100D03*
X838100Y900000D03*
X853100D03*
X853300Y904900D03*
X870000Y924500D03*
X855900Y919800D03*
X843400Y919700D03*
X859100Y924900D03*
X850400Y924700D03*
X854800Y929700D03*
X859400Y934900D03*
X849400Y934800D03*
X844200Y929500D03*
X844300Y934500D03*
X850200Y951400D03*
X838200Y940400D03*
X855400Y940600D03*
X880800Y909400D03*
X881000Y922800D03*
X880200Y942300D03*
X881000Y931800D03*
X891100Y912000D03*
X891000Y901900D03*
X890900Y920100D03*
X890700Y924600D03*
X890600Y931600D03*
X890400Y940400D03*
X890600Y947200D03*
X867500Y937300D03*
X862500Y927300D03*
X869700Y932100D03*
X866800Y921000D03*
X882100Y946800D03*
X862100Y911200D03*
X859000Y902500D03*
X857200Y950600D03*
X836600Y895000D03*
X879600Y905600D03*
X874100Y943200D03*
X878000Y953400D03*
X867700Y964600D03*
X881100Y964200D03*
X885000Y959000D03*
X875400Y963100D03*
X867300Y959400D03*
X850400Y960400D03*
X850300Y965800D03*
X890600Y959700D03*
X879000Y991000D03*
X883000Y985000D03*
X888200Y989700D03*
X887000Y995000D03*
X876000Y986000D03*
Y994000D03*
X865000Y985000D03*
Y994000D03*
X857000Y989000D03*
X838000Y990000D03*
X847000Y982000D03*
Y988000D03*
Y995000D03*
X838000D03*
X891000Y977000D03*
X884600Y977100D03*
X880200D03*
X869800Y979800D03*
X865000Y977000D03*
X860000D03*
X849000D03*
X840000D03*
X891000Y970000D03*
X875000Y977000D03*
X880500Y970100D03*
X884700Y970200D03*
X875000Y970000D03*
X870000D03*
X866000D03*
X860000D03*
X846000D03*
X837000D03*
X855000D03*
X857000Y995000D03*
X870000Y989000D03*
X887700Y965700D03*
Y982600D03*
X892500Y988100D03*
X872500Y982500D03*
Y966500D03*
X862500Y982100D03*
Y966000D03*
X846900Y956000D03*
X857200Y964700D03*
X861800Y1019300D03*
X837800Y1032700D03*
X878500Y1028400D03*
Y1030700D03*
X863400D03*
X869300Y1021300D03*
X886200Y1022000D03*
X887800Y1036600D03*
X868900Y1039000D03*
X871300Y1067300D03*
X857900Y1068100D03*
X886200Y1046900D03*
X875200Y1059800D03*
X851600Y1030700D03*
X857100Y1029100D03*
X863400Y1028000D03*
X883100Y1038200D03*
X891500Y1022400D03*
X867200Y1066900D03*
X868900Y1053900D03*
X848400Y1030900D03*
X872800Y1031100D03*
X888600D03*
X880000Y1038200D03*
X877200Y1046100D03*
X868900Y1044100D03*
X879100D03*
X857500Y1026400D03*
X879900Y1021300D03*
X887600Y1016600D03*
X888600Y1028000D03*
X872800D03*
X860600Y1037400D03*
X881900Y1036200D03*
X868900Y1059100D03*
X861800Y1118900D03*
X843700Y1112600D03*
X856700Y1107900D03*
X859400Y1111800D03*
X858300Y1079500D03*
X855500Y1094500D03*
X854700Y1112800D03*
X873600Y1098400D03*
X868500Y1105900D03*
X876400Y1085400D03*
X875200Y1073200D03*
X852800Y1124000D03*
X878300Y1129900D03*
X853500Y1148800D03*
X884600Y1152800D03*
X857900Y1129100D03*
X844500Y1135000D03*
X849600Y1131500D03*
X841700Y1131100D03*
X840600Y1134600D03*
X845300Y1128300D03*
X835400Y1133500D03*
X847200Y1140200D03*
X848800Y1143700D03*
X854300Y1142900D03*
X949900Y775400D03*
X949800Y769700D03*
X949000Y766400D03*
X951600Y761600D03*
X896400Y768800D03*
X898700Y773600D03*
X907800Y776600D03*
X923100Y772000D03*
X917900Y771600D03*
X911900Y772100D03*
X904300Y771400D03*
X927300Y766700D03*
X921000Y767000D03*
X914500Y766500D03*
X908200Y767300D03*
X900900Y767000D03*
X897300Y761000D03*
X904900Y761500D03*
X911300Y761400D03*
X918400Y761600D03*
X925100Y761300D03*
X931600D03*
X935900Y757600D03*
X901400Y757400D03*
X908000Y757300D03*
X914600Y757400D03*
X940200Y759500D03*
X932100Y766700D03*
X926900Y772700D03*
X939300Y775700D03*
X942600Y772300D03*
X944100Y760600D03*
X940100Y764800D03*
X936100D03*
X933300Y771700D03*
X936200Y768600D03*
X930500Y774400D03*
X951700Y756100D03*
X951600Y752800D03*
X921500Y757200D03*
X928400D03*
X944100Y755500D03*
X924800Y752800D03*
X931700Y753000D03*
X918200Y752800D03*
X911800D03*
X905000D03*
X896500Y752700D03*
X893800Y823200D03*
X938600Y833100D03*
X950600Y810900D03*
X951800Y805400D03*
X949100Y802000D03*
X951800Y798500D03*
X949800Y795100D03*
Y780300D03*
Y785800D03*
X941400Y812500D03*
X940200Y805500D03*
X935200Y791400D03*
X930900Y795700D03*
X929400Y798900D03*
X902800Y777600D03*
X909800Y781300D03*
X914700Y782900D03*
X915400Y777400D03*
X921300Y778300D03*
X911700Y786900D03*
X903200Y783900D03*
X905200Y788800D03*
X905700Y795600D03*
X898000Y782200D03*
X898600Y787500D03*
X938900Y788700D03*
X938600Y793500D03*
X934200Y795100D03*
X933900Y788100D03*
X930400Y791600D03*
X940900Y798100D03*
X934300Y798900D03*
X927400Y796300D03*
X924200Y797800D03*
X942200Y802200D03*
Y808500D03*
X945400Y811800D03*
X948400Y807900D03*
X946300Y805100D03*
Y798300D03*
X938900Y815600D03*
X946400Y815700D03*
X936900Y802900D03*
X933900Y802000D03*
X930900Y801900D03*
X927900Y801700D03*
X924600Y801800D03*
X914100Y805500D03*
X916800Y803600D03*
X920800Y803900D03*
X920600Y799800D03*
X925700Y791600D03*
X928000Y777300D03*
X929000Y786400D03*
X942600Y784100D03*
X942500Y778200D03*
X932400Y782900D03*
X936400Y783100D03*
X936200Y778800D03*
X942900Y792200D03*
X943100Y789100D03*
X944200Y794800D03*
X925200Y780100D03*
X923000Y783900D03*
X919300Y783700D03*
X915600Y789000D03*
X919200Y787600D03*
X908700Y791700D03*
X912500Y791800D03*
X908700Y795600D03*
X907000Y800100D03*
X903800Y799700D03*
X895600Y806600D03*
X901100Y792600D03*
X897900D03*
X901100Y796100D03*
X917900Y810400D03*
X918200Y814400D03*
X913900Y818500D03*
X924200Y810600D03*
X936900Y808700D03*
X931400Y810600D03*
X936800Y812700D03*
X895200Y817000D03*
X895700Y812600D03*
X898500Y810300D03*
X911900Y810400D03*
X913500Y812600D03*
X905600Y802400D03*
X951800Y825700D03*
X944100Y828600D03*
X941900Y829800D03*
X949300Y826700D03*
X946600Y827400D03*
X910800Y818600D03*
X898500Y818500D03*
X922400Y818700D03*
X909700Y808800D03*
X900900D03*
X951300Y887300D03*
X912000Y884400D03*
X902800Y884800D03*
X898400Y880300D03*
X897400Y884500D03*
X937700Y858000D03*
X939000Y854900D03*
X900300Y873700D03*
X903100Y872800D03*
X905100D03*
Y870900D03*
X903100D03*
X939000Y852000D03*
X935200Y859900D03*
X897200Y841600D03*
X893800Y836800D03*
X931900Y892500D03*
Y866100D03*
X935600Y865400D03*
X929100Y866800D03*
Y882200D03*
X926900Y872400D03*
X940700Y885500D03*
X894100Y880900D03*
X914700Y868200D03*
X917300Y887500D03*
Y871000D03*
X920000Y875300D03*
X942800Y888300D03*
X924300Y869700D03*
X922500Y872100D03*
X924800Y925100D03*
X925200Y929700D03*
X945200Y925200D03*
X945100Y929900D03*
X947100Y939900D03*
X946900Y945300D03*
X944600Y900000D03*
X945200Y904800D03*
X922700Y934600D03*
X924400Y939700D03*
X917400Y910900D03*
X931300Y910700D03*
X931200Y902400D03*
X917300D03*
X945000Y911500D03*
X945200Y918800D03*
X952100Y935100D03*
Y939500D03*
X909500Y900100D03*
X912000Y904500D03*
X903800Y903200D03*
X898900Y900100D03*
X896700Y904400D03*
X907500Y909800D03*
X904500Y914300D03*
X899700Y910500D03*
X896900Y914500D03*
X911500Y914000D03*
X903800Y923400D03*
X911300Y922300D03*
X916700Y918100D03*
X917600Y924800D03*
X899100Y920300D03*
X896700Y924800D03*
X917100Y934800D03*
X913800Y929500D03*
X901900Y929600D03*
X907200Y934800D03*
X896900Y934500D03*
X903200Y949500D03*
X918100Y944200D03*
X914600Y940100D03*
X906800Y944200D03*
X897800Y942000D03*
X920400Y949700D03*
X914000Y949900D03*
X898100Y951100D03*
X935600Y902400D03*
X945500Y937300D03*
X912400Y917400D03*
X921500Y942400D03*
X945200Y895000D03*
X951100Y912400D03*
X925800Y922400D03*
X924700Y932500D03*
X920300Y966200D03*
X914100D03*
X907400Y965900D03*
X895400Y985200D03*
X907500Y985500D03*
X917100Y985800D03*
X943500Y998200D03*
X930700Y988700D03*
X935000Y976500D03*
X943300Y953500D03*
X917200Y990800D03*
X907600Y992500D03*
X922600Y953800D03*
X907100D03*
X897900Y959400D03*
X946900Y965400D03*
X905000Y970500D03*
X910600Y970400D03*
X898000Y992700D03*
X946500Y959500D03*
X922200Y976900D03*
X916700Y976800D03*
X908800Y980500D03*
X905900Y976700D03*
X897000Y977000D03*
X938000Y970000D03*
X945000D03*
X950000D03*
X939200Y963900D03*
X897000Y970000D03*
X945300Y991300D03*
X951200Y1008300D03*
X916800Y970100D03*
X922800D03*
X941800Y1003700D03*
X939400Y977000D03*
X939200Y983100D03*
X902500Y980100D03*
X935300Y962900D03*
X934100Y996200D03*
X939800Y998000D03*
X899900Y979000D03*
Y988100D03*
X938100Y959400D03*
X912600Y979500D03*
Y993300D03*
X944100D03*
X928800D03*
X932800Y967800D03*
X922500Y985500D03*
X941700Y983500D03*
X931600Y985500D03*
X929100Y977400D03*
Y969300D03*
X945900Y952400D03*
X940700Y956000D03*
X933900Y987400D03*
X949600Y962600D03*
X926300Y977000D03*
Y967000D03*
X949400Y1006100D03*
X942000Y1012400D03*
X894700Y1028400D03*
X894500Y1030400D03*
X931200Y1027400D03*
X942500Y1046900D03*
X942900Y1021300D03*
X936200Y1037400D03*
X895700Y1040200D03*
X906300Y1037800D03*
X917300Y1026800D03*
X921600Y1020800D03*
X904700Y1023200D03*
X899600Y1022800D03*
X899000Y1034600D03*
X927600Y1037800D03*
X943300Y1031900D03*
X904300Y1031100D03*
X930700Y1020700D03*
X932400Y1023400D03*
X948800Y1027200D03*
X904300Y1028000D03*
X900300Y1018500D03*
X945700Y1025200D03*
X914200Y1150000D03*
X972200Y767300D03*
X965600Y771400D03*
X965000Y766700D03*
X961000Y757700D03*
X969600Y757900D03*
X977500Y757600D03*
X984600Y757800D03*
X988000Y761900D03*
X980400Y762100D03*
X974000Y762400D03*
X965800Y762200D03*
X957600Y762300D03*
X954800Y766100D03*
X960400Y766700D03*
X961500Y771600D03*
X954500Y769500D03*
X957500Y773000D03*
X968200Y773400D03*
X989200Y769600D03*
X968700D03*
X989200Y773500D03*
X979500Y772500D03*
X987500Y767400D03*
X983100D03*
X978300D03*
X964100Y774600D03*
X954400Y758900D03*
X998500Y752800D03*
X987900D03*
X1006600D03*
X978400D03*
X971000D03*
X963700D03*
X956900D03*
X964900Y822000D03*
X962200Y826500D03*
X967100D03*
X964900Y829300D03*
X961900Y831900D03*
X966500Y833100D03*
X980000Y827700D03*
X988900Y813400D03*
X965700Y808400D03*
X971700Y813400D03*
X966900Y812700D03*
X983000Y813400D03*
X977200D03*
X969200Y807400D03*
X969600Y810800D03*
X989000D03*
X989100Y807500D03*
X979800Y809100D03*
X954000Y776700D03*
X959800Y776800D03*
X956800Y780800D03*
X958400Y811200D03*
X960800Y808300D03*
X954600D03*
X957900Y805400D03*
X954500Y802100D03*
X956300Y798500D03*
X961200Y798000D03*
X960100Y802800D03*
X952900Y815600D03*
X958900Y815000D03*
X963300Y818000D03*
X959000Y820400D03*
X964000Y780400D03*
X963900Y805700D03*
X964000Y800400D03*
X954000Y795100D03*
X958700D03*
X964100Y795200D03*
X954000Y785800D03*
X958700D03*
X964200Y785700D03*
X979000Y820700D03*
X985500Y828200D03*
X954400Y824600D03*
X959700Y824300D03*
X956900Y823200D03*
X952200Y867700D03*
X960500Y887400D03*
X981200Y859800D03*
X978700Y863800D03*
X962300Y852500D03*
X987700Y861700D03*
X999200Y861800D03*
X1001400Y887800D03*
X1001700Y877400D03*
X998800Y843700D03*
X1006300Y838600D03*
X1008900Y870200D03*
X999500Y852100D03*
X978100Y843400D03*
X972300Y841400D03*
X972400Y839000D03*
X969500Y839500D03*
X980900Y836600D03*
X976300Y841400D03*
X985400Y835900D03*
X962500Y835500D03*
X959700Y877500D03*
X983900Y849300D03*
X975700Y877400D03*
X981700Y847300D03*
X980400Y845400D03*
X973100Y886200D03*
X962900Y900000D03*
X973300Y924900D03*
X973200Y929800D03*
Y935100D03*
X973500Y939800D03*
X973400Y944900D03*
X968500Y909700D03*
X962600Y905500D03*
X961000Y909500D03*
X962900Y925400D03*
X969600Y916700D03*
X962300Y919900D03*
X957000Y914700D03*
X963400Y915000D03*
X957200Y919400D03*
X958600Y927400D03*
X962800Y929600D03*
X952200Y929700D03*
X963000Y940100D03*
Y935100D03*
X959000Y937500D03*
X966000Y946500D03*
X952700D03*
X1001100Y949000D03*
X1001000Y938300D03*
X1001100Y928100D03*
X1001000Y918200D03*
X1001100Y909200D03*
Y897800D03*
X970800Y946300D03*
X965700Y937500D03*
X970400Y907300D03*
X963300Y896200D03*
X971700Y897300D03*
X954400Y926000D03*
X968500Y927200D03*
X973600Y949900D03*
X956900Y907300D03*
X962700Y954200D03*
X964600Y958700D03*
X973600Y957000D03*
X995700Y981400D03*
X993000Y997000D03*
X974100Y993600D03*
X991300Y985600D03*
X974500Y986100D03*
X1000400Y967700D03*
X1001200Y957200D03*
X980000Y983000D03*
Y989000D03*
Y995000D03*
X987000Y989000D03*
Y982000D03*
Y995000D03*
X991000Y977000D03*
X995000D03*
X987000D03*
X972000D03*
X976000D03*
X980200Y977200D03*
X973000Y970000D03*
X966000D03*
X1009400Y1006700D03*
X1001200Y999600D03*
X967700Y988200D03*
X957100Y989000D03*
X953100Y988600D03*
X976400Y999600D03*
X995300Y991300D03*
X971800Y964600D03*
X997200Y986600D03*
X967200Y962200D03*
X976300Y969900D03*
X988200Y1041700D03*
X962600Y1046900D03*
X968900Y1026800D03*
X966900Y1154300D03*
X988200Y1141300D03*
X1014700Y752800D03*
X1012300Y874800D03*
X1011800Y881800D03*
X1011500Y892700D03*
X1014200Y843700D03*
X1011600Y903400D03*
Y913100D03*
Y921900D03*
Y933100D03*
Y942900D03*
X1011400Y952500D03*
X1014200Y966500D03*
X1011400Y1116900D03*
X1011800Y1070500D03*
G54D22*
G01X898900Y839900D02*
X897200Y841600D01*
G01X888600Y1031100D02*
X889900Y1032400D01*
X903000D01*
X904300Y1031100D01*
G01X852500Y1012400D02*
Y1026800D01*
X848400Y1030900D01*
G01X856700Y1037400D02*
X860600Y1033500D01*
X870500D01*
X872800Y1031100D01*
G01D02*
X874400Y1032700D01*
X887000D01*
X888600Y1031100D01*
G01Y1028000D02*
X890500D01*
X892000Y1026400D01*
X900900D01*
X902400Y1028000D01*
X904300D01*
G01X872800D02*
X874200Y1026600D01*
X877300D01*
X877500Y1026400D01*
X885100D01*
X886700Y1028000D01*
X888600D01*
G01X895700Y812600D02*
X898400D01*
X898500Y812700D01*
Y810300D01*
G01X911900Y810400D02*
X910800Y811500D01*
Y812700D01*
X913400D01*
X913500Y812600D01*
G01X942900Y973600D02*
X943700Y974400D01*
Y985100D01*
X941400Y987400D01*
X933900D01*
G54D13*
X812600Y832400D03*
X822500Y872400D03*
Y882400D03*
Y892400D03*
X812500Y872400D03*
Y882400D03*
Y892400D03*
X836900Y856400D03*
Y846400D03*
X812600Y852400D03*
Y842400D03*
X822500Y902400D03*
Y912400D03*
Y922400D03*
Y932400D03*
Y942400D03*
Y952400D03*
X812500Y902400D03*
Y912400D03*
Y922400D03*
Y932400D03*
Y942400D03*
Y952400D03*
X822500Y962400D03*
X812500D03*
X832500Y1002400D03*
Y1012400D03*
X846900Y856400D03*
Y846400D03*
X842500Y1002400D03*
X852500D03*
X862500D03*
X872500D03*
X882500D03*
X892500D03*
X842500Y1012400D03*
X852500D03*
X862500D03*
X872500D03*
X882500D03*
X892500D03*
X902500Y1002400D03*
X912500D03*
X922500D03*
X932500D03*
X902500Y1012400D03*
X912500D03*
X922500D03*
X932500D03*
X992500Y832400D03*
X992600Y872400D03*
Y882400D03*
Y892400D03*
X982600Y872400D03*
Y882400D03*
Y892400D03*
X992500Y852400D03*
Y842400D03*
X992600Y902400D03*
Y912400D03*
Y922400D03*
Y932400D03*
Y942400D03*
Y952400D03*
X982600Y902400D03*
Y912400D03*
Y922400D03*
Y932400D03*
Y942400D03*
Y952400D03*
X992600Y962400D03*
X982600D03*
X983900Y1002400D03*
Y1012400D03*
Y1022400D03*
G54D23*
G01X793200Y692900D02*
X1012000D01*
G03X1017700Y698700I-101J5800D01*
G01Y756600D01*
X992000D01*
Y776300D01*
X967000D01*
Y804500D01*
X992000D01*
Y824200D01*
X1017700D01*
Y962600D01*
G03X1015000Y973000I-21120J67D01*
G02X1010000Y983000I116121J64310D01*
G02X1009100Y987100I9388J4210D01*
G01Y988900D01*
G02X1010400Y993400I13777J-1542D01*
G02X1014900Y1001800I104880J-50780D01*
G03X1017700Y1012200I-17505J10290D01*
G01Y1156800D01*
G03X1011900Y1162600I-5800J0D01*
G01X849600D01*
Y1157900D01*
X843300D01*
Y1149600D01*
X839800D01*
Y1157900D01*
X824800D01*
Y1149600D01*
X821300D01*
Y1157900D01*
X815000D01*
Y1162600D01*
X793200D01*
G03X787400Y1156900I0J-5801D01*
G01Y1012200D01*
G03X790400Y1001800I19349J-51D01*
G02X795200Y992200I-45104J-28552D01*
G02X796100Y987900I-13089J-4984D01*
G01Y987600D01*
G02X795400Y982700I-18821J189D01*
G02X790700Y973000I-29217J8168D01*
G03X787400Y962800I14077J-10188D01*
G01Y824200D01*
X813100D01*
Y805500D01*
X838100D01*
Y777300D01*
X813100D01*
Y758600D01*
X787400D01*
Y698700D01*
G03X793200Y692900I5800J0D01*
G54D14*
G01X823200Y970100D02*
X823000Y970300D01*
X808500D01*
X800900Y962700D01*
Y836100D01*
X804700Y832300D01*
X807700D01*
X807800Y832400D01*
X812600D01*
G01X822500Y962400D02*
Y969400D01*
X823200Y970100D01*
G01D02*
X842500Y989400D01*
Y1002400D01*
G01X852500Y973600D02*
X833600D01*
G01X801400Y1033500D02*
X803800D01*
X816400Y1020900D01*
X834100D01*
X842500Y1012400D01*
G01X801400Y1033500D02*
X790400Y1044500D01*
Y1100000D01*
G01X831600Y1126400D02*
X805900D01*
X802900Y1123400D01*
X794700D01*
X790400Y1119100D01*
Y1100000D01*
G01D02*
X790700Y1099600D01*
X797600D01*
G01X896000Y826800D02*
Y829400D01*
X891200Y834200D01*
Y836600D01*
G01X893800Y836800D02*
X891400D01*
X891200Y836600D01*
G01D02*
Y873100D01*
X893200Y875100D01*
X896900D01*
X898900Y877100D01*
X909400D01*
X909900Y877600D01*
X912300D01*
G01X852500Y1002400D02*
Y973600D01*
G01X894100D02*
X852500D01*
G01X847200Y1028300D02*
X847400D01*
G01X931800Y854200D02*
Y830900D01*
G01X897200Y841600D02*
Y861600D01*
G01D02*
Y864600D01*
X897000Y864800D01*
Y867200D01*
G01X897200Y861600D02*
X897400Y861800D01*
X927400D01*
X931800Y857400D01*
Y854200D01*
G01D02*
X931900Y854300D01*
X934900D01*
G01X894100Y880900D02*
Y973600D01*
G01X942900D02*
X894100D01*
G01X983900D02*
X942900D01*
G01X992500Y832400D02*
X972400D01*
X972300Y832300D01*
X969700D01*
G01X983900Y973600D02*
X1000000D01*
X1006700Y966900D01*
Y873500D01*
X1003300Y870100D01*
Y835200D01*
X1001200Y833100D01*
X993200D01*
X992500Y832400D01*
G01X983900Y973600D02*
Y1002400D01*
X833600Y973600D03*
X839400Y1122400D03*
Y1126000D03*
Y1118900D03*
X931800Y830900D03*
X896000Y826800D03*
X906700Y836600D03*
X910600D03*
X914600D03*
X918500D03*
X922400D03*
Y840600D03*
X918500D03*
X914600D03*
X910600D03*
X906700D03*
X922400Y844500D03*
X918500D03*
X914600D03*
X910600D03*
X906700D03*
X922400Y848400D03*
X918500D03*
X914600D03*
X910600D03*
X906700D03*
X922400Y852400D03*
X918500D03*
X914600D03*
X910600D03*
X906700D03*
X934900Y854300D03*
X897000Y867200D03*
X912300Y877600D03*
X969700Y820700D03*
Y832300D03*
G54D24*
G01X680000Y610000D02*
X1110000D01*
Y530000D01*
X680000D01*
Y610000D01*
G01Y583500D02*
X1110000D01*
G01X680000Y557000D02*
X1110000D01*
G01X850000Y583500D02*
Y530000D01*
G01X924000Y557000D02*
Y530000D01*
G01X1026500Y557000D02*
Y530000D01*
G54D15*
X799200Y1014200D03*
G54D16*
X797200Y1152400D03*
X1007100D03*
G54D17*
X816800Y1152100D03*
X847900D03*
G54D18*
G01X812600Y838140D02*
Y842400D01*
G01D02*
Y846660D01*
G01X808340Y842400D02*
X812600D01*
G01D02*
X816860D01*
G01X812600Y848140D02*
Y852400D01*
G01D02*
Y856660D01*
G01X808340Y852400D02*
X812600D01*
G01D02*
X816860D01*
G01X822500Y948140D02*
Y952400D01*
G01X832500Y1008140D02*
Y1012400D01*
G01Y998140D02*
Y1002400D01*
G01D02*
Y1006660D01*
G01X828240Y1002400D02*
X832500D01*
G01D02*
X836760D01*
G01X799200Y1009840D02*
Y1014200D01*
G01X822500Y952400D02*
Y956660D01*
G01X818240Y952400D02*
X822500D01*
G01D02*
X826760D01*
G01X832500Y1012400D02*
Y1016660D01*
G01X828240Y1012400D02*
X832500D01*
G01D02*
X836760D01*
G01X799200Y1014200D02*
Y1018560D01*
G01X794840Y1014200D02*
X799200D01*
G01D02*
X803560D01*
G01X808300Y1124000D02*
X814300D01*
G01X797200Y1143890D02*
Y1152400D01*
G01D02*
X805710D01*
G01X834800Y1137200D02*
X833600Y1136000D01*
X833400D01*
X829900Y1132500D01*
Y1129900D01*
G01X832200Y1137300D02*
X824500Y1129400D01*
G01X821600Y1129500D02*
X823100Y1130700D01*
X829700Y1137300D01*
G01X912940Y1007600D02*
X888800D01*
X887600Y1008800D01*
Y1016600D01*
G01X877200Y1046100D02*
X879900D01*
X881100Y1044900D01*
Y1039300D01*
X880000Y1038200D01*
G01X879100Y1044100D02*
X868900D01*
G01X930700Y1020700D02*
X928400Y1023000D01*
X909000D01*
X906600Y1020600D01*
X895400D01*
X893300Y1018500D01*
X865400D01*
X857500Y1026400D01*
G01X905000Y1025700D02*
X906700Y1027400D01*
Y1031900D01*
X893300Y1045300D01*
X887000D01*
X886900Y1045200D01*
X883600D01*
X880900Y1047900D01*
Y1139100D01*
X877100Y1142900D01*
X854300D01*
G01X905000Y1025700D02*
X903600D01*
X902700Y1024800D01*
X883500D01*
X879900Y1021300D01*
G01X948800Y1027200D02*
Y1023600D01*
X942000Y1016800D01*
X896900D01*
X892500Y1012400D01*
G01X881900Y1036200D02*
X861800D01*
X860600Y1037400D01*
G01X852800Y1124000D02*
Y1114600D01*
G01X939400Y977000D02*
Y981000D01*
X939200Y981200D01*
Y983100D01*
G01X939700Y985500D02*
X941700Y983500D01*
G01X946300Y1007600D02*
X947800Y1006100D01*
X949400D01*
G01X946200Y1007600D02*
X912940D01*
G01X912500Y1012400D02*
X912940Y1011960D01*
Y1007600D01*
G01X932400Y1023400D02*
X931000Y1024800D01*
X908500D01*
X907600Y1025700D01*
X905000D01*
G01X900300Y1018500D02*
X936600D01*
X943300Y1025200D01*
X945700D01*
G01X992500Y838140D02*
Y842400D01*
G01D02*
Y846660D01*
G01X988240Y842400D02*
X992500D01*
G01D02*
X996760D01*
G01X992500Y848140D02*
Y852400D01*
G01D02*
Y856660D01*
G01X988240Y852400D02*
X992500D01*
G01D02*
X996760D01*
G01X992600Y958140D02*
Y962400D01*
G01D02*
Y966660D01*
G01X988340Y962400D02*
X992600D01*
G01D02*
X996860D01*
G01X1007100Y1143890D02*
Y1152400D01*
G01X998590D02*
X1007100D01*
G54D19*
G01X834500Y877100D02*
Y892900D01*
X836600Y895000D01*
G01X834400Y914600D02*
X831300Y911500D01*
Y874300D01*
X829400Y872400D01*
G01X880700Y815700D02*
X890000D01*
X898900Y824600D01*
Y839900D01*
G01X900900Y808800D02*
X900600Y808500D01*
X895000D01*
X890400Y813100D01*
G01X854100Y845100D02*
Y823200D01*
X858000Y819300D01*
X884200D01*
G01X887700Y965700D02*
Y901400D01*
X885100Y898800D01*
Y861100D01*
G01X872700Y855000D02*
Y929100D01*
X869700Y932100D01*
G01X868500Y852500D02*
Y919300D01*
X866800Y921000D01*
G01X841000Y890200D02*
X837300Y886500D01*
Y856800D01*
X836900Y856400D01*
G01X882100Y946800D02*
X885300Y943600D01*
Y904800D01*
X882500Y902000D01*
Y858700D01*
G01X846900Y856400D02*
Y956000D01*
G01X864900Y850200D02*
Y850400D01*
X864500Y850800D01*
Y908800D01*
X862100Y911200D01*
G01X859000Y902500D02*
X861700Y899800D01*
Y850400D01*
X859800Y848500D01*
G01X858300Y892500D02*
Y865900D01*
G01X879600Y857200D02*
Y905600D01*
G01X874100Y943200D02*
X875310Y941990D01*
X875410D01*
X876400Y941000D01*
Y856200D01*
G01X852050Y892450D02*
X854100Y890400D01*
Y845100D01*
G01X867500Y937300D02*
Y952000D01*
X872500Y957000D01*
Y966500D01*
G01X862500Y966000D02*
Y927300D01*
G01X857200Y950600D02*
Y964700D01*
G01X887700Y982600D02*
Y985800D01*
X882500Y991000D01*
Y1002400D01*
G01X892500D02*
Y988100D01*
G01X872500Y982500D02*
Y1002400D01*
G01X862500D02*
Y982100D01*
G01X940700Y885500D02*
Y863700D01*
X944100Y860300D01*
Y828600D01*
G01X940700Y956000D02*
Y910500D01*
X938200Y908000D01*
Y861400D01*
X941900Y857700D01*
Y829800D01*
G01X945200Y895000D02*
Y866700D01*
X949300Y862600D01*
Y826700D01*
G01X942800Y888300D02*
Y865200D01*
X946600Y861400D01*
Y827400D01*
G01X910800Y818600D02*
Y820400D01*
X910100Y821100D01*
X899200D01*
X898500Y820400D01*
Y818500D01*
G01X922400Y818700D02*
X921100Y817400D01*
Y809600D01*
X919000Y807500D01*
X911000D01*
X909700Y808800D01*
G01X931900Y866100D02*
Y892500D01*
G01D02*
Y896900D01*
X933400Y898400D01*
Y913300D01*
X935300Y915200D01*
Y962900D01*
G01X935600Y902400D02*
Y865400D01*
G01X932800Y967800D02*
X931100Y966100D01*
Y961100D01*
X932900Y959300D01*
Y918100D01*
X929100Y914300D01*
Y882200D01*
G01Y866800D02*
Y882200D01*
G01Y969300D02*
Y950000D01*
X930300Y948800D01*
Y920900D01*
X926900Y917500D01*
Y872400D01*
G01X945500Y937300D02*
X947900Y934900D01*
Y868800D01*
X951800Y864900D01*
Y825700D01*
G01X940700Y885500D02*
Y905300D01*
X942700Y907300D01*
Y949200D01*
X945900Y952400D01*
G01X912400Y917400D02*
X914700Y915100D01*
Y868200D01*
G01X917300Y887500D02*
Y871000D01*
G01X920000Y875300D02*
Y940900D01*
X921500Y942400D01*
G01X924300Y869700D02*
Y920900D01*
X925800Y922400D01*
G01X924700Y932500D02*
X922500Y930300D01*
Y872100D01*
G01X938100Y959400D02*
Y911800D01*
X935600Y909300D01*
Y902400D01*
G01X949600Y962600D02*
Y913900D01*
X951100Y912400D01*
G01X926300Y967000D02*
Y949300D01*
X927700Y947900D01*
Y924300D01*
X925800Y922400D01*
G01X934100Y996200D02*
X938000D01*
X939800Y998000D01*
G01X902500Y980100D02*
Y1002400D01*
G01X899900Y979000D02*
Y988100D01*
G01X928800Y993300D02*
X944100D01*
G01X912600Y979500D02*
Y993300D01*
G01D02*
X912500Y993400D01*
Y1002400D01*
G01X922500Y985500D02*
Y1002400D01*
G01X929100Y977400D02*
Y983000D01*
X931600Y985500D01*
G01D02*
X939700D01*
G01X926300Y977000D02*
Y994300D01*
X930500Y998500D01*
Y998600D01*
X932500Y1000600D01*
Y1002400D01*
G01X985400Y835900D02*
X984100Y834600D01*
X969800D01*
X968900Y835500D01*
X962500D01*
G01X985500Y828200D02*
Y821500D01*
X984700Y820700D01*
X979000D01*
G01X954400Y824600D02*
Y926000D01*
G01X959700Y877500D02*
Y824300D01*
G01X956900Y823200D02*
Y907300D01*
G01X970800Y946300D02*
Y922300D01*
X973500Y919600D01*
Y894600D01*
X971300Y892400D01*
Y859700D01*
X978100Y852900D01*
Y843400D01*
G01X972300Y841400D02*
Y850000D01*
X965700Y856600D01*
Y937500D01*
G01X972400Y839000D02*
X972600D01*
X974300Y840700D01*
Y851700D01*
X968200Y857800D01*
Y905100D01*
X970400Y907300D01*
G01X963300Y896200D02*
Y856000D01*
X969500Y849800D01*
Y839500D01*
G01X980900Y836600D02*
X970600D01*
X969500Y837700D01*
Y839500D01*
G01X971700Y897300D02*
X969800Y895400D01*
Y858700D01*
X976300Y852200D01*
Y841400D01*
G01X992600Y872400D02*
X992000Y871800D01*
Y868900D01*
X991200Y868100D01*
X986000D01*
X983900Y866000D01*
Y849300D01*
G01X975700Y877400D02*
Y861100D01*
X981700Y855100D01*
Y847300D01*
G01X976300Y969900D02*
Y968100D01*
X977000Y967400D01*
Y878700D01*
X975700Y877400D01*
G01X973600Y949900D02*
X975500Y948000D01*
Y892900D01*
X973100Y890500D01*
Y886200D01*
G01X980400Y845400D02*
X979500Y846300D01*
Y853700D01*
X973100Y860100D01*
Y886200D01*
G01X968500Y927200D02*
Y960900D01*
X967200Y962200D01*
M02*
