G04 ================== begin FILE IDENTIFICATION RECORD ==================*
G04 Layout Name:  LAUNCHXL-CC1350-433.brd*
G04 Film Name:    LAUNCHXL-CC1350-4-A_PASTEMASK-BOTTOM*
G04 File Format:  Gerber RS274X*
G04 File Origin:  Cadence Allegro 16.6-2015-S068*
G04 Origin Date:  Mon Jan 23 14:11:48 2017*
G04 *
G04 Layer:  VIA CLASS/PASTEMASK_BOTTOM*
G04 Layer:  PIN/PASTEMASK_BOTTOM*
G04 Layer:  PACKAGE GEOMETRY/PASTEMASK_BOTTOM*
G04 Layer:  DRAWING FORMAT/TITLE_DATA*
G04 Layer:  DRAWING FORMAT/TITLE_BLOCK*
G04 Layer:  PIN/FILMMASKBOTTOM*
G04 Layer:  BOARD GEOMETRY/OUTLINE*
G04 *
G04 Offset:    (0.0 0.0)*
G04 Mirror:    No*
G04 Mode:      Positive*
G04 Rotation:  0*
G04 FullContactRelief:  No*
G04 UndefLineWidth:     4.0*
G04 ================== end FILE IDENTIFICATION RECORD ====================*
%FSLAX25Y25*MOIN*%
%IR0*IPPOS*OFA0.00000B0.00000*MIA0B0*SFA1.00000B1.00000*%
%ADD11C,.031*%
%ADD10C,.05*%
%ADD12C,.0085*%
%ADD13C,.01*%
%ADD14C,.004*%
%ADD15C,.015*%
G75*
%LPD*%
G75*
G54D10*
X797500Y863000D03*
D03*
X1009000D03*
D03*
X987400Y1152000D03*
D03*
G54D11*
X800700Y1126000D03*
Y1121000D03*
Y1116000D03*
Y1111000D03*
X795700Y1126000D03*
Y1121000D03*
Y1116000D03*
Y1111000D03*
X800700Y1131000D03*
X795700D03*
G54D12*
G01X685170Y605880D02*
X684770Y606130D01*
X684300Y606300D01*
X683770D01*
X683170Y606050D01*
X682700Y605630D01*
X682370Y605130D01*
X682100Y604300D01*
X682030Y603550D01*
X682170Y602800D01*
X682370Y602300D01*
X682770Y601800D01*
X683230Y601470D01*
X683700Y601300D01*
X684170D01*
X684630Y601470D01*
X685030Y601720D01*
X685370Y602050D01*
G01X687230Y606300D02*
Y602720D01*
X687500Y601970D01*
X688030Y601470D01*
X688700Y601300D01*
X689370Y601470D01*
X689900Y601970D01*
X690170Y602720D01*
Y606300D01*
G01X692300Y601970D02*
X692830Y601550D01*
X693430Y601300D01*
X693970D01*
X694500Y601550D01*
X694900Y601970D01*
X695100Y602550D01*
X694970Y603130D01*
X694630Y603630D01*
X694030Y603970D01*
X693230Y604130D01*
X692770Y604470D01*
X692570Y605050D01*
X692700Y605630D01*
X693030Y606050D01*
X693500Y606300D01*
X693970D01*
X694430Y606130D01*
X694830Y605720D01*
G01X698700Y606300D02*
Y601300D01*
G01X697170Y606300D02*
X700230D01*
G01X703700Y601300D02*
X703170Y601380D01*
X702700Y601720D01*
X702300Y602220D01*
X702030Y602800D01*
X701900Y603470D01*
Y604130D01*
X702030Y604800D01*
X702300Y605380D01*
X702700Y605880D01*
X703170Y606220D01*
X703700Y606300D01*
X704230Y606220D01*
X704700Y605880D01*
X705100Y605380D01*
X705370Y604800D01*
X705500Y604130D01*
Y603470D01*
X705370Y602800D01*
X705100Y602220D01*
X704700Y601720D01*
X704230Y601380D01*
X703700Y601300D01*
G01X706970D02*
Y606300D01*
X708700Y602130D01*
X710430Y606300D01*
Y601300D01*
G01X715030D02*
X712370D01*
Y606300D01*
X715030D01*
G01X713970Y603880D02*
X712370D01*
G01X717370Y601300D02*
Y606300D01*
X719030D01*
X719570Y606050D01*
X719900Y605720D01*
X720030Y605050D01*
X719900Y604380D01*
X719500Y603970D01*
X719030Y603720D01*
X717370D01*
G01X719030D02*
X720030Y601300D01*
G01X723700Y601130D02*
X723570Y601220D01*
Y601380D01*
X723700Y601470D01*
X723830Y601380D01*
Y601220D01*
X723700Y601130D01*
G01Y603380D02*
X723570Y603470D01*
Y603630D01*
X723700Y603720D01*
X723830Y603630D01*
Y603470D01*
X723700Y603380D01*
G01X683730Y578470D02*
X684000Y578720D01*
X684200Y579130D01*
X684330Y579720D01*
X684200Y580220D01*
X683930Y580550D01*
X683470Y580800D01*
X681670D01*
Y575800D01*
X683870D01*
X684330Y576130D01*
X684600Y576630D01*
X684730Y577220D01*
X684600Y577800D01*
X684200Y578300D01*
X683730Y578470D01*
X681670D01*
G01X688200Y575800D02*
X687670Y575880D01*
X687200Y576220D01*
X686800Y576720D01*
X686530Y577300D01*
X686400Y577970D01*
Y578630D01*
X686530Y579300D01*
X686800Y579880D01*
X687200Y580380D01*
X687670Y580720D01*
X688200Y580800D01*
X688730Y580720D01*
X689200Y580380D01*
X689600Y579880D01*
X689870Y579300D01*
X690000Y578630D01*
Y577970D01*
X689870Y577300D01*
X689600Y576720D01*
X689200Y576220D01*
X688730Y575880D01*
X688200Y575800D01*
G01X691530D02*
X693200Y580800D01*
X694870Y575800D01*
G01X694270Y577550D02*
X692130D01*
G01X696870Y575800D02*
Y580800D01*
X698530D01*
X699070Y580550D01*
X699400Y580220D01*
X699530Y579550D01*
X699400Y578880D01*
X699000Y578470D01*
X698530Y578220D01*
X696870D01*
G01X698530D02*
X699530Y575800D01*
G01X701730D02*
Y580800D01*
X703070D01*
X703600Y580550D01*
X704000Y580220D01*
X704330Y579720D01*
X704600Y579130D01*
X704670Y578300D01*
X704600Y577470D01*
X704330Y576880D01*
X704000Y576380D01*
X703600Y576050D01*
X703070Y575800D01*
X701730D01*
G01X711670D02*
Y580800D01*
X714730Y575800D01*
Y580800D01*
G01X716530Y575800D02*
X718200Y580800D01*
X719870Y575800D01*
G01X719270Y577550D02*
X717130D01*
G01X721470Y575800D02*
Y580800D01*
X723200Y576630D01*
X724930Y580800D01*
Y575800D01*
G01X729530D02*
X726870D01*
Y580800D01*
X729530D01*
G01X728470Y578380D02*
X726870D01*
G01X733200Y575630D02*
X733070Y575720D01*
Y575880D01*
X733200Y575970D01*
X733330Y575880D01*
Y575720D01*
X733200Y575630D01*
G01Y577880D02*
X733070Y577970D01*
Y578130D01*
X733200Y578220D01*
X733330Y578130D01*
Y577970D01*
X733200Y577880D01*
G01X682370Y549500D02*
Y554500D01*
X683970D01*
X684500Y554250D01*
X684900Y553670D01*
X685030Y553000D01*
X684900Y552330D01*
X684570Y551830D01*
X683970Y551580D01*
X682370D01*
G01X687370Y549500D02*
Y554500D01*
X689030D01*
X689570Y554250D01*
X689900Y553920D01*
X690030Y553250D01*
X689900Y552580D01*
X689500Y552170D01*
X689030Y551920D01*
X687370D01*
G01X689030D02*
X690030Y549500D01*
G01X693700D02*
X693170Y549580D01*
X692700Y549920D01*
X692300Y550420D01*
X692030Y551000D01*
X691900Y551670D01*
Y552330D01*
X692030Y553000D01*
X692300Y553580D01*
X692700Y554080D01*
X693170Y554420D01*
X693700Y554500D01*
X694230Y554420D01*
X694700Y554080D01*
X695100Y553580D01*
X695370Y553000D01*
X695500Y552330D01*
Y551670D01*
X695370Y551000D01*
X695100Y550420D01*
X694700Y549920D01*
X694230Y549580D01*
X693700Y549500D01*
G01X697370Y550500D02*
X697700Y550000D01*
X698100Y549670D01*
X698570Y549500D01*
X699100Y549670D01*
X699500Y550000D01*
X699900Y550500D01*
X700030Y551170D01*
Y554500D01*
G01X705030Y549500D02*
X702370D01*
Y554500D01*
X705030D01*
G01X703970Y552080D02*
X702370D01*
G01X710170Y554080D02*
X709770Y554330D01*
X709300Y554500D01*
X708770D01*
X708170Y554250D01*
X707700Y553830D01*
X707370Y553330D01*
X707100Y552500D01*
X707030Y551750D01*
X707170Y551000D01*
X707370Y550500D01*
X707770Y550000D01*
X708230Y549670D01*
X708700Y549500D01*
X709170D01*
X709630Y549670D01*
X710030Y549920D01*
X710370Y550250D01*
G01X713700Y554500D02*
Y549500D01*
G01X712170Y554500D02*
X715230D01*
G01X722170Y549500D02*
Y554500D01*
X725230Y549500D01*
Y554500D01*
G01X728700Y549500D02*
X728170Y549580D01*
X727700Y549920D01*
X727300Y550420D01*
X727030Y551000D01*
X726900Y551670D01*
Y552330D01*
X727030Y553000D01*
X727300Y553580D01*
X727700Y554080D01*
X728170Y554420D01*
X728700Y554500D01*
X729230Y554420D01*
X729700Y554080D01*
X730100Y553580D01*
X730370Y553000D01*
X730500Y552330D01*
Y551670D01*
X730370Y551000D01*
X730100Y550420D01*
X729700Y549920D01*
X729230Y549580D01*
X728700Y549500D01*
G01X733700Y549330D02*
X733570Y549420D01*
Y549580D01*
X733700Y549670D01*
X733830Y549580D01*
Y549420D01*
X733700Y549330D01*
G01Y551580D02*
X733570Y551670D01*
Y551830D01*
X733700Y551920D01*
X733830Y551830D01*
Y551670D01*
X733700Y551580D01*
G01X852170Y581300D02*
Y576300D01*
X854830D01*
G01X856830D02*
X858500Y581300D01*
X860170Y576300D01*
G01X859570Y578050D02*
X857430D01*
G01X863500Y576300D02*
Y578550D01*
X862170Y581300D01*
G01X864830D02*
X863500Y578550D01*
G01X869830Y576300D02*
X867170D01*
Y581300D01*
X869830D01*
G01X868770Y578880D02*
X867170D01*
G01X872170Y576300D02*
Y581300D01*
X873830D01*
X874370Y581050D01*
X874700Y580720D01*
X874830Y580050D01*
X874700Y579380D01*
X874300Y578970D01*
X873830Y578720D01*
X872170D01*
G01X873830D02*
X874830Y576300D01*
G01X881970D02*
Y581300D01*
X885030Y576300D01*
Y581300D01*
G01X886830Y576300D02*
X888500Y581300D01*
X890170Y576300D01*
G01X889570Y578050D02*
X887430D01*
G01X891770Y576300D02*
Y581300D01*
X893500Y577130D01*
X895230Y581300D01*
Y576300D01*
G01X899830D02*
X897170D01*
Y581300D01*
X899830D01*
G01X898770Y578880D02*
X897170D01*
G01X903500Y576130D02*
X903370Y576220D01*
Y576380D01*
X903500Y576470D01*
X903630Y576380D01*
Y576220D01*
X903500Y576130D01*
G01Y578380D02*
X903370Y578470D01*
Y578630D01*
X903500Y578720D01*
X903630Y578630D01*
Y578470D01*
X903500Y578380D01*
G01X855830Y550770D02*
X856100Y551020D01*
X856300Y551430D01*
X856430Y552020D01*
X856300Y552520D01*
X856030Y552850D01*
X855570Y553100D01*
X853770D01*
Y548100D01*
X855970D01*
X856430Y548430D01*
X856700Y548930D01*
X856830Y549520D01*
X856700Y550100D01*
X856300Y550600D01*
X855830Y550770D01*
X853770D01*
G01X860300Y548100D02*
X859770Y548180D01*
X859300Y548520D01*
X858900Y549020D01*
X858630Y549600D01*
X858500Y550270D01*
Y550930D01*
X858630Y551600D01*
X858900Y552180D01*
X859300Y552680D01*
X859770Y553020D01*
X860300Y553100D01*
X860830Y553020D01*
X861300Y552680D01*
X861700Y552180D01*
X861970Y551600D01*
X862100Y550930D01*
Y550270D01*
X861970Y549600D01*
X861700Y549020D01*
X861300Y548520D01*
X860830Y548180D01*
X860300Y548100D01*
G01X863630D02*
X865300Y553100D01*
X866970Y548100D01*
G01X866370Y549850D02*
X864230D01*
G01X868970Y548100D02*
Y553100D01*
X870630D01*
X871170Y552850D01*
X871500Y552520D01*
X871630Y551850D01*
X871500Y551180D01*
X871100Y550770D01*
X870630Y550520D01*
X868970D01*
G01X870630D02*
X871630Y548100D01*
G01X873830D02*
Y553100D01*
X875170D01*
X875700Y552850D01*
X876100Y552520D01*
X876430Y552020D01*
X876700Y551430D01*
X876770Y550600D01*
X876700Y549770D01*
X876430Y549180D01*
X876100Y548680D01*
X875700Y548350D01*
X875170Y548100D01*
X873830D01*
G01X883970D02*
Y553100D01*
X885630D01*
X886170Y552850D01*
X886500Y552520D01*
X886630Y551850D01*
X886500Y551180D01*
X886100Y550770D01*
X885630Y550520D01*
X883970D01*
G01X885630D02*
X886630Y548100D01*
G01X891630D02*
X888970D01*
Y553100D01*
X891630D01*
G01X890570Y550680D02*
X888970D01*
G01X893630Y553100D02*
X895300Y548100D01*
X896970Y553100D01*
G01X900300Y547930D02*
X900170Y548020D01*
Y548180D01*
X900300Y548270D01*
X900430Y548180D01*
Y548020D01*
X900300Y547930D01*
G01Y550180D02*
X900170Y550270D01*
Y550430D01*
X900300Y550520D01*
X900430Y550430D01*
Y550270D01*
X900300Y550180D01*
G01X928070Y548400D02*
Y553400D01*
X929730D01*
X930270Y553150D01*
X930600Y552820D01*
X930730Y552150D01*
X930600Y551480D01*
X930200Y551070D01*
X929730Y550820D01*
X928070D01*
G01X929730D02*
X930730Y548400D01*
G01X935730D02*
X933070D01*
Y553400D01*
X935730D01*
G01X934670Y550980D02*
X933070D01*
G01X938070Y553400D02*
Y548400D01*
X940730D01*
G01X945730D02*
X943070D01*
Y553400D01*
X945730D01*
G01X944670Y550980D02*
X943070D01*
G01X947730Y548400D02*
X949400Y553400D01*
X951070Y548400D01*
G01X950470Y550150D02*
X948330D01*
G01X953000Y549070D02*
X953530Y548650D01*
X954130Y548400D01*
X954670D01*
X955200Y548650D01*
X955600Y549070D01*
X955800Y549650D01*
X955670Y550230D01*
X955330Y550730D01*
X954730Y551070D01*
X953930Y551230D01*
X953470Y551570D01*
X953270Y552150D01*
X953400Y552730D01*
X953730Y553150D01*
X954200Y553400D01*
X954670D01*
X955130Y553230D01*
X955530Y552820D01*
G01X960730Y548400D02*
X958070D01*
Y553400D01*
X960730D01*
G01X959670Y550980D02*
X958070D01*
G01X967930Y548400D02*
Y553400D01*
X969270D01*
X969800Y553150D01*
X970200Y552820D01*
X970530Y552320D01*
X970800Y551730D01*
X970870Y550900D01*
X970800Y550070D01*
X970530Y549480D01*
X970200Y548980D01*
X969800Y548650D01*
X969270Y548400D01*
X967930D01*
G01X972730D02*
X974400Y553400D01*
X976070Y548400D01*
G01X975470Y550150D02*
X973330D01*
G01X979400Y553400D02*
Y548400D01*
G01X977870Y553400D02*
X980930D01*
G01X985730Y548400D02*
X983070D01*
Y553400D01*
X985730D01*
G01X984670Y550980D02*
X983070D01*
G01X989400Y548230D02*
X989270Y548320D01*
Y548480D01*
X989400Y548570D01*
X989530Y548480D01*
Y548320D01*
X989400Y548230D01*
G01Y550480D02*
X989270Y550570D01*
Y550730D01*
X989400Y550820D01*
X989530Y550730D01*
Y550570D01*
X989400Y550480D01*
G01X1054200Y538000D02*
X1053670Y538080D01*
X1053200Y538420D01*
X1052800Y538920D01*
X1052530Y539500D01*
X1052400Y540170D01*
Y540830D01*
X1052530Y541500D01*
X1052800Y542080D01*
X1053200Y542580D01*
X1053670Y542920D01*
X1054200Y543000D01*
X1054730Y542920D01*
X1055200Y542580D01*
X1055600Y542080D01*
X1055870Y541500D01*
X1056000Y540830D01*
Y540170D01*
X1055870Y539500D01*
X1055600Y538920D01*
X1055200Y538420D01*
X1054730Y538080D01*
X1054200Y538000D01*
G01X1057930D02*
Y543000D01*
X1060470D01*
G01X1059530Y540580D02*
X1057930D01*
G01X1029800Y549870D02*
X1030330Y549450D01*
X1030930Y549200D01*
X1031470D01*
X1032000Y549450D01*
X1032400Y549870D01*
X1032600Y550450D01*
X1032470Y551030D01*
X1032130Y551530D01*
X1031530Y551870D01*
X1030730Y552030D01*
X1030270Y552370D01*
X1030070Y552950D01*
X1030200Y553530D01*
X1030530Y553950D01*
X1031000Y554200D01*
X1031470D01*
X1031930Y554030D01*
X1032330Y553620D01*
G01X1034800Y549200D02*
Y554200D01*
G01X1037600D02*
Y549200D01*
G01Y551700D02*
X1034800D01*
G01X1042530Y549200D02*
X1039870D01*
Y554200D01*
X1042530D01*
G01X1041470Y551780D02*
X1039870D01*
G01X1047530Y549200D02*
X1044870D01*
Y554200D01*
X1047530D01*
G01X1046470Y551780D02*
X1044870D01*
G01X1051200Y554200D02*
Y549200D01*
G01X1049670Y554200D02*
X1052730D01*
G01X1059670Y549200D02*
Y554200D01*
X1062730Y549200D01*
Y554200D01*
G01X1066200Y549200D02*
X1065670Y549280D01*
X1065200Y549620D01*
X1064800Y550120D01*
X1064530Y550700D01*
X1064400Y551370D01*
Y552030D01*
X1064530Y552700D01*
X1064800Y553280D01*
X1065200Y553780D01*
X1065670Y554120D01*
X1066200Y554200D01*
X1066730Y554120D01*
X1067200Y553780D01*
X1067600Y553280D01*
X1067870Y552700D01*
X1068000Y552030D01*
Y551370D01*
X1067870Y550700D01*
X1067600Y550120D01*
X1067200Y549620D01*
X1066730Y549280D01*
X1066200Y549200D01*
G01X1071200Y549030D02*
X1071070Y549120D01*
Y549280D01*
X1071200Y549370D01*
X1071330Y549280D01*
Y549120D01*
X1071200Y549030D01*
G01Y551280D02*
X1071070Y551370D01*
Y551530D01*
X1071200Y551620D01*
X1071330Y551530D01*
Y551370D01*
X1071200Y551280D01*
G54D13*
G01X705400Y543200D02*
X706450Y536200D01*
X707650Y543200D01*
X708850Y536200D01*
X709900Y543200D01*
G01X715600Y542620D02*
X715150Y542970D01*
X714630Y543200D01*
X714030D01*
X713350Y542850D01*
X712830Y542270D01*
X712450Y541570D01*
X712150Y540400D01*
X712070Y539350D01*
X712230Y538300D01*
X712450Y537600D01*
X712900Y536900D01*
X713430Y536430D01*
X713950Y536200D01*
X714470D01*
X715000Y536430D01*
X715450Y536780D01*
X715830Y537250D01*
G01X718670Y537130D02*
X719280Y536550D01*
X719950Y536200D01*
X720550D01*
X721150Y536550D01*
X721600Y537130D01*
X721830Y537950D01*
X721680Y538770D01*
X721300Y539470D01*
X720620Y539930D01*
X719730Y540170D01*
X719200Y540630D01*
X718970Y541450D01*
X719130Y542270D01*
X719500Y542850D01*
X720020Y543200D01*
X720550D01*
X721080Y542970D01*
X721530Y542380D01*
G01X726550Y543200D02*
X725950Y542970D01*
X725500Y542380D01*
X725200Y541680D01*
X724970Y540750D01*
X724900Y539700D01*
X724970Y538650D01*
X725200Y537720D01*
X725500Y537020D01*
X725950Y536430D01*
X726550Y536200D01*
X727150Y536430D01*
X727600Y537020D01*
X727900Y537720D01*
X728130Y538650D01*
X728200Y539700D01*
X728130Y540750D01*
X727900Y541680D01*
X727600Y542380D01*
X727150Y542970D01*
X726550Y543200D01*
G01X731200Y537600D02*
X731650Y536780D01*
X732250Y536320D01*
X732930Y536200D01*
X733530Y536320D01*
X734130Y536900D01*
X734500Y537600D01*
X734570Y538300D01*
X734430Y539120D01*
X733900Y539700D01*
X733370Y539930D01*
X732700D01*
G01X733370D02*
X733820Y540280D01*
X734200Y540870D01*
X734350Y541570D01*
X734200Y542270D01*
X733820Y542850D01*
X733150Y543200D01*
X732480Y543080D01*
X731800Y542620D01*
G01X740050Y536200D02*
Y543200D01*
X737270Y538180D01*
X741030D01*
G01X707850Y595800D02*
Y588800D01*
G01X706130Y595800D02*
X709570D01*
G01X715650Y588800D02*
X712650D01*
Y595800D01*
X715650D01*
G01X714450Y592420D02*
X712650D01*
G01X718870Y588800D02*
X722030Y595800D01*
G01X718870D02*
X722030Y588800D01*
G01X724870D02*
X726750Y595800D01*
X728630Y588800D01*
G01X727950Y591250D02*
X725550D01*
G01X731470Y589730D02*
X732080Y589150D01*
X732750Y588800D01*
X733350D01*
X733950Y589150D01*
X734400Y589730D01*
X734630Y590550D01*
X734480Y591370D01*
X734100Y592070D01*
X733420Y592530D01*
X732530Y592770D01*
X732000Y593230D01*
X731770Y594050D01*
X731930Y594870D01*
X732300Y595450D01*
X732820Y595800D01*
X733350D01*
X733880Y595570D01*
X734330Y594980D01*
G01X744750Y595800D02*
X746550D01*
G01X745650D02*
Y588800D01*
G01X744750D02*
X746550D01*
G01X750230D02*
Y595800D01*
X753670Y588800D01*
Y595800D01*
G01X756670Y589730D02*
X757280Y589150D01*
X757950Y588800D01*
X758550D01*
X759150Y589150D01*
X759600Y589730D01*
X759830Y590550D01*
X759680Y591370D01*
X759300Y592070D01*
X758620Y592530D01*
X757730Y592770D01*
X757200Y593230D01*
X756970Y594050D01*
X757130Y594870D01*
X757500Y595450D01*
X758020Y595800D01*
X758550D01*
X759080Y595570D01*
X759530Y594980D01*
G01X764550Y595800D02*
Y588800D01*
G01X762830Y595800D02*
X766270D01*
G01X769350Y588800D02*
Y595800D01*
X771220D01*
X771820Y595450D01*
X772200Y594980D01*
X772350Y594050D01*
X772200Y593120D01*
X771750Y592530D01*
X771220Y592180D01*
X769350D01*
G01X771220D02*
X772350Y588800D01*
G01X775500Y595800D02*
Y590780D01*
X775800Y589730D01*
X776400Y589030D01*
X777150Y588800D01*
X777900Y589030D01*
X778500Y589730D01*
X778800Y590780D01*
Y595800D01*
G01X781500Y588800D02*
Y595800D01*
X783450Y589970D01*
X785400Y595800D01*
Y588800D01*
G01X791250D02*
X788250D01*
Y595800D01*
X791250D01*
G01X790050Y592420D02*
X788250D01*
G01X794330Y588800D02*
Y595800D01*
X797770Y588800D01*
Y595800D01*
G01X802350D02*
Y588800D01*
G01X800630Y595800D02*
X804070D01*
G01X807070Y589730D02*
X807680Y589150D01*
X808350Y588800D01*
X808950D01*
X809550Y589150D01*
X810000Y589730D01*
X810230Y590550D01*
X810080Y591370D01*
X809700Y592070D01*
X809020Y592530D01*
X808130Y592770D01*
X807600Y593230D01*
X807370Y594050D01*
X807530Y594870D01*
X807900Y595450D01*
X808420Y595800D01*
X808950D01*
X809480Y595570D01*
X809930Y594980D01*
G01X706650Y570800D02*
Y563800D01*
X709650D01*
G01X712570D02*
X714450Y570800D01*
X716330Y563800D01*
G01X715650Y566250D02*
X713250D01*
G01X719100Y570800D02*
Y565780D01*
X719400Y564730D01*
X720000Y564030D01*
X720750Y563800D01*
X721500Y564030D01*
X722100Y564730D01*
X722400Y565780D01*
Y570800D01*
G01X725330Y563800D02*
Y570800D01*
X728770Y563800D01*
Y570800D01*
G01X735000Y570220D02*
X734550Y570570D01*
X734030Y570800D01*
X733430D01*
X732750Y570450D01*
X732230Y569870D01*
X731850Y569170D01*
X731550Y568000D01*
X731470Y566950D01*
X731630Y565900D01*
X731850Y565200D01*
X732300Y564500D01*
X732830Y564030D01*
X733350Y563800D01*
X733870D01*
X734400Y564030D01*
X734850Y564380D01*
X735230Y564850D01*
G01X738070Y563800D02*
Y570800D01*
G01X741230D02*
Y563800D01*
G01Y567300D02*
X738070D01*
G01X744370Y563800D02*
X747530Y570800D01*
G01X744370D02*
X747530Y563800D01*
G01X750750Y570800D02*
Y563800D01*
X753750D01*
G01X757580Y566130D02*
X759520D01*
G01X766500Y570220D02*
X766050Y570570D01*
X765530Y570800D01*
X764930D01*
X764250Y570450D01*
X763730Y569870D01*
X763350Y569170D01*
X763050Y568000D01*
X762970Y566950D01*
X763130Y565900D01*
X763350Y565200D01*
X763800Y564500D01*
X764330Y564030D01*
X764850Y563800D01*
X765370D01*
X765900Y564030D01*
X766350Y564380D01*
X766730Y564850D01*
G01X772800Y570220D02*
X772350Y570570D01*
X771830Y570800D01*
X771230D01*
X770550Y570450D01*
X770030Y569870D01*
X769650Y569170D01*
X769350Y568000D01*
X769270Y566950D01*
X769430Y565900D01*
X769650Y565200D01*
X770100Y564500D01*
X770630Y564030D01*
X771150Y563800D01*
X771670D01*
X772200Y564030D01*
X772650Y564380D01*
X773030Y564850D01*
G01X777450Y563800D02*
Y570800D01*
X776550Y569400D01*
G01Y563800D02*
X778350D01*
G01X782100Y565200D02*
X782550Y564380D01*
X783150Y563920D01*
X783830Y563800D01*
X784430Y563920D01*
X785030Y564500D01*
X785400Y565200D01*
X785470Y565900D01*
X785330Y566720D01*
X784800Y567300D01*
X784270Y567530D01*
X783600D01*
G01X784270D02*
X784720Y567880D01*
X785100Y568470D01*
X785250Y569170D01*
X785100Y569870D01*
X784720Y570450D01*
X784050Y570800D01*
X783380Y570680D01*
X782700Y570220D01*
G01X788400Y564850D02*
X788850Y564270D01*
X789370Y563920D01*
X790050Y563800D01*
X790730Y564030D01*
X791250Y564500D01*
X791630Y565320D01*
X791700Y566250D01*
X791550Y567180D01*
X791170Y567770D01*
X790650Y568230D01*
X790130Y568350D01*
X789600Y568230D01*
X788930Y567770D01*
X789150Y570800D01*
X791170D01*
G01X796350D02*
X795750Y570570D01*
X795300Y569980D01*
X795000Y569280D01*
X794770Y568350D01*
X794700Y567300D01*
X794770Y566250D01*
X795000Y565320D01*
X795300Y564620D01*
X795750Y564030D01*
X796350Y563800D01*
X796950Y564030D01*
X797400Y564620D01*
X797700Y565320D01*
X797930Y566250D01*
X798000Y567300D01*
X797930Y568350D01*
X797700Y569280D01*
X797400Y569980D01*
X796950Y570570D01*
X796350Y570800D01*
G01X801680Y566130D02*
X803620D01*
G01X809850Y563800D02*
Y570800D01*
X807070Y565780D01*
X810830D01*
G01X863570Y539600D02*
X865450Y546600D01*
X867330Y539600D01*
G01X866650Y542050D02*
X864250D01*
G01X947620Y545230D02*
X948080Y545930D01*
X948600Y546280D01*
X949200Y546400D01*
X949950Y546170D01*
X950480Y545580D01*
X950630Y544880D01*
X950550Y544180D01*
X950250Y543600D01*
X948750Y542430D01*
X948080Y541620D01*
X947620Y540450D01*
X947470Y539400D01*
X950630D01*
G01X955350Y546400D02*
X954750Y546170D01*
X954300Y545580D01*
X954000Y544880D01*
X953770Y543950D01*
X953700Y542900D01*
X953770Y541850D01*
X954000Y540920D01*
X954300Y540220D01*
X954750Y539630D01*
X955350Y539400D01*
X955950Y539630D01*
X956400Y540220D01*
X956700Y540920D01*
X956930Y541850D01*
X957000Y542900D01*
X956930Y543950D01*
X956700Y544880D01*
X956400Y545580D01*
X955950Y546170D01*
X955350Y546400D01*
G01X961650Y539400D02*
Y546400D01*
X960750Y545000D01*
G01Y539400D02*
X962550D01*
G01X967800D02*
X967950Y540920D01*
X968180Y542200D01*
X968470Y543370D01*
X968850Y544650D01*
X969450Y546400D01*
X966450D01*
G01X973280Y541730D02*
X975220D01*
G01X980550Y546400D02*
X979950Y546170D01*
X979500Y545580D01*
X979200Y544880D01*
X978970Y543950D01*
X978900Y542900D01*
X978970Y541850D01*
X979200Y540920D01*
X979500Y540220D01*
X979950Y539630D01*
X980550Y539400D01*
X981150Y539630D01*
X981600Y540220D01*
X981900Y540920D01*
X982130Y541850D01*
X982200Y542900D01*
X982130Y543950D01*
X981900Y544880D01*
X981600Y545580D01*
X981150Y546170D01*
X980550Y546400D01*
G01X986850Y539400D02*
Y546400D01*
X985950Y545000D01*
G01Y539400D02*
X987750D01*
G01X992180Y541730D02*
X994120D01*
G01X998020Y545230D02*
X998480Y545930D01*
X999000Y546280D01*
X999600Y546400D01*
X1000350Y546170D01*
X1000880Y545580D01*
X1001030Y544880D01*
X1000950Y544180D01*
X1000650Y543600D01*
X999150Y542430D01*
X998480Y541620D01*
X998020Y540450D01*
X997870Y539400D01*
X1001030D01*
G01X1004100Y540800D02*
X1004550Y539980D01*
X1005150Y539520D01*
X1005830Y539400D01*
X1006430Y539520D01*
X1007030Y540100D01*
X1007400Y540800D01*
X1007470Y541500D01*
X1007330Y542320D01*
X1006800Y542900D01*
X1006270Y543130D01*
X1005600D01*
G01X1006270D02*
X1006720Y543480D01*
X1007100Y544070D01*
X1007250Y544770D01*
X1007100Y545470D01*
X1006720Y546050D01*
X1006050Y546400D01*
X1005380Y546280D01*
X1004700Y545820D01*
G01X908750Y567000D02*
Y574000D01*
X910550D01*
X911150Y573650D01*
X911600Y572830D01*
X911750Y571900D01*
X911600Y570970D01*
X911220Y570270D01*
X910550Y569920D01*
X908750D01*
G01X917900Y567000D02*
Y571670D01*
G01Y570850D02*
X917600Y571320D01*
X917150Y571550D01*
X916630Y571670D01*
X916100Y571430D01*
X915650Y570970D01*
X915350Y570270D01*
X915200Y569330D01*
X915350Y568400D01*
X915650Y567700D01*
X916100Y567230D01*
X916630Y567000D01*
X917150Y567120D01*
X917600Y567470D01*
X917900Y567930D01*
G01X921730Y567820D02*
X922100Y567350D01*
X922620Y567000D01*
X923080D01*
X923530Y567230D01*
X923820Y567580D01*
X923970Y568050D01*
X923900Y568750D01*
X923600Y569100D01*
X922250Y569800D01*
X921950Y570620D01*
X922100Y571200D01*
X922400Y571550D01*
X922850Y571670D01*
X923300Y571550D01*
X923750Y571200D01*
G01X929150Y574000D02*
Y567000D01*
G01X928100Y571670D02*
X930200D01*
G01X934330Y570150D02*
X936730D01*
X936500Y570970D01*
X936130Y571430D01*
X935600Y571670D01*
X935080Y571550D01*
X934620Y571200D01*
X934330Y570380D01*
X934170Y569680D01*
Y568980D01*
X934330Y568280D01*
X934700Y567580D01*
X935150Y567120D01*
X935680Y567000D01*
X936200Y567230D01*
X936730Y567930D01*
G01X939500Y567000D02*
Y571670D01*
G01Y570380D02*
X939720Y570970D01*
X940100Y571430D01*
X940630Y571670D01*
X941150Y571430D01*
X941520Y570970D01*
X941750Y570380D01*
Y567000D01*
G01Y570380D02*
X941980Y570970D01*
X942350Y571430D01*
X942870Y571670D01*
X943400Y571430D01*
X943780Y570970D01*
X944000Y570270D01*
Y567000D01*
G01X949400D02*
Y571670D01*
G01Y570850D02*
X949100Y571320D01*
X948650Y571550D01*
X948130Y571670D01*
X947600Y571430D01*
X947150Y570970D01*
X946850Y570270D01*
X946700Y569330D01*
X946850Y568400D01*
X947150Y567700D01*
X947600Y567230D01*
X948130Y567000D01*
X948650Y567120D01*
X949100Y567470D01*
X949400Y567930D01*
G01X953230Y567820D02*
X953600Y567350D01*
X954120Y567000D01*
X954580D01*
X955030Y567230D01*
X955320Y567580D01*
X955470Y568050D01*
X955400Y568750D01*
X955100Y569100D01*
X953750Y569800D01*
X953450Y570620D01*
X953600Y571200D01*
X953900Y571550D01*
X954350Y571670D01*
X954800Y571550D01*
X955250Y571200D01*
G01X959370Y567000D02*
Y574000D01*
G01X961770Y571670D02*
X959370Y568980D01*
G01X960350Y570030D02*
X961930Y567000D01*
G01X965980Y569330D02*
X967920D01*
G01X973850Y570730D02*
X974150Y571080D01*
X974370Y571670D01*
X974530Y572480D01*
X974370Y573180D01*
X974080Y573650D01*
X973550Y574000D01*
X971530D01*
Y567000D01*
X974000D01*
X974530Y567470D01*
X974830Y568170D01*
X974970Y568980D01*
X974830Y569800D01*
X974370Y570500D01*
X973850Y570730D01*
X971530D01*
G01X979550Y567000D02*
X979100Y567120D01*
X978650Y567580D01*
X978350Y568400D01*
X978200Y569330D01*
X978350Y570270D01*
X978650Y571080D01*
X979100Y571550D01*
X979550Y571670D01*
X980000Y571550D01*
X980450Y571080D01*
X980750Y570270D01*
X980830Y569330D01*
X980750Y568400D01*
X980450Y567580D01*
X980000Y567120D01*
X979550Y567000D01*
G01X985850Y574000D02*
Y567000D01*
G01X984800Y571670D02*
X986900D01*
G01X992150Y574000D02*
Y567000D01*
G01X991100Y571670D02*
X993200D01*
G01X998450Y567000D02*
X998000Y567120D01*
X997550Y567580D01*
X997250Y568400D01*
X997100Y569330D01*
X997250Y570270D01*
X997550Y571080D01*
X998000Y571550D01*
X998450Y571670D01*
X998900Y571550D01*
X999350Y571080D01*
X999650Y570270D01*
X999730Y569330D01*
X999650Y568400D01*
X999350Y567580D01*
X998900Y567120D01*
X998450Y567000D01*
G01X1002500D02*
Y571670D01*
G01Y570380D02*
X1002720Y570970D01*
X1003100Y571430D01*
X1003630Y571670D01*
X1004150Y571430D01*
X1004520Y570970D01*
X1004750Y570380D01*
Y567000D01*
G01Y570380D02*
X1004980Y570970D01*
X1005350Y571430D01*
X1005870Y571670D01*
X1006400Y571430D01*
X1006780Y570970D01*
X1007000Y570270D01*
Y567000D01*
G01X1066850Y537700D02*
Y544700D01*
X1065950Y543300D01*
G01Y537700D02*
X1067750D01*
G01X1073150Y544700D02*
X1072550Y544470D01*
X1072100Y543880D01*
X1071800Y543180D01*
X1071570Y542250D01*
X1071500Y541200D01*
X1071570Y540150D01*
X1071800Y539220D01*
X1072100Y538520D01*
X1072550Y537930D01*
X1073150Y537700D01*
X1073750Y537930D01*
X1074200Y538520D01*
X1074500Y539220D01*
X1074730Y540150D01*
X1074800Y541200D01*
X1074730Y542250D01*
X1074500Y543180D01*
X1074200Y543880D01*
X1073750Y544470D01*
X1073150Y544700D01*
G01X1041150Y537100D02*
Y544100D01*
X1040250Y542700D01*
G01Y537100D02*
X1042050D01*
G01X1047450Y544100D02*
X1046850Y543870D01*
X1046400Y543280D01*
X1046100Y542580D01*
X1045870Y541650D01*
X1045800Y540600D01*
X1045870Y539550D01*
X1046100Y538620D01*
X1046400Y537920D01*
X1046850Y537330D01*
X1047450Y537100D01*
X1048050Y537330D01*
X1048500Y537920D01*
X1048800Y538620D01*
X1049030Y539550D01*
X1049100Y540600D01*
X1049030Y541650D01*
X1048800Y542580D01*
X1048500Y543280D01*
X1048050Y543870D01*
X1047450Y544100D01*
G54D14*
G01X793200Y692900D02*
X1012000D01*
G03X1017700Y698700I-101J5800D01*
G01Y756600D01*
X992000D01*
Y776300D01*
X967000D01*
Y804500D01*
X992000D01*
Y824200D01*
X1017700D01*
Y962600D01*
G03X1015000Y973000I-21120J67D01*
G02X1010000Y983000I116121J64310D01*
G02X1009100Y987100I9388J4210D01*
G01Y988900D01*
G02X1010400Y993400I13777J-1542D01*
G02X1014900Y1001800I104880J-50780D01*
G03X1017700Y1012200I-17505J10290D01*
G01Y1156800D01*
G03X1011900Y1162600I-5800J0D01*
G01X849600D01*
Y1157900D01*
X843300D01*
Y1149600D01*
X839800D01*
Y1157900D01*
X824800D01*
Y1149600D01*
X821300D01*
Y1157900D01*
X815000D01*
Y1162600D01*
X793200D01*
G03X787400Y1156900I0J-5801D01*
G01Y1012200D01*
G03X790400Y1001800I19349J-51D01*
G02X795200Y992200I-45104J-28552D01*
G02X796100Y987900I-13089J-4984D01*
G01Y987600D01*
G02X795400Y982700I-18821J189D01*
G02X790700Y973000I-29217J8168D01*
G03X787400Y962800I14077J-10188D01*
G01Y824200D01*
X813100D01*
Y805500D01*
X838100D01*
Y777300D01*
X813100D01*
Y758600D01*
X787400D01*
Y698700D01*
G03X793200Y692900I5800J0D01*
G54D15*
G01X680000Y610000D02*
X1110000D01*
Y530000D01*
X680000D01*
Y610000D01*
G01Y583500D02*
X1110000D01*
G01X680000Y557000D02*
X1110000D01*
G01X850000Y583500D02*
Y530000D01*
G01X924000Y557000D02*
Y530000D01*
G01X1026500Y557000D02*
Y530000D01*
M02*
