G04 ================== begin FILE IDENTIFICATION RECORD ==================*
G04 Layout Name:  LAUNCHXL-CC1350-433.brd*
G04 Film Name:    LAUNCHXL-CC1350-4-A_BOTTOM*
G04 File Format:  Gerber RS274X*
G04 File Origin:  Cadence Allegro 16.6-2015-S068*
G04 Origin Date:  Mon Jan 23 14:11:49 2017*
G04 *
G04 Layer:  DRAWING FORMAT/TITLE_DATA*
G04 Layer:  DRAWING FORMAT/TITLE_BLOCK*
G04 Layer:  BOARD GEOMETRY/OUTLINE*
G04 Layer:  VIA CLASS/BOTTOM*
G04 Layer:  PIN/BOTTOM*
G04 Layer:  ETCH/BOTTOM*
G04 *
G04 Offset:    (0.0 0.0)*
G04 Mirror:    No*
G04 Mode:      Positive*
G04 Rotation:  0*
G04 FullContactRelief:  No*
G04 UndefLineWidth:     4.0*
G04 ================== end FILE IDENTIFICATION RECORD ====================*
%FSLAX25Y25*MOIN*%
%IR0*IPPOS*OFA0.00000B0.00000*MIA0B0*SFA1.00000B1.00000*%
%ADD17C,.15*%
%ADD10C,.004*%
%ADD19O,.001X.002*%
%ADD15C,.02*%
%ADD11C,.031*%
%ADD14C,.05*%
%ADD12C,.016*%
%ADD18O,.055X.083*%
%ADD13C,.065*%
%ADD16C,.067*%
%ADD20C,.006*%
%ADD21C,.0085*%
%ADD22C,.01*%
%ADD23C,.015*%
%ADD24O,.0132X.0142*%
%ADD28C,.0324*%
%ADD29C,.0514*%
%ADD26C,.0284*%
%ADD30C,.0474*%
%ADD25C,.0774*%
%ADD27C,.0794*%
G75*
%LPD*%
G75*
G36*
G01X818700Y702900D02*
G02X815900Y700100I-1400J-1400D01*
G01X811900Y704100D01*
G02X811400Y705500I1465J1312D01*
G01Y716500D01*
X808100Y719800D01*
G02X810800Y722600I1363J1387D01*
G01X814700Y718700D01*
G02X815300Y717300I-1363J-1413D01*
G01Y706300D01*
X818700Y702900D01*
G37*
G36*
G01X826600D02*
G02X823800Y700100I-1400J-1400D01*
G01X819800Y704100D01*
G02X819200Y705500I1385J1422D01*
G01Y716500D01*
X815900Y719800D01*
G02X818700Y722600I1400J1400D01*
G01X822600Y718700D01*
G02X823200Y717300I-1378J-1419D01*
G01Y706300D01*
X826600Y702900D01*
G37*
G36*
G01X834500D02*
G02X831700Y700100I-1400J-1400D01*
G01X827700Y704100D01*
G02X827100Y705500I1374J1417D01*
G01Y716500D01*
X823800Y719800D01*
G02X826600Y722600I1400J1400D01*
G01X830500Y718700D01*
G02X831100Y717300I-1389J-1424D01*
G01Y706300D01*
X834500Y702900D01*
G37*
G36*
G01X842300D02*
G02X839600Y700100I-1350J-1400D01*
G01X835600Y704100D01*
G02X835000Y705500I1357J1410D01*
G01Y716500D01*
X831700Y719800D01*
G02X834500Y722600I1400J1400D01*
G01X838400Y718700D01*
G02X838900Y717300I-1471J-1315D01*
G01Y706300D01*
X842300Y702900D01*
G37*
G36*
G01X1007550Y980830D02*
X1007570D01*
X1007950Y980560D01*
G03X1011640Y973680I21020J6844D01*
G02X1015500Y962600I-13870J-11044D01*
G01Y824610D01*
G02X1015210Y824230I-394J0D01*
G01X991970D01*
Y804800D01*
G02X991700Y804530I-380J111D01*
G01X966970D01*
Y776270D01*
X991700D01*
G02X991970Y776000I-110J-380D01*
G01Y756470D01*
X1015210D01*
G02X1015500Y756090I-104J-380D01*
G01Y752400D01*
G02X1015100Y752000I-400J0D01*
G01X896180D01*
G02X895900Y752120I5J399D01*
G01X893920Y754090D01*
G03X893640Y754210I-285J-279D01*
G01X884670D01*
G02X884390Y754330I5J399D01*
G01X884320Y754390D01*
G03X884040Y754510I-285J-279D01*
G01X791060D01*
G03X790780Y754390I5J-399D01*
G01X790280Y753890D01*
G02X789840Y753810I-279J286D01*
G01X789730Y753850D01*
X789600Y754040D01*
Y758190D01*
G02X789890Y758570I394J0D01*
G01X813130D01*
Y777000D01*
G02X813400Y777270I381J-111D01*
G01X838130D01*
Y805530D01*
X813400D01*
G02X813130Y805800I111J380D01*
G01Y824230D01*
X789890D01*
G02X789600Y824610I104J380D01*
G01Y962600D01*
G02X793460Y973680I17741J32D01*
G03X797090Y980370I-17316J13725D01*
G01X797470Y980640D01*
X797500D01*
G03X798440Y985250I196J2361D01*
G01X798170Y985630D01*
Y985660D01*
G03X798150Y989330I-22029J1715D01*
G01Y989360D01*
X798430Y989740D01*
G03X797440Y994360I-730J2260D01*
G01X797400D01*
X797020Y994620D01*
G03X793460Y1001120I-20883J-7213D01*
G02X792270Y1002900I14107J10719D01*
G02X789600Y1012200I15054J9355D01*
G01Y1146630D01*
G02X789860Y1147000I399J-4D01*
G01X790690Y1147310D01*
X790930Y1147240D01*
X791010Y1147150D01*
G03X801990Y1158950I6198J5241D01*
G01X801890Y1159030D01*
X801810Y1159280D01*
X802080Y1160120D01*
G02X802460Y1160400I382J-121D01*
G01X812400D01*
G02X812800Y1160000I0J-400D01*
G01Y1137800D01*
G03X813200Y1137400I400J0D01*
G01X825450D01*
X825670Y1137210D01*
X825700Y1137070D01*
G03X827930Y1136150I1400J231D01*
G01X827990Y1136190D01*
X828100Y1136220D01*
X828700D01*
X828810Y1136190D01*
X828870Y1136150D01*
G03X830580Y1136180I835J1150D01*
G01X830820Y1136270D01*
X831080D01*
X831320Y1136180D01*
G03X832990Y1136120I876J1119D01*
G01X833050Y1136160D01*
X833160Y1136190D01*
X833760Y1136160D01*
X833870Y1136130D01*
X833920Y1136080D01*
G03X836210Y1137040I878J1118D01*
G01X836230Y1137200D01*
X836450Y1137400D01*
X851400D01*
G03X851800Y1137800I0J400D01*
G01Y1160000D01*
G02X852200Y1160400I400J0D01*
G01X1001840D01*
G02X1002220Y1160120I-2J-401D01*
G01X1002490Y1159280D01*
X1002410Y1159030D01*
X1002310Y1158950D01*
G03X1014020Y1148150I4790J-6555D01*
G01X1014090Y1148270D01*
X1014330Y1148360D01*
X1015210Y1148120D01*
G02X1015500Y1147730I-111J-386D01*
G01Y1012200D01*
G02X1012930Y1002910I-17739J-93D01*
G02X1011640Y1001130I-14985J9503D01*
G03X1008140Y994810I17329J-13726D01*
G01X1007760Y994550D01*
X1007710D01*
G03X1006690Y989940I-308J-2350D01*
G01X1006960Y989560D01*
Y989520D01*
G03X1006920Y985850I22010J-2075D01*
G02X1006650Y985450I-400J-21D01*
G03X1007550Y980830I742J-2253D01*
G37*
G36*
G01X789600Y1144100D02*
Y1158070D01*
G02X791930Y1160400I3500J-1170D01*
G01X805500D01*
Y1144100D01*
X789600D01*
G37*
G36*
G01X814400Y1138410D02*
Y1155300D01*
G02X814800Y1155700I400J0D01*
G01X818700D01*
G02X819100Y1155300I0J-400D01*
G01Y1147800D01*
G03X819500Y1147400I400J0D01*
G01X826600D01*
G03X827000Y1147800I0J400D01*
G01Y1155300D01*
G02X827400Y1155700I400J0D01*
G01X837200D01*
G02X837600Y1155300I0J-400D01*
G01Y1147800D01*
G03X838000Y1147400I400J0D01*
G01X845100D01*
G03X845500Y1147800I0J400D01*
G01Y1155300D01*
G02X845900Y1155700I400J0D01*
G01X849800D01*
G02X850200Y1155300I0J-400D01*
G01Y1138410D01*
G02X849800Y1138010I-400J0D01*
G01X836160D01*
G02X835860Y1138140I-4J401D01*
G03X834010Y1138380I-1063J-940D01*
G01X833950Y1138340D01*
X833840Y1138310D01*
X833240Y1138340D01*
X833130Y1138370D01*
X833080Y1138420D01*
G03X831320I-880J-1120D01*
G02X831080Y1138330I-253J309D01*
G01X830820D01*
G02X830580Y1138420I13J399D01*
G03X828870Y1138450I-875J-1120D01*
G01X828810Y1138410D01*
X828700Y1138380D01*
X828100D01*
X827990Y1138410D01*
X827930Y1138450D01*
G03X825970Y1138170I-836J-1150D01*
G01X825920Y1138090D01*
X825750Y1138010D01*
X814800D01*
G02X814400Y1138410I0J400D01*
G37*
G36*
G01X889600Y702900D02*
G02X886800Y700100I-1400J-1400D01*
G01X882800Y704100D01*
G02X882200Y705500I1377J1419D01*
G01Y716500D01*
X878900Y719800D01*
G02X881700Y722600I1400J1400D01*
G01X885600Y718700D01*
G02X886200Y717300I-1384J-1422D01*
G01Y706300D01*
X889600Y702900D01*
G37*
G36*
G01X850200D02*
G02X847400Y700100I-1400J-1400D01*
G01X843400Y704100D01*
G02X842900Y705500I1467J1313D01*
G01Y716500D01*
X839600Y719800D01*
G02X842400Y722600I1400J1400D01*
G01X846200Y718700D01*
G02X846800Y717300I-1361J-1412D01*
G01Y706300D01*
X850200Y702900D01*
G37*
G36*
G01X858100D02*
G02X855300Y700100I-1400J-1400D01*
G01X851300Y704100D01*
G02X850700Y705500I1385J1422D01*
G01Y716500D01*
X847400Y719800D01*
G02X850200Y722600I1400J1400D01*
G01X854100Y718700D01*
G02X854700Y717300I-1378J-1419D01*
G01Y706300D01*
X858100Y702900D01*
G37*
G36*
G01X866000D02*
G02X863200Y700100I-1400J-1400D01*
G01X859200Y704100D01*
G02X858600Y705500I1368J1415D01*
G01Y716500D01*
X855300Y719800D01*
G02X858100Y722600I1400J1400D01*
G01X862000Y718700D01*
G02X862500Y717300I-1460J-1311D01*
G01Y706300D01*
X866000Y702900D01*
G37*
G36*
G01X873800D02*
G02X871100Y700100I-1350J-1400D01*
G01X867100Y704100D01*
G02X866500Y705500I1357J1410D01*
G01Y716500D01*
X863200Y719800D01*
G02X866000Y722600I1400J1400D01*
G01X869900Y718700D01*
G02X870400Y717300I-1471J-1315D01*
G01Y706300D01*
X873800Y702900D01*
G37*
G36*
G01X881700D02*
G02X878900Y700100I-1400J-1400D01*
G01X874900Y704100D01*
G02X874400Y705500I1461J1311D01*
G01Y716500D01*
X871100Y719800D01*
G02X873800Y722600I1360J1391D01*
G01X877700Y718700D01*
G02X878300Y717300I-1367J-1414D01*
G01Y706300D01*
X881700Y702900D01*
G37*
G36*
G01X998800Y1144100D02*
Y1160400D01*
X1013100D01*
G02X1014890Y1159190I-1205J-3712D01*
G02X1015500Y1158070I-2891J-2301D01*
G01Y1144100D01*
X998800D01*
G37*
G36*
G01X1015100Y1154930D02*
X1014970D01*
X1014770Y1155070D01*
X1014720Y1155190D01*
G03X1010770Y1159640I-7623J-2789D01*
G01X1010670Y1159700D01*
X1010550Y1159880D01*
Y1160000D01*
G02X1010950Y1160400I400J0D01*
G01X1012000D01*
G02X1015500Y1156800I-60J-3560D01*
G01Y1155330D01*
G02X1015100Y1154930I-400J0D01*
G37*
%LPC*%
G75*
G36*
G01X987600Y1157010D02*
G02X982490Y1152000I-174J-4934D01*
G02X987200Y1157010I4900J113D01*
G01X987600D01*
G37*
G36*
G01X878610Y1046230D02*
G03X879300Y1045510I796J73D01*
G02X877690Y1043970I-196J-1406D01*
G03X877000Y1044690I-796J-73D01*
G02X878610Y1046230I196J1406D01*
G37*
G36*
G01X881410Y1038330D02*
G03X882100Y1037610I796J73D01*
G02X880490Y1036070I-196J-1406D01*
G03X879800Y1036790I-796J-73D01*
G02X881410Y1038330I196J1406D01*
G37*
G36*
G01X940890Y982340D02*
G03X940340Y982250I-228J-329D01*
G02X940010Y984260I-1140J845D01*
G03X940560Y984350I228J329D01*
G02X940890Y982340I1140J-845D01*
G37*
G36*
G01X902100Y978740D02*
G03X901160Y978340I-229J-766D01*
G02X900300Y980360I-1259J657D01*
G03X901240Y980760I229J766D01*
G02X902100Y978740I1259J-657D01*
G37*
G36*
G01X928360Y976190D02*
G03X927350Y976040I-415J-683D01*
G02X927040Y978210I-1049J957D01*
G03X928050Y978360I415J683D01*
G02X928360Y976190I1049J-957D01*
G37*
G36*
G01X821820Y868590D02*
X813180D01*
X813140Y868580D01*
G02X811860I-640J3820D01*
G01X811820Y868590D01*
X809490D01*
G02X809090Y868990I0J399D01*
G01Y870470D01*
G03X809050Y870650I-401J5D01*
G02Y874150I3450J1750D01*
G03X809090Y874330I-361J175D01*
G01Y880470D01*
G03X809050Y880650I-401J5D01*
G02Y884150I3450J1750D01*
G03X809090Y884330I-361J175D01*
G01Y890470D01*
G03X809050Y890650I-401J5D01*
G02Y894150I3450J1750D01*
G03X809090Y894330I-361J175D01*
G01Y900470D01*
G03X809050Y900650I-401J5D01*
G02Y904150I3450J1750D01*
G03X809090Y904330I-361J175D01*
G01Y910470D01*
G03X809050Y910650I-401J5D01*
G02Y914150I3450J1750D01*
G03X809090Y914330I-361J175D01*
G01Y920470D01*
G03X809050Y920650I-401J5D01*
G02Y924150I3450J1750D01*
G03X809090Y924330I-361J175D01*
G01Y930470D01*
G03X809050Y930650I-401J5D01*
G02Y934150I3450J1750D01*
G03X809090Y934330I-361J175D01*
G01Y940470D01*
G03X809050Y940650I-401J5D01*
G02Y944150I3450J1750D01*
G03X809090Y944330I-361J175D01*
G01Y945810D01*
G02X809490Y946210I399J0D01*
G01X811820D01*
X811860Y946220D01*
G02X813140I640J-3820D01*
G01X813180Y946210D01*
X821820D01*
X821860Y946220D01*
G02X823140I640J-3820D01*
G01X823180Y946210D01*
X825710D01*
G02X826110Y945810I0J-400D01*
G01Y943800D01*
X826130Y943730D01*
G02Y941070I-3630J-1330D01*
G01X826110Y941000D01*
Y933800D01*
X826130Y933730D01*
G02Y931070I-3630J-1330D01*
G01X826110Y931000D01*
Y923800D01*
X826130Y923730D01*
G02Y921070I-3630J-1330D01*
G01X826110Y921000D01*
Y913800D01*
X826130Y913730D01*
G02Y911070I-3630J-1330D01*
G01X826110Y911000D01*
Y903800D01*
X826130Y903730D01*
G02Y901070I-3630J-1330D01*
G01X826110Y901000D01*
Y893800D01*
X826130Y893730D01*
G02Y891070I-3630J-1330D01*
G01X826110Y891000D01*
Y883800D01*
X826130Y883730D01*
G02Y881070I-3630J-1330D01*
G01X826110Y881000D01*
Y873800D01*
X826130Y873730D01*
G02Y871070I-3630J-1330D01*
G01X826110Y871000D01*
Y868990D01*
G02X825710Y868590I-400J0D01*
G01X823180D01*
X823140Y868580D01*
G02X821860I-640J3820D01*
G01X821820Y868590D01*
G37*
G36*
G01X997010Y955810D02*
Y868290D01*
G02X996610Y867890I-399J0D01*
G01X978790D01*
G02X978390Y868290I0J399D01*
G01Y955810D01*
G02X978790Y956210I400J0D01*
G01X981920D01*
X981960Y956220D01*
G02X983240I640J-3820D01*
G01X983280Y956210D01*
X991920D01*
X991960Y956220D01*
G02X993240I640J-3820D01*
G01X993280Y956210D01*
X996610D01*
G02X997010Y955810I0J-400D01*
G37*
G36*
G01X1009200Y867910D02*
G02X1004090Y863000I-171J-4936D01*
G02X1008800Y867910I4905J9D01*
G01X1009200D01*
G37*
G36*
G01X797700D02*
G02X792490Y863000I-249J-4955D01*
G02X797300Y867910I4925J-14D01*
G01X797700D01*
G37*
G36*
G01X958210Y822650D02*
X958180Y822580D01*
G02X955570Y822700I-1279J619D01*
G01X955540Y822770D01*
X955460Y822870D01*
X954870Y823200D01*
X954740Y823220D01*
X954670Y823210D01*
G02X953140Y823940I-275J1393D01*
G01X953110Y824010D01*
X953010Y824100D01*
X952410Y824350D01*
X952280Y824360D01*
X952200Y824340D01*
G02X950580Y824970I-403J1361D01*
G01X950540Y825040D01*
X950460Y825110D01*
X949870Y825350D01*
X949750D01*
X949680Y825330D01*
G02X948160Y825850I-380J1369D01*
G01X948120Y825910D01*
X948010Y825990D01*
X947380Y826150D01*
X947250Y826140D01*
X947190Y826110D01*
G02X945320Y826780I-593J1291D01*
G01X945290Y826850D01*
X945200Y826940D01*
X944620Y827220D01*
X944490Y827230D01*
X944420Y827220D01*
G02X942790Y828040I-326J1383D01*
G03X942620Y828240I-373J-145D01*
G01X942400Y828360D01*
G03X942140Y828400I-188J-355D01*
G02X943210Y830360I-237J1402D01*
G03X943380Y830160I373J145D01*
G01X943600Y830040D01*
G03X943860Y830000I188J355D01*
G02X945380Y829220I242J-1400D01*
G01X945410Y829150D01*
X945500Y829060D01*
X946080Y828780D01*
X946210Y828770D01*
X946280Y828780D01*
G02X947740Y828250I325J-1382D01*
G01X947780Y828190D01*
X947890Y828110D01*
X948520Y827950D01*
X948650Y827960D01*
X948710Y827990D01*
G02X950520Y827430I592J-1291D01*
G01X950560Y827360D01*
X950640Y827290D01*
X951230Y827050D01*
X951350D01*
X951420Y827070D01*
G02X953060Y826360I381J-1369D01*
G01X953090Y826290D01*
X953190Y826200D01*
X953790Y825950D01*
X953920Y825940D01*
X954000Y825960D01*
G02X955730Y825100I402J-1361D01*
G01X955760Y825030D01*
X955840Y824930D01*
X956430Y824600D01*
X956560Y824580D01*
X956630Y824590D01*
G02X957410Y824520I268J-1391D01*
G01X957480Y824500D01*
X957630D01*
X958280Y824750D01*
X958390Y824850D01*
X958420Y824920D01*
G02X959190Y822980I1279J-615D01*
G01X959120Y823000D01*
X958970D01*
X958320Y822750D01*
X958210Y822650D01*
G37*
G36*
G01X973510Y839890D02*
G02X971290Y838110I-1110J-890D01*
G01X971240Y838180D01*
X971130Y838240D01*
X970440Y838360D01*
X970320Y838340D01*
X970250Y838290D01*
G02X969880Y840870I-748J1209D01*
G01X969970Y840840D01*
X970130Y840870D01*
X970790Y841320D01*
X970880Y841460D01*
X970890Y841550D01*
G02X973480Y840610I1411J-149D01*
G03X973410Y840370I330J-226D01*
G01X973420Y840120D01*
G03X973510Y839890I399J23D01*
G37*
G36*
G01X977720Y841280D02*
G02X976040Y842800I-1418J121D01*
G03X976680Y843520I-154J782D01*
G02X978160Y844820I1417J-121D01*
G01X978240D01*
X978380Y844860D01*
X978910Y845330D01*
X978980Y845460D01*
X978990Y845540D01*
G02X979890Y846720I1410J-142D01*
G03X980070Y846870I-155J369D01*
G01X980210Y847070D01*
G03X980280Y847300I-330J226D01*
G02X981690Y848720I1420J0D01*
G01X981780D01*
X981900Y848770D01*
X982420Y849240D01*
X982480Y849360D01*
X982490Y849440D01*
G02X983910Y847880I1412J-141D01*
G01X983820D01*
X983700Y847830D01*
X983180Y847360D01*
X983120Y847240D01*
X983110Y847160D01*
G02X982210Y845980I-1410J142D01*
G03X982030Y845830I155J-369D01*
G01X981890Y845630D01*
G03X981820Y845400I330J-226D01*
G02X980340Y843980I-1421J0D01*
G01X980260D01*
X980120Y843940D01*
X979590Y843470D01*
X979520Y843340D01*
X979510Y843260D01*
G02X978360Y842000I-1414J136D01*
G03X977720Y841280I154J-782D01*
G37*
G36*
G01X877740Y855720D02*
X877700Y855630D01*
G02X877150Y857410I-1300J573D01*
G01X877220Y857360D01*
X877390Y857340D01*
X878140Y857570D01*
X878260Y857680D01*
X878300Y857770D01*
G02X880090Y858530I1299J-571D01*
G01X880170Y858510D01*
X880330Y858520D01*
X881000Y858860D01*
X881110Y858990D01*
X881130Y859070D01*
G02X882750Y860100I1372J-369D01*
G01X882850Y860080D01*
X883020Y860130D01*
X883630Y860700D01*
X883700Y860860D01*
X883690Y860960D01*
G02X884850Y859700I1413J137D01*
G01X884750Y859720D01*
X884580Y859670D01*
X883970Y859100D01*
X883900Y858940D01*
X883910Y858840D01*
G02X882010Y857370I-1411J-139D01*
G01X881930Y857390D01*
X881770Y857380D01*
X881100Y857040D01*
X880990Y856910D01*
X880970Y856830D01*
G02X878850Y855990I-1372J368D01*
G01X878780Y856040D01*
X878610Y856060D01*
X877860Y855830D01*
X877740Y855720D01*
G37*
G36*
G01X931270Y867370D02*
G02X930740Y865280I630J-1272D01*
G03X929730Y865530I-651J-465D01*
G02X930260Y867620I-630J1272D01*
G03X931270Y867370I651J465D01*
G37*
G36*
G01X924560Y871100D02*
G02X922890Y869840I-256J-1397D01*
G03X922240Y870700I-796J74D01*
G02X923910Y871960I256J1397D01*
G03X924560Y871100I796J-74D01*
G37*
G36*
G01X942070Y885870D02*
G02X940670Y886920I-1371J-370D01*
G03X941430Y887930I-12J800D01*
G02X942830Y886880I1371J370D01*
G03X942070Y885870I12J-800D01*
G37*
G36*
G01X927720Y967100D02*
G02X926670Y968370I-1417J-103D01*
G03X927680Y969200I213J770D01*
G02X928730Y967930I1417J103D01*
G03X927720Y967100I-213J-770D01*
G37*
G36*
G01X933010Y985300D02*
G02X931670Y986920I-1408J200D01*
G03X932490Y987600I31J797D01*
G02X933830Y985980I1408J-200D01*
G03X933010Y985300I-31J-797D01*
G37*
G36*
G01X935480Y996540D02*
X935500Y996450D01*
G02X932700I-1400J-250D01*
G01X932720Y996540D01*
X932680Y996700D01*
X932220Y997250D01*
G03X931910Y997390I-304J-261D01*
G01X840890D01*
G02X840490Y997790I0J399D01*
G01Y998880D01*
G03X840320Y999210I-402J2D01*
G02Y1005590I2180J3190D01*
G03X840490Y1005920I-232J328D01*
G01Y1008880D01*
G03X840320Y1009210I-402J2D01*
G02Y1015590I2180J3190D01*
G03X840490Y1015920I-232J328D01*
G01Y1016410D01*
G02X840890Y1016810I400J0D01*
G01X886020D01*
X886220Y1016950D01*
X886260Y1017080D01*
G02X888940I1340J-480D01*
G01X888980Y1016950D01*
X889180Y1016810D01*
X898270D01*
G03X898600Y1016990I-4J400D01*
G01X899030Y1017640D01*
X899040Y1017830D01*
X899000Y1017930D01*
G02X901600I1300J570D01*
G01X901560Y1017830D01*
X901570Y1017640D01*
X902000Y1016990D01*
G03X902330Y1016810I334J220D01*
G01X935910D01*
G02X936310Y1016410I0J-400D01*
G01Y1013080D01*
X936320Y1013040D01*
G02Y1011760I-3820J-640D01*
G01X936310Y1011720D01*
Y1003080D01*
X936320Y1003040D01*
G02Y1001760I-3820J-640D01*
G01X936310Y1001720D01*
Y997390D01*
X936290D01*
G03X935980Y997250I-6J-401D01*
G01X935520Y996700D01*
X935480Y996540D01*
G37*
G36*
G01X932080Y1021040D02*
G02X930410Y1022090I-1379J-340D01*
G03X931020Y1023060I-167J782D01*
G02X932690Y1022010I1379J340D01*
G03X932080Y1021040I167J-782D01*
G37*
G36*
G01X873820Y1028990D02*
G02X871780I-1020J-990D01*
G03Y1030110I-569J560D01*
G02X873820I1020J990D01*
G03Y1028990I569J-560D01*
G37*
G36*
G01X889620D02*
G02X887580I-1020J-990D01*
G03Y1030110I-569J560D01*
G02X889620I1020J990D01*
G03Y1028990I569J-560D01*
G37*
G36*
G01X905320D02*
G02X903280I-1020J-990D01*
G03Y1030110I-569J560D01*
G02X905320I1020J990D01*
G03Y1028990I569J-560D01*
G37*
G36*
G01X823610Y1130510D02*
G02X823540Y1128360I891J-1105D01*
G03X822490Y1128390I-542J-589D01*
G02X822560Y1130540I-891J1105D01*
G03X823610Y1130510I542J589D01*
G37*
G36*
G01X797530Y1109830D02*
G02X793950Y1112290I-1831J1171D01*
G03X794000Y1112360I-297J265D01*
G02X794450Y1112940I1308J-550D01*
G01X794540Y1113000D01*
X794620Y1113160D01*
X794610Y1114010D01*
X794520Y1114170D01*
X794440Y1114230D01*
G02X794530Y1117830I1259J1770D01*
G03X794710Y1118160I-218J333D01*
G01Y1118840D01*
G03X794530Y1119170I-398J-3D01*
G02Y1122830I1170J1830D01*
G03X794710Y1123160I-218J333D01*
G01Y1123840D01*
G03X794530Y1124170I-398J-3D01*
G02Y1127830I1170J1830D01*
G03X794710Y1128160I-218J333D01*
G01Y1128840D01*
G03X794530Y1129170I-398J-3D01*
G02X793950Y1132280I1170J1827D01*
G01X794010Y1132360D01*
X794040Y1132550D01*
X793750Y1133360D01*
X793610Y1133500D01*
X793520Y1133520D01*
G02X796140Y1134310I681J2480D01*
G01X796070Y1134230D01*
X796020Y1134040D01*
X796230Y1133210D01*
X796360Y1133070D01*
X796460Y1133030D01*
G02X797530Y1132170I-755J-2034D01*
G03X797860Y1131990I333J218D01*
G01X798540D01*
G03X798870Y1132170I-3J398D01*
G02X799940Y1133030I1825J-1174D01*
G01X800040Y1133070D01*
X800170Y1133210D01*
X800380Y1134040D01*
X800330Y1134230D01*
X800260Y1134310D01*
G02X802880Y1133520I1939J1690D01*
G01X802790Y1133500D01*
X802650Y1133360D01*
X802360Y1132550D01*
X802390Y1132360D01*
X802450Y1132280D01*
G02X801870Y1129170I-1750J-1283D01*
G03X801690Y1128840I218J-333D01*
G01Y1128160D01*
G03X801870Y1127830I398J3D01*
G02Y1124170I-1170J-1830D01*
G03X801690Y1123840I218J-333D01*
G01Y1123160D01*
G03X801870Y1122830I398J3D01*
G02Y1119170I-1170J-1830D01*
G03X801690Y1118840I218J-333D01*
G01Y1118160D01*
G03X801870Y1117830I398J3D01*
G02Y1114170I-1170J-1830D01*
G03X801690Y1113840I218J-333D01*
G01Y1113160D01*
G03X801870Y1112830I398J3D01*
G02X798870Y1109830I-1170J-1830D01*
G03X798540Y1110010I-333J-218D01*
G01X797860D01*
G03X797530Y1109830I3J-398D01*
G37*
G54D24*
X900290Y939690D03*
G54D28*
X833600Y973600D03*
X931800Y830900D03*
X896000Y826800D03*
X934900Y854300D03*
X897000Y867200D03*
X912300Y877600D03*
X969700Y820700D03*
Y832300D03*
G54D29*
X798200Y1106000D03*
G54D26*
X834500Y877100D03*
X829400Y872400D03*
X834400Y914600D03*
X801400Y1033500D03*
X822400Y1027900D03*
X793900Y1068900D03*
X832400Y1034300D03*
X798200Y1054300D03*
X808300Y1124000D03*
X814300D03*
X797600Y1099600D03*
X794300Y1086600D03*
X833500Y1111400D03*
X835000Y1103800D03*
X817300Y1103900D03*
X835400Y1133500D03*
X829900Y1129900D03*
X880700Y815700D03*
X890400Y813100D03*
X884200Y819300D03*
X893800Y836800D03*
X872700Y855000D03*
X868500Y852500D03*
X841000Y890200D03*
X864900Y850200D03*
X859800Y848500D03*
X894100Y880900D03*
X858300Y865900D03*
Y892500D03*
X852050Y892450D03*
X854100Y845100D03*
X867500Y937300D03*
X862500Y927300D03*
X869700Y932100D03*
X866800Y921000D03*
X882100Y946800D03*
X862100Y911200D03*
X859000Y902500D03*
X857200Y950600D03*
X836600Y895000D03*
X879600Y905600D03*
X874100Y943200D03*
X887700Y965700D03*
Y982600D03*
X892500Y988100D03*
X872500Y982500D03*
Y966500D03*
X862500Y982100D03*
Y966000D03*
X846900Y956000D03*
X857200Y964700D03*
X867200Y1066900D03*
X868900Y1053900D03*
X848400Y1030900D03*
X868900Y1044100D03*
X857500Y1026400D03*
X879900Y1021300D03*
X860600Y1037400D03*
X868900Y1059100D03*
X845300Y1128300D03*
X854700Y1112800D03*
X873600Y1098400D03*
X868500Y1105900D03*
X876400Y1085400D03*
X875200Y1073200D03*
X852800Y1124000D03*
X854300Y1142900D03*
X910800Y818600D03*
X898500Y818500D03*
X922400Y818700D03*
X909700Y808800D03*
X900900D03*
X897200Y841600D03*
X931900Y892500D03*
X935600Y865400D03*
X929100Y882200D03*
X926900Y872400D03*
X914700Y868200D03*
X917300Y887500D03*
Y871000D03*
X920000Y875300D03*
X935600Y902400D03*
X945500Y937300D03*
X945900Y952400D03*
X912400Y917400D03*
X921500Y942400D03*
X945200Y895000D03*
X951100Y912400D03*
X925800Y922400D03*
X924700Y932500D03*
X939400Y977000D03*
X935300Y962900D03*
X939800Y998000D03*
X899900Y988100D03*
X938100Y959400D03*
X912600Y979500D03*
Y993300D03*
X944100D03*
X928800D03*
X932800Y967800D03*
X922500Y985500D03*
X940700Y956000D03*
X949600Y962600D03*
X949400Y1006100D03*
X948800Y1027200D03*
X945700Y1025200D03*
X979000Y820700D03*
X985500Y828200D03*
X985400Y835900D03*
X962500Y835500D03*
X980900Y836600D03*
X959700Y877500D03*
X975700Y877400D03*
X973100Y886200D03*
X970800Y946300D03*
X965700Y937500D03*
X970400Y907300D03*
X963300Y896200D03*
X971700Y897300D03*
X954400Y926000D03*
X968500Y927200D03*
X973600Y949900D03*
X956900Y907300D03*
X967200Y962200D03*
X976300Y969900D03*
G54D30*
X863300Y1152700D03*
X872300D03*
G54D25*
X812600Y832400D03*
X836900Y856400D03*
Y846400D03*
X812600Y852400D03*
Y842400D03*
X822500Y952400D03*
X812500D03*
X822500Y962400D03*
X812500D03*
X832500Y1002400D03*
Y1012400D03*
X846900Y856400D03*
Y846400D03*
X992500Y832400D03*
Y852400D03*
Y842400D03*
X992600Y962400D03*
X982600D03*
X983900Y1002400D03*
Y1012400D03*
Y1022400D03*
G54D27*
X799200Y1014200D03*
%LPD*%
G75*
G36*
G01X797530Y1112170D02*
G03X796870Y1112830I-1830J-1170D01*
G02X796690Y1113160I218J333D01*
G01Y1113840D01*
G02X796870Y1114170I398J-3D01*
G03X797530Y1114830I-1170J1830D01*
G02X797860Y1115010I333J-218D01*
G01X798540D01*
G02X798870Y1114830I-3J-398D01*
G03X799530Y1114170I1830J1170D01*
G02X799710Y1113840I-218J-333D01*
G01Y1113160D01*
G02X799530Y1112830I-398J3D01*
G03X798870Y1112170I1170J-1830D01*
G02X798540Y1111990I-333J218D01*
G01X797860D01*
G02X797530Y1112170I3J398D01*
G37*
G54D10*
G01X793200Y692900D02*
X1012000D01*
G03X1017700Y698700I-101J5800D01*
G01Y756600D01*
X992000D01*
Y776300D01*
X967000D01*
Y804500D01*
X992000D01*
Y824200D01*
X1017700D01*
Y962600D01*
G03X1015000Y973000I-21120J67D01*
G02X1010000Y983000I116121J64310D01*
G02X1009100Y987100I9388J4210D01*
G01Y988900D01*
G02X1010400Y993400I13777J-1542D01*
G02X1014900Y1001800I104880J-50780D01*
G03X1017700Y1012200I-17505J10290D01*
G01Y1156800D01*
G03X1011900Y1162600I-5800J0D01*
G01X849600D01*
Y1157900D01*
X843300D01*
Y1149600D01*
X839800D01*
Y1157900D01*
X824800D01*
Y1149600D01*
X821300D01*
Y1157900D01*
X815000D01*
Y1162600D01*
X793200D01*
G03X787400Y1156900I0J-5801D01*
G01Y1012200D01*
G03X790400Y1001800I19349J-51D01*
G02X795200Y992200I-45104J-28552D01*
G02X796100Y987900I-13089J-4984D01*
G01Y987600D01*
G02X795400Y982700I-18821J189D01*
G02X790700Y973000I-29217J8168D01*
G03X787400Y962800I14077J-10188D01*
G01Y824200D01*
X813100D01*
Y805500D01*
X838100D01*
Y777300D01*
X813100D01*
Y758600D01*
X787400D01*
Y698700D01*
G03X793200Y692900I5800J0D01*
X797200Y706700D03*
X797700Y983000D03*
Y992000D03*
X798200Y1106000D03*
X802200Y1136000D03*
X794200D03*
X863300Y1152700D03*
X872300D03*
X918500Y708700D03*
X1007100Y706700D03*
X977560Y708700D03*
X1007400Y992200D03*
Y983200D03*
G54D20*
G01X812600Y838140D02*
Y842400D01*
G01D02*
Y846660D01*
G01X808340Y842400D02*
X812600D01*
G01D02*
X816860D01*
G01X812600Y848140D02*
Y852400D01*
G01D02*
Y856660D01*
G01X808340Y852400D02*
X812600D01*
G01D02*
X816860D01*
G01X822500Y948140D02*
Y952400D01*
G01X832500Y1008140D02*
Y1012400D01*
G01Y998140D02*
Y1002400D01*
G01D02*
Y1006660D01*
G01X828240Y1002400D02*
X832500D01*
G01D02*
X836760D01*
G01X799200Y1009840D02*
Y1014200D01*
G01X822500Y952400D02*
Y956660D01*
G01X818240Y952400D02*
X822500D01*
G01D02*
X826760D01*
G01X832500Y1012400D02*
Y1016660D01*
G01X828240Y1012400D02*
X832500D01*
G01D02*
X836760D01*
G01X799200Y1014200D02*
Y1018560D01*
G01X794840Y1014200D02*
X799200D01*
G01D02*
X803560D01*
G01X793140Y1121000D02*
X795700D01*
G01X793490Y1118790D02*
X795700Y1121000D01*
G01X800700Y1116000D02*
X803260D01*
G01X798490Y1113790D02*
X800700Y1116000D01*
G01X793140Y1131000D02*
X795700D01*
G01X793490Y1128790D02*
X795700Y1131000D01*
G01X797200Y1143890D02*
Y1152400D01*
G01D02*
X805710D01*
G01X992500Y838140D02*
Y842400D01*
G01D02*
Y846660D01*
G01X988240Y842400D02*
X992500D01*
G01D02*
X996760D01*
G01X992500Y848140D02*
Y852400D01*
G01D02*
Y856660D01*
G01X988240Y852400D02*
X992500D01*
G01D02*
X996760D01*
G01X992600Y958140D02*
Y962400D01*
G01D02*
Y966660D01*
G01X988340Y962400D02*
X992600D01*
G01D02*
X996860D01*
G01X1007100Y1143890D02*
Y1152400D01*
G01X998590D02*
X1007100D01*
G54D11*
X817300Y701500D03*
X809500D03*
X825200D03*
X833100D03*
X809500Y721200D03*
X817300D03*
X825200D03*
X833100D03*
X800700Y1126000D03*
Y1121000D03*
Y1116000D03*
Y1111000D03*
X795700Y1126000D03*
Y1121000D03*
Y1116000D03*
Y1111000D03*
X800700Y1131000D03*
X795700D03*
X888200Y701500D03*
X840900D03*
X848800D03*
X856700D03*
X864600D03*
X872400D03*
X880300D03*
Y721200D03*
X840900D03*
X848800D03*
X856700D03*
X864600D03*
X872400D03*
G54D21*
G01X685170Y605880D02*
X684770Y606130D01*
X684300Y606300D01*
X683770D01*
X683170Y606050D01*
X682700Y605630D01*
X682370Y605130D01*
X682100Y604300D01*
X682030Y603550D01*
X682170Y602800D01*
X682370Y602300D01*
X682770Y601800D01*
X683230Y601470D01*
X683700Y601300D01*
X684170D01*
X684630Y601470D01*
X685030Y601720D01*
X685370Y602050D01*
G01X687230Y606300D02*
Y602720D01*
X687500Y601970D01*
X688030Y601470D01*
X688700Y601300D01*
X689370Y601470D01*
X689900Y601970D01*
X690170Y602720D01*
Y606300D01*
G01X692300Y601970D02*
X692830Y601550D01*
X693430Y601300D01*
X693970D01*
X694500Y601550D01*
X694900Y601970D01*
X695100Y602550D01*
X694970Y603130D01*
X694630Y603630D01*
X694030Y603970D01*
X693230Y604130D01*
X692770Y604470D01*
X692570Y605050D01*
X692700Y605630D01*
X693030Y606050D01*
X693500Y606300D01*
X693970D01*
X694430Y606130D01*
X694830Y605720D01*
G01X698700Y606300D02*
Y601300D01*
G01X697170Y606300D02*
X700230D01*
G01X703700Y601300D02*
X703170Y601380D01*
X702700Y601720D01*
X702300Y602220D01*
X702030Y602800D01*
X701900Y603470D01*
Y604130D01*
X702030Y604800D01*
X702300Y605380D01*
X702700Y605880D01*
X703170Y606220D01*
X703700Y606300D01*
X704230Y606220D01*
X704700Y605880D01*
X705100Y605380D01*
X705370Y604800D01*
X705500Y604130D01*
Y603470D01*
X705370Y602800D01*
X705100Y602220D01*
X704700Y601720D01*
X704230Y601380D01*
X703700Y601300D01*
G01X706970D02*
Y606300D01*
X708700Y602130D01*
X710430Y606300D01*
Y601300D01*
G01X715030D02*
X712370D01*
Y606300D01*
X715030D01*
G01X713970Y603880D02*
X712370D01*
G01X717370Y601300D02*
Y606300D01*
X719030D01*
X719570Y606050D01*
X719900Y605720D01*
X720030Y605050D01*
X719900Y604380D01*
X719500Y603970D01*
X719030Y603720D01*
X717370D01*
G01X719030D02*
X720030Y601300D01*
G01X723700Y601130D02*
X723570Y601220D01*
Y601380D01*
X723700Y601470D01*
X723830Y601380D01*
Y601220D01*
X723700Y601130D01*
G01Y603380D02*
X723570Y603470D01*
Y603630D01*
X723700Y603720D01*
X723830Y603630D01*
Y603470D01*
X723700Y603380D01*
G01X683730Y578470D02*
X684000Y578720D01*
X684200Y579130D01*
X684330Y579720D01*
X684200Y580220D01*
X683930Y580550D01*
X683470Y580800D01*
X681670D01*
Y575800D01*
X683870D01*
X684330Y576130D01*
X684600Y576630D01*
X684730Y577220D01*
X684600Y577800D01*
X684200Y578300D01*
X683730Y578470D01*
X681670D01*
G01X688200Y575800D02*
X687670Y575880D01*
X687200Y576220D01*
X686800Y576720D01*
X686530Y577300D01*
X686400Y577970D01*
Y578630D01*
X686530Y579300D01*
X686800Y579880D01*
X687200Y580380D01*
X687670Y580720D01*
X688200Y580800D01*
X688730Y580720D01*
X689200Y580380D01*
X689600Y579880D01*
X689870Y579300D01*
X690000Y578630D01*
Y577970D01*
X689870Y577300D01*
X689600Y576720D01*
X689200Y576220D01*
X688730Y575880D01*
X688200Y575800D01*
G01X691530D02*
X693200Y580800D01*
X694870Y575800D01*
G01X694270Y577550D02*
X692130D01*
G01X696870Y575800D02*
Y580800D01*
X698530D01*
X699070Y580550D01*
X699400Y580220D01*
X699530Y579550D01*
X699400Y578880D01*
X699000Y578470D01*
X698530Y578220D01*
X696870D01*
G01X698530D02*
X699530Y575800D01*
G01X701730D02*
Y580800D01*
X703070D01*
X703600Y580550D01*
X704000Y580220D01*
X704330Y579720D01*
X704600Y579130D01*
X704670Y578300D01*
X704600Y577470D01*
X704330Y576880D01*
X704000Y576380D01*
X703600Y576050D01*
X703070Y575800D01*
X701730D01*
G01X711670D02*
Y580800D01*
X714730Y575800D01*
Y580800D01*
G01X716530Y575800D02*
X718200Y580800D01*
X719870Y575800D01*
G01X719270Y577550D02*
X717130D01*
G01X721470Y575800D02*
Y580800D01*
X723200Y576630D01*
X724930Y580800D01*
Y575800D01*
G01X729530D02*
X726870D01*
Y580800D01*
X729530D01*
G01X728470Y578380D02*
X726870D01*
G01X733200Y575630D02*
X733070Y575720D01*
Y575880D01*
X733200Y575970D01*
X733330Y575880D01*
Y575720D01*
X733200Y575630D01*
G01Y577880D02*
X733070Y577970D01*
Y578130D01*
X733200Y578220D01*
X733330Y578130D01*
Y577970D01*
X733200Y577880D01*
G01X682370Y549500D02*
Y554500D01*
X683970D01*
X684500Y554250D01*
X684900Y553670D01*
X685030Y553000D01*
X684900Y552330D01*
X684570Y551830D01*
X683970Y551580D01*
X682370D01*
G01X687370Y549500D02*
Y554500D01*
X689030D01*
X689570Y554250D01*
X689900Y553920D01*
X690030Y553250D01*
X689900Y552580D01*
X689500Y552170D01*
X689030Y551920D01*
X687370D01*
G01X689030D02*
X690030Y549500D01*
G01X693700D02*
X693170Y549580D01*
X692700Y549920D01*
X692300Y550420D01*
X692030Y551000D01*
X691900Y551670D01*
Y552330D01*
X692030Y553000D01*
X692300Y553580D01*
X692700Y554080D01*
X693170Y554420D01*
X693700Y554500D01*
X694230Y554420D01*
X694700Y554080D01*
X695100Y553580D01*
X695370Y553000D01*
X695500Y552330D01*
Y551670D01*
X695370Y551000D01*
X695100Y550420D01*
X694700Y549920D01*
X694230Y549580D01*
X693700Y549500D01*
G01X697370Y550500D02*
X697700Y550000D01*
X698100Y549670D01*
X698570Y549500D01*
X699100Y549670D01*
X699500Y550000D01*
X699900Y550500D01*
X700030Y551170D01*
Y554500D01*
G01X705030Y549500D02*
X702370D01*
Y554500D01*
X705030D01*
G01X703970Y552080D02*
X702370D01*
G01X710170Y554080D02*
X709770Y554330D01*
X709300Y554500D01*
X708770D01*
X708170Y554250D01*
X707700Y553830D01*
X707370Y553330D01*
X707100Y552500D01*
X707030Y551750D01*
X707170Y551000D01*
X707370Y550500D01*
X707770Y550000D01*
X708230Y549670D01*
X708700Y549500D01*
X709170D01*
X709630Y549670D01*
X710030Y549920D01*
X710370Y550250D01*
G01X713700Y554500D02*
Y549500D01*
G01X712170Y554500D02*
X715230D01*
G01X722170Y549500D02*
Y554500D01*
X725230Y549500D01*
Y554500D01*
G01X728700Y549500D02*
X728170Y549580D01*
X727700Y549920D01*
X727300Y550420D01*
X727030Y551000D01*
X726900Y551670D01*
Y552330D01*
X727030Y553000D01*
X727300Y553580D01*
X727700Y554080D01*
X728170Y554420D01*
X728700Y554500D01*
X729230Y554420D01*
X729700Y554080D01*
X730100Y553580D01*
X730370Y553000D01*
X730500Y552330D01*
Y551670D01*
X730370Y551000D01*
X730100Y550420D01*
X729700Y549920D01*
X729230Y549580D01*
X728700Y549500D01*
G01X733700Y549330D02*
X733570Y549420D01*
Y549580D01*
X733700Y549670D01*
X733830Y549580D01*
Y549420D01*
X733700Y549330D01*
G01Y551580D02*
X733570Y551670D01*
Y551830D01*
X733700Y551920D01*
X733830Y551830D01*
Y551670D01*
X733700Y551580D01*
G01X852170Y581300D02*
Y576300D01*
X854830D01*
G01X856830D02*
X858500Y581300D01*
X860170Y576300D01*
G01X859570Y578050D02*
X857430D01*
G01X863500Y576300D02*
Y578550D01*
X862170Y581300D01*
G01X864830D02*
X863500Y578550D01*
G01X869830Y576300D02*
X867170D01*
Y581300D01*
X869830D01*
G01X868770Y578880D02*
X867170D01*
G01X872170Y576300D02*
Y581300D01*
X873830D01*
X874370Y581050D01*
X874700Y580720D01*
X874830Y580050D01*
X874700Y579380D01*
X874300Y578970D01*
X873830Y578720D01*
X872170D01*
G01X873830D02*
X874830Y576300D01*
G01X881970D02*
Y581300D01*
X885030Y576300D01*
Y581300D01*
G01X886830Y576300D02*
X888500Y581300D01*
X890170Y576300D01*
G01X889570Y578050D02*
X887430D01*
G01X891770Y576300D02*
Y581300D01*
X893500Y577130D01*
X895230Y581300D01*
Y576300D01*
G01X899830D02*
X897170D01*
Y581300D01*
X899830D01*
G01X898770Y578880D02*
X897170D01*
G01X903500Y576130D02*
X903370Y576220D01*
Y576380D01*
X903500Y576470D01*
X903630Y576380D01*
Y576220D01*
X903500Y576130D01*
G01Y578380D02*
X903370Y578470D01*
Y578630D01*
X903500Y578720D01*
X903630Y578630D01*
Y578470D01*
X903500Y578380D01*
G01X855830Y550770D02*
X856100Y551020D01*
X856300Y551430D01*
X856430Y552020D01*
X856300Y552520D01*
X856030Y552850D01*
X855570Y553100D01*
X853770D01*
Y548100D01*
X855970D01*
X856430Y548430D01*
X856700Y548930D01*
X856830Y549520D01*
X856700Y550100D01*
X856300Y550600D01*
X855830Y550770D01*
X853770D01*
G01X860300Y548100D02*
X859770Y548180D01*
X859300Y548520D01*
X858900Y549020D01*
X858630Y549600D01*
X858500Y550270D01*
Y550930D01*
X858630Y551600D01*
X858900Y552180D01*
X859300Y552680D01*
X859770Y553020D01*
X860300Y553100D01*
X860830Y553020D01*
X861300Y552680D01*
X861700Y552180D01*
X861970Y551600D01*
X862100Y550930D01*
Y550270D01*
X861970Y549600D01*
X861700Y549020D01*
X861300Y548520D01*
X860830Y548180D01*
X860300Y548100D01*
G01X863630D02*
X865300Y553100D01*
X866970Y548100D01*
G01X866370Y549850D02*
X864230D01*
G01X868970Y548100D02*
Y553100D01*
X870630D01*
X871170Y552850D01*
X871500Y552520D01*
X871630Y551850D01*
X871500Y551180D01*
X871100Y550770D01*
X870630Y550520D01*
X868970D01*
G01X870630D02*
X871630Y548100D01*
G01X873830D02*
Y553100D01*
X875170D01*
X875700Y552850D01*
X876100Y552520D01*
X876430Y552020D01*
X876700Y551430D01*
X876770Y550600D01*
X876700Y549770D01*
X876430Y549180D01*
X876100Y548680D01*
X875700Y548350D01*
X875170Y548100D01*
X873830D01*
G01X883970D02*
Y553100D01*
X885630D01*
X886170Y552850D01*
X886500Y552520D01*
X886630Y551850D01*
X886500Y551180D01*
X886100Y550770D01*
X885630Y550520D01*
X883970D01*
G01X885630D02*
X886630Y548100D01*
G01X891630D02*
X888970D01*
Y553100D01*
X891630D01*
G01X890570Y550680D02*
X888970D01*
G01X893630Y553100D02*
X895300Y548100D01*
X896970Y553100D01*
G01X900300Y547930D02*
X900170Y548020D01*
Y548180D01*
X900300Y548270D01*
X900430Y548180D01*
Y548020D01*
X900300Y547930D01*
G01Y550180D02*
X900170Y550270D01*
Y550430D01*
X900300Y550520D01*
X900430Y550430D01*
Y550270D01*
X900300Y550180D01*
G01X928070Y548400D02*
Y553400D01*
X929730D01*
X930270Y553150D01*
X930600Y552820D01*
X930730Y552150D01*
X930600Y551480D01*
X930200Y551070D01*
X929730Y550820D01*
X928070D01*
G01X929730D02*
X930730Y548400D01*
G01X935730D02*
X933070D01*
Y553400D01*
X935730D01*
G01X934670Y550980D02*
X933070D01*
G01X938070Y553400D02*
Y548400D01*
X940730D01*
G01X945730D02*
X943070D01*
Y553400D01*
X945730D01*
G01X944670Y550980D02*
X943070D01*
G01X947730Y548400D02*
X949400Y553400D01*
X951070Y548400D01*
G01X950470Y550150D02*
X948330D01*
G01X953000Y549070D02*
X953530Y548650D01*
X954130Y548400D01*
X954670D01*
X955200Y548650D01*
X955600Y549070D01*
X955800Y549650D01*
X955670Y550230D01*
X955330Y550730D01*
X954730Y551070D01*
X953930Y551230D01*
X953470Y551570D01*
X953270Y552150D01*
X953400Y552730D01*
X953730Y553150D01*
X954200Y553400D01*
X954670D01*
X955130Y553230D01*
X955530Y552820D01*
G01X960730Y548400D02*
X958070D01*
Y553400D01*
X960730D01*
G01X959670Y550980D02*
X958070D01*
G01X967930Y548400D02*
Y553400D01*
X969270D01*
X969800Y553150D01*
X970200Y552820D01*
X970530Y552320D01*
X970800Y551730D01*
X970870Y550900D01*
X970800Y550070D01*
X970530Y549480D01*
X970200Y548980D01*
X969800Y548650D01*
X969270Y548400D01*
X967930D01*
G01X972730D02*
X974400Y553400D01*
X976070Y548400D01*
G01X975470Y550150D02*
X973330D01*
G01X979400Y553400D02*
Y548400D01*
G01X977870Y553400D02*
X980930D01*
G01X985730Y548400D02*
X983070D01*
Y553400D01*
X985730D01*
G01X984670Y550980D02*
X983070D01*
G01X989400Y548230D02*
X989270Y548320D01*
Y548480D01*
X989400Y548570D01*
X989530Y548480D01*
Y548320D01*
X989400Y548230D01*
G01Y550480D02*
X989270Y550570D01*
Y550730D01*
X989400Y550820D01*
X989530Y550730D01*
Y550570D01*
X989400Y550480D01*
G01X1054200Y538000D02*
X1053670Y538080D01*
X1053200Y538420D01*
X1052800Y538920D01*
X1052530Y539500D01*
X1052400Y540170D01*
Y540830D01*
X1052530Y541500D01*
X1052800Y542080D01*
X1053200Y542580D01*
X1053670Y542920D01*
X1054200Y543000D01*
X1054730Y542920D01*
X1055200Y542580D01*
X1055600Y542080D01*
X1055870Y541500D01*
X1056000Y540830D01*
Y540170D01*
X1055870Y539500D01*
X1055600Y538920D01*
X1055200Y538420D01*
X1054730Y538080D01*
X1054200Y538000D01*
G01X1057930D02*
Y543000D01*
X1060470D01*
G01X1059530Y540580D02*
X1057930D01*
G01X1029800Y549870D02*
X1030330Y549450D01*
X1030930Y549200D01*
X1031470D01*
X1032000Y549450D01*
X1032400Y549870D01*
X1032600Y550450D01*
X1032470Y551030D01*
X1032130Y551530D01*
X1031530Y551870D01*
X1030730Y552030D01*
X1030270Y552370D01*
X1030070Y552950D01*
X1030200Y553530D01*
X1030530Y553950D01*
X1031000Y554200D01*
X1031470D01*
X1031930Y554030D01*
X1032330Y553620D01*
G01X1034800Y549200D02*
Y554200D01*
G01X1037600D02*
Y549200D01*
G01Y551700D02*
X1034800D01*
G01X1042530Y549200D02*
X1039870D01*
Y554200D01*
X1042530D01*
G01X1041470Y551780D02*
X1039870D01*
G01X1047530Y549200D02*
X1044870D01*
Y554200D01*
X1047530D01*
G01X1046470Y551780D02*
X1044870D01*
G01X1051200Y554200D02*
Y549200D01*
G01X1049670Y554200D02*
X1052730D01*
G01X1059670Y549200D02*
Y554200D01*
X1062730Y549200D01*
Y554200D01*
G01X1066200Y549200D02*
X1065670Y549280D01*
X1065200Y549620D01*
X1064800Y550120D01*
X1064530Y550700D01*
X1064400Y551370D01*
Y552030D01*
X1064530Y552700D01*
X1064800Y553280D01*
X1065200Y553780D01*
X1065670Y554120D01*
X1066200Y554200D01*
X1066730Y554120D01*
X1067200Y553780D01*
X1067600Y553280D01*
X1067870Y552700D01*
X1068000Y552030D01*
Y551370D01*
X1067870Y550700D01*
X1067600Y550120D01*
X1067200Y549620D01*
X1066730Y549280D01*
X1066200Y549200D01*
G01X1071200Y549030D02*
X1071070Y549120D01*
Y549280D01*
X1071200Y549370D01*
X1071330Y549280D01*
Y549120D01*
X1071200Y549030D01*
G01Y551280D02*
X1071070Y551370D01*
Y551530D01*
X1071200Y551620D01*
X1071330Y551530D01*
Y551370D01*
X1071200Y551280D01*
G54D12*
X826500Y760300D03*
X831900Y758500D03*
X834100Y765600D03*
X826400Y765100D03*
X816300Y761300D03*
X819300Y758400D03*
X819500Y764800D03*
X816300Y770900D03*
X816100Y774300D03*
X825500Y773600D03*
X816300Y768400D03*
X829400D03*
X822800D03*
X826200Y755300D03*
X802300D03*
X790400D03*
X813000D03*
X829700Y834000D03*
X832500Y827900D03*
X826300Y827700D03*
X829200Y823800D03*
X822500Y823600D03*
X833800Y823200D03*
X819900Y827300D03*
X816400Y823300D03*
X805600Y827900D03*
X831800Y819000D03*
X825900Y818700D03*
X819800Y818600D03*
X816300Y808400D03*
X816000Y811600D03*
X825600Y809300D03*
X834400Y814400D03*
X816300D03*
X823000D03*
X828700D03*
X828600Y882600D03*
Y889800D03*
X821300Y836200D03*
X825000Y842300D03*
X805600Y837200D03*
X828800Y848300D03*
X820400Y847900D03*
X823100Y855800D03*
X825900Y861900D03*
X815200Y861700D03*
X833300Y869700D03*
X794900Y874600D03*
Y886500D03*
X806600Y859300D03*
X804800Y866000D03*
X804500Y876700D03*
Y886700D03*
X790400Y892600D03*
Y881600D03*
Y869000D03*
X793300Y846100D03*
X805800Y846700D03*
X797200Y853500D03*
X834500Y877100D03*
X829400Y872400D03*
X828300Y945500D03*
X828400Y899800D03*
Y904900D03*
X828900Y914900D03*
X828500Y894900D03*
X828000Y919700D03*
X834400Y925100D03*
X828000Y929600D03*
X827600Y934400D03*
X827900Y939700D03*
X795000Y897500D03*
X795100Y908700D03*
X795300Y921000D03*
X795400Y932300D03*
X795500Y943300D03*
X804200Y895100D03*
X804500Y905700D03*
Y915900D03*
X804800Y926100D03*
X804500Y936400D03*
X804200Y946300D03*
X790500Y949900D03*
X790400Y937200D03*
Y928200D03*
Y915900D03*
X790600Y902600D03*
X834400Y914600D03*
X814400Y1002400D03*
X817400Y996200D03*
X826100Y994300D03*
X824700Y988900D03*
X814600Y989100D03*
X807800Y984400D03*
X808400Y1002400D03*
X807200Y996000D03*
X795700Y958400D03*
X801300Y969200D03*
X804200Y956100D03*
X834000Y977000D03*
X826000D03*
X820000D03*
X814000D03*
X797600Y996900D03*
X828000Y970000D03*
X826400Y1000800D03*
X792900Y968100D03*
X829800Y952400D03*
X815400Y1026000D03*
X805100D03*
X807500Y1068100D03*
X792900Y1066900D03*
X793700Y1053500D03*
X833900Y1044100D03*
X822800D03*
X831900Y1031900D03*
X812600Y1031500D03*
X801600Y1030300D03*
X801400Y1033500D03*
X822400Y1027900D03*
X793900Y1068900D03*
X832400Y1034300D03*
X798200Y1054300D03*
X823900Y1123500D03*
X822600Y1108800D03*
X821000Y1116100D03*
X819700Y1123000D03*
X805900Y1106300D03*
X803900Y1108700D03*
X830600Y1104600D03*
X800700Y1116000D03*
X795700Y1121000D03*
X796500Y1080300D03*
X793700Y1072800D03*
X833900Y1094500D03*
X800700Y1120900D03*
X795700Y1126000D03*
Y1116100D03*
X801200Y1110600D03*
X808300Y1124000D03*
X814300D03*
X797600Y1099600D03*
X795300Y1111800D03*
X794300Y1086600D03*
X833500Y1111400D03*
X835000Y1103800D03*
X817300Y1103900D03*
X795700Y1131000D03*
X832500Y1130500D03*
X800800Y1131100D03*
X827100Y1137300D03*
X829900Y1129900D03*
X834800Y1137200D03*
X824500Y1129400D03*
X832200Y1137300D03*
X821600Y1129500D03*
X829700Y1137300D03*
X816100Y1144100D03*
X817700Y1139000D03*
X892200Y775800D03*
X892500Y763000D03*
Y759200D03*
X892400Y766900D03*
X891100Y769800D03*
X888400Y772700D03*
X885200Y770800D03*
X882100Y773700D03*
X838100Y761700D03*
X879000Y758300D03*
X868200Y758400D03*
X856000Y758200D03*
X843700Y758300D03*
X859300Y763700D03*
X850500Y763400D03*
X843100Y763200D03*
X849300Y770700D03*
X843400D03*
X854800Y770600D03*
X852800Y774600D03*
X845500Y774900D03*
X883600Y759600D03*
X857500Y773600D03*
X860700Y770500D03*
X864300Y766900D03*
X868500Y762600D03*
X872600Y762500D03*
X877800Y762600D03*
X884800D03*
X872500Y770400D03*
X875800Y773100D03*
X878600Y770800D03*
X836600Y768400D03*
X836900Y774100D03*
X836800Y770900D03*
X839400Y773100D03*
X892900Y755300D03*
X838700D03*
X848700D03*
X861700D03*
X873000D03*
X883500D03*
X889700Y827700D03*
X892400Y826500D03*
X867200Y827700D03*
X866800Y834500D03*
X861400Y830600D03*
X851600Y826700D03*
X851000Y832600D03*
X858100Y827100D03*
X857400Y834200D03*
X862100Y822500D03*
X866900Y822600D03*
X872900Y822000D03*
X883700Y822500D03*
X873400Y831800D03*
X843700Y823100D03*
X877700Y822400D03*
X873400Y826500D03*
X892100Y783400D03*
X886900Y778600D03*
X891100Y808100D03*
X885600Y784100D03*
X889500Y787900D03*
X893400Y788500D03*
X886900Y798500D03*
X893000Y804100D03*
X889700Y800600D03*
X889900Y804100D03*
X891100Y820600D03*
X893200Y814700D03*
X870900Y801600D03*
X866400Y787400D03*
X872300Y791100D03*
X867400Y794500D03*
X874900Y795600D03*
X865800Y799600D03*
X875400Y800400D03*
X876300Y807700D03*
X868700Y806900D03*
X862200Y804700D03*
X865000Y810900D03*
X872000Y812300D03*
X880800Y810300D03*
X879800Y804100D03*
X884700Y805500D03*
X882700Y799900D03*
X877100Y791000D03*
X868400Y782500D03*
X867800Y816600D03*
X874200Y816800D03*
X862200Y816400D03*
X842700Y819100D03*
X850900Y819000D03*
X854800Y815400D03*
X846800D03*
X840100Y815200D03*
X837800Y819000D03*
X843400Y811500D03*
X851900D03*
X858400Y811900D03*
X855800Y806300D03*
X848400D03*
X858400Y800900D03*
X852500Y800400D03*
X845400Y800100D03*
X849000Y779100D03*
X852900Y782600D03*
X845500Y782500D03*
X841300Y780300D03*
Y803000D03*
X862800Y784600D03*
X862700Y779700D03*
X862000Y790100D03*
X860800Y795100D03*
X855500Y796400D03*
X848700D03*
X841300D03*
X842100Y786500D03*
X848800Y786600D03*
X855000Y786500D03*
X855100Y778900D03*
X878500Y776800D03*
X881900Y780500D03*
X868000Y777600D03*
X865400Y777300D03*
X873200Y782700D03*
X876500Y786000D03*
X873600Y785600D03*
X881600Y791200D03*
X885000Y794500D03*
X882200Y794200D03*
X836800Y808700D03*
X836600Y811800D03*
X839400Y809300D03*
X880700Y815700D03*
X890400Y813100D03*
X884200Y819300D03*
X837100Y889900D03*
X888700Y839400D03*
X888400Y842300D03*
X877700Y843000D03*
X882800Y843100D03*
X869100Y838400D03*
X866000Y841600D03*
X861000Y838100D03*
X851300Y838500D03*
X857000Y841000D03*
X873600Y836300D03*
X880300Y840800D03*
X874900Y840700D03*
X884700D03*
X890100Y877800D03*
X856200Y881500D03*
X850700Y881900D03*
X842300Y881700D03*
X850600Y871900D03*
X841700Y871800D03*
X857600Y852000D03*
X858000Y861300D03*
X887700Y868500D03*
X887900Y873100D03*
X890900Y884400D03*
X888100Y864700D03*
X885100Y861100D03*
X872700Y855000D03*
X868500Y852500D03*
X841000Y890200D03*
X882500Y858700D03*
X864900Y850200D03*
X859800Y848500D03*
X858300Y865900D03*
Y892500D03*
X879600Y857200D03*
X876400Y856200D03*
X852050Y892450D03*
X854100Y845100D03*
X871600Y945800D03*
X864900D03*
X865100Y940700D03*
X849200Y945700D03*
X859600D03*
X844000Y945800D03*
X871600Y940400D03*
X873400Y934200D03*
X874500Y922300D03*
X870500Y911600D03*
X874500Y911200D03*
X874600Y902300D03*
X866400Y901900D03*
X870500Y901800D03*
X866100Y911900D03*
X853200Y909200D03*
X839900Y909300D03*
X837500Y905100D03*
X838100Y900000D03*
X853100D03*
X853300Y904900D03*
X870000Y924500D03*
X855900Y919800D03*
X843400Y919700D03*
X859100Y924900D03*
X850400Y924700D03*
X854800Y929700D03*
X859400Y934900D03*
X849400Y934800D03*
X844200Y929500D03*
X844300Y934500D03*
X850200Y951400D03*
X838200Y940400D03*
X855400Y940600D03*
X880800Y909400D03*
X881000Y922800D03*
X880200Y942300D03*
X881000Y931800D03*
X891100Y912000D03*
X891000Y901900D03*
X890900Y920100D03*
X890700Y924600D03*
X890600Y931600D03*
X890400Y940400D03*
X890600Y947200D03*
X867500Y937300D03*
X862500Y927300D03*
X869700Y932100D03*
X866800Y921000D03*
X882100Y946800D03*
X862100Y911200D03*
X859000Y902500D03*
X857200Y950600D03*
X836600Y895000D03*
X879600Y905600D03*
X874100Y943200D03*
X878000Y953400D03*
X867700Y964600D03*
X881100Y964200D03*
X885000Y959000D03*
X875400Y963100D03*
X867300Y959400D03*
X850400Y960400D03*
X850300Y965800D03*
X890600Y959700D03*
X879000Y991000D03*
X883000Y985000D03*
X888200Y989700D03*
X887000Y995000D03*
X876000Y986000D03*
Y994000D03*
X865000Y985000D03*
Y994000D03*
X857000Y989000D03*
X838000Y990000D03*
X847000Y982000D03*
Y988000D03*
Y995000D03*
X838000D03*
X891000Y977000D03*
X884600Y977100D03*
X880200D03*
X869800Y979800D03*
X865000Y977000D03*
X860000D03*
X849000D03*
X840000D03*
X891000Y970000D03*
X875000Y977000D03*
X880500Y970100D03*
X884700Y970200D03*
X875000Y970000D03*
X870000D03*
X866000D03*
X860000D03*
X846000D03*
X837000D03*
X855000D03*
X857000Y995000D03*
X870000Y989000D03*
X887700Y965700D03*
Y982600D03*
X892500Y988100D03*
X872500Y982500D03*
Y966500D03*
X862500Y982100D03*
Y966000D03*
X846900Y956000D03*
X857200Y964700D03*
X861800Y1019300D03*
X837800Y1032700D03*
X878500Y1028400D03*
Y1030700D03*
X863400D03*
X869300Y1021300D03*
X886200Y1022000D03*
X887800Y1036600D03*
X868900Y1039000D03*
X871300Y1067300D03*
X857900Y1068100D03*
X886200Y1046900D03*
X875200Y1059800D03*
X851600Y1030700D03*
X857100Y1029100D03*
X863400Y1028000D03*
X883100Y1038200D03*
X891500Y1022400D03*
X867200Y1066900D03*
X868900Y1053900D03*
X848400Y1030900D03*
X872800Y1031100D03*
X888600D03*
X880000Y1038200D03*
X877200Y1046100D03*
X868900Y1044100D03*
X879100D03*
X857500Y1026400D03*
X879900Y1021300D03*
X887600Y1016600D03*
X888600Y1028000D03*
X872800D03*
X860600Y1037400D03*
X881900Y1036200D03*
X868900Y1059100D03*
X861800Y1118900D03*
X843700Y1112600D03*
X856700Y1107900D03*
X859400Y1111800D03*
X858300Y1079500D03*
X855500Y1094500D03*
X854700Y1112800D03*
X873600Y1098400D03*
X868500Y1105900D03*
X876400Y1085400D03*
X875200Y1073200D03*
X852800Y1124000D03*
X878300Y1129900D03*
X853500Y1148800D03*
X884600Y1152800D03*
X857900Y1129100D03*
X844500Y1135000D03*
X849600Y1131500D03*
X841700Y1131100D03*
X840600Y1134600D03*
X845300Y1128300D03*
X835400Y1133500D03*
X847200Y1140200D03*
X848800Y1143700D03*
X854300Y1142900D03*
X949900Y775400D03*
X949800Y769700D03*
X949000Y766400D03*
X951600Y761600D03*
X896400Y768800D03*
X898700Y773600D03*
X907800Y776600D03*
X923100Y772000D03*
X917900Y771600D03*
X911900Y772100D03*
X904300Y771400D03*
X927300Y766700D03*
X921000Y767000D03*
X914500Y766500D03*
X908200Y767300D03*
X900900Y767000D03*
X897300Y761000D03*
X904900Y761500D03*
X911300Y761400D03*
X918400Y761600D03*
X925100Y761300D03*
X931600D03*
X935900Y757600D03*
X901400Y757400D03*
X908000Y757300D03*
X914600Y757400D03*
X940200Y759500D03*
X932100Y766700D03*
X926900Y772700D03*
X939300Y775700D03*
X942600Y772300D03*
X944100Y760600D03*
X940100Y764800D03*
X936100D03*
X933300Y771700D03*
X936200Y768600D03*
X930500Y774400D03*
X951700Y756100D03*
X951600Y752800D03*
X921500Y757200D03*
X928400D03*
X944100Y755500D03*
X924800Y752800D03*
X931700Y753000D03*
X918200Y752800D03*
X911800D03*
X905000D03*
X896500Y752700D03*
X893800Y823200D03*
X938600Y833100D03*
X950600Y810900D03*
X951800Y805400D03*
X949100Y802000D03*
X951800Y798500D03*
X949800Y795100D03*
Y780300D03*
Y785800D03*
X941400Y812500D03*
X940200Y805500D03*
X935200Y791400D03*
X930900Y795700D03*
X929400Y798900D03*
X902800Y777600D03*
X909800Y781300D03*
X914700Y782900D03*
X915400Y777400D03*
X921300Y778300D03*
X911700Y786900D03*
X903200Y783900D03*
X905200Y788800D03*
X905700Y795600D03*
X898000Y782200D03*
X898600Y787500D03*
X938900Y788700D03*
X938600Y793500D03*
X934200Y795100D03*
X933900Y788100D03*
X930400Y791600D03*
X940900Y798100D03*
X934300Y798900D03*
X927400Y796300D03*
X924200Y797800D03*
X942200Y802200D03*
Y808500D03*
X945400Y811800D03*
X948400Y807900D03*
X946300Y805100D03*
Y798300D03*
X938900Y815600D03*
X946400Y815700D03*
X936900Y802900D03*
X933900Y802000D03*
X930900Y801900D03*
X927900Y801700D03*
X924600Y801800D03*
X914100Y805500D03*
X916800Y803600D03*
X920800Y803900D03*
X920600Y799800D03*
X925700Y791600D03*
X928000Y777300D03*
X929000Y786400D03*
X942600Y784100D03*
X942500Y778200D03*
X932400Y782900D03*
X936400Y783100D03*
X936200Y778800D03*
X942900Y792200D03*
X943100Y789100D03*
X944200Y794800D03*
X925200Y780100D03*
X923000Y783900D03*
X919300Y783700D03*
X915600Y789000D03*
X919200Y787600D03*
X908700Y791700D03*
X912500Y791800D03*
X908700Y795600D03*
X907000Y800100D03*
X903800Y799700D03*
X895600Y806600D03*
X901100Y792600D03*
X897900D03*
X901100Y796100D03*
X917900Y810400D03*
X918200Y814400D03*
X913900Y818500D03*
X924200Y810600D03*
X936900Y808700D03*
X931400Y810600D03*
X936800Y812700D03*
X895200Y817000D03*
X895700Y812600D03*
X898500Y810300D03*
X911900Y810400D03*
X913500Y812600D03*
X905600Y802400D03*
X951800Y825700D03*
X944100Y828600D03*
X941900Y829800D03*
X949300Y826700D03*
X946600Y827400D03*
X910800Y818600D03*
X898500Y818500D03*
X922400Y818700D03*
X909700Y808800D03*
X900900D03*
X951300Y887300D03*
X912000Y884400D03*
X902800Y884800D03*
X898400Y880300D03*
X897400Y884500D03*
X937700Y858000D03*
X939000Y854900D03*
X900300Y873700D03*
X903100Y872800D03*
X905100D03*
Y870900D03*
X903100D03*
X939000Y852000D03*
X935200Y859900D03*
X897200Y841600D03*
X893800Y836800D03*
X931900Y892500D03*
Y866100D03*
X935600Y865400D03*
X929100Y866800D03*
Y882200D03*
X926900Y872400D03*
X940700Y885500D03*
X894100Y880900D03*
X914700Y868200D03*
X917300Y887500D03*
Y871000D03*
X920000Y875300D03*
X942800Y888300D03*
X924300Y869700D03*
X922500Y872100D03*
X924800Y925100D03*
X925200Y929700D03*
X945200Y925200D03*
X945100Y929900D03*
X947100Y939900D03*
X946900Y945300D03*
X944600Y900000D03*
X945200Y904800D03*
X922700Y934600D03*
X924400Y939700D03*
X917400Y910900D03*
X931300Y910700D03*
X931200Y902400D03*
X917300D03*
X945000Y911500D03*
X945200Y918800D03*
X952100Y935100D03*
Y939500D03*
X909500Y900100D03*
X912000Y904500D03*
X903800Y903200D03*
X898900Y900100D03*
X896700Y904400D03*
X907500Y909800D03*
X904500Y914300D03*
X899700Y910500D03*
X896900Y914500D03*
X911500Y914000D03*
X903800Y923400D03*
X911300Y922300D03*
X916700Y918100D03*
X917600Y924800D03*
X899100Y920300D03*
X896700Y924800D03*
X917100Y934800D03*
X913800Y929500D03*
X901900Y929600D03*
X907200Y934800D03*
X896900Y934500D03*
X903200Y949500D03*
X918100Y944200D03*
X914600Y940100D03*
X906800Y944200D03*
X897800Y942000D03*
X920400Y949700D03*
X914000Y949900D03*
X898100Y951100D03*
X935600Y902400D03*
X945500Y937300D03*
X912400Y917400D03*
X921500Y942400D03*
X945200Y895000D03*
X951100Y912400D03*
X925800Y922400D03*
X924700Y932500D03*
X920300Y966200D03*
X914100D03*
X907400Y965900D03*
X895400Y985200D03*
X907500Y985500D03*
X917100Y985800D03*
X943500Y998200D03*
X930700Y988700D03*
X935000Y976500D03*
X943300Y953500D03*
X917200Y990800D03*
X907600Y992500D03*
X922600Y953800D03*
X907100D03*
X897900Y959400D03*
X946900Y965400D03*
X905000Y970500D03*
X910600Y970400D03*
X898000Y992700D03*
X946500Y959500D03*
X922200Y976900D03*
X916700Y976800D03*
X908800Y980500D03*
X905900Y976700D03*
X897000Y977000D03*
X938000Y970000D03*
X945000D03*
X950000D03*
X939200Y963900D03*
X897000Y970000D03*
X945300Y991300D03*
X951200Y1008300D03*
X916800Y970100D03*
X922800D03*
X941800Y1003700D03*
X939400Y977000D03*
X939200Y983100D03*
X902500Y980100D03*
X935300Y962900D03*
X934100Y996200D03*
X939800Y998000D03*
X899900Y979000D03*
Y988100D03*
X938100Y959400D03*
X912600Y979500D03*
Y993300D03*
X944100D03*
X928800D03*
X932800Y967800D03*
X922500Y985500D03*
X941700Y983500D03*
X931600Y985500D03*
X929100Y977400D03*
Y969300D03*
X945900Y952400D03*
X940700Y956000D03*
X933900Y987400D03*
X949600Y962600D03*
X926300Y977000D03*
Y967000D03*
X949400Y1006100D03*
X942000Y1012400D03*
X894700Y1028400D03*
X894500Y1030400D03*
X931200Y1027400D03*
X942500Y1046900D03*
X942900Y1021300D03*
X936200Y1037400D03*
X895700Y1040200D03*
X906300Y1037800D03*
X917300Y1026800D03*
X921600Y1020800D03*
X904700Y1023200D03*
X899600Y1022800D03*
X899000Y1034600D03*
X927600Y1037800D03*
X943300Y1031900D03*
X904300Y1031100D03*
X930700Y1020700D03*
X932400Y1023400D03*
X948800Y1027200D03*
X904300Y1028000D03*
X900300Y1018500D03*
X945700Y1025200D03*
X914200Y1150000D03*
X972200Y767300D03*
X965600Y771400D03*
X965000Y766700D03*
X961000Y757700D03*
X969600Y757900D03*
X977500Y757600D03*
X984600Y757800D03*
X988000Y761900D03*
X980400Y762100D03*
X974000Y762400D03*
X965800Y762200D03*
X957600Y762300D03*
X954800Y766100D03*
X960400Y766700D03*
X961500Y771600D03*
X954500Y769500D03*
X957500Y773000D03*
X968200Y773400D03*
X989200Y769600D03*
X968700D03*
X989200Y773500D03*
X979500Y772500D03*
X987500Y767400D03*
X983100D03*
X978300D03*
X964100Y774600D03*
X954400Y758900D03*
X998500Y752800D03*
X987900D03*
X1006600D03*
X978400D03*
X971000D03*
X963700D03*
X956900D03*
X964900Y822000D03*
X962200Y826500D03*
X967100D03*
X964900Y829300D03*
X961900Y831900D03*
X966500Y833100D03*
X980000Y827700D03*
X988900Y813400D03*
X965700Y808400D03*
X971700Y813400D03*
X966900Y812700D03*
X983000Y813400D03*
X977200D03*
X969200Y807400D03*
X969600Y810800D03*
X989000D03*
X989100Y807500D03*
X979800Y809100D03*
X954000Y776700D03*
X959800Y776800D03*
X956800Y780800D03*
X958400Y811200D03*
X960800Y808300D03*
X954600D03*
X957900Y805400D03*
X954500Y802100D03*
X956300Y798500D03*
X961200Y798000D03*
X960100Y802800D03*
X952900Y815600D03*
X958900Y815000D03*
X963300Y818000D03*
X959000Y820400D03*
X964000Y780400D03*
X963900Y805700D03*
X964000Y800400D03*
X954000Y795100D03*
X958700D03*
X964100Y795200D03*
X954000Y785800D03*
X958700D03*
X964200Y785700D03*
X979000Y820700D03*
X985500Y828200D03*
X954400Y824600D03*
X959700Y824300D03*
X956900Y823200D03*
X952200Y867700D03*
X960500Y887400D03*
X981200Y859800D03*
X978700Y863800D03*
X962300Y852500D03*
X987700Y861700D03*
X999200Y861800D03*
X1001400Y887800D03*
X1001700Y877400D03*
X998800Y843700D03*
X1006300Y838600D03*
X1008900Y870200D03*
X999500Y852100D03*
X978100Y843400D03*
X972300Y841400D03*
X972400Y839000D03*
X969500Y839500D03*
X980900Y836600D03*
X976300Y841400D03*
X985400Y835900D03*
X962500Y835500D03*
X959700Y877500D03*
X983900Y849300D03*
X975700Y877400D03*
X981700Y847300D03*
X980400Y845400D03*
X973100Y886200D03*
X962900Y900000D03*
X973300Y924900D03*
X973200Y929800D03*
Y935100D03*
X973500Y939800D03*
X973400Y944900D03*
X968500Y909700D03*
X962600Y905500D03*
X961000Y909500D03*
X962900Y925400D03*
X969600Y916700D03*
X962300Y919900D03*
X957000Y914700D03*
X963400Y915000D03*
X957200Y919400D03*
X958600Y927400D03*
X962800Y929600D03*
X952200Y929700D03*
X963000Y940100D03*
Y935100D03*
X959000Y937500D03*
X966000Y946500D03*
X952700D03*
X1001100Y949000D03*
X1001000Y938300D03*
X1001100Y928100D03*
X1001000Y918200D03*
X1001100Y909200D03*
Y897800D03*
X970800Y946300D03*
X965700Y937500D03*
X970400Y907300D03*
X963300Y896200D03*
X971700Y897300D03*
X954400Y926000D03*
X968500Y927200D03*
X973600Y949900D03*
X956900Y907300D03*
X962700Y954200D03*
X964600Y958700D03*
X973600Y957000D03*
X995700Y981400D03*
X993000Y997000D03*
X974100Y993600D03*
X991300Y985600D03*
X974500Y986100D03*
X1000400Y967700D03*
X1001200Y957200D03*
X980000Y983000D03*
Y989000D03*
Y995000D03*
X987000Y989000D03*
Y982000D03*
Y995000D03*
X991000Y977000D03*
X995000D03*
X987000D03*
X972000D03*
X976000D03*
X980200Y977200D03*
X973000Y970000D03*
X966000D03*
X1009400Y1006700D03*
X1001200Y999600D03*
X967700Y988200D03*
X957100Y989000D03*
X953100Y988600D03*
X976400Y999600D03*
X995300Y991300D03*
X971800Y964600D03*
X997200Y986600D03*
X967200Y962200D03*
X976300Y969900D03*
X988200Y1041700D03*
X962600Y1046900D03*
X968900Y1026800D03*
X966900Y1154300D03*
X988200Y1141300D03*
X1014700Y752800D03*
X1012300Y874800D03*
X1011800Y881800D03*
X1011500Y892700D03*
X1014200Y843700D03*
X1011600Y903400D03*
Y913100D03*
Y921900D03*
Y933100D03*
Y942900D03*
X1011400Y952500D03*
X1014200Y966500D03*
X1011400Y1116900D03*
X1011800Y1070500D03*
G54D22*
G01X705400Y543200D02*
X706450Y536200D01*
X707650Y543200D01*
X708850Y536200D01*
X709900Y543200D01*
G01X715600Y542620D02*
X715150Y542970D01*
X714630Y543200D01*
X714030D01*
X713350Y542850D01*
X712830Y542270D01*
X712450Y541570D01*
X712150Y540400D01*
X712070Y539350D01*
X712230Y538300D01*
X712450Y537600D01*
X712900Y536900D01*
X713430Y536430D01*
X713950Y536200D01*
X714470D01*
X715000Y536430D01*
X715450Y536780D01*
X715830Y537250D01*
G01X718670Y537130D02*
X719280Y536550D01*
X719950Y536200D01*
X720550D01*
X721150Y536550D01*
X721600Y537130D01*
X721830Y537950D01*
X721680Y538770D01*
X721300Y539470D01*
X720620Y539930D01*
X719730Y540170D01*
X719200Y540630D01*
X718970Y541450D01*
X719130Y542270D01*
X719500Y542850D01*
X720020Y543200D01*
X720550D01*
X721080Y542970D01*
X721530Y542380D01*
G01X726550Y543200D02*
X725950Y542970D01*
X725500Y542380D01*
X725200Y541680D01*
X724970Y540750D01*
X724900Y539700D01*
X724970Y538650D01*
X725200Y537720D01*
X725500Y537020D01*
X725950Y536430D01*
X726550Y536200D01*
X727150Y536430D01*
X727600Y537020D01*
X727900Y537720D01*
X728130Y538650D01*
X728200Y539700D01*
X728130Y540750D01*
X727900Y541680D01*
X727600Y542380D01*
X727150Y542970D01*
X726550Y543200D01*
G01X731200Y537600D02*
X731650Y536780D01*
X732250Y536320D01*
X732930Y536200D01*
X733530Y536320D01*
X734130Y536900D01*
X734500Y537600D01*
X734570Y538300D01*
X734430Y539120D01*
X733900Y539700D01*
X733370Y539930D01*
X732700D01*
G01X733370D02*
X733820Y540280D01*
X734200Y540870D01*
X734350Y541570D01*
X734200Y542270D01*
X733820Y542850D01*
X733150Y543200D01*
X732480Y543080D01*
X731800Y542620D01*
G01X740050Y536200D02*
Y543200D01*
X737270Y538180D01*
X741030D01*
G01X707850Y595800D02*
Y588800D01*
G01X706130Y595800D02*
X709570D01*
G01X715650Y588800D02*
X712650D01*
Y595800D01*
X715650D01*
G01X714450Y592420D02*
X712650D01*
G01X718870Y588800D02*
X722030Y595800D01*
G01X718870D02*
X722030Y588800D01*
G01X724870D02*
X726750Y595800D01*
X728630Y588800D01*
G01X727950Y591250D02*
X725550D01*
G01X731470Y589730D02*
X732080Y589150D01*
X732750Y588800D01*
X733350D01*
X733950Y589150D01*
X734400Y589730D01*
X734630Y590550D01*
X734480Y591370D01*
X734100Y592070D01*
X733420Y592530D01*
X732530Y592770D01*
X732000Y593230D01*
X731770Y594050D01*
X731930Y594870D01*
X732300Y595450D01*
X732820Y595800D01*
X733350D01*
X733880Y595570D01*
X734330Y594980D01*
G01X744750Y595800D02*
X746550D01*
G01X745650D02*
Y588800D01*
G01X744750D02*
X746550D01*
G01X750230D02*
Y595800D01*
X753670Y588800D01*
Y595800D01*
G01X756670Y589730D02*
X757280Y589150D01*
X757950Y588800D01*
X758550D01*
X759150Y589150D01*
X759600Y589730D01*
X759830Y590550D01*
X759680Y591370D01*
X759300Y592070D01*
X758620Y592530D01*
X757730Y592770D01*
X757200Y593230D01*
X756970Y594050D01*
X757130Y594870D01*
X757500Y595450D01*
X758020Y595800D01*
X758550D01*
X759080Y595570D01*
X759530Y594980D01*
G01X764550Y595800D02*
Y588800D01*
G01X762830Y595800D02*
X766270D01*
G01X769350Y588800D02*
Y595800D01*
X771220D01*
X771820Y595450D01*
X772200Y594980D01*
X772350Y594050D01*
X772200Y593120D01*
X771750Y592530D01*
X771220Y592180D01*
X769350D01*
G01X771220D02*
X772350Y588800D01*
G01X775500Y595800D02*
Y590780D01*
X775800Y589730D01*
X776400Y589030D01*
X777150Y588800D01*
X777900Y589030D01*
X778500Y589730D01*
X778800Y590780D01*
Y595800D01*
G01X781500Y588800D02*
Y595800D01*
X783450Y589970D01*
X785400Y595800D01*
Y588800D01*
G01X791250D02*
X788250D01*
Y595800D01*
X791250D01*
G01X790050Y592420D02*
X788250D01*
G01X794330Y588800D02*
Y595800D01*
X797770Y588800D01*
Y595800D01*
G01X802350D02*
Y588800D01*
G01X800630Y595800D02*
X804070D01*
G01X807070Y589730D02*
X807680Y589150D01*
X808350Y588800D01*
X808950D01*
X809550Y589150D01*
X810000Y589730D01*
X810230Y590550D01*
X810080Y591370D01*
X809700Y592070D01*
X809020Y592530D01*
X808130Y592770D01*
X807600Y593230D01*
X807370Y594050D01*
X807530Y594870D01*
X807900Y595450D01*
X808420Y595800D01*
X808950D01*
X809480Y595570D01*
X809930Y594980D01*
G01X706650Y570800D02*
Y563800D01*
X709650D01*
G01X712570D02*
X714450Y570800D01*
X716330Y563800D01*
G01X715650Y566250D02*
X713250D01*
G01X719100Y570800D02*
Y565780D01*
X719400Y564730D01*
X720000Y564030D01*
X720750Y563800D01*
X721500Y564030D01*
X722100Y564730D01*
X722400Y565780D01*
Y570800D01*
G01X725330Y563800D02*
Y570800D01*
X728770Y563800D01*
Y570800D01*
G01X735000Y570220D02*
X734550Y570570D01*
X734030Y570800D01*
X733430D01*
X732750Y570450D01*
X732230Y569870D01*
X731850Y569170D01*
X731550Y568000D01*
X731470Y566950D01*
X731630Y565900D01*
X731850Y565200D01*
X732300Y564500D01*
X732830Y564030D01*
X733350Y563800D01*
X733870D01*
X734400Y564030D01*
X734850Y564380D01*
X735230Y564850D01*
G01X738070Y563800D02*
Y570800D01*
G01X741230D02*
Y563800D01*
G01Y567300D02*
X738070D01*
G01X744370Y563800D02*
X747530Y570800D01*
G01X744370D02*
X747530Y563800D01*
G01X750750Y570800D02*
Y563800D01*
X753750D01*
G01X757580Y566130D02*
X759520D01*
G01X766500Y570220D02*
X766050Y570570D01*
X765530Y570800D01*
X764930D01*
X764250Y570450D01*
X763730Y569870D01*
X763350Y569170D01*
X763050Y568000D01*
X762970Y566950D01*
X763130Y565900D01*
X763350Y565200D01*
X763800Y564500D01*
X764330Y564030D01*
X764850Y563800D01*
X765370D01*
X765900Y564030D01*
X766350Y564380D01*
X766730Y564850D01*
G01X772800Y570220D02*
X772350Y570570D01*
X771830Y570800D01*
X771230D01*
X770550Y570450D01*
X770030Y569870D01*
X769650Y569170D01*
X769350Y568000D01*
X769270Y566950D01*
X769430Y565900D01*
X769650Y565200D01*
X770100Y564500D01*
X770630Y564030D01*
X771150Y563800D01*
X771670D01*
X772200Y564030D01*
X772650Y564380D01*
X773030Y564850D01*
G01X777450Y563800D02*
Y570800D01*
X776550Y569400D01*
G01Y563800D02*
X778350D01*
G01X782100Y565200D02*
X782550Y564380D01*
X783150Y563920D01*
X783830Y563800D01*
X784430Y563920D01*
X785030Y564500D01*
X785400Y565200D01*
X785470Y565900D01*
X785330Y566720D01*
X784800Y567300D01*
X784270Y567530D01*
X783600D01*
G01X784270D02*
X784720Y567880D01*
X785100Y568470D01*
X785250Y569170D01*
X785100Y569870D01*
X784720Y570450D01*
X784050Y570800D01*
X783380Y570680D01*
X782700Y570220D01*
G01X788400Y564850D02*
X788850Y564270D01*
X789370Y563920D01*
X790050Y563800D01*
X790730Y564030D01*
X791250Y564500D01*
X791630Y565320D01*
X791700Y566250D01*
X791550Y567180D01*
X791170Y567770D01*
X790650Y568230D01*
X790130Y568350D01*
X789600Y568230D01*
X788930Y567770D01*
X789150Y570800D01*
X791170D01*
G01X796350D02*
X795750Y570570D01*
X795300Y569980D01*
X795000Y569280D01*
X794770Y568350D01*
X794700Y567300D01*
X794770Y566250D01*
X795000Y565320D01*
X795300Y564620D01*
X795750Y564030D01*
X796350Y563800D01*
X796950Y564030D01*
X797400Y564620D01*
X797700Y565320D01*
X797930Y566250D01*
X798000Y567300D01*
X797930Y568350D01*
X797700Y569280D01*
X797400Y569980D01*
X796950Y570570D01*
X796350Y570800D01*
G01X801680Y566130D02*
X803620D01*
G01X809850Y563800D02*
Y570800D01*
X807070Y565780D01*
X810830D01*
G01X863570Y539600D02*
X865450Y546600D01*
X867330Y539600D01*
G01X866650Y542050D02*
X864250D01*
G01X947620Y545230D02*
X948080Y545930D01*
X948600Y546280D01*
X949200Y546400D01*
X949950Y546170D01*
X950480Y545580D01*
X950630Y544880D01*
X950550Y544180D01*
X950250Y543600D01*
X948750Y542430D01*
X948080Y541620D01*
X947620Y540450D01*
X947470Y539400D01*
X950630D01*
G01X955350Y546400D02*
X954750Y546170D01*
X954300Y545580D01*
X954000Y544880D01*
X953770Y543950D01*
X953700Y542900D01*
X953770Y541850D01*
X954000Y540920D01*
X954300Y540220D01*
X954750Y539630D01*
X955350Y539400D01*
X955950Y539630D01*
X956400Y540220D01*
X956700Y540920D01*
X956930Y541850D01*
X957000Y542900D01*
X956930Y543950D01*
X956700Y544880D01*
X956400Y545580D01*
X955950Y546170D01*
X955350Y546400D01*
G01X961650Y539400D02*
Y546400D01*
X960750Y545000D01*
G01Y539400D02*
X962550D01*
G01X967800D02*
X967950Y540920D01*
X968180Y542200D01*
X968470Y543370D01*
X968850Y544650D01*
X969450Y546400D01*
X966450D01*
G01X973280Y541730D02*
X975220D01*
G01X980550Y546400D02*
X979950Y546170D01*
X979500Y545580D01*
X979200Y544880D01*
X978970Y543950D01*
X978900Y542900D01*
X978970Y541850D01*
X979200Y540920D01*
X979500Y540220D01*
X979950Y539630D01*
X980550Y539400D01*
X981150Y539630D01*
X981600Y540220D01*
X981900Y540920D01*
X982130Y541850D01*
X982200Y542900D01*
X982130Y543950D01*
X981900Y544880D01*
X981600Y545580D01*
X981150Y546170D01*
X980550Y546400D01*
G01X986850Y539400D02*
Y546400D01*
X985950Y545000D01*
G01Y539400D02*
X987750D01*
G01X992180Y541730D02*
X994120D01*
G01X998020Y545230D02*
X998480Y545930D01*
X999000Y546280D01*
X999600Y546400D01*
X1000350Y546170D01*
X1000880Y545580D01*
X1001030Y544880D01*
X1000950Y544180D01*
X1000650Y543600D01*
X999150Y542430D01*
X998480Y541620D01*
X998020Y540450D01*
X997870Y539400D01*
X1001030D01*
G01X1004100Y540800D02*
X1004550Y539980D01*
X1005150Y539520D01*
X1005830Y539400D01*
X1006430Y539520D01*
X1007030Y540100D01*
X1007400Y540800D01*
X1007470Y541500D01*
X1007330Y542320D01*
X1006800Y542900D01*
X1006270Y543130D01*
X1005600D01*
G01X1006270D02*
X1006720Y543480D01*
X1007100Y544070D01*
X1007250Y544770D01*
X1007100Y545470D01*
X1006720Y546050D01*
X1006050Y546400D01*
X1005380Y546280D01*
X1004700Y545820D01*
G01X977850Y573830D02*
X977550Y574180D01*
X977330Y574770D01*
X977170Y575580D01*
X977330Y576280D01*
X977620Y576750D01*
X978150Y577100D01*
X980170D01*
Y570100D01*
X977700D01*
X977170Y570570D01*
X976870Y571270D01*
X976730Y572080D01*
X976870Y572900D01*
X977330Y573600D01*
X977850Y573830D01*
X980170D01*
G01X972150Y570100D02*
X972600Y570220D01*
X973050Y570680D01*
X973350Y571500D01*
X973500Y572430D01*
X973350Y573370D01*
X973050Y574180D01*
X972600Y574650D01*
X972150Y574770D01*
X971700Y574650D01*
X971250Y574180D01*
X970950Y573370D01*
X970870Y572430D01*
X970950Y571500D01*
X971250Y570680D01*
X971700Y570220D01*
X972150Y570100D01*
G01X965850Y577100D02*
Y570100D01*
G01X966900Y574770D02*
X964800D01*
G01X959550Y577100D02*
Y570100D01*
G01X960600Y574770D02*
X958500D01*
G01X953250Y570100D02*
X953700Y570220D01*
X954150Y570680D01*
X954450Y571500D01*
X954600Y572430D01*
X954450Y573370D01*
X954150Y574180D01*
X953700Y574650D01*
X953250Y574770D01*
X952800Y574650D01*
X952350Y574180D01*
X952050Y573370D01*
X951970Y572430D01*
X952050Y571500D01*
X952350Y570680D01*
X952800Y570220D01*
X953250Y570100D01*
G01X949200D02*
Y574770D01*
G01Y573480D02*
X948980Y574070D01*
X948600Y574530D01*
X948070Y574770D01*
X947550Y574530D01*
X947180Y574070D01*
X946950Y573480D01*
Y570100D01*
G01Y573480D02*
X946720Y574070D01*
X946350Y574530D01*
X945830Y574770D01*
X945300Y574530D01*
X944920Y574070D01*
X944700Y573370D01*
Y570100D01*
G01X935850Y577100D02*
Y570100D01*
X932850D01*
G01X926700D02*
Y574770D01*
G01Y573950D02*
X927000Y574420D01*
X927450Y574650D01*
X927970Y574770D01*
X928500Y574530D01*
X928950Y574070D01*
X929250Y573370D01*
X929400Y572430D01*
X929250Y571500D01*
X928950Y570800D01*
X928500Y570330D01*
X927970Y570100D01*
X927450Y570220D01*
X927000Y570570D01*
X926700Y571030D01*
G01X923330Y568000D02*
X922870Y567770D01*
X922270Y568000D01*
X921900Y568470D01*
X921600Y569050D01*
X921150Y570920D01*
X920170Y574770D01*
G01X922580D02*
X921150Y570920D01*
G01X916570Y573250D02*
X914170D01*
X914400Y574070D01*
X914770Y574530D01*
X915300Y574770D01*
X915820Y574650D01*
X916280Y574300D01*
X916570Y573480D01*
X916730Y572780D01*
Y572080D01*
X916570Y571380D01*
X916200Y570680D01*
X915750Y570220D01*
X915220Y570100D01*
X914700Y570330D01*
X914170Y571030D01*
G01X910200Y570100D02*
Y574770D01*
G01Y573830D02*
X909830Y574300D01*
X909450Y574650D01*
X908920Y574770D01*
X908550Y574650D01*
X908100Y574300D01*
G01X1066850Y537700D02*
Y544700D01*
X1065950Y543300D01*
G01Y537700D02*
X1067750D01*
G01X1073150Y544700D02*
X1072550Y544470D01*
X1072100Y543880D01*
X1071800Y543180D01*
X1071570Y542250D01*
X1071500Y541200D01*
X1071570Y540150D01*
X1071800Y539220D01*
X1072100Y538520D01*
X1072550Y537930D01*
X1073150Y537700D01*
X1073750Y537930D01*
X1074200Y538520D01*
X1074500Y539220D01*
X1074730Y540150D01*
X1074800Y541200D01*
X1074730Y542250D01*
X1074500Y543180D01*
X1074200Y543880D01*
X1073750Y544470D01*
X1073150Y544700D01*
G01X1048350Y536600D02*
Y543600D01*
X1045570Y538580D01*
X1049330D01*
G54D13*
X812600Y832400D03*
X822500Y872400D03*
Y882400D03*
Y892400D03*
X812500Y872400D03*
Y882400D03*
Y892400D03*
X836900Y856400D03*
Y846400D03*
X812600Y852400D03*
Y842400D03*
X822500Y902400D03*
Y912400D03*
Y922400D03*
Y932400D03*
Y942400D03*
Y952400D03*
X812500Y902400D03*
Y912400D03*
Y922400D03*
Y932400D03*
Y942400D03*
Y952400D03*
X822500Y962400D03*
X812500D03*
X832500Y1002400D03*
Y1012400D03*
X846900Y856400D03*
Y846400D03*
X842500Y1002400D03*
X852500D03*
X862500D03*
X872500D03*
X882500D03*
X892500D03*
X842500Y1012400D03*
X852500D03*
X862500D03*
X872500D03*
X882500D03*
X892500D03*
X902500Y1002400D03*
X912500D03*
X922500D03*
X932500D03*
X902500Y1012400D03*
X912500D03*
X922500D03*
X932500D03*
X992500Y832400D03*
X992600Y872400D03*
Y882400D03*
Y892400D03*
X982600Y872400D03*
Y882400D03*
Y892400D03*
X992500Y852400D03*
Y842400D03*
X992600Y902400D03*
Y912400D03*
Y922400D03*
Y932400D03*
Y942400D03*
Y952400D03*
X982600Y902400D03*
Y912400D03*
Y922400D03*
Y932400D03*
Y942400D03*
Y952400D03*
X992600Y962400D03*
X982600D03*
X983900Y1002400D03*
Y1012400D03*
Y1022400D03*
G54D23*
G01X680000Y610000D02*
X1110000D01*
Y530000D01*
X680000D01*
Y610000D01*
G01Y583500D02*
X1110000D01*
G01X680000Y557000D02*
X1110000D01*
G01X850000Y583500D02*
Y530000D01*
G01X924000Y557000D02*
Y530000D01*
G01X1026500Y557000D02*
Y530000D01*
G54D14*
X797500Y863000D03*
X1009000D03*
X987400Y1152000D03*
G54D15*
X833600Y973600D03*
X839400Y1122400D03*
Y1126000D03*
Y1118900D03*
X931800Y830900D03*
X896000Y826800D03*
X906700Y836600D03*
X910600D03*
X914600D03*
X918500D03*
X922400D03*
Y840600D03*
X918500D03*
X914600D03*
X910600D03*
X906700D03*
X922400Y844500D03*
X918500D03*
X914600D03*
X910600D03*
X906700D03*
X922400Y848400D03*
X918500D03*
X914600D03*
X910600D03*
X906700D03*
X922400Y852400D03*
X918500D03*
X914600D03*
X910600D03*
X906700D03*
X934900Y854300D03*
X897000Y867200D03*
X912300Y877600D03*
X969700Y820700D03*
Y832300D03*
G54D16*
X799200Y1014200D03*
G54D17*
X797200Y1152400D03*
X1007100D03*
G54D18*
X816800Y1152100D03*
X847900D03*
G54D19*
X900290Y939690D03*
M02*
