G04 ================== begin FILE IDENTIFICATION RECORD ==================*
G04 Layout Name:  LAUNCHXL-CC1350-433.brd*
G04 Film Name:    LAUNCHXL-CC1350-4-A_SLODERMASK-TOP*
G04 File Format:  Gerber RS274X*
G04 File Origin:  Cadence Allegro 16.6-2015-S068*
G04 Origin Date:  Mon Jan 23 14:11:48 2017*
G04 *
G04 Layer:  DRAWING FORMAT/TITLE_DATA*
G04 Layer:  DRAWING FORMAT/TITLE_BLOCK*
G04 Layer:  BOARD GEOMETRY/SOLDERMASK_TOP*
G04 Layer:  PACKAGE GEOMETRY/SOLDERMASK_TOP*
G04 Layer:  VIA CLASS/SOLDERMASK_TOP*
G04 Layer:  PIN/SOLDERMASK_TOP*
G04 Layer:  BOARD GEOMETRY/OUTLINE*
G04 *
G04 Offset:    (0.0 0.0)*
G04 Mirror:    No*
G04 Mode:      Positive*
G04 Rotation:  0*
G04 FullContactRelief:  No*
G04 UndefLineWidth:     4.0*
G04 ================== end FILE IDENTIFICATION RECORD ====================*
%FSLAX25Y25*MOIN*%
%IR0*IPPOS*OFA0.00000B0.00000*MIA0B0*SFA1.00000B1.00000*%
%AMMACRO30*
4,1,40,-.004,.01,
.004,.01,
.0047,.009933,
.005377,.009746,
.006012,.009444,
.006584,.009036,
.007077,.008535,
.007476,.007956,
.007768,.007317,
.007944,.006637,
.008,.006,
.008,-.006,
.007933,-.0067,
.007746,-.007377,
.007444,-.008012,
.007036,-.008584,
.006535,-.009077,
.005956,-.009476,
.005317,-.009768,
.004637,-.009944,
.004,-.01,
-.004,-.01,
-.0047,-.009933,
-.005377,-.009746,
-.006012,-.009444,
-.006584,-.009036,
-.007077,-.008535,
-.007476,-.007956,
-.007768,-.007317,
-.007944,-.006637,
-.008,-.006,
-.008,.006,
-.007933,.0067,
-.007746,.007377,
-.007444,.008012,
-.007036,.008584,
-.006535,.009077,
-.005956,.009476,
-.005317,.009768,
-.004637,.009944,
-.004,.01,
0.0*
%
%ADD30MACRO30*%
%AMMACRO39*
4,1,45,.0092,-.0092,
.012,-.0064,
.013016,-.005332,
.013841,-.004113,
.014442,-.002769,
.014801,-.001341,
.014906,.000127,
.014755,.001592,
.014351,.003008,
.013708,.004332,
.012845,.005525,
.0127,.0057,
.0057,.0127,
.004525,.013589,
.003219,.014267,
.001814,.014709,
.000354,.014899,
-.001117,.014834,
-.002554,.014514,
-.003914,.013949,
-.005154,.013156,
-.006239,.012161,
-.0064,.012,
-.012,.0064,
-.013016,.005332,
-.013841,.004113,
-.014442,.002769,
-.014801,.001341,
-.014906,-.000127,
-.014755,-.001592,
-.014351,-.003008,
-.013708,-.004332,
-.012845,-.005525,
-.0127,-.0057,
-.0057,-.0127,
-.004525,-.013589,
-.003219,-.014267,
-.001814,-.014709,
-.000354,-.014899,
.001117,-.014834,
.002554,-.014514,
.003914,-.013949,
.005154,-.013156,
.006239,-.012161,
.0064,-.012,
.0092,-.0092,
0.0*
%
%ADD39MACRO39*%
%AMMACRO18*
4,1,45,.013,0.0,
.013,.004,
.01297,.005472,
.012685,.006916,
.012153,.008289,
.011391,.009549,
.010422,.010658,
.009275,.011581,
.007985,.012291,
.006592,.012766,
.005137,.012992,
.005,.013,
-.005,.013,
-.006458,.012798,
-.007859,.012345,
-.009161,.011656,
-.010322,.010752,
-.011309,.009659,
-.012092,.008412,
-.012646,.007048,
-.012954,.005608,
-.013008,.004137,
-.013,.004,
-.013,-.004,
-.01297,-.005472,
-.012685,-.006916,
-.012153,-.008289,
-.011391,-.009549,
-.010422,-.010658,
-.009275,-.011581,
-.007985,-.012291,
-.006592,-.012766,
-.005137,-.012992,
-.005,-.013,
.005,-.013,
.006458,-.012798,
.007859,-.012345,
.009161,-.011656,
.010322,-.010752,
.011309,-.009659,
.012092,-.008412,
.012646,-.007048,
.012954,-.005608,
.013008,-.004137,
.013,-.004,
.013,0.0,
0.0*
%
%ADD18MACRO18*%
%AMMACRO54*
4,1,44,.038,-.011,
.038,.011,
.037949,.012971,
.037555,.014904,
.036833,.016738,
.035803,.01842,
.034496,.019897,
.032953,.021124,
.03122,.022065,
.02935,.022691,
.0274,.022983,
.027,.023,
-.027,.023,
-.028959,.022778,
-.03085,.022218,
-.032615,.021339,
-.034201,.020167,
-.035559,.018737,
-.036648,.017093,
-.037435,.015285,
-.037896,.013368,
-.038017,.0114,
-.038,.011,
-.038,-.011,
-.037949,-.012971,
-.037555,-.014904,
-.036833,-.016738,
-.035803,-.01842,
-.034496,-.019897,
-.032953,-.021124,
-.03122,-.022065,
-.02935,-.022691,
-.0274,-.022983,
-.027,-.023,
.027,-.023,
.028959,-.022778,
.03085,-.022218,
.032615,-.021339,
.034201,-.020167,
.035559,-.018737,
.036648,-.017093,
.037435,-.015285,
.037896,-.013368,
.038017,-.0114,
.038,-.011,
0.0*
%
%ADD54MACRO54*%
%AMMACRO25*
4,1,45,0.0,-.013,
.004,-.013,
.005472,-.01297,
.006916,-.012685,
.008289,-.012153,
.009549,-.011391,
.010658,-.010422,
.011581,-.009275,
.012291,-.007985,
.012766,-.006592,
.012992,-.005137,
.013,-.005,
.013,.005,
.012798,.006458,
.012345,.007859,
.011656,.009161,
.010752,.010322,
.009659,.011309,
.008412,.012092,
.007048,.012646,
.005608,.012954,
.004137,.013008,
.004,.013,
-.004,.013,
-.005472,.01297,
-.006916,.012685,
-.008289,.012153,
-.009549,.011391,
-.010658,.010422,
-.011581,.009275,
-.012291,.007985,
-.012766,.006592,
-.012992,.005137,
-.013,.005,
-.013,-.005,
-.012798,-.006458,
-.012345,-.007859,
-.011656,-.009161,
-.010752,-.010322,
-.009659,-.011309,
-.008412,-.012092,
-.007048,-.012646,
-.005608,-.012954,
-.004137,-.013008,
-.004,-.013,
0.0,-.013,
0.0*
%
%ADD25MACRO25*%
%AMMACRO40*
4,1,41,.018,0.0,
.018,.01,
.017801,.011454,
.017353,.012851,
.016669,.01415,
.01577,.01531,
.014683,.016296,
.013441,.017078,
.012083,.017633,
.010648,.017943,
.01,.018,
-.01,.018,
-.011454,.017801,
-.012851,.017353,
-.01415,.016669,
-.01531,.01577,
-.016296,.014683,
-.017078,.013441,
-.017633,.012083,
-.017943,.010648,
-.018,.01,
-.018,-.01,
-.017801,-.011454,
-.017353,-.012851,
-.016669,-.01415,
-.01577,-.01531,
-.014683,-.016296,
-.013441,-.017078,
-.012083,-.017633,
-.010648,-.017943,
-.01,-.018,
.01,-.018,
.011454,-.017801,
.012851,-.017353,
.01415,-.016669,
.01531,-.01577,
.016296,-.014683,
.017078,-.013441,
.017633,-.012083,
.017943,-.010648,
.018,-.01,
.018,0.0,
0.0*
%
%ADD40MACRO40*%
%AMMACRO59*
4,1,45,0.0,-.016,
.008,-.016,
.009185,-.015931,
.010339,-.015657,
.011428,-.015186,
.012419,-.014534,
.013282,-.013719,
.013991,-.012767,
.014523,-.011707,
.014863,-.01057,
.015,-.009392,
.015,-.009,
.015,.009,
.014931,.010185,
.014657,.011339,
.014186,.012428,
.013534,.013419,
.012719,.014282,
.011767,.014991,
.010707,.015523,
.00957,.015863,
.008392,.016,
.008,.016,
-.008,.016,
-.009185,.015931,
-.010339,.015657,
-.011428,.015186,
-.012419,.014534,
-.013282,.013719,
-.013991,.012767,
-.014523,.011707,
-.014863,.01057,
-.015,.009392,
-.015,.009,
-.015,-.009,
-.014931,-.010185,
-.014657,-.011339,
-.014186,-.012428,
-.013534,-.013419,
-.012719,-.014282,
-.011767,-.014991,
-.010707,-.015523,
-.00957,-.015863,
-.008392,-.016,
-.008,-.016,
0.0,-.016,
0.0*
%
%ADD59MACRO59*%
%ADD48R,.071X.104*%
%ADD10C,.134*%
%ADD31C,.156*%
%ADD53R,.213X.213*%
%AMMACRO47*
4,1,41,.02,0.0,
.02,.003,
.019937,.003536,
.019782,.004052,
.01954,.004534,
.019218,.004966,
.018825,.005336,
.018374,.005632,
.017879,.005845,
.017354,.005969,
.017,.006,
-.017,.006,
-.017536,.005937,
-.018052,.005782,
-.018534,.00554,
-.018966,.005218,
-.019336,.004825,
-.019632,.004374,
-.019845,.003879,
-.019969,.003354,
-.02,.003,
-.02,-.003,
-.019937,-.003536,
-.019782,-.004052,
-.01954,-.004534,
-.019218,-.004966,
-.018825,-.005336,
-.018374,-.005632,
-.017879,-.005845,
-.017354,-.005969,
-.017,-.006,
.017,-.006,
.017536,-.005937,
.018052,-.005782,
.018534,-.00554,
.018966,-.005218,
.019336,-.004825,
.019632,-.004374,
.019845,-.003879,
.019969,-.003354,
.02,-.003,
.02,0.0,
0.0*
%
%ADD47MACRO47*%
%AMMACRO68*
4,1,22,.018,-.008,
.018,.008,
-.014,.008,
-.014706,.007925,
-.015389,.007729,
-.016027,.007417,
-.016602,.006998,
-.017095,.006487,
-.017492,.005898,
-.01778,.005248,
-.017951,.004559,
-.018,.004,
-.018,-.004,
-.017925,-.004706,
-.017729,-.005389,
-.017417,-.006027,
-.016998,-.006602,
-.016487,-.007095,
-.015898,-.007492,
-.015248,-.00778,
-.014559,-.007951,
-.014,-.008,
.018,-.008,
0.0*
%
%ADD68MACRO68*%
%AMMACRO69*
4,1,22,-.008,-.018,
.008,-.018,
.008,.014,
.007925,.014706,
.007729,.015389,
.007417,.016027,
.006998,.016602,
.006487,.017095,
.005898,.017492,
.005248,.01778,
.004559,.017951,
.004,.018,
-.004,.018,
-.004706,.017925,
-.005389,.017729,
-.006027,.017417,
-.006602,.016998,
-.007095,.016487,
-.007492,.015898,
-.00778,.015248,
-.007951,.014559,
-.008,.014,
-.008,-.018,
0.0*
%
%ADD69MACRO69*%
%AMMACRO12*
4,1,41,-.128,0.0,
-.128,-.019,
-.127657,-.022828,
-.126653,-.026538,
-.125021,-.030018,
-.12281,-.033161,
-.120086,-.035873,
-.116933,-.038071,
-.113446,-.039687,
-.109731,-.040674,
-.106,-.041,
.106,-.041,
.109828,-.040657,
.113538,-.039653,
.117018,-.038021,
.120161,-.03581,
.122873,-.033086,
.125071,-.029933,
.126687,-.026446,
.127674,-.022731,
.128,-.019,
.128,.019,
.127657,.022828,
.126653,.026538,
.125021,.030018,
.12281,.033161,
.120086,.035873,
.116933,.038071,
.113446,.039687,
.109731,.040674,
.106,.041,
-.106,.041,
-.109828,.040657,
-.113538,.039653,
-.117018,.038021,
-.120161,.03581,
-.122873,.033086,
-.125071,.029933,
-.126687,.026446,
-.127674,.022731,
-.128,.019,
-.128,0.0,
0.0*
%
%ADD12MACRO12*%
%AMMACRO49*
4,1,41,0.0,.029,
-.009,.029,
-.011096,.028804,
-.013125,.028246,
-.015027,.027345,
-.016744,.026127,
-.018223,.02463,
-.01942,.022898,
-.020297,.020985,
-.02083,.018949,
-.021,.017,
-.021,-.017,
-.020804,-.019096,
-.020246,-.021125,
-.019345,-.023027,
-.018127,-.024744,
-.01663,-.026223,
-.014898,-.02742,
-.012985,-.028297,
-.010949,-.02883,
-.009,-.029,
.009,-.029,
.011096,-.028804,
.013125,-.028246,
.015027,-.027345,
.016744,-.026127,
.018223,-.02463,
.01942,-.022898,
.020297,-.020985,
.02083,-.018949,
.021,-.017,
.021,.017,
.020804,.019096,
.020246,.021125,
.019345,.023027,
.018127,.024744,
.01663,.026223,
.014898,.02742,
.012985,.028297,
.010949,.02883,
.009,.029,
0.0,.029,
0.0*
%
%ADD49MACRO49*%
%AMMACRO16*
4,1,41,-.029,0.0,
-.029,-.009,
-.028804,-.011096,
-.028246,-.013125,
-.027345,-.015027,
-.026127,-.016744,
-.02463,-.018223,
-.022898,-.01942,
-.020985,-.020297,
-.018949,-.02083,
-.017,-.021,
.017,-.021,
.019096,-.020804,
.021125,-.020246,
.023027,-.019345,
.024744,-.018127,
.026223,-.01663,
.02742,-.014898,
.028297,-.012985,
.02883,-.010949,
.029,-.009,
.029,.009,
.028804,.011096,
.028246,.013125,
.027345,.015027,
.026127,.016744,
.02463,.018223,
.022898,.01942,
.020985,.020297,
.018949,.02083,
.017,.021,
-.017,.021,
-.019096,.020804,
-.021125,.020246,
-.023027,.019345,
-.024744,.018127,
-.026223,.01663,
-.02742,.014898,
-.028297,.012985,
-.02883,.010949,
-.029,.009,
-.029,0.0,
0.0*
%
%ADD16MACRO16*%
%AMMACRO56*
4,1,41,-.009,0.0,
-.009,-.002,
-.008936,-.002697,
-.008752,-.003373,
-.008454,-.004006,
-.00805,-.004578,
-.007553,-.005071,
-.006978,-.00547,
-.006342,-.005763,
-.005666,-.005942,
-.005,-.006,
.005,-.006,
.005697,-.005936,
.006373,-.005752,
.007006,-.005454,
.007578,-.00505,
.008071,-.004553,
.00847,-.003978,
.008763,-.003342,
.008942,-.002666,
.009,-.002,
.009,.002,
.008936,.002697,
.008752,.003373,
.008454,.004006,
.00805,.004578,
.007553,.005071,
.006978,.00547,
.006342,.005763,
.005666,.005942,
.005,.006,
-.005,.006,
-.005697,.005936,
-.006373,.005752,
-.007006,.005454,
-.007578,.00505,
-.008071,.004553,
-.00847,.003978,
-.008763,.003342,
-.008942,.002666,
-.009,.002,
-.009,0.0,
0.0*
%
%ADD56MACRO56*%
%AMMACRO77*
4,1,45,0.0,.031,
-.011,.031,
-.01302,.030894,
-.014991,.030438,
-.016853,.029648,
-.018549,.028546,
-.020028,.027166,
-.021245,.02555,
-.022163,.023748,
-.022754,.021813,
-.023,.019805,
-.023,.019,
-.023,-.019,
-.022894,-.02102,
-.022438,-.022991,
-.021648,-.024853,
-.020546,-.026549,
-.019166,-.028028,
-.01755,-.029245,
-.015748,-.030163,
-.013813,-.030754,
-.011805,-.031,
-.011,-.031,
.011,-.031,
.01302,-.030894,
.014991,-.030438,
.016853,-.029648,
.018549,-.028546,
.020028,-.027166,
.021245,-.02555,
.022163,-.023748,
.022754,-.021813,
.023,-.019805,
.023,-.019,
.023,.019,
.022894,.02102,
.022438,.022991,
.021648,.024853,
.020546,.026549,
.019166,.028028,
.01755,.029245,
.015748,.030163,
.013813,.030754,
.011805,.031,
.011,.031,
0.0,.031,
0.0*
%
%ADD77MACRO77*%
%AMMACRO50*
4,1,45,-.031,0.0,
-.031,-.011,
-.030894,-.01302,
-.030438,-.014991,
-.029648,-.016853,
-.028546,-.018549,
-.027166,-.020028,
-.02555,-.021245,
-.023748,-.022163,
-.021813,-.022754,
-.019805,-.023,
-.019,-.023,
.019,-.023,
.02102,-.022894,
.022991,-.022438,
.024853,-.021648,
.026549,-.020546,
.028028,-.019166,
.029245,-.01755,
.030163,-.015748,
.030754,-.013813,
.031,-.011805,
.031,-.011,
.031,.011,
.030894,.01302,
.030438,.014991,
.029648,.016853,
.028546,.018549,
.027166,.020028,
.02555,.021245,
.023748,.022163,
.021813,.022754,
.019805,.023,
.019,.023,
-.019,.023,
-.02102,.022894,
-.022991,.022438,
-.024853,.021648,
-.026549,.020546,
-.028028,.019166,
-.029245,.01755,
-.030163,.015748,
-.030754,.013813,
-.031,.011805,
-.031,.011,
-.031,0.0,
0.0*
%
%ADD50MACRO50*%
%AMMACRO65*
4,1,45,.021,0.0,
.021,.007,
.020921,.008836,
.020524,.010631,
.019822,.012329,
.018836,.01388,
.017595,.015236,
.016138,.016355,
.014508,.017205,
.012756,.017759,
.010934,.018,
.01,.018,
-.01,.018,
-.011836,.017921,
-.013631,.017524,
-.015329,.016822,
-.01688,.015836,
-.018236,.014595,
-.019355,.013138,
-.020205,.011508,
-.020759,.009756,
-.021,.007934,
-.021,.007,
-.021,-.007,
-.020921,-.008836,
-.020524,-.010631,
-.019822,-.012329,
-.018836,-.01388,
-.017595,-.015236,
-.016138,-.016355,
-.014508,-.017205,
-.012756,-.017759,
-.010934,-.018,
-.01,-.018,
.01,-.018,
.011836,-.017921,
.013631,-.017524,
.015329,-.016822,
.01688,-.015836,
.018236,-.014595,
.019355,-.013138,
.020205,-.011508,
.020759,-.009756,
.021,-.007934,
.021,-.007,
.021,0.0,
0.0*
%
%ADD65MACRO65*%
%AMMACRO45*
4,1,41,0.0,.015,
-.002,.015,
-.002702,.01493,
-.003382,.014739,
-.004018,.014434,
-.004591,.014022,
-.005084,.013517,
-.005482,.012934,
-.005772,.012291,
-.005947,.011607,
-.006,.011,
-.006,-.011,
-.00593,-.011702,
-.005739,-.012382,
-.005434,-.013018,
-.005022,-.013591,
-.004517,-.014084,
-.003934,-.014482,
-.003291,-.014772,
-.002607,-.014947,
-.002,-.015,
.002,-.015,
.002702,-.01493,
.003382,-.014739,
.004018,-.014434,
.004591,-.014022,
.005084,-.013517,
.005482,-.012934,
.005772,-.012291,
.005947,-.011607,
.006,-.011,
.006,.011,
.00593,.011702,
.005739,.012382,
.005434,.013018,
.005022,.013591,
.004517,.014084,
.003934,.014482,
.003291,.014772,
.002607,.014947,
.002,.015,
0.0,.015,
0.0*
%
%ADD45MACRO45*%
%AMMACRO41*
4,1,45,0.0,.028,
-.012,.028,
-.014018,.027896,
-.015988,.027443,
-.017849,.026654,
-.019544,.025555,
-.021023,.024178,
-.022241,.022565,
-.02316,.020765,
-.023752,.018833,
-.024,.016827,
-.024,.016,
-.024,-.016,
-.023896,-.018018,
-.023443,-.019988,
-.022654,-.021849,
-.021555,-.023544,
-.020178,-.025023,
-.018565,-.026241,
-.016765,-.02716,
-.014833,-.027752,
-.012827,-.028,
-.012,-.028,
.012,-.028,
.014018,-.027896,
.015988,-.027443,
.017849,-.026654,
.019544,-.025555,
.021023,-.024178,
.022241,-.022565,
.02316,-.020765,
.023752,-.018833,
.024,-.016827,
.024,-.016,
.024,.016,
.023896,.018018,
.023443,.019988,
.022654,.021849,
.021555,.023544,
.020178,.025023,
.018565,.026241,
.016765,.02716,
.014833,.027752,
.012827,.028,
.012,.028,
0.0,.028,
0.0*
%
%ADD41MACRO41*%
%AMMACRO75*
4,1,41,-.023,0.0,
-.023,-.011,
-.022821,-.01292,
-.022311,-.01478,
-.021486,-.016523,
-.020371,-.018097,
-.018999,-.019453,
-.017413,-.02055,
-.01566,-.021355,
-.013795,-.021843,
-.012,-.022,
.012,-.022,
.01392,-.021821,
.01578,-.021311,
.017523,-.020486,
.019097,-.019371,
.020453,-.017999,
.02155,-.016413,
.022355,-.01466,
.022843,-.012795,
.023,-.011,
.023,.011,
.022821,.01292,
.022311,.01478,
.021486,.016523,
.020371,.018097,
.018999,.019453,
.017413,.02055,
.01566,.021355,
.013795,.021843,
.012,.022,
-.012,.022,
-.01392,.021821,
-.01578,.021311,
-.017523,.020486,
-.019097,.019371,
-.020453,.017999,
-.02155,.016413,
-.022355,.01466,
-.022843,.012795,
-.023,.011,
-.023,0.0,
0.0*
%
%ADD75MACRO75*%
%AMMACRO63*
4,1,41,0.0,.023,
-.011,.023,
-.01292,.022821,
-.01478,.022311,
-.016523,.021486,
-.018097,.020371,
-.019453,.018999,
-.02055,.017413,
-.021355,.01566,
-.021843,.013795,
-.022,.012,
-.022,-.012,
-.021821,-.01392,
-.021311,-.01578,
-.020486,-.017523,
-.019371,-.019097,
-.017999,-.020453,
-.016413,-.02155,
-.01466,-.022355,
-.012795,-.022843,
-.011,-.023,
.011,-.023,
.01292,-.022821,
.01478,-.022311,
.016523,-.021486,
.018097,-.020371,
.019453,-.018999,
.02055,-.017413,
.021355,-.01566,
.021843,-.013795,
.022,-.012,
.022,.012,
.021821,.01392,
.021311,.01578,
.020486,.017523,
.019371,.019097,
.017999,.020453,
.016413,.02155,
.01466,.022355,
.012795,.022843,
.011,.023,
0.0,.023,
0.0*
%
%ADD63MACRO63*%
%AMMACRO35*
4,1,45,0.0,-.03,
.004,-.03,
.005153,-.029968,
.006283,-.029736,
.007356,-.029312,
.008338,-.028708,
.009201,-.027942,
.009918,-.027038,
.010467,-.026024,
.010831,-.024929,
.011,-.023788,
.011,-.023,
.011,.023,
.010968,.024153,
.010736,.025283,
.010312,.026356,
.009708,.027338,
.008942,.028201,
.008038,.028918,
.007024,.029467,
.005929,.029831,
.004788,.03,
.004,.03,
-.004,.03,
-.005153,.029968,
-.006283,.029736,
-.007356,.029312,
-.008338,.028708,
-.009201,.027942,
-.009918,.027038,
-.010467,.026024,
-.010831,.024929,
-.011,.023788,
-.011,.023,
-.011,-.023,
-.010968,-.024153,
-.010736,-.025283,
-.010312,-.026356,
-.009708,-.027338,
-.008942,-.028201,
-.008038,-.028918,
-.007024,-.029467,
-.005929,-.029831,
-.004788,-.03,
-.004,-.03,
0.0,-.03,
0.0*
%
%ADD35MACRO35*%
%AMMACRO43*
4,1,45,-.111,0.0,
-.111,-.013,
-.110789,-.015751,
-.110104,-.018424,
-.108965,-.020937,
-.107407,-.023215,
-.105477,-.025187,
-.103234,-.026794,
-.100746,-.027987,
-.098089,-.02873,
-.095343,-.029,
-.095,-.029,
.095,-.029,
.097751,-.028789,
.100424,-.028104,
.102937,-.026965,
.105215,-.025407,
.107187,-.023477,
.108794,-.021234,
.109987,-.018746,
.11073,-.016089,
.111,-.013343,
.111,-.013,
.111,.013,
.110789,.015751,
.110104,.018424,
.108965,.020937,
.107407,.023215,
.105477,.025187,
.103234,.026794,
.100746,.027987,
.098089,.02873,
.095343,.029,
.095,.029,
-.095,.029,
-.097751,.028789,
-.100424,.028104,
-.102937,.026965,
-.105215,.025407,
-.107187,.023477,
-.108794,.021234,
-.109987,.018746,
-.11073,.016089,
-.111,.013343,
-.111,.013,
-.111,0.0,
0.0*
%
%ADD43MACRO43*%
%AMMACRO44*
4,1,41,.021,0.0,
.021,.009,
.020851,.010573,
.020432,.012096,
.019754,.013523,
.018839,.014811,
.017714,.01592,
.016413,.016818,
.014977,.017475,
.013448,.017873,
.012,.018,
-.012,.018,
-.013573,.017851,
-.015096,.017432,
-.016523,.016754,
-.017811,.015839,
-.01892,.014714,
-.019818,.013413,
-.020475,.011977,
-.020873,.010448,
-.021,.009,
-.021,-.009,
-.020851,-.010573,
-.020432,-.012096,
-.019754,-.013523,
-.018839,-.014811,
-.017714,-.01592,
-.016413,-.016818,
-.014977,-.017475,
-.013448,-.017873,
-.012,-.018,
.012,-.018,
.013573,-.017851,
.015096,-.017432,
.016523,-.016754,
.017811,-.015839,
.01892,-.014714,
.019818,-.013413,
.020475,-.011977,
.020873,-.010448,
.021,-.009,
.021,0.0,
0.0*
%
%ADD44MACRO44*%
%AMMACRO27*
4,1,45,-.031,0.0,
-.031,-.014,
-.03083,-.016234,
-.030275,-.018405,
-.029352,-.020446,
-.028088,-.022296,
-.026522,-.023898,
-.024701,-.025204,
-.022681,-.026175,
-.020524,-.026779,
-.018294,-.027,
-.018,-.027,
.018,-.027,
.020234,-.02683,
.022405,-.026275,
.024446,-.025352,
.026296,-.024088,
.027898,-.022522,
.029204,-.020701,
.030175,-.018681,
.030779,-.016524,
.031,-.014294,
.031,-.014,
.031,.014,
.03083,.016234,
.030275,.018405,
.029352,.020446,
.028088,.022296,
.026522,.023898,
.024701,.025204,
.022681,.026175,
.020524,.026779,
.018294,.027,
.018,.027,
-.018,.027,
-.020234,.02683,
-.022405,.026275,
-.024446,.025352,
-.026296,.024088,
-.027898,.022522,
-.029204,.020701,
-.030175,.018681,
-.030779,.016524,
-.031,.014294,
-.031,.014,
-.031,0.0,
0.0*
%
%ADD27MACRO27*%
%AMMACRO42*
4,1,45,-.0092,-.0092,
-.0064,-.012,
-.005332,-.013016,
-.004113,-.013841,
-.002769,-.014442,
-.001341,-.014801,
.000127,-.014906,
.001592,-.014755,
.003008,-.014351,
.004332,-.013708,
.005525,-.012845,
.0057,-.0127,
.0127,-.0057,
.013589,-.004525,
.014267,-.003219,
.014709,-.001814,
.014899,-.000354,
.014834,.001117,
.014514,.002554,
.013949,.003914,
.013156,.005154,
.012161,.006239,
.012,.0064,
.0064,.012,
.005332,.013016,
.004113,.013841,
.002769,.014442,
.001341,.014801,
-.000127,.014906,
-.001592,.014755,
-.003008,.014351,
-.004332,.013708,
-.005525,.012845,
-.0057,.0127,
-.0127,.0057,
-.013589,.004525,
-.014267,.003219,
-.014709,.001814,
-.014899,.000354,
-.014834,-.001117,
-.014514,-.002554,
-.013949,-.003914,
-.013156,-.005154,
-.012161,-.006239,
-.012,-.0064,
-.0092,-.0092,
0.0*
%
%ADD42MACRO42*%
%AMMACRO38*
4,1,45,-.0092,.0092,
-.012,.0064,
-.013016,.005332,
-.013841,.004113,
-.014442,.002769,
-.014801,.001341,
-.014906,-.000127,
-.014755,-.001592,
-.014351,-.003008,
-.013708,-.004332,
-.012845,-.005525,
-.0127,-.0057,
-.0057,-.0127,
-.004525,-.013589,
-.003219,-.014267,
-.001814,-.014709,
-.000354,-.014899,
.001117,-.014834,
.002554,-.014514,
.003914,-.013949,
.005154,-.013156,
.006239,-.012161,
.0064,-.012,
.012,-.0064,
.013016,-.005332,
.013841,-.004113,
.014442,-.002769,
.014801,-.001341,
.014906,.000127,
.014755,.001592,
.014351,.003008,
.013708,.004332,
.012845,.005525,
.0127,.0057,
.0057,.0127,
.004525,.013589,
.003219,.014267,
.001814,.014709,
.000354,.014899,
-.001117,.014834,
-.002554,.014514,
-.003914,.013949,
-.005154,.013156,
-.006239,.012161,
-.0064,.012,
-.0092,.0092,
0.0*
%
%ADD38MACRO38*%
%AMMACRO37*
4,1,45,.0092,.0092,
.0064,.012,
.005332,.013016,
.004113,.013841,
.002769,.014442,
.001341,.014801,
-.000127,.014906,
-.001592,.014755,
-.003008,.014351,
-.004332,.013708,
-.005525,.012845,
-.0057,.0127,
-.0127,.0057,
-.013589,.004525,
-.014267,.003219,
-.014709,.001814,
-.014899,.000354,
-.014834,-.001117,
-.014514,-.002554,
-.013949,-.003914,
-.013156,-.005154,
-.012161,-.006239,
-.012,-.0064,
-.0064,-.012,
-.005332,-.013016,
-.004113,-.013841,
-.002769,-.014442,
-.001341,-.014801,
.000127,-.014906,
.001592,-.014755,
.003008,-.014351,
.004332,-.013708,
.005525,-.012845,
.0057,-.0127,
.0127,-.0057,
.013589,-.004525,
.014267,-.003219,
.014709,-.001814,
.014899,-.000354,
.014834,.001117,
.014514,.002554,
.013949,.003914,
.013156,.005154,
.012161,.006239,
.012,.0064,
.0092,.0092,
0.0*
%
%ADD37MACRO37*%
%AMMACRO26*
4,1,45,0.0,.013,
-.004,.013,
-.005472,.01297,
-.006916,.012685,
-.008289,.012153,
-.009549,.011391,
-.010658,.010422,
-.011581,.009275,
-.012291,.007985,
-.012766,.006592,
-.012992,.005137,
-.013,.005,
-.013,-.005,
-.012798,-.006458,
-.012345,-.007859,
-.011656,-.009161,
-.010752,-.010322,
-.009659,-.011309,
-.008412,-.012092,
-.007048,-.012646,
-.005608,-.012954,
-.004137,-.013008,
-.004,-.013,
.004,-.013,
.005472,-.01297,
.006916,-.012685,
.008289,-.012153,
.009549,-.011391,
.010658,-.010422,
.011581,-.009275,
.012291,-.007985,
.012766,-.006592,
.012992,-.005137,
.013,-.005,
.013,.005,
.012798,.006458,
.012345,.007859,
.011656,.009161,
.010752,.010322,
.009659,.011309,
.008412,.012092,
.007048,.012646,
.005608,.012954,
.004137,.013008,
.004,.013,
0.0,.013,
0.0*
%
%ADD26MACRO26*%
%AMMACRO19*
4,1,45,-.013,0.0,
-.013,-.004,
-.01297,-.005472,
-.012685,-.006916,
-.012153,-.008289,
-.011391,-.009549,
-.010422,-.010658,
-.009275,-.011581,
-.007985,-.012291,
-.006592,-.012766,
-.005137,-.012992,
-.005,-.013,
.005,-.013,
.006458,-.012798,
.007859,-.012345,
.009161,-.011656,
.010322,-.010752,
.011309,-.009659,
.012092,-.008412,
.012646,-.007048,
.012954,-.005608,
.013008,-.004137,
.013,-.004,
.013,.004,
.01297,.005472,
.012685,.006916,
.012153,.008289,
.011391,.009549,
.010422,.010658,
.009275,.011581,
.007985,.012291,
.006592,.012766,
.005137,.012992,
.005,.013,
-.005,.013,
-.006458,.012798,
-.007859,.012345,
-.009161,.011656,
-.010322,.010752,
-.011309,.009659,
-.012092,.008412,
-.012646,.007048,
-.012954,.005608,
-.013008,.004137,
-.013,.004,
-.013,0.0,
0.0*
%
%ADD19MACRO19*%
%AMMACRO28*
4,1,41,-.017,0.0,
-.017,-.004,
-.016926,-.004706,
-.016731,-.005388,
-.01642,-.006025,
-.016003,-.0066,
-.015493,-.007093,
-.014905,-.00749,
-.014257,-.007778,
-.013569,-.00795,
-.013,-.008,
.013,-.008,
.013706,-.007926,
.014388,-.007731,
.015025,-.00742,
.0156,-.007003,
.016093,-.006493,
.01649,-.005905,
.016778,-.005257,
.01695,-.004569,
.017,-.004,
.017,.004,
.016926,.004706,
.016731,.005388,
.01642,.006025,
.016003,.0066,
.015493,.007093,
.014905,.00749,
.014257,.007778,
.013569,.00795,
.013,.008,
-.013,.008,
-.013706,.007926,
-.014388,.007731,
-.015025,.00742,
-.0156,.007003,
-.016093,.006493,
-.01649,.005905,
-.016778,.005257,
-.01695,.004569,
-.017,.004,
-.017,0.0,
0.0*
%
%ADD28MACRO28*%
%AMMACRO20*
4,1,41,-.018,0.0,
-.018,-.01,
-.017801,-.011454,
-.017353,-.012851,
-.016669,-.01415,
-.01577,-.01531,
-.014683,-.016296,
-.013441,-.017078,
-.012083,-.017633,
-.010648,-.017943,
-.01,-.018,
.01,-.018,
.011454,-.017801,
.012851,-.017353,
.01415,-.016669,
.01531,-.01577,
.016296,-.014683,
.017078,-.013441,
.017633,-.012083,
.017943,-.010648,
.018,-.01,
.018,.01,
.017801,.011454,
.017353,.012851,
.016669,.01415,
.01577,.01531,
.014683,.016296,
.013441,.017078,
.012083,.017633,
.010648,.017943,
.01,.018,
-.01,.018,
-.011454,.017801,
-.012851,.017353,
-.01415,.016669,
-.01531,.01577,
-.016296,.014683,
-.017078,.013441,
-.017633,.012083,
-.017943,.010648,
-.018,.01,
-.018,0.0,
0.0*
%
%ADD20MACRO20*%
%AMMACRO60*
4,1,45,0.0,.016,
-.008,.016,
-.009185,.015931,
-.010339,.015657,
-.011428,.015186,
-.012419,.014534,
-.013282,.013719,
-.013991,.012767,
-.014523,.011707,
-.014863,.01057,
-.015,.009392,
-.015,.009,
-.015,-.009,
-.014931,-.010185,
-.014657,-.011339,
-.014186,-.012428,
-.013534,-.013419,
-.012719,-.014282,
-.011767,-.014991,
-.010707,-.015523,
-.00957,-.015863,
-.008392,-.016,
-.008,-.016,
.008,-.016,
.009185,-.015931,
.010339,-.015657,
.011428,-.015186,
.012419,-.014534,
.013282,-.013719,
.013991,-.012767,
.014523,-.011707,
.014863,-.01057,
.015,-.009392,
.015,-.009,
.015,.009,
.014931,.010185,
.014657,.011339,
.014186,.012428,
.013534,.013419,
.012719,.014282,
.011767,.014991,
.010707,.015523,
.00957,.015863,
.008392,.016,
.008,.016,
0.0,.016,
0.0*
%
%ADD60MACRO60*%
%ADD23O,.041X.022*%
%ADD21O,.065X.012*%
%ADD51O,.035X.016*%
%ADD22O,.012X.065*%
%ADD52O,.016X.035*%
%ADD11C,.022*%
%ADD15C,.043*%
%ADD13C,.071*%
%ADD72R,.073X.018*%
%ADD24C,.073*%
%ADD29C,.047*%
%ADD14C,.056*%
%ADD32O,.061X.089*%
%AMMACRO70*
4,1,22,.008,.018,
-.008,.018,
-.008,-.014,
-.007925,-.014706,
-.007729,-.015389,
-.007417,-.016027,
-.006998,-.016602,
-.006487,-.017095,
-.005898,-.017492,
-.005248,-.01778,
-.004559,-.017951,
-.004,-.018,
.004,-.018,
.004706,-.017925,
.005389,-.017729,
.006027,-.017417,
.006602,-.016998,
.007095,-.016487,
.007492,-.015898,
.00778,-.015248,
.007951,-.014559,
.008,-.014,
.008,.018,
0.0*
%
%ADD70MACRO70*%
%AMMACRO67*
4,1,22,-.018,.008,
-.018,-.008,
.014,-.008,
.014706,-.007925,
.015389,-.007729,
.016027,-.007417,
.016602,-.006998,
.017095,-.006487,
.017492,-.005898,
.01778,-.005248,
.017951,-.004559,
.018,-.004,
.018,.004,
.017925,.004706,
.017729,.005389,
.017417,.006027,
.016998,.006602,
.016487,.007095,
.015898,.007492,
.015248,.00778,
.014559,.007951,
.014,.008,
-.018,.008,
0.0*
%
%ADD67MACRO67*%
%ADD66O,.028X.087*%
%ADD36R,.045X.045*%
%AMMACRO55*
4,1,41,0.0,-.008,
.003,-.008,
.003525,-.007949,
.004034,-.007808,
.00451,-.007581,
.004939,-.007275,
.005309,-.006898,
.005608,-.006464,
.005827,-.005984,
.005959,-.005473,
.006,-.005,
.006,.005,
.005949,.005525,
.005808,.006034,
.005581,.00651,
.005275,.006939,
.004898,.007309,
.004464,.007608,
.003984,.007827,
.003473,.007959,
.003,.008,
-.003,.008,
-.003525,.007949,
-.004034,.007808,
-.00451,.007581,
-.004939,.007275,
-.005309,.006898,
-.005608,.006464,
-.005827,.005984,
-.005959,.005473,
-.006,.005,
-.006,-.005,
-.005949,-.005525,
-.005808,-.006034,
-.005581,-.00651,
-.005275,-.006939,
-.004898,-.007309,
-.004464,-.007608,
-.003984,-.007827,
-.003473,-.007959,
-.003,-.008,
0.0,-.008,
0.0*
%
%ADD55MACRO55*%
%AMMACRO71*
4,1,41,.128,0.0,
.128,.019,
.127657,.022828,
.126653,.026538,
.125021,.030018,
.12281,.033161,
.120086,.035873,
.116933,.038071,
.113446,.039687,
.109731,.040674,
.106,.041,
-.106,.041,
-.109828,.040657,
-.113538,.039653,
-.117018,.038021,
-.120161,.03581,
-.122873,.033086,
-.125071,.029933,
-.126687,.026446,
-.127674,.022731,
-.128,.019,
-.128,-.019,
-.127657,-.022828,
-.126653,-.026538,
-.125021,-.030018,
-.12281,-.033161,
-.120086,-.035873,
-.116933,-.038071,
-.113446,-.039687,
-.109731,-.040674,
-.106,-.041,
.106,-.041,
.109828,-.040657,
.113538,-.039653,
.117018,-.038021,
.120161,-.03581,
.122873,-.033086,
.125071,-.029933,
.126687,-.026446,
.127674,-.022731,
.128,-.019,
.128,0.0,
0.0*
%
%ADD71MACRO71*%
%AMMACRO64*
4,1,45,0.0,.021,
-.007,.021,
-.008836,.020921,
-.010631,.020524,
-.012329,.019822,
-.01388,.018836,
-.015236,.017595,
-.016355,.016138,
-.017205,.014508,
-.017759,.012756,
-.018,.010934,
-.018,.01,
-.018,-.01,
-.017921,-.011836,
-.017524,-.013631,
-.016822,-.015329,
-.015836,-.01688,
-.014595,-.018236,
-.013138,-.019355,
-.011508,-.020205,
-.009756,-.020759,
-.007934,-.021,
-.007,-.021,
.007,-.021,
.008836,-.020921,
.010631,-.020524,
.012329,-.019822,
.01388,-.018836,
.015236,-.017595,
.016355,-.016138,
.017205,-.014508,
.017759,-.012756,
.018,-.010934,
.018,-.01,
.018,.01,
.017921,.011836,
.017524,.013631,
.016822,.015329,
.015836,.01688,
.014595,.018236,
.013138,.019355,
.011508,.020205,
.009756,.020759,
.007934,.021,
.007,.021,
0.0,.021,
0.0*
%
%ADD64MACRO64*%
%AMMACRO76*
4,1,41,.029,0.0,
.029,.009,
.028804,.011096,
.028246,.013125,
.027345,.015027,
.026127,.016744,
.02463,.018223,
.022898,.01942,
.020985,.020297,
.018949,.02083,
.017,.021,
-.017,.021,
-.019096,.020804,
-.021125,.020246,
-.023027,.019345,
-.024744,.018127,
-.026223,.01663,
-.02742,.014898,
-.028297,.012985,
-.02883,.010949,
-.029,.009,
-.029,-.009,
-.028804,-.011096,
-.028246,-.013125,
-.027345,-.015027,
-.026127,-.016744,
-.02463,-.018223,
-.022898,-.01942,
-.020985,-.020297,
-.018949,-.02083,
-.017,-.021,
.017,-.021,
.019096,-.020804,
.021125,-.020246,
.023027,-.019345,
.024744,-.018127,
.026223,-.01663,
.02742,-.014898,
.028297,-.012985,
.02883,-.010949,
.029,-.009,
.029,0.0,
0.0*
%
%ADD76MACRO76*%
%AMMACRO34*
4,1,45,0.0,-.043,
.014,-.043,
.016839,-.042874,
.019613,-.042258,
.022237,-.041169,
.024633,-.03964,
.026726,-.037719,
.028455,-.035464,
.029765,-.032943,
.030618,-.030232,
.030987,-.027415,
.031,-.027,
.031,.027,
.030703,.029826,
.029919,.032557,
.028673,.035111,
.027003,.03741,
.024959,.039383,
.022603,.040972,
.020007,.042128,
.01725,.042815,
.014415,.043013,
.014,.043,
-.014,.043,
-.016839,.042874,
-.019613,.042258,
-.022237,.041169,
-.024633,.03964,
-.026726,.037719,
-.028455,.035464,
-.029765,.032943,
-.030618,.030232,
-.030987,.027415,
-.031,.027,
-.031,-.027,
-.030703,-.029826,
-.029919,-.032557,
-.028673,-.035111,
-.027003,-.03741,
-.024959,-.039383,
-.022603,-.040972,
-.020007,-.042128,
-.01725,-.042815,
-.014415,-.043013,
-.014,-.043,
0.0,-.043,
0.0*
%
%ADD34MACRO34*%
%AMMACRO57*
4,1,41,.009,0.0,
.009,.002,
.008936,.002697,
.008752,.003373,
.008454,.004006,
.00805,.004578,
.007553,.005071,
.006978,.00547,
.006342,.005763,
.005666,.005942,
.005,.006,
-.005,.006,
-.005697,.005936,
-.006373,.005752,
-.007006,.005454,
-.007578,.00505,
-.008071,.004553,
-.00847,.003978,
-.008763,.003342,
-.008942,.002666,
-.009,.002,
-.009,-.002,
-.008936,-.002697,
-.008752,-.003373,
-.008454,-.004006,
-.00805,-.004578,
-.007553,-.005071,
-.006978,-.00547,
-.006342,-.005763,
-.005666,-.005942,
-.005,-.006,
.005,-.006,
.005697,-.005936,
.006373,-.005752,
.007006,-.005454,
.007578,-.00505,
.008071,-.004553,
.00847,-.003978,
.008763,-.003342,
.008942,-.002666,
.009,-.002,
.009,0.0,
0.0*
%
%ADD57MACRO57*%
%AMMACRO58*
4,1,41,0.0,-.009,
.002,-.009,
.002697,-.008936,
.003373,-.008752,
.004006,-.008454,
.004578,-.00805,
.005071,-.007553,
.00547,-.006978,
.005763,-.006342,
.005942,-.005666,
.006,-.005,
.006,.005,
.005936,.005697,
.005752,.006373,
.005454,.007006,
.00505,.007578,
.004553,.008071,
.003978,.00847,
.003342,.008763,
.002666,.008942,
.002,.009,
-.002,.009,
-.002697,.008936,
-.003373,.008752,
-.004006,.008454,
-.004578,.00805,
-.005071,.007553,
-.00547,.006978,
-.005763,.006342,
-.005942,.005666,
-.006,.005,
-.006,-.005,
-.005936,-.005697,
-.005752,-.006373,
-.005454,-.007006,
-.00505,-.007578,
-.004553,-.008071,
-.003978,-.00847,
-.003342,-.008763,
-.002666,-.008942,
-.002,-.009,
0.0,-.009,
0.0*
%
%ADD58MACRO58*%
%AMMACRO33*
4,1,41,0.0,-.04,
.014,-.04,
.016917,-.039787,
.019753,-.03907,
.022421,-.037872,
.02484,-.036229,
.026937,-.03419,
.028649,-.031819,
.029923,-.029186,
.03072,-.026372,
.031,-.024,
.031,.024,
.03061,.026899,
.029723,.029686,
.028366,.032276,
.026579,.034592,
.024418,.036562,
.021947,.038127,
.019242,.039239,
.016384,.039864,
.014,.04,
-.014,.04,
-.016917,.039787,
-.019753,.03907,
-.022421,.037872,
-.02484,.036229,
-.026937,.03419,
-.028649,.031819,
-.029923,.029186,
-.03072,.026372,
-.031,.024,
-.031,-.024,
-.03061,-.026899,
-.029723,-.029686,
-.028366,-.032276,
-.026579,-.034592,
-.024418,-.036562,
-.021947,-.038127,
-.019242,-.039239,
-.016384,-.039864,
-.014,-.04,
0.0,-.04,
0.0*
%
%ADD33MACRO33*%
%AMMACRO17*
4,1,45,0.0,-.031,
.011,-.031,
.01302,-.030894,
.014991,-.030438,
.016853,-.029648,
.018549,-.028546,
.020028,-.027166,
.021245,-.02555,
.022163,-.023748,
.022754,-.021813,
.023,-.019805,
.023,-.019,
.023,.019,
.022894,.02102,
.022438,.022991,
.021648,.024853,
.020546,.026549,
.019166,.028028,
.01755,.029245,
.015748,.030163,
.013813,.030754,
.011805,.031,
.011,.031,
-.011,.031,
-.01302,.030894,
-.014991,.030438,
-.016853,.029648,
-.018549,.028546,
-.020028,.027166,
-.021245,.02555,
-.022163,.023748,
-.022754,.021813,
-.023,.019805,
-.023,.019,
-.023,-.019,
-.022894,-.02102,
-.022438,-.022991,
-.021648,-.024853,
-.020546,-.026549,
-.019166,-.028028,
-.01755,-.029245,
-.015748,-.030163,
-.013813,-.030754,
-.011805,-.031,
-.011,-.031,
0.0,-.031,
0.0*
%
%ADD17MACRO17*%
%AMMACRO73*
4,1,41,0.0,-.011,
.003,-.011,
.003872,-.01092,
.004716,-.01069,
.005508,-.010317,
.006223,-.009812,
.006839,-.00919,
.007338,-.008471,
.007704,-.007676,
.007927,-.00683,
.008,-.006,
.008,.006,
.00792,.006872,
.00769,.007716,
.007317,.008508,
.006812,.009223,
.00619,.009839,
.005471,.010338,
.004676,.010704,
.00383,.010927,
.003,.011,
-.003,.011,
-.003872,.01092,
-.004716,.01069,
-.005508,.010317,
-.006223,.009812,
-.006839,.00919,
-.007338,.008471,
-.007704,.007676,
-.007927,.00683,
-.008,.006,
-.008,-.006,
-.00792,-.006872,
-.00769,-.007716,
-.007317,-.008508,
-.006812,-.009223,
-.00619,-.009839,
-.005471,-.010338,
-.004676,-.010704,
-.00383,-.010927,
-.003,-.011,
0.0,-.011,
0.0*
%
%ADD73MACRO73*%
%AMMACRO46*
4,1,41,.015,0.0,
.015,.002,
.01493,.002702,
.014739,.003382,
.014434,.004018,
.014022,.004591,
.013517,.005084,
.012934,.005482,
.012291,.005772,
.011607,.005947,
.011,.006,
-.011,.006,
-.011702,.00593,
-.012382,.005739,
-.013018,.005434,
-.013591,.005022,
-.014084,.004517,
-.014482,.003934,
-.014772,.003291,
-.014947,.002607,
-.015,.002,
-.015,-.002,
-.01493,-.002702,
-.014739,-.003382,
-.014434,-.004018,
-.014022,-.004591,
-.013517,-.005084,
-.012934,-.005482,
-.012291,-.005772,
-.011607,-.005947,
-.011,-.006,
.011,-.006,
.011702,-.00593,
.012382,-.005739,
.013018,-.005434,
.013591,-.005022,
.014084,-.004517,
.014482,-.003934,
.014772,-.003291,
.014947,-.002607,
.015,-.002,
.015,0.0,
0.0*
%
%ADD46MACRO46*%
%AMMACRO62*
4,1,40,.029,.011,
.029,-.011,
.028881,-.012873,
.028439,-.014698,
.027687,-.016417,
.026648,-.01798,
.025353,-.019339,
.023842,-.020452,
.02216,-.021286,
.020359,-.021816,
.019,-.022,
-.019,-.022,
-.020854,-.021704,
-.022628,-.021091,
-.024268,-.020178,
-.025725,-.018995,
-.026955,-.017577,
-.027919,-.015967,
-.02859,-.014214,
-.028946,-.01237,
-.029,-.011,
-.029,.011,
-.028881,.012873,
-.028439,.014698,
-.027687,.016417,
-.026648,.01798,
-.025353,.019339,
-.023842,.020452,
-.02216,.021286,
-.020359,.021816,
-.019,.022,
.019,.022,
.020854,.021704,
.022628,.021091,
.024268,.020178,
.025725,.018995,
.026955,.017577,
.027919,.015967,
.02859,.014214,
.028946,.01237,
.029,.011,
0.0*
%
%ADD62MACRO62*%
%AMMACRO74*
4,1,41,.023,0.0,
.023,.011,
.022821,.01292,
.022311,.01478,
.021486,.016523,
.020371,.018097,
.018999,.019453,
.017413,.02055,
.01566,.021355,
.013795,.021843,
.012,.022,
-.012,.022,
-.01392,.021821,
-.01578,.021311,
-.017523,.020486,
-.019097,.019371,
-.020453,.017999,
-.02155,.016413,
-.022355,.01466,
-.022843,.012795,
-.023,.011,
-.023,-.011,
-.022821,-.01292,
-.022311,-.01478,
-.021486,-.016523,
-.020371,-.018097,
-.018999,-.019453,
-.017413,-.02055,
-.01566,-.021355,
-.013795,-.021843,
-.012,-.022,
.012,-.022,
.01392,-.021821,
.01578,-.021311,
.017523,-.020486,
.019097,-.019371,
.020453,-.017999,
.02155,-.016413,
.022355,-.01466,
.022843,-.012795,
.023,-.011,
.023,0.0,
0.0*
%
%ADD74MACRO74*%
%AMMACRO61*
4,1,45,.111,0.0,
.111,.013,
.110789,.015751,
.110104,.018424,
.108965,.020937,
.107407,.023215,
.105477,.025187,
.103234,.026794,
.100746,.027987,
.098089,.02873,
.095343,.029,
.095,.029,
-.095,.029,
-.097751,.028789,
-.100424,.028104,
-.102937,.026965,
-.105215,.025407,
-.107187,.023477,
-.108794,.021234,
-.109987,.018746,
-.11073,.016089,
-.111,.013343,
-.111,.013,
-.111,-.013,
-.110789,-.015751,
-.110104,-.018424,
-.108965,-.020937,
-.107407,-.023215,
-.105477,-.025187,
-.103234,-.026794,
-.100746,-.027987,
-.098089,-.02873,
-.095343,-.029,
-.095,-.029,
.095,-.029,
.097751,-.028789,
.100424,-.028104,
.102937,-.026965,
.105215,-.025407,
.107187,-.023477,
.108794,-.021234,
.109987,-.018746,
.11073,-.016089,
.111,-.013343,
.111,-.013,
.111,0.0,
0.0*
%
%ADD61MACRO61*%
%ADD78C,.0085*%
%ADD79C,.01*%
%ADD80C,.004*%
%ADD81C,.015*%
G75*
%LPD*%
G75*
G36*
G01X791300Y1004300D02*
X789400Y1013000D01*
Y1024000D01*
X824800D01*
Y1004300D01*
X791300D01*
G37*
G54D10*
X797200Y706700D03*
X918500Y708700D03*
X1007100Y706700D03*
X977560Y708700D03*
G54D11*
X817300Y701500D03*
X809500D03*
X825200D03*
X833100D03*
X809500Y721200D03*
X817300D03*
X825200D03*
X833100D03*
X888200Y701500D03*
X840900D03*
X848800D03*
X856700D03*
X864600D03*
X872400D03*
X880300D03*
Y721200D03*
X840900D03*
X848800D03*
X856700D03*
X864600D03*
X872400D03*
G54D20*
X791300Y1044100D03*
Y1050000D03*
X796100Y1044100D03*
Y1050000D03*
G54D21*
X802400Y1044900D03*
Y1046500D03*
Y1048100D03*
Y1049600D03*
Y1051200D03*
Y1052800D03*
Y1054400D03*
Y1055900D03*
Y1057500D03*
Y1059100D03*
Y1060600D03*
Y1062200D03*
Y1063800D03*
Y1065400D03*
Y1066900D03*
Y1068500D03*
Y1070100D03*
Y1071700D03*
Y1073300D03*
Y1074800D03*
Y1076400D03*
Y1078000D03*
Y1079600D03*
Y1081100D03*
Y1082700D03*
Y1084300D03*
Y1085900D03*
Y1087400D03*
Y1089000D03*
Y1090600D03*
Y1092100D03*
Y1093700D03*
X863000Y1068500D03*
Y1066900D03*
Y1065400D03*
Y1063800D03*
Y1062200D03*
Y1060600D03*
Y1059100D03*
Y1057500D03*
Y1055900D03*
Y1054400D03*
Y1052800D03*
Y1051200D03*
Y1049600D03*
Y1048100D03*
Y1046500D03*
Y1044900D03*
Y1093700D03*
Y1092100D03*
Y1090600D03*
Y1089000D03*
Y1087400D03*
Y1085900D03*
Y1084300D03*
Y1082700D03*
Y1081100D03*
Y1079600D03*
Y1078000D03*
Y1076400D03*
Y1074800D03*
Y1073300D03*
Y1071700D03*
Y1070100D03*
G54D12*
X825600Y773500D03*
Y809300D03*
G54D30*
X831900Y1134600D03*
X830000D03*
X828000D03*
X831900Y1132300D03*
X830000D03*
X828000D03*
G54D13*
X812600Y832400D03*
X822500Y872400D03*
Y882400D03*
Y892400D03*
X812500Y872400D03*
Y882400D03*
Y892400D03*
X836900Y856400D03*
Y846400D03*
X812600Y852400D03*
Y842400D03*
X822500Y902400D03*
Y912400D03*
Y922400D03*
Y932400D03*
Y942400D03*
Y952400D03*
X812500Y902400D03*
Y912400D03*
Y922400D03*
Y932400D03*
Y942400D03*
Y952400D03*
X822500Y962400D03*
X812500D03*
X832500Y1002400D03*
Y1012400D03*
X846900Y856400D03*
Y846400D03*
X842500Y1002400D03*
X852500D03*
X862500D03*
X872500D03*
X882500D03*
X892500D03*
X842500Y1012400D03*
X852500D03*
X862500D03*
X872500D03*
X882500D03*
X892500D03*
X902500Y1002400D03*
X912500D03*
X922500D03*
X932500D03*
X902500Y1012400D03*
X912500D03*
X922500D03*
X932500D03*
X992500Y832400D03*
X992600Y872400D03*
Y882400D03*
Y892400D03*
X982600Y872400D03*
Y882400D03*
Y892400D03*
X992500Y852400D03*
Y842400D03*
X992600Y902400D03*
Y912400D03*
Y922400D03*
Y932400D03*
Y942400D03*
Y952400D03*
X982600Y902400D03*
Y912400D03*
Y922400D03*
Y932400D03*
Y942400D03*
Y952400D03*
X992600Y962400D03*
X982600D03*
X983900Y1002400D03*
Y1012400D03*
Y1022400D03*
G54D22*
X833500Y1039000D03*
X831900D03*
X830400D03*
X828800D03*
X827200D03*
X825600D03*
X824000D03*
X822500D03*
X820900D03*
X819300D03*
X817700D03*
X816200D03*
X814600D03*
X813000D03*
X811400D03*
X809900D03*
X808300D03*
Y1099600D03*
X809900D03*
X811400D03*
X813000D03*
X814600D03*
X816200D03*
X817700D03*
X819300D03*
X820900D03*
X822500D03*
X824000D03*
X825600D03*
X827200D03*
X828800D03*
X830400D03*
X831900D03*
X833500D03*
X857100Y1039000D03*
X855500D03*
X854000D03*
X852400D03*
X850800D03*
X849200D03*
X847700D03*
X846100D03*
X844500D03*
X842900D03*
X841400D03*
X839800D03*
X838200D03*
X836700D03*
X835100D03*
Y1099600D03*
X836700D03*
X838200D03*
X839800D03*
X841400D03*
X842900D03*
X844500D03*
X846100D03*
X847700D03*
X849200D03*
X850800D03*
X852400D03*
X854000D03*
X855500D03*
X857100D03*
G54D31*
X797200Y1152400D03*
X1007100D03*
G54D40*
X836700Y829100D03*
Y823200D03*
X846900Y829000D03*
Y823100D03*
G54D32*
X816800Y1152100D03*
X847900D03*
G54D14*
X797500Y863000D03*
X1009000D03*
X987400Y1152000D03*
G54D23*
X835000Y1027600D03*
Y1030100D03*
Y1032700D03*
X843700D03*
Y1027600D03*
G54D41*
X877800Y827200D03*
Y836000D03*
X884600D03*
Y827200D03*
G54D50*
X854500Y1155100D03*
X881100D03*
G54D33*
X836000Y1152100D03*
X828600D03*
G54D24*
X799200Y1014200D03*
G54D15*
X797700Y983000D03*
Y992000D03*
X863300Y1152700D03*
X872300D03*
X1007400Y992200D03*
Y983200D03*
G54D51*
X901000Y833600D03*
X928400D03*
X901000Y835500D03*
Y837500D03*
Y839500D03*
Y841400D03*
Y843400D03*
Y845400D03*
Y847300D03*
Y849300D03*
Y851300D03*
Y853200D03*
Y855200D03*
X928400D03*
Y853200D03*
Y851300D03*
Y849300D03*
Y847300D03*
Y845400D03*
Y843400D03*
Y841400D03*
Y839500D03*
Y837500D03*
Y835500D03*
G54D60*
X898500Y821000D03*
X902400D03*
G54D42*
X874800Y778400D03*
X883300Y786900D03*
X890600Y796500D03*
X893600Y793800D03*
X946650Y768450D03*
X940750Y769350D03*
X912600Y802400D03*
X918750Y801750D03*
X923700Y788400D03*
X913150Y796250D03*
X934400Y781000D03*
G54D61*
X956200Y790400D03*
G54D34*
X822600Y1143100D03*
X842000D03*
G54D70*
X941700Y987400D03*
X939800D03*
X937800D03*
X939600Y1022300D03*
G54D52*
X925500Y830700D03*
X923600D03*
X921600D03*
X919600D03*
X917700D03*
X915700D03*
X913700D03*
X911800D03*
X909800D03*
X907800D03*
X905900D03*
X903900D03*
Y858100D03*
X905900D03*
X907800D03*
X909800D03*
X911800D03*
X913700D03*
X915700D03*
X917700D03*
X919600D03*
X921600D03*
X923600D03*
X925500D03*
G54D43*
X848900Y791400D03*
G54D16*
X802400Y979200D03*
Y995800D03*
G54D25*
X822400Y1033500D03*
X791300Y1040200D03*
X796100D03*
X809400Y1110700D03*
X802400Y1103100D03*
X796900Y1086600D03*
X796500Y1072500D03*
X805900Y1103200D03*
X875600Y769700D03*
X888200D03*
X887400Y815800D03*
Y819300D03*
X846900Y838100D03*
X836800Y837900D03*
X890800Y864700D03*
X871300Y1056300D03*
X886200Y1028000D03*
Y1034700D03*
X870500Y1028000D03*
Y1034700D03*
X849200Y1121700D03*
X856700D03*
X872800Y1073200D03*
X859400Y1109500D03*
X868900Y1073200D03*
X852800Y1121700D03*
X849200Y1137900D03*
X898500Y816300D03*
X906900Y816500D03*
X902900D03*
X910800Y816400D03*
X934000D03*
Y808700D03*
X894900Y864700D03*
X932700Y859900D03*
X904300Y868200D03*
X902000Y1028000D03*
Y1034700D03*
X972900Y824300D03*
Y832400D03*
X998800Y975600D03*
X972000Y1015800D03*
G54D80*
G01X793200Y692900D02*
X1012000D01*
G03X1017700Y698700I-101J5800D01*
G01Y756600D01*
X992000D01*
Y776300D01*
X967000D01*
Y804500D01*
X992000D01*
Y824200D01*
X1017700D01*
Y962600D01*
G03X1015000Y973000I-21120J67D01*
G02X1010000Y983000I116121J64310D01*
G02X1009100Y987100I9388J4210D01*
G01Y988900D01*
G02X1010400Y993400I13777J-1542D01*
G02X1014900Y1001800I104880J-50780D01*
G03X1017700Y1012200I-17505J10290D01*
G01Y1156800D01*
G03X1011900Y1162600I-5800J0D01*
G01X849600D01*
Y1157900D01*
X843300D01*
Y1149600D01*
X839800D01*
Y1157900D01*
X824800D01*
Y1149600D01*
X821300D01*
Y1157900D01*
X815000D01*
Y1162600D01*
X793200D01*
G03X787400Y1156900I0J-5801D01*
G01Y1012200D01*
G03X790400Y1001800I19349J-51D01*
G02X795200Y992200I-45104J-28552D01*
G02X796100Y987900I-13089J-4984D01*
G01Y987600D01*
G02X795400Y982700I-18821J189D01*
G02X790700Y973000I-29217J8168D01*
G03X787400Y962800I14077J-10188D01*
G01Y824200D01*
X813100D01*
Y805500D01*
X838100D01*
Y777300D01*
X813100D01*
Y758600D01*
X787400D01*
Y698700D01*
G03X793200Y692900I5800J0D01*
G54D62*
X909900Y874000D03*
Y867700D03*
G54D17*
X795300Y974200D03*
Y1000800D03*
G54D71*
X979500Y772500D03*
Y808300D03*
G54D26*
X822400Y1029900D03*
X791300Y1036600D03*
X796100D03*
X796500Y1068900D03*
X809400Y1107100D03*
X802400Y1099500D03*
X796900Y1083000D03*
X805900Y1099600D03*
X875600Y766100D03*
X888200D03*
X887400Y812200D03*
Y815700D03*
X846900Y834500D03*
X836800Y834300D03*
X890800Y861100D03*
X871300Y1052700D03*
X886200Y1024400D03*
Y1031100D03*
X870500Y1024400D03*
Y1031100D03*
X849200Y1118100D03*
X856700D03*
X872800Y1069600D03*
X859400Y1105900D03*
X868900Y1069600D03*
X852800Y1118100D03*
X849200Y1134300D03*
X898500Y812700D03*
X906900Y812900D03*
X902900D03*
X910800Y812800D03*
X934000D03*
Y805100D03*
X894900Y861100D03*
X932700Y856300D03*
X904300Y864600D03*
X902000Y1024400D03*
Y1031100D03*
X972900Y820700D03*
Y828800D03*
X998800Y972000D03*
X972000Y1012200D03*
G54D44*
X894100Y875000D03*
Y869500D03*
G54D35*
X834900Y1141700D03*
X832300D03*
X829800D03*
X827200D03*
X837400D03*
G54D53*
X914700Y844400D03*
G54D81*
G01X680000Y610000D02*
X1110000D01*
Y530000D01*
X680000D01*
Y610000D01*
G01Y583500D02*
X1110000D01*
G01X680000Y557000D02*
X1110000D01*
G01X850000Y583500D02*
Y530000D01*
G01X924000Y557000D02*
Y530000D01*
G01X1026500Y557000D02*
Y530000D01*
G54D36*
X888200Y756300D03*
G54D72*
X980000Y827700D03*
G54D27*
X825300Y1112600D03*
X816600D03*
Y1119300D03*
X825300D03*
G54D63*
X951200Y872400D03*
Y882300D03*
Y892500D03*
Y902400D03*
X957500Y872400D03*
Y882300D03*
Y892500D03*
Y902400D03*
G54D45*
X892500Y1023900D03*
Y1033600D03*
X865700Y1023900D03*
X864200D03*
X862600D03*
X861000D03*
Y1033600D03*
X862600D03*
X864200D03*
X865700D03*
X881500Y1023900D03*
X880000D03*
X878400D03*
X876800D03*
Y1033600D03*
X878400D03*
X880000D03*
X881500D03*
X897200Y1023900D03*
X895700D03*
X894100D03*
Y1033600D03*
X895700D03*
X897200D03*
G54D54*
X927500Y815500D03*
Y805700D03*
G54D18*
X807500Y979100D03*
X804700Y1029900D03*
Y1033500D03*
X792900Y1057500D03*
Y1061000D03*
X814900Y1029900D03*
X792900Y1064600D03*
X826400Y1033500D03*
Y1029900D03*
X814900Y1033500D03*
X833500Y1113800D03*
X816900Y1107300D03*
X824700Y1107400D03*
X835400Y1131100D03*
X880300Y766100D03*
X883900Y815700D03*
X892500Y829300D03*
X882900Y876500D03*
Y880900D03*
X890900Y842200D03*
X891300Y839200D03*
X869300Y1018900D03*
X848400Y1033100D03*
X863000Y1105900D03*
X870000Y1081900D03*
Y1096100D03*
X870500Y1085400D03*
Y1089000D03*
X870000Y1092500D03*
X843600Y1105900D03*
Y1109800D03*
X851200D03*
Y1105900D03*
X856200Y1142900D03*
X947900Y758900D03*
X932700Y833100D03*
X933100Y852000D03*
X924400Y1020700D03*
X977000Y818400D03*
X974600Y836700D03*
X953900Y1009100D03*
G54D46*
X891700Y1026400D03*
Y1028000D03*
Y1029500D03*
Y1031100D03*
X860200Y1026400D03*
Y1028000D03*
Y1029500D03*
Y1031100D03*
X866600D03*
Y1029500D03*
Y1028000D03*
X876000Y1026400D03*
Y1028000D03*
Y1029500D03*
Y1031100D03*
X882400D03*
Y1029500D03*
Y1028000D03*
X898100Y1031100D03*
Y1029500D03*
Y1028000D03*
G54D73*
X982900Y832400D03*
X980900D03*
X979000D03*
X977000D03*
X982900Y823000D03*
X980900D03*
X979000D03*
X977000D03*
G54D64*
X904100Y879900D03*
X909600D03*
G54D55*
X906200Y808900D03*
X904700D03*
X906200Y805000D03*
X904700D03*
G54D28*
X833500Y1118700D03*
Y1121300D03*
Y1123800D03*
Y1126400D03*
X845300Y1118700D03*
Y1121300D03*
Y1123800D03*
Y1126400D03*
G54D19*
X811100Y979100D03*
X808300Y1029900D03*
Y1033500D03*
X796500Y1057500D03*
Y1061000D03*
X818500Y1029900D03*
X796500Y1064600D03*
X830000Y1033500D03*
Y1029900D03*
X818500Y1033500D03*
X820500Y1107300D03*
X828300Y1107400D03*
X883900Y766100D03*
X887500Y815700D03*
X886500Y876500D03*
Y880900D03*
X872900Y1018900D03*
X852000Y1033100D03*
X866600Y1105900D03*
X873600Y1081900D03*
Y1096100D03*
X874100Y1085400D03*
Y1089000D03*
X873600Y1092500D03*
X847200Y1105900D03*
Y1109800D03*
X854800D03*
X837100Y1113800D03*
X854800Y1105900D03*
X859800Y1142900D03*
X839000Y1131100D03*
X951500Y758900D03*
X896100Y829300D03*
X936300Y833100D03*
X894500Y842200D03*
X936700Y852000D03*
X894900Y839200D03*
X928000Y1020700D03*
X980600Y818400D03*
X978200Y836700D03*
X957500Y1009100D03*
G54D37*
X872250Y775850D03*
X880750Y784350D03*
X888050Y793950D03*
X891050Y791250D03*
X944100Y765900D03*
X938200Y766800D03*
X910050Y799850D03*
X916200Y799200D03*
X921150Y785850D03*
X910600Y793700D03*
X931850Y778450D03*
G54D74*
X960200Y968500D03*
Y962200D03*
G54D29*
X798200Y1106000D03*
X802200Y1136000D03*
X794200D03*
G54D38*
X866600Y770100D03*
X869150Y767550D03*
X869400Y772900D03*
X877800Y781400D03*
X886300Y789900D03*
X893900Y799800D03*
X937550Y772450D03*
X946500Y763400D03*
X900000Y800800D03*
X899550Y794250D03*
X928950Y782150D03*
X919050Y790750D03*
X922250Y793950D03*
G54D65*
X900000Y870500D03*
Y865000D03*
G54D56*
X908100Y807000D03*
G54D47*
X866100Y1026400D03*
X881900D03*
X897600D03*
G54D57*
X902800Y807000D03*
G54D66*
X952200Y1000400D03*
X947200D03*
X952200Y982300D03*
X947200D03*
X947300Y1015400D03*
X952300D03*
X947300Y1033500D03*
X952300D03*
X967200Y1000400D03*
X962200D03*
X957200D03*
X967200Y982300D03*
X962200D03*
X957200D03*
X957300Y1015400D03*
X962300D03*
X967300D03*
X957300Y1033500D03*
X962300D03*
X967300D03*
G54D75*
X953900Y962200D03*
Y968500D03*
G54D48*
X839400Y1122600D03*
G54D39*
X864050Y772650D03*
X866600Y770100D03*
X866850Y775450D03*
X875250Y783950D03*
X883750Y792450D03*
X891350Y802350D03*
X935000Y775000D03*
X943950Y765950D03*
X897450Y803350D03*
X897000Y796800D03*
X926400Y784700D03*
X916500Y793300D03*
X919700Y796500D03*
G54D58*
X903100Y808800D03*
X907800D03*
Y805100D03*
X903100D03*
G54D76*
X1002700Y996000D03*
Y979400D03*
G54D67*
X942700Y990400D03*
X942500Y1023300D03*
Y1025200D03*
Y1027200D03*
G54D49*
X859500Y1148000D03*
X876100D03*
G54D77*
X1009800Y1001000D03*
Y974400D03*
G54D68*
X936800Y990400D03*
X936600Y1023300D03*
Y1025200D03*
Y1027200D03*
G54D59*
X910800Y821100D03*
X906900D03*
G54D78*
G01X685170Y605880D02*
X684770Y606130D01*
X684300Y606300D01*
X683770D01*
X683170Y606050D01*
X682700Y605630D01*
X682370Y605130D01*
X682100Y604300D01*
X682030Y603550D01*
X682170Y602800D01*
X682370Y602300D01*
X682770Y601800D01*
X683230Y601470D01*
X683700Y601300D01*
X684170D01*
X684630Y601470D01*
X685030Y601720D01*
X685370Y602050D01*
G01X687230Y606300D02*
Y602720D01*
X687500Y601970D01*
X688030Y601470D01*
X688700Y601300D01*
X689370Y601470D01*
X689900Y601970D01*
X690170Y602720D01*
Y606300D01*
G01X692300Y601970D02*
X692830Y601550D01*
X693430Y601300D01*
X693970D01*
X694500Y601550D01*
X694900Y601970D01*
X695100Y602550D01*
X694970Y603130D01*
X694630Y603630D01*
X694030Y603970D01*
X693230Y604130D01*
X692770Y604470D01*
X692570Y605050D01*
X692700Y605630D01*
X693030Y606050D01*
X693500Y606300D01*
X693970D01*
X694430Y606130D01*
X694830Y605720D01*
G01X698700Y606300D02*
Y601300D01*
G01X697170Y606300D02*
X700230D01*
G01X703700Y601300D02*
X703170Y601380D01*
X702700Y601720D01*
X702300Y602220D01*
X702030Y602800D01*
X701900Y603470D01*
Y604130D01*
X702030Y604800D01*
X702300Y605380D01*
X702700Y605880D01*
X703170Y606220D01*
X703700Y606300D01*
X704230Y606220D01*
X704700Y605880D01*
X705100Y605380D01*
X705370Y604800D01*
X705500Y604130D01*
Y603470D01*
X705370Y602800D01*
X705100Y602220D01*
X704700Y601720D01*
X704230Y601380D01*
X703700Y601300D01*
G01X706970D02*
Y606300D01*
X708700Y602130D01*
X710430Y606300D01*
Y601300D01*
G01X715030D02*
X712370D01*
Y606300D01*
X715030D01*
G01X713970Y603880D02*
X712370D01*
G01X717370Y601300D02*
Y606300D01*
X719030D01*
X719570Y606050D01*
X719900Y605720D01*
X720030Y605050D01*
X719900Y604380D01*
X719500Y603970D01*
X719030Y603720D01*
X717370D01*
G01X719030D02*
X720030Y601300D01*
G01X723700Y601130D02*
X723570Y601220D01*
Y601380D01*
X723700Y601470D01*
X723830Y601380D01*
Y601220D01*
X723700Y601130D01*
G01Y603380D02*
X723570Y603470D01*
Y603630D01*
X723700Y603720D01*
X723830Y603630D01*
Y603470D01*
X723700Y603380D01*
G01X683730Y578470D02*
X684000Y578720D01*
X684200Y579130D01*
X684330Y579720D01*
X684200Y580220D01*
X683930Y580550D01*
X683470Y580800D01*
X681670D01*
Y575800D01*
X683870D01*
X684330Y576130D01*
X684600Y576630D01*
X684730Y577220D01*
X684600Y577800D01*
X684200Y578300D01*
X683730Y578470D01*
X681670D01*
G01X688200Y575800D02*
X687670Y575880D01*
X687200Y576220D01*
X686800Y576720D01*
X686530Y577300D01*
X686400Y577970D01*
Y578630D01*
X686530Y579300D01*
X686800Y579880D01*
X687200Y580380D01*
X687670Y580720D01*
X688200Y580800D01*
X688730Y580720D01*
X689200Y580380D01*
X689600Y579880D01*
X689870Y579300D01*
X690000Y578630D01*
Y577970D01*
X689870Y577300D01*
X689600Y576720D01*
X689200Y576220D01*
X688730Y575880D01*
X688200Y575800D01*
G01X691530D02*
X693200Y580800D01*
X694870Y575800D01*
G01X694270Y577550D02*
X692130D01*
G01X696870Y575800D02*
Y580800D01*
X698530D01*
X699070Y580550D01*
X699400Y580220D01*
X699530Y579550D01*
X699400Y578880D01*
X699000Y578470D01*
X698530Y578220D01*
X696870D01*
G01X698530D02*
X699530Y575800D01*
G01X701730D02*
Y580800D01*
X703070D01*
X703600Y580550D01*
X704000Y580220D01*
X704330Y579720D01*
X704600Y579130D01*
X704670Y578300D01*
X704600Y577470D01*
X704330Y576880D01*
X704000Y576380D01*
X703600Y576050D01*
X703070Y575800D01*
X701730D01*
G01X711670D02*
Y580800D01*
X714730Y575800D01*
Y580800D01*
G01X716530Y575800D02*
X718200Y580800D01*
X719870Y575800D01*
G01X719270Y577550D02*
X717130D01*
G01X721470Y575800D02*
Y580800D01*
X723200Y576630D01*
X724930Y580800D01*
Y575800D01*
G01X729530D02*
X726870D01*
Y580800D01*
X729530D01*
G01X728470Y578380D02*
X726870D01*
G01X733200Y575630D02*
X733070Y575720D01*
Y575880D01*
X733200Y575970D01*
X733330Y575880D01*
Y575720D01*
X733200Y575630D01*
G01Y577880D02*
X733070Y577970D01*
Y578130D01*
X733200Y578220D01*
X733330Y578130D01*
Y577970D01*
X733200Y577880D01*
G01X682370Y549500D02*
Y554500D01*
X683970D01*
X684500Y554250D01*
X684900Y553670D01*
X685030Y553000D01*
X684900Y552330D01*
X684570Y551830D01*
X683970Y551580D01*
X682370D01*
G01X687370Y549500D02*
Y554500D01*
X689030D01*
X689570Y554250D01*
X689900Y553920D01*
X690030Y553250D01*
X689900Y552580D01*
X689500Y552170D01*
X689030Y551920D01*
X687370D01*
G01X689030D02*
X690030Y549500D01*
G01X693700D02*
X693170Y549580D01*
X692700Y549920D01*
X692300Y550420D01*
X692030Y551000D01*
X691900Y551670D01*
Y552330D01*
X692030Y553000D01*
X692300Y553580D01*
X692700Y554080D01*
X693170Y554420D01*
X693700Y554500D01*
X694230Y554420D01*
X694700Y554080D01*
X695100Y553580D01*
X695370Y553000D01*
X695500Y552330D01*
Y551670D01*
X695370Y551000D01*
X695100Y550420D01*
X694700Y549920D01*
X694230Y549580D01*
X693700Y549500D01*
G01X697370Y550500D02*
X697700Y550000D01*
X698100Y549670D01*
X698570Y549500D01*
X699100Y549670D01*
X699500Y550000D01*
X699900Y550500D01*
X700030Y551170D01*
Y554500D01*
G01X705030Y549500D02*
X702370D01*
Y554500D01*
X705030D01*
G01X703970Y552080D02*
X702370D01*
G01X710170Y554080D02*
X709770Y554330D01*
X709300Y554500D01*
X708770D01*
X708170Y554250D01*
X707700Y553830D01*
X707370Y553330D01*
X707100Y552500D01*
X707030Y551750D01*
X707170Y551000D01*
X707370Y550500D01*
X707770Y550000D01*
X708230Y549670D01*
X708700Y549500D01*
X709170D01*
X709630Y549670D01*
X710030Y549920D01*
X710370Y550250D01*
G01X713700Y554500D02*
Y549500D01*
G01X712170Y554500D02*
X715230D01*
G01X722170Y549500D02*
Y554500D01*
X725230Y549500D01*
Y554500D01*
G01X728700Y549500D02*
X728170Y549580D01*
X727700Y549920D01*
X727300Y550420D01*
X727030Y551000D01*
X726900Y551670D01*
Y552330D01*
X727030Y553000D01*
X727300Y553580D01*
X727700Y554080D01*
X728170Y554420D01*
X728700Y554500D01*
X729230Y554420D01*
X729700Y554080D01*
X730100Y553580D01*
X730370Y553000D01*
X730500Y552330D01*
Y551670D01*
X730370Y551000D01*
X730100Y550420D01*
X729700Y549920D01*
X729230Y549580D01*
X728700Y549500D01*
G01X733700Y549330D02*
X733570Y549420D01*
Y549580D01*
X733700Y549670D01*
X733830Y549580D01*
Y549420D01*
X733700Y549330D01*
G01Y551580D02*
X733570Y551670D01*
Y551830D01*
X733700Y551920D01*
X733830Y551830D01*
Y551670D01*
X733700Y551580D01*
G01X852170Y581300D02*
Y576300D01*
X854830D01*
G01X856830D02*
X858500Y581300D01*
X860170Y576300D01*
G01X859570Y578050D02*
X857430D01*
G01X863500Y576300D02*
Y578550D01*
X862170Y581300D01*
G01X864830D02*
X863500Y578550D01*
G01X869830Y576300D02*
X867170D01*
Y581300D01*
X869830D01*
G01X868770Y578880D02*
X867170D01*
G01X872170Y576300D02*
Y581300D01*
X873830D01*
X874370Y581050D01*
X874700Y580720D01*
X874830Y580050D01*
X874700Y579380D01*
X874300Y578970D01*
X873830Y578720D01*
X872170D01*
G01X873830D02*
X874830Y576300D01*
G01X881970D02*
Y581300D01*
X885030Y576300D01*
Y581300D01*
G01X886830Y576300D02*
X888500Y581300D01*
X890170Y576300D01*
G01X889570Y578050D02*
X887430D01*
G01X891770Y576300D02*
Y581300D01*
X893500Y577130D01*
X895230Y581300D01*
Y576300D01*
G01X899830D02*
X897170D01*
Y581300D01*
X899830D01*
G01X898770Y578880D02*
X897170D01*
G01X903500Y576130D02*
X903370Y576220D01*
Y576380D01*
X903500Y576470D01*
X903630Y576380D01*
Y576220D01*
X903500Y576130D01*
G01Y578380D02*
X903370Y578470D01*
Y578630D01*
X903500Y578720D01*
X903630Y578630D01*
Y578470D01*
X903500Y578380D01*
G01X855830Y550770D02*
X856100Y551020D01*
X856300Y551430D01*
X856430Y552020D01*
X856300Y552520D01*
X856030Y552850D01*
X855570Y553100D01*
X853770D01*
Y548100D01*
X855970D01*
X856430Y548430D01*
X856700Y548930D01*
X856830Y549520D01*
X856700Y550100D01*
X856300Y550600D01*
X855830Y550770D01*
X853770D01*
G01X860300Y548100D02*
X859770Y548180D01*
X859300Y548520D01*
X858900Y549020D01*
X858630Y549600D01*
X858500Y550270D01*
Y550930D01*
X858630Y551600D01*
X858900Y552180D01*
X859300Y552680D01*
X859770Y553020D01*
X860300Y553100D01*
X860830Y553020D01*
X861300Y552680D01*
X861700Y552180D01*
X861970Y551600D01*
X862100Y550930D01*
Y550270D01*
X861970Y549600D01*
X861700Y549020D01*
X861300Y548520D01*
X860830Y548180D01*
X860300Y548100D01*
G01X863630D02*
X865300Y553100D01*
X866970Y548100D01*
G01X866370Y549850D02*
X864230D01*
G01X868970Y548100D02*
Y553100D01*
X870630D01*
X871170Y552850D01*
X871500Y552520D01*
X871630Y551850D01*
X871500Y551180D01*
X871100Y550770D01*
X870630Y550520D01*
X868970D01*
G01X870630D02*
X871630Y548100D01*
G01X873830D02*
Y553100D01*
X875170D01*
X875700Y552850D01*
X876100Y552520D01*
X876430Y552020D01*
X876700Y551430D01*
X876770Y550600D01*
X876700Y549770D01*
X876430Y549180D01*
X876100Y548680D01*
X875700Y548350D01*
X875170Y548100D01*
X873830D01*
G01X883970D02*
Y553100D01*
X885630D01*
X886170Y552850D01*
X886500Y552520D01*
X886630Y551850D01*
X886500Y551180D01*
X886100Y550770D01*
X885630Y550520D01*
X883970D01*
G01X885630D02*
X886630Y548100D01*
G01X891630D02*
X888970D01*
Y553100D01*
X891630D01*
G01X890570Y550680D02*
X888970D01*
G01X893630Y553100D02*
X895300Y548100D01*
X896970Y553100D01*
G01X900300Y547930D02*
X900170Y548020D01*
Y548180D01*
X900300Y548270D01*
X900430Y548180D01*
Y548020D01*
X900300Y547930D01*
G01Y550180D02*
X900170Y550270D01*
Y550430D01*
X900300Y550520D01*
X900430Y550430D01*
Y550270D01*
X900300Y550180D01*
G01X928070Y548400D02*
Y553400D01*
X929730D01*
X930270Y553150D01*
X930600Y552820D01*
X930730Y552150D01*
X930600Y551480D01*
X930200Y551070D01*
X929730Y550820D01*
X928070D01*
G01X929730D02*
X930730Y548400D01*
G01X935730D02*
X933070D01*
Y553400D01*
X935730D01*
G01X934670Y550980D02*
X933070D01*
G01X938070Y553400D02*
Y548400D01*
X940730D01*
G01X945730D02*
X943070D01*
Y553400D01*
X945730D01*
G01X944670Y550980D02*
X943070D01*
G01X947730Y548400D02*
X949400Y553400D01*
X951070Y548400D01*
G01X950470Y550150D02*
X948330D01*
G01X953000Y549070D02*
X953530Y548650D01*
X954130Y548400D01*
X954670D01*
X955200Y548650D01*
X955600Y549070D01*
X955800Y549650D01*
X955670Y550230D01*
X955330Y550730D01*
X954730Y551070D01*
X953930Y551230D01*
X953470Y551570D01*
X953270Y552150D01*
X953400Y552730D01*
X953730Y553150D01*
X954200Y553400D01*
X954670D01*
X955130Y553230D01*
X955530Y552820D01*
G01X960730Y548400D02*
X958070D01*
Y553400D01*
X960730D01*
G01X959670Y550980D02*
X958070D01*
G01X967930Y548400D02*
Y553400D01*
X969270D01*
X969800Y553150D01*
X970200Y552820D01*
X970530Y552320D01*
X970800Y551730D01*
X970870Y550900D01*
X970800Y550070D01*
X970530Y549480D01*
X970200Y548980D01*
X969800Y548650D01*
X969270Y548400D01*
X967930D01*
G01X972730D02*
X974400Y553400D01*
X976070Y548400D01*
G01X975470Y550150D02*
X973330D01*
G01X979400Y553400D02*
Y548400D01*
G01X977870Y553400D02*
X980930D01*
G01X985730Y548400D02*
X983070D01*
Y553400D01*
X985730D01*
G01X984670Y550980D02*
X983070D01*
G01X989400Y548230D02*
X989270Y548320D01*
Y548480D01*
X989400Y548570D01*
X989530Y548480D01*
Y548320D01*
X989400Y548230D01*
G01Y550480D02*
X989270Y550570D01*
Y550730D01*
X989400Y550820D01*
X989530Y550730D01*
Y550570D01*
X989400Y550480D01*
G01X1054200Y538000D02*
X1053670Y538080D01*
X1053200Y538420D01*
X1052800Y538920D01*
X1052530Y539500D01*
X1052400Y540170D01*
Y540830D01*
X1052530Y541500D01*
X1052800Y542080D01*
X1053200Y542580D01*
X1053670Y542920D01*
X1054200Y543000D01*
X1054730Y542920D01*
X1055200Y542580D01*
X1055600Y542080D01*
X1055870Y541500D01*
X1056000Y540830D01*
Y540170D01*
X1055870Y539500D01*
X1055600Y538920D01*
X1055200Y538420D01*
X1054730Y538080D01*
X1054200Y538000D01*
G01X1057930D02*
Y543000D01*
X1060470D01*
G01X1059530Y540580D02*
X1057930D01*
G01X1029800Y549870D02*
X1030330Y549450D01*
X1030930Y549200D01*
X1031470D01*
X1032000Y549450D01*
X1032400Y549870D01*
X1032600Y550450D01*
X1032470Y551030D01*
X1032130Y551530D01*
X1031530Y551870D01*
X1030730Y552030D01*
X1030270Y552370D01*
X1030070Y552950D01*
X1030200Y553530D01*
X1030530Y553950D01*
X1031000Y554200D01*
X1031470D01*
X1031930Y554030D01*
X1032330Y553620D01*
G01X1034800Y549200D02*
Y554200D01*
G01X1037600D02*
Y549200D01*
G01Y551700D02*
X1034800D01*
G01X1042530Y549200D02*
X1039870D01*
Y554200D01*
X1042530D01*
G01X1041470Y551780D02*
X1039870D01*
G01X1047530Y549200D02*
X1044870D01*
Y554200D01*
X1047530D01*
G01X1046470Y551780D02*
X1044870D01*
G01X1051200Y554200D02*
Y549200D01*
G01X1049670Y554200D02*
X1052730D01*
G01X1059670Y549200D02*
Y554200D01*
X1062730Y549200D01*
Y554200D01*
G01X1066200Y549200D02*
X1065670Y549280D01*
X1065200Y549620D01*
X1064800Y550120D01*
X1064530Y550700D01*
X1064400Y551370D01*
Y552030D01*
X1064530Y552700D01*
X1064800Y553280D01*
X1065200Y553780D01*
X1065670Y554120D01*
X1066200Y554200D01*
X1066730Y554120D01*
X1067200Y553780D01*
X1067600Y553280D01*
X1067870Y552700D01*
X1068000Y552030D01*
Y551370D01*
X1067870Y550700D01*
X1067600Y550120D01*
X1067200Y549620D01*
X1066730Y549280D01*
X1066200Y549200D01*
G01X1071200Y549030D02*
X1071070Y549120D01*
Y549280D01*
X1071200Y549370D01*
X1071330Y549280D01*
Y549120D01*
X1071200Y549030D01*
G01Y551280D02*
X1071070Y551370D01*
Y551530D01*
X1071200Y551620D01*
X1071330Y551530D01*
Y551370D01*
X1071200Y551280D01*
G54D69*
X941700Y993300D03*
X939800D03*
X937800D03*
X939600Y1028200D03*
G54D79*
G01X705400Y543200D02*
X706450Y536200D01*
X707650Y543200D01*
X708850Y536200D01*
X709900Y543200D01*
G01X715600Y542620D02*
X715150Y542970D01*
X714630Y543200D01*
X714030D01*
X713350Y542850D01*
X712830Y542270D01*
X712450Y541570D01*
X712150Y540400D01*
X712070Y539350D01*
X712230Y538300D01*
X712450Y537600D01*
X712900Y536900D01*
X713430Y536430D01*
X713950Y536200D01*
X714470D01*
X715000Y536430D01*
X715450Y536780D01*
X715830Y537250D01*
G01X718670Y537130D02*
X719280Y536550D01*
X719950Y536200D01*
X720550D01*
X721150Y536550D01*
X721600Y537130D01*
X721830Y537950D01*
X721680Y538770D01*
X721300Y539470D01*
X720620Y539930D01*
X719730Y540170D01*
X719200Y540630D01*
X718970Y541450D01*
X719130Y542270D01*
X719500Y542850D01*
X720020Y543200D01*
X720550D01*
X721080Y542970D01*
X721530Y542380D01*
G01X726550Y543200D02*
X725950Y542970D01*
X725500Y542380D01*
X725200Y541680D01*
X724970Y540750D01*
X724900Y539700D01*
X724970Y538650D01*
X725200Y537720D01*
X725500Y537020D01*
X725950Y536430D01*
X726550Y536200D01*
X727150Y536430D01*
X727600Y537020D01*
X727900Y537720D01*
X728130Y538650D01*
X728200Y539700D01*
X728130Y540750D01*
X727900Y541680D01*
X727600Y542380D01*
X727150Y542970D01*
X726550Y543200D01*
G01X731200Y537600D02*
X731650Y536780D01*
X732250Y536320D01*
X732930Y536200D01*
X733530Y536320D01*
X734130Y536900D01*
X734500Y537600D01*
X734570Y538300D01*
X734430Y539120D01*
X733900Y539700D01*
X733370Y539930D01*
X732700D01*
G01X733370D02*
X733820Y540280D01*
X734200Y540870D01*
X734350Y541570D01*
X734200Y542270D01*
X733820Y542850D01*
X733150Y543200D01*
X732480Y543080D01*
X731800Y542620D01*
G01X740050Y536200D02*
Y543200D01*
X737270Y538180D01*
X741030D01*
G01X707850Y595800D02*
Y588800D01*
G01X706130Y595800D02*
X709570D01*
G01X715650Y588800D02*
X712650D01*
Y595800D01*
X715650D01*
G01X714450Y592420D02*
X712650D01*
G01X718870Y588800D02*
X722030Y595800D01*
G01X718870D02*
X722030Y588800D01*
G01X724870D02*
X726750Y595800D01*
X728630Y588800D01*
G01X727950Y591250D02*
X725550D01*
G01X731470Y589730D02*
X732080Y589150D01*
X732750Y588800D01*
X733350D01*
X733950Y589150D01*
X734400Y589730D01*
X734630Y590550D01*
X734480Y591370D01*
X734100Y592070D01*
X733420Y592530D01*
X732530Y592770D01*
X732000Y593230D01*
X731770Y594050D01*
X731930Y594870D01*
X732300Y595450D01*
X732820Y595800D01*
X733350D01*
X733880Y595570D01*
X734330Y594980D01*
G01X744750Y595800D02*
X746550D01*
G01X745650D02*
Y588800D01*
G01X744750D02*
X746550D01*
G01X750230D02*
Y595800D01*
X753670Y588800D01*
Y595800D01*
G01X756670Y589730D02*
X757280Y589150D01*
X757950Y588800D01*
X758550D01*
X759150Y589150D01*
X759600Y589730D01*
X759830Y590550D01*
X759680Y591370D01*
X759300Y592070D01*
X758620Y592530D01*
X757730Y592770D01*
X757200Y593230D01*
X756970Y594050D01*
X757130Y594870D01*
X757500Y595450D01*
X758020Y595800D01*
X758550D01*
X759080Y595570D01*
X759530Y594980D01*
G01X764550Y595800D02*
Y588800D01*
G01X762830Y595800D02*
X766270D01*
G01X769350Y588800D02*
Y595800D01*
X771220D01*
X771820Y595450D01*
X772200Y594980D01*
X772350Y594050D01*
X772200Y593120D01*
X771750Y592530D01*
X771220Y592180D01*
X769350D01*
G01X771220D02*
X772350Y588800D01*
G01X775500Y595800D02*
Y590780D01*
X775800Y589730D01*
X776400Y589030D01*
X777150Y588800D01*
X777900Y589030D01*
X778500Y589730D01*
X778800Y590780D01*
Y595800D01*
G01X781500Y588800D02*
Y595800D01*
X783450Y589970D01*
X785400Y595800D01*
Y588800D01*
G01X791250D02*
X788250D01*
Y595800D01*
X791250D01*
G01X790050Y592420D02*
X788250D01*
G01X794330Y588800D02*
Y595800D01*
X797770Y588800D01*
Y595800D01*
G01X802350D02*
Y588800D01*
G01X800630Y595800D02*
X804070D01*
G01X807070Y589730D02*
X807680Y589150D01*
X808350Y588800D01*
X808950D01*
X809550Y589150D01*
X810000Y589730D01*
X810230Y590550D01*
X810080Y591370D01*
X809700Y592070D01*
X809020Y592530D01*
X808130Y592770D01*
X807600Y593230D01*
X807370Y594050D01*
X807530Y594870D01*
X807900Y595450D01*
X808420Y595800D01*
X808950D01*
X809480Y595570D01*
X809930Y594980D01*
G01X706650Y570800D02*
Y563800D01*
X709650D01*
G01X712570D02*
X714450Y570800D01*
X716330Y563800D01*
G01X715650Y566250D02*
X713250D01*
G01X719100Y570800D02*
Y565780D01*
X719400Y564730D01*
X720000Y564030D01*
X720750Y563800D01*
X721500Y564030D01*
X722100Y564730D01*
X722400Y565780D01*
Y570800D01*
G01X725330Y563800D02*
Y570800D01*
X728770Y563800D01*
Y570800D01*
G01X735000Y570220D02*
X734550Y570570D01*
X734030Y570800D01*
X733430D01*
X732750Y570450D01*
X732230Y569870D01*
X731850Y569170D01*
X731550Y568000D01*
X731470Y566950D01*
X731630Y565900D01*
X731850Y565200D01*
X732300Y564500D01*
X732830Y564030D01*
X733350Y563800D01*
X733870D01*
X734400Y564030D01*
X734850Y564380D01*
X735230Y564850D01*
G01X738070Y563800D02*
Y570800D01*
G01X741230D02*
Y563800D01*
G01Y567300D02*
X738070D01*
G01X744370Y563800D02*
X747530Y570800D01*
G01X744370D02*
X747530Y563800D01*
G01X750750Y570800D02*
Y563800D01*
X753750D01*
G01X757580Y566130D02*
X759520D01*
G01X766500Y570220D02*
X766050Y570570D01*
X765530Y570800D01*
X764930D01*
X764250Y570450D01*
X763730Y569870D01*
X763350Y569170D01*
X763050Y568000D01*
X762970Y566950D01*
X763130Y565900D01*
X763350Y565200D01*
X763800Y564500D01*
X764330Y564030D01*
X764850Y563800D01*
X765370D01*
X765900Y564030D01*
X766350Y564380D01*
X766730Y564850D01*
G01X772800Y570220D02*
X772350Y570570D01*
X771830Y570800D01*
X771230D01*
X770550Y570450D01*
X770030Y569870D01*
X769650Y569170D01*
X769350Y568000D01*
X769270Y566950D01*
X769430Y565900D01*
X769650Y565200D01*
X770100Y564500D01*
X770630Y564030D01*
X771150Y563800D01*
X771670D01*
X772200Y564030D01*
X772650Y564380D01*
X773030Y564850D01*
G01X777450Y563800D02*
Y570800D01*
X776550Y569400D01*
G01Y563800D02*
X778350D01*
G01X782100Y565200D02*
X782550Y564380D01*
X783150Y563920D01*
X783830Y563800D01*
X784430Y563920D01*
X785030Y564500D01*
X785400Y565200D01*
X785470Y565900D01*
X785330Y566720D01*
X784800Y567300D01*
X784270Y567530D01*
X783600D01*
G01X784270D02*
X784720Y567880D01*
X785100Y568470D01*
X785250Y569170D01*
X785100Y569870D01*
X784720Y570450D01*
X784050Y570800D01*
X783380Y570680D01*
X782700Y570220D01*
G01X788400Y564850D02*
X788850Y564270D01*
X789370Y563920D01*
X790050Y563800D01*
X790730Y564030D01*
X791250Y564500D01*
X791630Y565320D01*
X791700Y566250D01*
X791550Y567180D01*
X791170Y567770D01*
X790650Y568230D01*
X790130Y568350D01*
X789600Y568230D01*
X788930Y567770D01*
X789150Y570800D01*
X791170D01*
G01X796350D02*
X795750Y570570D01*
X795300Y569980D01*
X795000Y569280D01*
X794770Y568350D01*
X794700Y567300D01*
X794770Y566250D01*
X795000Y565320D01*
X795300Y564620D01*
X795750Y564030D01*
X796350Y563800D01*
X796950Y564030D01*
X797400Y564620D01*
X797700Y565320D01*
X797930Y566250D01*
X798000Y567300D01*
X797930Y568350D01*
X797700Y569280D01*
X797400Y569980D01*
X796950Y570570D01*
X796350Y570800D01*
G01X801680Y566130D02*
X803620D01*
G01X809850Y563800D02*
Y570800D01*
X807070Y565780D01*
X810830D01*
G01X863570Y539600D02*
X865450Y546600D01*
X867330Y539600D01*
G01X866650Y542050D02*
X864250D01*
G01X947620Y545230D02*
X948080Y545930D01*
X948600Y546280D01*
X949200Y546400D01*
X949950Y546170D01*
X950480Y545580D01*
X950630Y544880D01*
X950550Y544180D01*
X950250Y543600D01*
X948750Y542430D01*
X948080Y541620D01*
X947620Y540450D01*
X947470Y539400D01*
X950630D01*
G01X955350Y546400D02*
X954750Y546170D01*
X954300Y545580D01*
X954000Y544880D01*
X953770Y543950D01*
X953700Y542900D01*
X953770Y541850D01*
X954000Y540920D01*
X954300Y540220D01*
X954750Y539630D01*
X955350Y539400D01*
X955950Y539630D01*
X956400Y540220D01*
X956700Y540920D01*
X956930Y541850D01*
X957000Y542900D01*
X956930Y543950D01*
X956700Y544880D01*
X956400Y545580D01*
X955950Y546170D01*
X955350Y546400D01*
G01X961650Y539400D02*
Y546400D01*
X960750Y545000D01*
G01Y539400D02*
X962550D01*
G01X967800D02*
X967950Y540920D01*
X968180Y542200D01*
X968470Y543370D01*
X968850Y544650D01*
X969450Y546400D01*
X966450D01*
G01X973280Y541730D02*
X975220D01*
G01X980550Y546400D02*
X979950Y546170D01*
X979500Y545580D01*
X979200Y544880D01*
X978970Y543950D01*
X978900Y542900D01*
X978970Y541850D01*
X979200Y540920D01*
X979500Y540220D01*
X979950Y539630D01*
X980550Y539400D01*
X981150Y539630D01*
X981600Y540220D01*
X981900Y540920D01*
X982130Y541850D01*
X982200Y542900D01*
X982130Y543950D01*
X981900Y544880D01*
X981600Y545580D01*
X981150Y546170D01*
X980550Y546400D01*
G01X986850Y539400D02*
Y546400D01*
X985950Y545000D01*
G01Y539400D02*
X987750D01*
G01X992180Y541730D02*
X994120D01*
G01X998020Y545230D02*
X998480Y545930D01*
X999000Y546280D01*
X999600Y546400D01*
X1000350Y546170D01*
X1000880Y545580D01*
X1001030Y544880D01*
X1000950Y544180D01*
X1000650Y543600D01*
X999150Y542430D01*
X998480Y541620D01*
X998020Y540450D01*
X997870Y539400D01*
X1001030D01*
G01X1004100Y540800D02*
X1004550Y539980D01*
X1005150Y539520D01*
X1005830Y539400D01*
X1006430Y539520D01*
X1007030Y540100D01*
X1007400Y540800D01*
X1007470Y541500D01*
X1007330Y542320D01*
X1006800Y542900D01*
X1006270Y543130D01*
X1005600D01*
G01X1006270D02*
X1006720Y543480D01*
X1007100Y544070D01*
X1007250Y544770D01*
X1007100Y545470D01*
X1006720Y546050D01*
X1006050Y546400D01*
X1005380Y546280D01*
X1004700Y545820D01*
G01X907870Y569530D02*
X908480Y568950D01*
X909150Y568600D01*
X909750D01*
X910350Y568950D01*
X910800Y569530D01*
X911030Y570350D01*
X910880Y571170D01*
X910500Y571870D01*
X909820Y572330D01*
X908930Y572570D01*
X908400Y573030D01*
X908170Y573850D01*
X908330Y574670D01*
X908700Y575250D01*
X909220Y575600D01*
X909750D01*
X910280Y575370D01*
X910730Y574780D01*
G01X915750Y568600D02*
X915300Y568720D01*
X914850Y569180D01*
X914550Y570000D01*
X914400Y570930D01*
X914550Y571870D01*
X914850Y572680D01*
X915300Y573150D01*
X915750Y573270D01*
X916200Y573150D01*
X916650Y572680D01*
X916950Y571870D01*
X917030Y570930D01*
X916950Y570000D01*
X916650Y569180D01*
X916200Y568720D01*
X915750Y568600D01*
G01X922050D02*
Y575600D01*
G01X929700D02*
Y568600D01*
G01Y569650D02*
X929400Y569070D01*
X928950Y568720D01*
X928430Y568600D01*
X927830Y568830D01*
X927380Y569420D01*
X927070Y570120D01*
X927000Y570930D01*
X927070Y571750D01*
X927380Y572450D01*
X927830Y573030D01*
X928430Y573270D01*
X928950Y573150D01*
X929320Y572920D01*
X929700Y572450D01*
G01X933530Y571750D02*
X935930D01*
X935700Y572570D01*
X935330Y573030D01*
X934800Y573270D01*
X934280Y573150D01*
X933820Y572800D01*
X933530Y571980D01*
X933370Y571280D01*
Y570580D01*
X933530Y569880D01*
X933900Y569180D01*
X934350Y568720D01*
X934880Y568600D01*
X935400Y568830D01*
X935930Y569530D01*
G01X939900Y568600D02*
Y573270D01*
G01Y572330D02*
X940270Y572800D01*
X940650Y573150D01*
X941180Y573270D01*
X941550Y573150D01*
X942000Y572800D01*
G01X945000Y568600D02*
Y573270D01*
G01Y571980D02*
X945220Y572570D01*
X945600Y573030D01*
X946130Y573270D01*
X946650Y573030D01*
X947020Y572570D01*
X947250Y571980D01*
Y568600D01*
G01Y571980D02*
X947480Y572570D01*
X947850Y573030D01*
X948370Y573270D01*
X948900Y573030D01*
X949280Y572570D01*
X949500Y571870D01*
Y568600D01*
G01X954900D02*
Y573270D01*
G01Y572450D02*
X954600Y572920D01*
X954150Y573150D01*
X953630Y573270D01*
X953100Y573030D01*
X952650Y572570D01*
X952350Y571870D01*
X952200Y570930D01*
X952350Y570000D01*
X952650Y569300D01*
X953100Y568830D01*
X953630Y568600D01*
X954150Y568720D01*
X954600Y569070D01*
X954900Y569530D01*
G01X958730Y569420D02*
X959100Y568950D01*
X959620Y568600D01*
X960080D01*
X960530Y568830D01*
X960820Y569180D01*
X960970Y569650D01*
X960900Y570350D01*
X960600Y570700D01*
X959250Y571400D01*
X958950Y572220D01*
X959100Y572800D01*
X959400Y573150D01*
X959850Y573270D01*
X960300Y573150D01*
X960750Y572800D01*
G01X964870Y568600D02*
Y575600D01*
G01X967270Y573270D02*
X964870Y570580D01*
G01X965850Y571630D02*
X967430Y568600D01*
G01X971480Y570930D02*
X973420D01*
G01X978750Y575600D02*
Y568600D01*
G01X977030Y575600D02*
X980470D01*
G01X985050Y568600D02*
X984600Y568720D01*
X984150Y569180D01*
X983850Y570000D01*
X983700Y570930D01*
X983850Y571870D01*
X984150Y572680D01*
X984600Y573150D01*
X985050Y573270D01*
X985500Y573150D01*
X985950Y572680D01*
X986250Y571870D01*
X986330Y570930D01*
X986250Y570000D01*
X985950Y569180D01*
X985500Y568720D01*
X985050Y568600D01*
G01X990000Y566270D02*
Y573270D01*
G01Y572220D02*
X990380Y572800D01*
X990750Y573150D01*
X991350Y573270D01*
X991870Y573150D01*
X992400Y572570D01*
X992630Y571750D01*
X992700Y570930D01*
X992630Y570120D01*
X992400Y569300D01*
X991950Y568830D01*
X991350Y568600D01*
X990830Y568720D01*
X990300Y569070D01*
X990000Y569530D01*
G01X1066850Y537700D02*
Y544700D01*
X1065950Y543300D01*
G01Y537700D02*
X1067750D01*
G01X1073150Y544700D02*
X1072550Y544470D01*
X1072100Y543880D01*
X1071800Y543180D01*
X1071570Y542250D01*
X1071500Y541200D01*
X1071570Y540150D01*
X1071800Y539220D01*
X1072100Y538520D01*
X1072550Y537930D01*
X1073150Y537700D01*
X1073750Y537930D01*
X1074200Y538520D01*
X1074500Y539220D01*
X1074730Y540150D01*
X1074800Y541200D01*
X1074730Y542250D01*
X1074500Y543180D01*
X1074200Y543880D01*
X1073750Y544470D01*
X1073150Y544700D01*
G01X1045600Y538150D02*
X1046050Y537570D01*
X1046570Y537220D01*
X1047250Y537100D01*
X1047930Y537330D01*
X1048450Y537800D01*
X1048830Y538620D01*
X1048900Y539550D01*
X1048750Y540480D01*
X1048370Y541070D01*
X1047850Y541530D01*
X1047330Y541650D01*
X1046800Y541530D01*
X1046130Y541070D01*
X1046350Y544100D01*
X1048370D01*
M02*
